%TF.GenerationSoftware,KiCad,Pcbnew,9.0.7*%
%TF.CreationDate,2026-08-11T12:32:06+01:00*%
%TF.ProjectId,lith,6c697468-2e6b-4696-9361-645f70636258,rev?*%
%TF.SameCoordinates,Original*%
%TF.FileFunction,Soldermask,Bot*%
%TF.FilePolarity,Negative*%
%FSLAX46Y46*%
G04 Gerber Fmt 4.6, Leading zero omitted, Abs format (unit mm)*
G04 Created by KiCad (PCBNEW 9.0.7) date 2026-08-11 12:32:06*
%MOMM*%
%LPD*%
G01*
G04 APERTURE LIST*
%ADD10C,1.300000*%
%ADD11R,1.524000X1.524000*%
%ADD12C,1.524000*%
%ADD13C,1.700000*%
%ADD14C,4.000000*%
%ADD15C,2.200000*%
%ADD16R,1.700000X1.700000*%
%ADD17C,1.200000*%
G04 APERTURE END LIST*
D10*
%TO.C,REF\u002A\u002A*%
X168200000Y-63200000D03*
%TD*%
%TO.C,REF\u002A\u002A*%
X114050000Y-63200000D03*
%TD*%
%TO.C,REF\u002A\u002A*%
X168150000Y-111900000D03*
%TD*%
D11*
%TO.C,U1*%
X133930000Y-61640000D03*
D12*
X133930000Y-64180000D03*
X133930000Y-66720000D03*
X133930000Y-69260000D03*
X133930000Y-71800000D03*
X133930000Y-74340000D03*
X133930000Y-76880000D03*
X133930000Y-79420000D03*
X133930000Y-81960000D03*
X149170000Y-81960000D03*
X149170000Y-79420000D03*
X149170000Y-76880000D03*
X149170000Y-74340000D03*
X149170000Y-71800000D03*
X149170000Y-69260000D03*
X149170000Y-66720000D03*
X149170000Y-64180000D03*
X149170000Y-61640000D03*
%TD*%
D13*
%TO.C,SWITCH B*%
X154030000Y-107480000D03*
D14*
X159110000Y-107480000D03*
D13*
X164190000Y-107480000D03*
D15*
X161650000Y-102400000D03*
X155300000Y-104940000D03*
%TD*%
D16*
%TO.C,SPARE I/O*%
X161500000Y-92000000D03*
D13*
X161500000Y-89460000D03*
X161500000Y-86920000D03*
X161500000Y-84380000D03*
X161500000Y-81840000D03*
X161500000Y-79300000D03*
%TD*%
D15*
%TO.C,SWITCH A*%
X124900000Y-104940000D03*
X131250000Y-102400000D03*
D13*
X133790000Y-107480000D03*
D14*
X128710000Y-107480000D03*
D13*
X123630000Y-107480000D03*
%TD*%
D17*
%TO.C,ENCODER*%
X118800000Y-62600000D03*
X118800000Y-64600000D03*
X118800000Y-66600000D03*
%TD*%
M02*
