%TF.GenerationSoftware,KiCad,Pcbnew,9.0.7*%
%TF.CreationDate,2026-08-11T12:32:06+01:00*%
%TF.ProjectId,lith,6c697468-2e6b-4696-9361-645f70636258,rev?*%
%TF.SameCoordinates,Original*%
%TF.FileFunction,Copper,L1,Top*%
%TF.FilePolarity,Positive*%
%FSLAX46Y46*%
G04 Gerber Fmt 4.6, Leading zero omitted, Abs format (unit mm)*
G04 Created by KiCad (PCBNEW 9.0.7) date 2026-08-11 12:32:06*
%MOMM*%
%LPD*%
G01*
G04 APERTURE LIST*
G04 Aperture macros list*
%AMRoundRect*
0 Rectangle with rounded corners*
0 $1 Rounding radius*
0 $2 $3 $4 $5 $6 $7 $8 $9 X,Y pos of 4 corners*
0 Add a 4 corners polygon primitive as box body*
4,1,4,$2,$3,$4,$5,$6,$7,$8,$9,$2,$3,0*
0 Add four circle primitives for the rounded corners*
1,1,$1+$1,$2,$3*
1,1,$1+$1,$4,$5*
1,1,$1+$1,$6,$7*
1,1,$1+$1,$8,$9*
0 Add four rect primitives between the rounded corners*
20,1,$1+$1,$2,$3,$4,$5,0*
20,1,$1+$1,$4,$5,$6,$7,0*
20,1,$1+$1,$6,$7,$8,$9,0*
20,1,$1+$1,$8,$9,$2,$3,0*%
G04 Aperture macros list end*
%TA.AperFunction,SMDPad,CuDef*%
%ADD10R,1.700000X1.700000*%
%TD*%
%TA.AperFunction,ComponentPad*%
%ADD11R,1.524000X1.524000*%
%TD*%
%TA.AperFunction,ComponentPad*%
%ADD12C,1.524000*%
%TD*%
%TA.AperFunction,SMDPad,CuDef*%
%ADD13RoundRect,0.200000X-0.275000X0.200000X-0.275000X-0.200000X0.275000X-0.200000X0.275000X0.200000X0*%
%TD*%
%TA.AperFunction,ComponentPad*%
%ADD14C,2.200000*%
%TD*%
%TA.AperFunction,SMDPad,CuDef*%
%ADD15RoundRect,0.150000X-0.150000X0.587500X-0.150000X-0.587500X0.150000X-0.587500X0.150000X0.587500X0*%
%TD*%
%TA.AperFunction,ComponentPad*%
%ADD16R,1.700000X1.700000*%
%TD*%
%TA.AperFunction,ComponentPad*%
%ADD17C,1.700000*%
%TD*%
%TA.AperFunction,SMDPad,CuDef*%
%ADD18R,1.200000X0.500000*%
%TD*%
%TA.AperFunction,SMDPad,CuDef*%
%ADD19R,1.500000X0.800000*%
%TD*%
%TA.AperFunction,SMDPad,CuDef*%
%ADD20RoundRect,0.225000X-0.225000X-0.250000X0.225000X-0.250000X0.225000X0.250000X-0.225000X0.250000X0*%
%TD*%
%TA.AperFunction,SMDPad,CuDef*%
%ADD21RoundRect,0.250000X-0.650000X1.000000X-0.650000X-1.000000X0.650000X-1.000000X0.650000X1.000000X0*%
%TD*%
%TA.AperFunction,SMDPad,CuDef*%
%ADD22RoundRect,0.225000X-0.250000X0.225000X-0.250000X-0.225000X0.250000X-0.225000X0.250000X0.225000X0*%
%TD*%
%TA.AperFunction,ComponentPad*%
%ADD23C,1.200000*%
%TD*%
%TA.AperFunction,ViaPad*%
%ADD24C,0.600000*%
%TD*%
%TA.AperFunction,Conductor*%
%ADD25C,0.200000*%
%TD*%
G04 APERTURE END LIST*
D10*
%TO.P,HAPTIC MOTOR,2,-*%
%TO.N,Q_C*%
X117320000Y-77840000D03*
%TO.P,HAPTIC MOTOR,1,+*%
%TO.N,+3V3*%
X117320000Y-75300000D03*
%TD*%
D11*
%TO.P,U1,1,VDD*%
%TO.N,+5V*%
X133930000Y-61640000D03*
D12*
%TO.P,U1,2,GND*%
%TO.N,GND*%
X133930000Y-64180000D03*
%TO.P,U1,3,3V3(OUT)*%
%TO.N,+3V3*%
X133930000Y-66720000D03*
%TO.P,U1,4,GPIO1*%
%TO.N,SW1*%
X133930000Y-69260000D03*
%TO.P,U1,5,GPIO2*%
%TO.N,SW2*%
X133930000Y-71800000D03*
%TO.P,U1,6,GPIO3*%
%TO.N,GPIO3*%
X133930000Y-74340000D03*
%TO.P,U1,7,GPIO4*%
%TO.N,ENCODER_A*%
X133930000Y-76880000D03*
%TO.P,U1,8,GPIO5*%
%TO.N,ENCODER_B*%
X133930000Y-79420000D03*
%TO.P,U1,9,GPIO6*%
%TO.N,MOTOR_PWM*%
X133930000Y-81960000D03*
%TO.P,U1,10,GPIO7*%
%TO.N,GPIO7*%
X149170000Y-81960000D03*
%TO.P,U1,11,GPIO8*%
%TO.N,DISP_BLK*%
X149170000Y-79420000D03*
%TO.P,U1,12,GPIO9*%
%TO.N,DISP_RES*%
X149170000Y-76880000D03*
%TO.P,U1,13,GPIO10*%
%TO.N,DISP_CS*%
X149170000Y-74340000D03*
%TO.P,U1,14,GPIO11*%
%TO.N,DISP_SDA*%
X149170000Y-71800000D03*
%TO.P,U1,15,GPIO12*%
%TO.N,DISP_SCL*%
X149170000Y-69260000D03*
%TO.P,U1,16,GPIO13*%
%TO.N,DISP_DC*%
X149170000Y-66720000D03*
%TO.P,U1,17,RX*%
%TO.N,RX*%
X149170000Y-64180000D03*
%TO.P,U1,18,TX*%
%TO.N,TX*%
X149170000Y-61640000D03*
%TD*%
D13*
%TO.P,R2,1*%
%TO.N,Q_B*%
X129350000Y-84025000D03*
%TO.P,R2,2*%
%TO.N,GND*%
X129350000Y-85675000D03*
%TD*%
D14*
%TO.P,SWITCH B,1,1*%
%TO.N,SW2*%
X161650000Y-102400000D03*
%TO.P,SWITCH B,2,2*%
%TO.N,GND*%
X155300000Y-104940000D03*
%TD*%
D15*
%TO.P,Q1,1,C*%
%TO.N,Q_C*%
X127450000Y-85362500D03*
%TO.P,Q1,2,B*%
%TO.N,Q_B*%
X125550000Y-85362500D03*
%TO.P,Q1,3,E*%
%TO.N,GND*%
X126500000Y-87237500D03*
%TD*%
D13*
%TO.P,R1,1*%
%TO.N,MOTOR_PWM*%
X129400000Y-80125000D03*
%TO.P,R1,2*%
%TO.N,Q_B*%
X129400000Y-81775000D03*
%TD*%
D16*
%TO.P,SPARE I/O,1,Pin_1*%
%TO.N,GND*%
X161500000Y-92000000D03*
D17*
%TO.P,SPARE I/O,2,Pin_2*%
%TO.N,+3V3*%
X161500000Y-89460000D03*
%TO.P,SPARE I/O,3,Pin_3*%
%TO.N,GPIO3*%
X161500000Y-86920000D03*
%TO.P,SPARE I/O,4,Pin_4*%
%TO.N,GPIO7*%
X161500000Y-84380000D03*
%TO.P,SPARE I/O,5,Pin_5*%
%TO.N,TX*%
X161500000Y-81840000D03*
%TO.P,SPARE I/O,6,Pin_6*%
%TO.N,RX*%
X161500000Y-79300000D03*
%TD*%
D18*
%TO.P,DISPLAY,1,Pin_1*%
%TO.N,GND*%
X162830000Y-62230000D03*
%TO.P,DISPLAY,2,Pin_2*%
%TO.N,+5V*%
X162830000Y-63230000D03*
%TO.P,DISPLAY,3,Pin_3*%
%TO.N,DISP_SCL*%
X162830000Y-64230000D03*
%TO.P,DISPLAY,4,Pin_4*%
%TO.N,DISP_SDA*%
X162830000Y-65230000D03*
%TO.P,DISPLAY,5,Pin_5*%
%TO.N,DISP_RES*%
X162830000Y-66230000D03*
%TO.P,DISPLAY,6,Pin_6*%
%TO.N,DISP_DC*%
X162830000Y-67230000D03*
%TO.P,DISPLAY,7,Pin_7*%
%TO.N,DISP_CS*%
X162830000Y-68230000D03*
%TO.P,DISPLAY,8,Pin_8*%
%TO.N,DISP_BLK*%
X162830000Y-69230000D03*
D19*
%TO.P,DISPLAY,9*%
%TO.N,N/C*%
X159890000Y-70430000D03*
%TO.P,DISPLAY,10*%
X159890000Y-61030000D03*
%TD*%
D20*
%TO.P,C2,1*%
%TO.N,ENCODER_B*%
X121725000Y-64300000D03*
%TO.P,C2,2*%
%TO.N,GND*%
X123275000Y-64300000D03*
%TD*%
%TO.P,C1,1*%
%TO.N,ENCODER_A*%
X121725000Y-66220000D03*
%TO.P,C1,2*%
%TO.N,GND*%
X123275000Y-66220000D03*
%TD*%
D14*
%TO.P,SWITCH A,2,2*%
%TO.N,GND*%
X124900000Y-104940000D03*
%TO.P,SWITCH A,1,1*%
%TO.N,SW1*%
X131250000Y-102400000D03*
%TD*%
D21*
%TO.P,D1,1,K*%
%TO.N,+3V3*%
X125560000Y-74665000D03*
%TO.P,D1,2,A*%
%TO.N,Q_C*%
X125560000Y-78665000D03*
%TD*%
D22*
%TO.P,C3,1*%
%TO.N,+3V3*%
X122070000Y-75700000D03*
%TO.P,C3,2*%
%TO.N,Q_C*%
X122070000Y-77250000D03*
%TD*%
D23*
%TO.P,ENCODER,1*%
%TO.N,GND*%
X118800000Y-62600000D03*
%TO.P,ENCODER,2*%
%TO.N,ENCODER_B*%
X118800000Y-64600000D03*
%TO.P,ENCODER,3*%
%TO.N,ENCODER_A*%
X118800000Y-66600000D03*
%TD*%
D24*
%TO.N,GND*%
X130620000Y-64220000D03*
%TO.N,Q_C*%
X126840000Y-83790000D03*
%TO.N,GND*%
X126400000Y-67200000D03*
X126300000Y-63300000D03*
X125600000Y-89250000D03*
X165900000Y-62200000D03*
X130500000Y-87900000D03*
%TO.N,SW2*%
X140130000Y-76450000D03*
X137550000Y-73060000D03*
%TO.N,GPIO3*%
X151000000Y-89000000D03*
X140000000Y-89000000D03*
X158800000Y-88920000D03*
X138000000Y-89000000D03*
%TO.N,TX*%
X155000000Y-65400000D03*
X158800000Y-73400000D03*
%TO.N,RX*%
X153500000Y-80700000D03*
X153500000Y-66000000D03*
%TO.N,ENCODER_A*%
X131360000Y-72140000D03*
X130290000Y-71120000D03*
%TO.N,ENCODER_B*%
X126530000Y-70440000D03*
X129569265Y-73579265D03*
%TO.N,DISP_DC*%
X155900000Y-67100000D03*
X161324265Y-67124265D03*
%TO.N,Q_C*%
X125550000Y-81350000D03*
%TD*%
D25*
%TO.N,+3V3*%
X133020000Y-66830000D02*
X133820000Y-66830000D01*
X131650000Y-68200000D02*
X133020000Y-66830000D01*
X131650000Y-70800000D02*
X131650000Y-68200000D01*
X129950000Y-72500000D02*
X131650000Y-70800000D01*
X125650000Y-72500000D02*
X129950000Y-72500000D01*
X125560000Y-74665000D02*
X125560000Y-72590000D01*
X125560000Y-72590000D02*
X125650000Y-72500000D01*
X133820000Y-66830000D02*
X133930000Y-66720000D01*
X161000000Y-89460000D02*
X161500000Y-89460000D01*
X157160000Y-91460000D02*
X159000000Y-91460000D01*
X139750000Y-74050000D02*
X157160000Y-91460000D01*
X159000000Y-91460000D02*
X161000000Y-89460000D01*
X139750000Y-71010000D02*
X139750000Y-74050000D01*
X133930000Y-66720000D02*
X135460000Y-66720000D01*
X135460000Y-66720000D02*
X139750000Y-71010000D01*
%TO.N,RX*%
X153500000Y-64500000D02*
X153500000Y-66000000D01*
X153180000Y-64180000D02*
X153500000Y-64500000D01*
X149170000Y-64180000D02*
X153180000Y-64180000D01*
%TO.N,DISP_DC*%
X155520000Y-66720000D02*
X155900000Y-67100000D01*
X149170000Y-66720000D02*
X155520000Y-66720000D01*
%TO.N,DISP_SDA*%
X160390000Y-65230000D02*
X162830000Y-65230000D01*
X153820000Y-71800000D02*
X160390000Y-65230000D01*
X149170000Y-71800000D02*
X153820000Y-71800000D01*
%TO.N,GND*%
X125600000Y-89250000D02*
X125600000Y-88137500D01*
X125600000Y-88137500D02*
X126500000Y-87237500D01*
X129350000Y-86750000D02*
X129350000Y-85675000D01*
X130500000Y-87900000D02*
X129350000Y-86750000D01*
%TO.N,MOTOR_PWM*%
X132465000Y-81960000D02*
X133930000Y-81960000D01*
X130630000Y-80125000D02*
X132465000Y-81960000D01*
X129400000Y-80125000D02*
X130630000Y-80125000D01*
%TO.N,Q_B*%
X129350000Y-83130000D02*
X129350000Y-84025000D01*
X129110000Y-82890000D02*
X129350000Y-83130000D01*
X129400000Y-82600000D02*
X129400000Y-81775000D01*
X129110000Y-82890000D02*
X129400000Y-82600000D01*
%TO.N,Q_C*%
X125550000Y-78675000D02*
X125560000Y-78665000D01*
X125550000Y-81350000D02*
X125550000Y-78675000D01*
%TO.N,TX*%
X155000000Y-61900000D02*
X155000000Y-65400000D01*
X154780000Y-61680000D02*
X155000000Y-61900000D01*
X150210000Y-61680000D02*
X154780000Y-61680000D01*
%TO.N,DISP_SCL*%
X160270000Y-64230000D02*
X162830000Y-64230000D01*
X155200000Y-69300000D02*
X160270000Y-64230000D01*
X150210000Y-69300000D02*
X155200000Y-69300000D01*
X150170000Y-69260000D02*
X150210000Y-69300000D01*
X149170000Y-69260000D02*
X150170000Y-69260000D01*
%TO.N,DISP_CS*%
X159770000Y-68230000D02*
X162830000Y-68230000D01*
X153700000Y-74300000D02*
X159770000Y-68230000D01*
X150820000Y-74300000D02*
X153700000Y-74300000D01*
X150780000Y-74340000D02*
X150820000Y-74300000D01*
X149170000Y-74340000D02*
X150780000Y-74340000D01*
%TO.N,DISP_RES*%
X160470000Y-66230000D02*
X162830000Y-66230000D01*
X153600000Y-73100000D02*
X160470000Y-66230000D01*
X146500000Y-75800000D02*
X146500000Y-73100000D01*
X149170000Y-76880000D02*
X149130000Y-76920000D01*
%TO.N,DISP_BLK*%
X162600000Y-71700000D02*
X162830000Y-71470000D01*
X158500000Y-71700000D02*
X162600000Y-71700000D01*
X150780000Y-79420000D02*
X158500000Y-71700000D01*
%TO.N,GPIO7*%
X161000000Y-84380000D02*
X161500000Y-84380000D01*
X159000000Y-86380000D02*
X161000000Y-84380000D01*
X152300000Y-82000000D02*
X156680000Y-86380000D01*
X150210000Y-82000000D02*
X152300000Y-82000000D01*
X150170000Y-81960000D02*
X150210000Y-82000000D01*
X149170000Y-81960000D02*
X150170000Y-81960000D01*
%TO.N,TX*%
X150170000Y-61640000D02*
X150210000Y-61680000D01*
%TO.N,ENCODER_B*%
X129569265Y-76069265D02*
X129569265Y-73579265D01*
%TO.N,DISP_RES*%
X146500000Y-73100000D02*
X153600000Y-73100000D01*
%TO.N,ENCODER_B*%
X132920000Y-79420000D02*
X129569265Y-76069265D01*
X133930000Y-79420000D02*
X132920000Y-79420000D01*
%TO.N,ENCODER_A*%
X131360000Y-74010000D02*
X131360000Y-72140000D01*
%TO.N,GPIO7*%
X156680000Y-86380000D02*
X159000000Y-86380000D01*
%TO.N,ENCODER_A*%
X133930000Y-76580000D02*
X131360000Y-74010000D01*
X133930000Y-76880000D02*
X133930000Y-76580000D01*
%TO.N,GPIO3*%
X135460000Y-74340000D02*
X138000000Y-76880000D01*
X133930000Y-74340000D02*
X135460000Y-74340000D01*
%TO.N,SW2*%
X135460000Y-71800000D02*
X133930000Y-71800000D01*
X136720000Y-73060000D02*
X135460000Y-71800000D01*
%TO.N,SW1*%
X139010000Y-94640000D02*
X131250000Y-102400000D01*
X139010000Y-72810000D02*
X139010000Y-94640000D01*
X135460000Y-69260000D02*
X139010000Y-72810000D01*
X133930000Y-69260000D02*
X135460000Y-69260000D01*
%TO.N,GND*%
X133930000Y-64180000D02*
X133890000Y-64220000D01*
%TO.N,+5V*%
X160338000Y-63230000D02*
X162830000Y-63230000D01*
X157639000Y-60531000D02*
X160338000Y-63230000D01*
%TO.N,SW2*%
X137550000Y-73060000D02*
X136720000Y-73060000D01*
%TO.N,+5V*%
X136649000Y-60531000D02*
X157639000Y-60531000D01*
%TO.N,GPIO3*%
X138000000Y-76880000D02*
X138000000Y-89000000D01*
%TO.N,+5V*%
X135540000Y-61640000D02*
X136649000Y-60531000D01*
%TO.N,DISP_BLK*%
X162830000Y-71470000D02*
X162830000Y-69230000D01*
%TO.N,GND*%
X133890000Y-64220000D02*
X130620000Y-64220000D01*
%TO.N,DISP_RES*%
X147620000Y-76920000D02*
X146500000Y-75800000D01*
%TO.N,+5V*%
X133930000Y-61640000D02*
X135540000Y-61640000D01*
%TO.N,DISP_RES*%
X149130000Y-76920000D02*
X147620000Y-76920000D01*
%TO.N,TX*%
X149170000Y-61640000D02*
X150170000Y-61640000D01*
%TO.N,DISP_BLK*%
X149170000Y-79420000D02*
X150780000Y-79420000D01*
%TO.N,Q_B*%
X125050000Y-82932500D02*
X125092500Y-82890000D01*
X125050000Y-84862500D02*
X125050000Y-82932500D01*
X125550000Y-85362500D02*
X125050000Y-84862500D01*
X125092500Y-82890000D02*
X129110000Y-82890000D01*
%TO.N,ENCODER_A*%
X120210000Y-66220000D02*
X121725000Y-66220000D01*
X119830000Y-66600000D02*
X120210000Y-66220000D01*
X118800000Y-66600000D02*
X119830000Y-66600000D01*
%TO.N,ENCODER_B*%
X119100000Y-64300000D02*
X121725000Y-64300000D01*
X118800000Y-64600000D02*
X119100000Y-64300000D01*
%TO.N,GND*%
X119180000Y-62220000D02*
X118800000Y-62600000D01*
X123275000Y-64300000D02*
X121195000Y-62220000D01*
X121195000Y-62220000D02*
X119180000Y-62220000D01*
%TO.N,ENCODER_A*%
X123620000Y-71120000D02*
X130290000Y-71120000D01*
X121700000Y-66245000D02*
X121700000Y-69200000D01*
X121725000Y-66220000D02*
X121700000Y-66245000D01*
X121700000Y-69200000D02*
X123620000Y-71120000D01*
%TO.N,ENCODER_B*%
X122476000Y-68161110D02*
X124754890Y-70440000D01*
X122476000Y-65051000D02*
X122476000Y-68161110D01*
X121725000Y-64300000D02*
X122476000Y-65051000D01*
%TO.N,GND*%
X124220000Y-66220000D02*
X123275000Y-66220000D01*
X126400000Y-67200000D02*
X124220000Y-66220000D01*
X123275000Y-66220000D02*
X123275000Y-64300000D01*
X124280000Y-64220000D02*
X123355000Y-64220000D01*
X126300000Y-63300000D02*
X124280000Y-64220000D01*
%TO.N,ENCODER_B*%
X121725000Y-64353000D02*
X121725000Y-64300000D01*
X126530000Y-70440000D02*
X124754890Y-70440000D01*
%TO.N,GND*%
X123355000Y-64220000D02*
X123275000Y-64300000D01*
%TO.N,SW2*%
X140550000Y-76450000D02*
X140130000Y-76450000D01*
X161500000Y-97400000D02*
X140550000Y-76450000D01*
X161500000Y-97520000D02*
X161500000Y-97400000D01*
X161600000Y-97620000D02*
X161500000Y-97520000D01*
X161600000Y-102350000D02*
X161600000Y-97620000D01*
X161650000Y-102400000D02*
X161600000Y-102350000D01*
%TO.N,GND*%
X162830000Y-62230000D02*
X165870000Y-62230000D01*
X165870000Y-62230000D02*
X165900000Y-62200000D01*
%TO.N,GPIO3*%
X158800000Y-88920000D02*
X159000000Y-88920000D01*
X161000000Y-86920000D02*
X161500000Y-86920000D01*
X140000000Y-89000000D02*
X151000000Y-89000000D01*
X159000000Y-88920000D02*
X161000000Y-86920000D01*
%TO.N,+3V3*%
X124525000Y-75700000D02*
X125560000Y-74665000D01*
X122070000Y-75700000D02*
X124525000Y-75700000D01*
X120445000Y-75300000D02*
X120845000Y-75700000D01*
X117320000Y-75300000D02*
X120445000Y-75300000D01*
X120845000Y-75700000D02*
X122070000Y-75700000D01*
%TO.N,TX*%
X163000000Y-83840000D02*
X161500000Y-82340000D01*
X165000000Y-79600000D02*
X165000000Y-83700000D01*
X164860000Y-83840000D02*
X163000000Y-83840000D01*
X158800000Y-73400000D02*
X165000000Y-79600000D01*
X161500000Y-82340000D02*
X161500000Y-81840000D01*
X165000000Y-83700000D02*
X164860000Y-83840000D01*
%TO.N,RX*%
X153500000Y-81300000D02*
X159000000Y-81300000D01*
X159000000Y-81300000D02*
X161000000Y-79300000D01*
X153500000Y-80700000D02*
X153500000Y-81300000D01*
X161000000Y-79300000D02*
X161500000Y-79300000D01*
%TO.N,DISP_DC*%
X162724265Y-67124265D02*
X162830000Y-67230000D01*
X161324265Y-67124265D02*
X162724265Y-67124265D01*
%TO.N,Q_C*%
X120870000Y-77245000D02*
X120875000Y-77250000D01*
X122070000Y-77250000D02*
X124145000Y-77250000D01*
X117320000Y-77840000D02*
X120275000Y-77840000D01*
X120875000Y-77250000D02*
X122070000Y-77250000D01*
X120275000Y-77840000D02*
X120870000Y-77245000D01*
X124145000Y-77250000D02*
X125560000Y-78665000D01*
X126950000Y-84862500D02*
X127450000Y-85362500D01*
X126950000Y-83900000D02*
X126950000Y-84862500D01*
X126840000Y-83790000D02*
X126950000Y-83900000D01*
%TO.N,GND*%
X130600000Y-64200000D02*
X130620000Y-64220000D01*
%TD*%
M02*
