%TF.GenerationSoftware,KiCad,Pcbnew,9.0.7*%
%TF.CreationDate,2026-08-11T12:32:06+01:00*%
%TF.ProjectId,lith,6c697468-2e6b-4696-9361-645f70636258,rev?*%
%TF.SameCoordinates,Original*%
%TF.FileFunction,Copper,L2,Bot*%
%TF.FilePolarity,Positive*%
%FSLAX46Y46*%
G04 Gerber Fmt 4.6, Leading zero omitted, Abs format (unit mm)*
G04 Created by KiCad (PCBNEW 9.0.7) date 2026-08-11 12:32:06*
%MOMM*%
%LPD*%
G01*
G04 APERTURE LIST*
%TA.AperFunction,ComponentPad*%
%ADD10R,1.524000X1.524000*%
%TD*%
%TA.AperFunction,ComponentPad*%
%ADD11C,1.524000*%
%TD*%
%TA.AperFunction,ComponentPad*%
%ADD12C,2.200000*%
%TD*%
%TA.AperFunction,ComponentPad*%
%ADD13R,1.700000X1.700000*%
%TD*%
%TA.AperFunction,ComponentPad*%
%ADD14C,1.700000*%
%TD*%
%TA.AperFunction,ComponentPad*%
%ADD15C,1.200000*%
%TD*%
%TA.AperFunction,ViaPad*%
%ADD16C,0.600000*%
%TD*%
%TA.AperFunction,Conductor*%
%ADD17C,0.200000*%
%TD*%
G04 APERTURE END LIST*
D10*
%TO.P,U1,1,VDD*%
%TO.N,+5V*%
X133930000Y-61640000D03*
D11*
%TO.P,U1,2,GND*%
%TO.N,GND*%
X133930000Y-64180000D03*
%TO.P,U1,3,3V3(OUT)*%
%TO.N,+3V3*%
X133930000Y-66720000D03*
%TO.P,U1,4,GPIO1*%
%TO.N,SW1*%
X133930000Y-69260000D03*
%TO.P,U1,5,GPIO2*%
%TO.N,SW2*%
X133930000Y-71800000D03*
%TO.P,U1,6,GPIO3*%
%TO.N,GPIO3*%
X133930000Y-74340000D03*
%TO.P,U1,7,GPIO4*%
%TO.N,ENCODER_A*%
X133930000Y-76880000D03*
%TO.P,U1,8,GPIO5*%
%TO.N,ENCODER_B*%
X133930000Y-79420000D03*
%TO.P,U1,9,GPIO6*%
%TO.N,MOTOR_PWM*%
X133930000Y-81960000D03*
%TO.P,U1,10,GPIO7*%
%TO.N,GPIO7*%
X149170000Y-81960000D03*
%TO.P,U1,11,GPIO8*%
%TO.N,DISP_BLK*%
X149170000Y-79420000D03*
%TO.P,U1,12,GPIO9*%
%TO.N,DISP_RES*%
X149170000Y-76880000D03*
%TO.P,U1,13,GPIO10*%
%TO.N,DISP_CS*%
X149170000Y-74340000D03*
%TO.P,U1,14,GPIO11*%
%TO.N,DISP_SDA*%
X149170000Y-71800000D03*
%TO.P,U1,15,GPIO12*%
%TO.N,DISP_SCL*%
X149170000Y-69260000D03*
%TO.P,U1,16,GPIO13*%
%TO.N,DISP_DC*%
X149170000Y-66720000D03*
%TO.P,U1,17,RX*%
%TO.N,RX*%
X149170000Y-64180000D03*
%TO.P,U1,18,TX*%
%TO.N,TX*%
X149170000Y-61640000D03*
%TD*%
D12*
%TO.P,SWITCH B,1,1*%
%TO.N,SW2*%
X161650000Y-102400000D03*
%TO.P,SWITCH B,2,2*%
%TO.N,GND*%
X155300000Y-104940000D03*
%TD*%
D13*
%TO.P,SPARE I/O,1,Pin_1*%
%TO.N,GND*%
X161500000Y-92000000D03*
D14*
%TO.P,SPARE I/O,2,Pin_2*%
%TO.N,+3V3*%
X161500000Y-89460000D03*
%TO.P,SPARE I/O,3,Pin_3*%
%TO.N,GPIO3*%
X161500000Y-86920000D03*
%TO.P,SPARE I/O,4,Pin_4*%
%TO.N,GPIO7*%
X161500000Y-84380000D03*
%TO.P,SPARE I/O,5,Pin_5*%
%TO.N,TX*%
X161500000Y-81840000D03*
%TO.P,SPARE I/O,6,Pin_6*%
%TO.N,RX*%
X161500000Y-79300000D03*
%TD*%
D12*
%TO.P,SWITCH A,2,2*%
%TO.N,GND*%
X124900000Y-104940000D03*
%TO.P,SWITCH A,1,1*%
%TO.N,SW1*%
X131250000Y-102400000D03*
%TD*%
D15*
%TO.P,ENCODER,1*%
%TO.N,GND*%
X118800000Y-62600000D03*
%TO.P,ENCODER,2*%
%TO.N,ENCODER_B*%
X118800000Y-64600000D03*
%TO.P,ENCODER,3*%
%TO.N,ENCODER_A*%
X118800000Y-66600000D03*
%TD*%
D16*
%TO.N,GND*%
X130620000Y-64220000D03*
%TO.N,Q_C*%
X126840000Y-83790000D03*
%TO.N,GND*%
X126400000Y-67200000D03*
X126300000Y-63300000D03*
X125600000Y-89250000D03*
X165900000Y-62200000D03*
X130500000Y-87900000D03*
%TO.N,SW2*%
X140130000Y-76450000D03*
X137550000Y-73060000D03*
%TO.N,GPIO3*%
X151000000Y-89000000D03*
X140000000Y-89000000D03*
X158800000Y-88920000D03*
X138000000Y-89000000D03*
%TO.N,TX*%
X155000000Y-65400000D03*
X158800000Y-73400000D03*
%TO.N,RX*%
X153500000Y-80700000D03*
X153500000Y-66000000D03*
%TO.N,ENCODER_A*%
X131360000Y-72140000D03*
X130290000Y-71120000D03*
%TO.N,ENCODER_B*%
X126530000Y-70440000D03*
X129569265Y-73579265D03*
%TO.N,DISP_DC*%
X155900000Y-67100000D03*
X161324265Y-67124265D03*
%TO.N,Q_C*%
X125550000Y-81350000D03*
%TD*%
D17*
%TO.N,Q_C*%
X126840000Y-82320000D02*
X126840000Y-83790000D01*
X125870000Y-81350000D02*
X126840000Y-82320000D01*
X125550000Y-81350000D02*
X125870000Y-81350000D01*
%TO.N,SW2*%
X137590000Y-72990000D02*
X137550000Y-72990000D01*
X140130000Y-75530000D02*
X137590000Y-72990000D01*
X140130000Y-76450000D02*
X140130000Y-75530000D01*
X140130000Y-76450000D02*
X140110000Y-76450000D01*
%TO.N,GPIO3*%
X151000000Y-89000000D02*
X158720000Y-89000000D01*
X158720000Y-89000000D02*
X158800000Y-88920000D01*
X138000000Y-89000000D02*
X140000000Y-89000000D01*
%TO.N,TX*%
X155000000Y-65400000D02*
X155000000Y-69700000D01*
X158500000Y-73200000D02*
X158700000Y-73400000D01*
X158700000Y-73400000D02*
X158800000Y-73400000D01*
X155000000Y-69700000D02*
X158500000Y-73200000D01*
%TO.N,RX*%
X153500000Y-66000000D02*
X153500000Y-80700000D01*
%TO.N,ENCODER_A*%
X131360000Y-72140000D02*
X130340000Y-71120000D01*
X130340000Y-71120000D02*
X130290000Y-71120000D01*
%TO.N,ENCODER_B*%
X126530000Y-70540000D02*
X126530000Y-70440000D01*
X129569265Y-73579265D02*
X126530000Y-70540000D01*
%TO.N,DISP_DC*%
X155900000Y-67100000D02*
X161300000Y-67100000D01*
X161300000Y-67100000D02*
X161324265Y-67124265D01*
%TD*%
%TA.AperFunction,Conductor*%
%TO.N,GND*%
G36*
X165652898Y-60400633D02*
G01*
X166050214Y-60419002D01*
X166061611Y-60420058D01*
X166452742Y-60474619D01*
X166463979Y-60476720D01*
X166848409Y-60567137D01*
X166859399Y-60570264D01*
X167233865Y-60695772D01*
X167244519Y-60699900D01*
X167605791Y-60859417D01*
X167616017Y-60864509D01*
X167820321Y-60978306D01*
X167961025Y-61056678D01*
X167970763Y-61062707D01*
X168296566Y-61285886D01*
X168305703Y-61292787D01*
X168609513Y-61545067D01*
X168617977Y-61552783D01*
X168897216Y-61832022D01*
X168904932Y-61840486D01*
X169157210Y-62144293D01*
X169164113Y-62153433D01*
X169387292Y-62479236D01*
X169393321Y-62488974D01*
X169479855Y-62644331D01*
X169572135Y-62810005D01*
X169585483Y-62833968D01*
X169590586Y-62844217D01*
X169715768Y-63127727D01*
X169750094Y-63205467D01*
X169754232Y-63216147D01*
X169879731Y-63590587D01*
X169882865Y-63601603D01*
X169973276Y-63986008D01*
X169975381Y-63997267D01*
X170029940Y-64388386D01*
X170030997Y-64399790D01*
X170049367Y-64797124D01*
X170049499Y-64802891D01*
X170034700Y-110161359D01*
X170034700Y-110161361D01*
X170034697Y-110169203D01*
X170034676Y-110169287D01*
X170034676Y-110229641D01*
X170034676Y-110232351D01*
X170034674Y-110232354D01*
X170034544Y-110238035D01*
X170016175Y-110635389D01*
X170015118Y-110646794D01*
X169960561Y-111037914D01*
X169958456Y-111049173D01*
X169868046Y-111433575D01*
X169864912Y-111444590D01*
X169739417Y-111819023D01*
X169735280Y-111829704D01*
X169575767Y-112190969D01*
X169570661Y-112201222D01*
X169378505Y-112546208D01*
X169372476Y-112555946D01*
X169149301Y-112881743D01*
X169142399Y-112890883D01*
X168890111Y-113194703D01*
X168882394Y-113203167D01*
X168603167Y-113482394D01*
X168594703Y-113490111D01*
X168290883Y-113742399D01*
X168281743Y-113749301D01*
X167955946Y-113972476D01*
X167946208Y-113978505D01*
X167601222Y-114170661D01*
X167590969Y-114175767D01*
X167229704Y-114335280D01*
X167219023Y-114339417D01*
X166844590Y-114464912D01*
X166833575Y-114468046D01*
X166449173Y-114558456D01*
X166437914Y-114560561D01*
X166046794Y-114615118D01*
X166035389Y-114616175D01*
X165638055Y-114634544D01*
X165632329Y-114634676D01*
X116517691Y-114634676D01*
X116511965Y-114634544D01*
X116114610Y-114616175D01*
X116103205Y-114615118D01*
X115712085Y-114560561D01*
X115700831Y-114558457D01*
X115577105Y-114529357D01*
X115316424Y-114468046D01*
X115305409Y-114464912D01*
X114930976Y-114339417D01*
X114920295Y-114335280D01*
X114559030Y-114175767D01*
X114548782Y-114170663D01*
X114434450Y-114106981D01*
X114203791Y-113978505D01*
X114194053Y-113972476D01*
X113868256Y-113749301D01*
X113859116Y-113742399D01*
X113555296Y-113490111D01*
X113546832Y-113482394D01*
X113267605Y-113203167D01*
X113259888Y-113194703D01*
X113007598Y-112890880D01*
X113000698Y-112881743D01*
X112777523Y-112555946D01*
X112771494Y-112546208D01*
X112629620Y-112291495D01*
X112579331Y-112201209D01*
X112574238Y-112190982D01*
X112414720Y-111829704D01*
X112410582Y-111819023D01*
X112410439Y-111818597D01*
X112410437Y-111818592D01*
X167323500Y-111818592D01*
X167323500Y-111981407D01*
X167355259Y-112141073D01*
X167355262Y-112141082D01*
X167417562Y-112291490D01*
X167417563Y-112291492D01*
X167508015Y-112426862D01*
X167508018Y-112426866D01*
X167623133Y-112541981D01*
X167623137Y-112541984D01*
X167758505Y-112632435D01*
X167758506Y-112632435D01*
X167758507Y-112632436D01*
X167758509Y-112632437D01*
X167858781Y-112673970D01*
X167908919Y-112694738D01*
X167908921Y-112694738D01*
X167908926Y-112694740D01*
X168068592Y-112726499D01*
X168068595Y-112726500D01*
X168068597Y-112726500D01*
X168231405Y-112726500D01*
X168231406Y-112726499D01*
X168284629Y-112715912D01*
X168391073Y-112694740D01*
X168391076Y-112694738D01*
X168391081Y-112694738D01*
X168541495Y-112632435D01*
X168676863Y-112541984D01*
X168791984Y-112426863D01*
X168882435Y-112291495D01*
X168944738Y-112141081D01*
X168976500Y-111981403D01*
X168976500Y-111818597D01*
X168976500Y-111818594D01*
X168976499Y-111818592D01*
X168944740Y-111658926D01*
X168944737Y-111658917D01*
X168882437Y-111508509D01*
X168882436Y-111508507D01*
X168791984Y-111373137D01*
X168791981Y-111373133D01*
X168676866Y-111258018D01*
X168676862Y-111258015D01*
X168541492Y-111167563D01*
X168541490Y-111167562D01*
X168391082Y-111105262D01*
X168391073Y-111105259D01*
X168231406Y-111073500D01*
X168231403Y-111073500D01*
X168068597Y-111073500D01*
X168068594Y-111073500D01*
X167908926Y-111105259D01*
X167908917Y-111105262D01*
X167758509Y-111167562D01*
X167758507Y-111167563D01*
X167623137Y-111258015D01*
X167623133Y-111258018D01*
X167508018Y-111373133D01*
X167508015Y-111373137D01*
X167417563Y-111508507D01*
X167417562Y-111508509D01*
X167355262Y-111658917D01*
X167355259Y-111658926D01*
X167323500Y-111818592D01*
X112410437Y-111818592D01*
X112306509Y-111508507D01*
X112285087Y-111444590D01*
X112281953Y-111433575D01*
X112191539Y-111049151D01*
X112189441Y-111037931D01*
X112134880Y-110646787D01*
X112133824Y-110635389D01*
X112115455Y-110238035D01*
X112115323Y-110232396D01*
X112115323Y-110232351D01*
X112115324Y-110169287D01*
X112115279Y-110169121D01*
X112113459Y-107393389D01*
X122529500Y-107393389D01*
X122529500Y-107566611D01*
X122556598Y-107737701D01*
X122610127Y-107902445D01*
X122688768Y-108056788D01*
X122790586Y-108196928D01*
X122913072Y-108319414D01*
X123053212Y-108421232D01*
X123207555Y-108499873D01*
X123372299Y-108553402D01*
X123543389Y-108580500D01*
X123543390Y-108580500D01*
X123716610Y-108580500D01*
X123716611Y-108580500D01*
X123887701Y-108553402D01*
X124052445Y-108499873D01*
X124206788Y-108421232D01*
X124346928Y-108319414D01*
X124469414Y-108196928D01*
X124571232Y-108056788D01*
X124649873Y-107902445D01*
X124703402Y-107737701D01*
X124730500Y-107566611D01*
X124730500Y-107393389D01*
X124720854Y-107332486D01*
X126459500Y-107332486D01*
X126459500Y-107627513D01*
X126491571Y-107871113D01*
X126498007Y-107919993D01*
X126572212Y-108196930D01*
X126574361Y-108204951D01*
X126574364Y-108204961D01*
X126687254Y-108477500D01*
X126687258Y-108477510D01*
X126834761Y-108732993D01*
X127014352Y-108967040D01*
X127014358Y-108967047D01*
X127222952Y-109175641D01*
X127222959Y-109175647D01*
X127457006Y-109355238D01*
X127712489Y-109502741D01*
X127712490Y-109502741D01*
X127712493Y-109502743D01*
X127985048Y-109615639D01*
X128270007Y-109691993D01*
X128562494Y-109730500D01*
X128562501Y-109730500D01*
X128857499Y-109730500D01*
X128857506Y-109730500D01*
X129149993Y-109691993D01*
X129434952Y-109615639D01*
X129707507Y-109502743D01*
X129962994Y-109355238D01*
X130197042Y-109175646D01*
X130405646Y-108967042D01*
X130585238Y-108732994D01*
X130732743Y-108477507D01*
X130845639Y-108204952D01*
X130921993Y-107919993D01*
X130960500Y-107627506D01*
X130960500Y-107393389D01*
X132689500Y-107393389D01*
X132689500Y-107566611D01*
X132716598Y-107737701D01*
X132770127Y-107902445D01*
X132848768Y-108056788D01*
X132950586Y-108196928D01*
X133073072Y-108319414D01*
X133213212Y-108421232D01*
X133367555Y-108499873D01*
X133532299Y-108553402D01*
X133703389Y-108580500D01*
X133703390Y-108580500D01*
X133876610Y-108580500D01*
X133876611Y-108580500D01*
X134047701Y-108553402D01*
X134212445Y-108499873D01*
X134366788Y-108421232D01*
X134506928Y-108319414D01*
X134629414Y-108196928D01*
X134731232Y-108056788D01*
X134809873Y-107902445D01*
X134863402Y-107737701D01*
X134890500Y-107566611D01*
X134890500Y-107393389D01*
X152929500Y-107393389D01*
X152929500Y-107566611D01*
X152956598Y-107737701D01*
X153010127Y-107902445D01*
X153088768Y-108056788D01*
X153190586Y-108196928D01*
X153313072Y-108319414D01*
X153453212Y-108421232D01*
X153607555Y-108499873D01*
X153772299Y-108553402D01*
X153943389Y-108580500D01*
X153943390Y-108580500D01*
X154116610Y-108580500D01*
X154116611Y-108580500D01*
X154287701Y-108553402D01*
X154452445Y-108499873D01*
X154606788Y-108421232D01*
X154746928Y-108319414D01*
X154869414Y-108196928D01*
X154971232Y-108056788D01*
X155049873Y-107902445D01*
X155103402Y-107737701D01*
X155130500Y-107566611D01*
X155130500Y-107393389D01*
X155120854Y-107332486D01*
X156859500Y-107332486D01*
X156859500Y-107627513D01*
X156891571Y-107871113D01*
X156898007Y-107919993D01*
X156972212Y-108196930D01*
X156974361Y-108204951D01*
X156974364Y-108204961D01*
X157087254Y-108477500D01*
X157087258Y-108477510D01*
X157234761Y-108732993D01*
X157414352Y-108967040D01*
X157414358Y-108967047D01*
X157622952Y-109175641D01*
X157622959Y-109175647D01*
X157857006Y-109355238D01*
X158112489Y-109502741D01*
X158112490Y-109502741D01*
X158112493Y-109502743D01*
X158385048Y-109615639D01*
X158670007Y-109691993D01*
X158962494Y-109730500D01*
X158962501Y-109730500D01*
X159257499Y-109730500D01*
X159257506Y-109730500D01*
X159549993Y-109691993D01*
X159834952Y-109615639D01*
X160107507Y-109502743D01*
X160362994Y-109355238D01*
X160597042Y-109175646D01*
X160805646Y-108967042D01*
X160985238Y-108732994D01*
X161132743Y-108477507D01*
X161245639Y-108204952D01*
X161321993Y-107919993D01*
X161360500Y-107627506D01*
X161360500Y-107393389D01*
X163089500Y-107393389D01*
X163089500Y-107566611D01*
X163116598Y-107737701D01*
X163170127Y-107902445D01*
X163248768Y-108056788D01*
X163350586Y-108196928D01*
X163473072Y-108319414D01*
X163613212Y-108421232D01*
X163767555Y-108499873D01*
X163932299Y-108553402D01*
X164103389Y-108580500D01*
X164103390Y-108580500D01*
X164276610Y-108580500D01*
X164276611Y-108580500D01*
X164447701Y-108553402D01*
X164612445Y-108499873D01*
X164766788Y-108421232D01*
X164906928Y-108319414D01*
X165029414Y-108196928D01*
X165131232Y-108056788D01*
X165209873Y-107902445D01*
X165263402Y-107737701D01*
X165290500Y-107566611D01*
X165290500Y-107393389D01*
X165263402Y-107222299D01*
X165209873Y-107057555D01*
X165131232Y-106903212D01*
X165029414Y-106763072D01*
X164906928Y-106640586D01*
X164766788Y-106538768D01*
X164612445Y-106460127D01*
X164447701Y-106406598D01*
X164447699Y-106406597D01*
X164447698Y-106406597D01*
X164316271Y-106385781D01*
X164276611Y-106379500D01*
X164103389Y-106379500D01*
X164063728Y-106385781D01*
X163932302Y-106406597D01*
X163767552Y-106460128D01*
X163613211Y-106538768D01*
X163557115Y-106579525D01*
X163473072Y-106640586D01*
X163473070Y-106640588D01*
X163473069Y-106640588D01*
X163350588Y-106763069D01*
X163350588Y-106763070D01*
X163350586Y-106763072D01*
X163306859Y-106823256D01*
X163248768Y-106903211D01*
X163170128Y-107057552D01*
X163116597Y-107222302D01*
X163090259Y-107388598D01*
X163089500Y-107393389D01*
X161360500Y-107393389D01*
X161360500Y-107332494D01*
X161321993Y-107040007D01*
X161245639Y-106755048D01*
X161132743Y-106482493D01*
X161082604Y-106395650D01*
X160985238Y-106227006D01*
X160805647Y-105992959D01*
X160805641Y-105992952D01*
X160597047Y-105784358D01*
X160597040Y-105784352D01*
X160362993Y-105604761D01*
X160107510Y-105457258D01*
X160107500Y-105457254D01*
X159834961Y-105344364D01*
X159834954Y-105344362D01*
X159834952Y-105344361D01*
X159549993Y-105268007D01*
X159501113Y-105261571D01*
X159257513Y-105229500D01*
X159257506Y-105229500D01*
X158962494Y-105229500D01*
X158962486Y-105229500D01*
X158684085Y-105266153D01*
X158670007Y-105268007D01*
X158495861Y-105314669D01*
X158385048Y-105344361D01*
X158385038Y-105344364D01*
X158112499Y-105457254D01*
X158112489Y-105457258D01*
X157857006Y-105604761D01*
X157622959Y-105784352D01*
X157622952Y-105784358D01*
X157414358Y-105992952D01*
X157414352Y-105992959D01*
X157234761Y-106227006D01*
X157087258Y-106482489D01*
X157087254Y-106482499D01*
X156974364Y-106755038D01*
X156974361Y-106755048D01*
X156898008Y-107040004D01*
X156898006Y-107040015D01*
X156859500Y-107332486D01*
X155120854Y-107332486D01*
X155103402Y-107222299D01*
X155049873Y-107057555D01*
X154971232Y-106903212D01*
X154869414Y-106763072D01*
X154816882Y-106710540D01*
X154783397Y-106649217D01*
X154788381Y-106579525D01*
X154830253Y-106523592D01*
X154895717Y-106499175D01*
X154923961Y-106500386D01*
X155174072Y-106540000D01*
X155425928Y-106540000D01*
X155674669Y-106500602D01*
X155914184Y-106422780D01*
X156138575Y-106308446D01*
X156138581Y-106308442D01*
X156240697Y-106234250D01*
X156240698Y-106234250D01*
X155624025Y-105617578D01*
X155655258Y-105604641D01*
X155778097Y-105522563D01*
X155882563Y-105418097D01*
X155964641Y-105295258D01*
X155977578Y-105264025D01*
X156594250Y-105880698D01*
X156594250Y-105880697D01*
X156668442Y-105778581D01*
X156668446Y-105778575D01*
X156782780Y-105554184D01*
X156860602Y-105314669D01*
X156900000Y-105065928D01*
X156900000Y-104814071D01*
X156860602Y-104565330D01*
X156782780Y-104325815D01*
X156668442Y-104101416D01*
X156594250Y-103999301D01*
X156594250Y-103999300D01*
X155977577Y-104615973D01*
X155964641Y-104584742D01*
X155882563Y-104461903D01*
X155778097Y-104357437D01*
X155655258Y-104275359D01*
X155624024Y-104262421D01*
X156240698Y-103645748D01*
X156138583Y-103571557D01*
X155914184Y-103457219D01*
X155674669Y-103379397D01*
X155425928Y-103340000D01*
X155174072Y-103340000D01*
X154925330Y-103379397D01*
X154685815Y-103457219D01*
X154461413Y-103571559D01*
X154359301Y-103645747D01*
X154359300Y-103645748D01*
X154975974Y-104262421D01*
X154944742Y-104275359D01*
X154821903Y-104357437D01*
X154717437Y-104461903D01*
X154635359Y-104584742D01*
X154622422Y-104615974D01*
X154005748Y-103999300D01*
X154005747Y-103999301D01*
X153931559Y-104101413D01*
X153817219Y-104325815D01*
X153739397Y-104565330D01*
X153700000Y-104814071D01*
X153700000Y-105065928D01*
X153739397Y-105314669D01*
X153817219Y-105554184D01*
X153931557Y-105778583D01*
X154005748Y-105880697D01*
X154005748Y-105880698D01*
X154622421Y-105264024D01*
X154635359Y-105295258D01*
X154717437Y-105418097D01*
X154821903Y-105522563D01*
X154944742Y-105604641D01*
X154975974Y-105617577D01*
X154359300Y-106234250D01*
X154361598Y-106263449D01*
X154347233Y-106331827D01*
X154298181Y-106381583D01*
X154230016Y-106396921D01*
X154218583Y-106395650D01*
X154116611Y-106379500D01*
X153943389Y-106379500D01*
X153903728Y-106385781D01*
X153772302Y-106406597D01*
X153607552Y-106460128D01*
X153453211Y-106538768D01*
X153397115Y-106579525D01*
X153313072Y-106640586D01*
X153313070Y-106640588D01*
X153313069Y-106640588D01*
X153190588Y-106763069D01*
X153190588Y-106763070D01*
X153190586Y-106763072D01*
X153146859Y-106823256D01*
X153088768Y-106903211D01*
X153010128Y-107057552D01*
X152956597Y-107222302D01*
X152930259Y-107388598D01*
X152929500Y-107393389D01*
X134890500Y-107393389D01*
X134863402Y-107222299D01*
X134809873Y-107057555D01*
X134731232Y-106903212D01*
X134629414Y-106763072D01*
X134506928Y-106640586D01*
X134366788Y-106538768D01*
X134212445Y-106460127D01*
X134047701Y-106406598D01*
X134047699Y-106406597D01*
X134047698Y-106406597D01*
X133916271Y-106385781D01*
X133876611Y-106379500D01*
X133703389Y-106379500D01*
X133663728Y-106385781D01*
X133532302Y-106406597D01*
X133367552Y-106460128D01*
X133213211Y-106538768D01*
X133157115Y-106579525D01*
X133073072Y-106640586D01*
X133073070Y-106640588D01*
X133073069Y-106640588D01*
X132950588Y-106763069D01*
X132950588Y-106763070D01*
X132950586Y-106763072D01*
X132906859Y-106823256D01*
X132848768Y-106903211D01*
X132770128Y-107057552D01*
X132716597Y-107222302D01*
X132690259Y-107388598D01*
X132689500Y-107393389D01*
X130960500Y-107393389D01*
X130960500Y-107332494D01*
X130921993Y-107040007D01*
X130845639Y-106755048D01*
X130732743Y-106482493D01*
X130682604Y-106395650D01*
X130585238Y-106227006D01*
X130405647Y-105992959D01*
X130405641Y-105992952D01*
X130197047Y-105784358D01*
X130197040Y-105784352D01*
X129962993Y-105604761D01*
X129707510Y-105457258D01*
X129707500Y-105457254D01*
X129434961Y-105344364D01*
X129434954Y-105344362D01*
X129434952Y-105344361D01*
X129149993Y-105268007D01*
X129101113Y-105261571D01*
X128857513Y-105229500D01*
X128857506Y-105229500D01*
X128562494Y-105229500D01*
X128562486Y-105229500D01*
X128284085Y-105266153D01*
X128270007Y-105268007D01*
X128095861Y-105314669D01*
X127985048Y-105344361D01*
X127985038Y-105344364D01*
X127712499Y-105457254D01*
X127712489Y-105457258D01*
X127457006Y-105604761D01*
X127222959Y-105784352D01*
X127222952Y-105784358D01*
X127014358Y-105992952D01*
X127014352Y-105992959D01*
X126834761Y-106227006D01*
X126687258Y-106482489D01*
X126687254Y-106482499D01*
X126574364Y-106755038D01*
X126574361Y-106755048D01*
X126498008Y-107040004D01*
X126498006Y-107040015D01*
X126459500Y-107332486D01*
X124720854Y-107332486D01*
X124703402Y-107222299D01*
X124649873Y-107057555D01*
X124571232Y-106903212D01*
X124469414Y-106763072D01*
X124416882Y-106710540D01*
X124383397Y-106649217D01*
X124388381Y-106579525D01*
X124430253Y-106523592D01*
X124495717Y-106499175D01*
X124523961Y-106500386D01*
X124774072Y-106540000D01*
X125025928Y-106540000D01*
X125274669Y-106500602D01*
X125514184Y-106422780D01*
X125738575Y-106308446D01*
X125738581Y-106308442D01*
X125840697Y-106234250D01*
X125840698Y-106234250D01*
X125224025Y-105617578D01*
X125255258Y-105604641D01*
X125378097Y-105522563D01*
X125482563Y-105418097D01*
X125564641Y-105295258D01*
X125577577Y-105264025D01*
X126194250Y-105880698D01*
X126194250Y-105880697D01*
X126268442Y-105778581D01*
X126268446Y-105778575D01*
X126382780Y-105554184D01*
X126460602Y-105314669D01*
X126500000Y-105065928D01*
X126500000Y-104814071D01*
X126460602Y-104565330D01*
X126382780Y-104325815D01*
X126268442Y-104101416D01*
X126194250Y-103999301D01*
X126194250Y-103999300D01*
X125577577Y-104615973D01*
X125564641Y-104584742D01*
X125482563Y-104461903D01*
X125378097Y-104357437D01*
X125255258Y-104275359D01*
X125224024Y-104262421D01*
X125840698Y-103645748D01*
X125738583Y-103571557D01*
X125514184Y-103457219D01*
X125274669Y-103379397D01*
X125025928Y-103340000D01*
X124774072Y-103340000D01*
X124525330Y-103379397D01*
X124285815Y-103457219D01*
X124061413Y-103571559D01*
X123959301Y-103645747D01*
X123959300Y-103645748D01*
X124575974Y-104262421D01*
X124544742Y-104275359D01*
X124421903Y-104357437D01*
X124317437Y-104461903D01*
X124235359Y-104584742D01*
X124222421Y-104615974D01*
X123605748Y-103999300D01*
X123605747Y-103999301D01*
X123531559Y-104101413D01*
X123417219Y-104325815D01*
X123339397Y-104565330D01*
X123300000Y-104814071D01*
X123300000Y-105065928D01*
X123339397Y-105314669D01*
X123417219Y-105554184D01*
X123531557Y-105778583D01*
X123605748Y-105880697D01*
X123605748Y-105880698D01*
X124222421Y-105264024D01*
X124235359Y-105295258D01*
X124317437Y-105418097D01*
X124421903Y-105522563D01*
X124544742Y-105604641D01*
X124575974Y-105617577D01*
X123959300Y-106234250D01*
X123961598Y-106263449D01*
X123947233Y-106331827D01*
X123898181Y-106381583D01*
X123830016Y-106396921D01*
X123818583Y-106395650D01*
X123716611Y-106379500D01*
X123543389Y-106379500D01*
X123503728Y-106385781D01*
X123372302Y-106406597D01*
X123207552Y-106460128D01*
X123053211Y-106538768D01*
X122997115Y-106579525D01*
X122913072Y-106640586D01*
X122913070Y-106640588D01*
X122913069Y-106640588D01*
X122790588Y-106763069D01*
X122790588Y-106763070D01*
X122790586Y-106763072D01*
X122746859Y-106823256D01*
X122688768Y-106903211D01*
X122610128Y-107057552D01*
X122556597Y-107222302D01*
X122530259Y-107388598D01*
X122529500Y-107393389D01*
X112113459Y-107393389D01*
X112110103Y-102274038D01*
X129649500Y-102274038D01*
X129649500Y-102525961D01*
X129688910Y-102774785D01*
X129766760Y-103014383D01*
X129881132Y-103238848D01*
X130029201Y-103442649D01*
X130029205Y-103442654D01*
X130207345Y-103620794D01*
X130207350Y-103620798D01*
X130306851Y-103693089D01*
X130411155Y-103768870D01*
X130554184Y-103841747D01*
X130635616Y-103883239D01*
X130635618Y-103883239D01*
X130635621Y-103883241D01*
X130875215Y-103961090D01*
X131124038Y-104000500D01*
X131124039Y-104000500D01*
X131375961Y-104000500D01*
X131375962Y-104000500D01*
X131624785Y-103961090D01*
X131864379Y-103883241D01*
X132088845Y-103768870D01*
X132292656Y-103620793D01*
X132470793Y-103442656D01*
X132618870Y-103238845D01*
X132733241Y-103014379D01*
X132811090Y-102774785D01*
X132850500Y-102525962D01*
X132850500Y-102274038D01*
X160049500Y-102274038D01*
X160049500Y-102525961D01*
X160088910Y-102774785D01*
X160166760Y-103014383D01*
X160281132Y-103238848D01*
X160429201Y-103442649D01*
X160429205Y-103442654D01*
X160607345Y-103620794D01*
X160607350Y-103620798D01*
X160706851Y-103693089D01*
X160811155Y-103768870D01*
X160954184Y-103841747D01*
X161035616Y-103883239D01*
X161035618Y-103883239D01*
X161035621Y-103883241D01*
X161275215Y-103961090D01*
X161524038Y-104000500D01*
X161524039Y-104000500D01*
X161775961Y-104000500D01*
X161775962Y-104000500D01*
X162024785Y-103961090D01*
X162264379Y-103883241D01*
X162488845Y-103768870D01*
X162692656Y-103620793D01*
X162870793Y-103442656D01*
X163018870Y-103238845D01*
X163133241Y-103014379D01*
X163211090Y-102774785D01*
X163250500Y-102525962D01*
X163250500Y-102274038D01*
X163211090Y-102025215D01*
X163133241Y-101785621D01*
X163133239Y-101785618D01*
X163133239Y-101785616D01*
X163091747Y-101704184D01*
X163018870Y-101561155D01*
X162999952Y-101535117D01*
X162870798Y-101357350D01*
X162870794Y-101357345D01*
X162692654Y-101179205D01*
X162692649Y-101179201D01*
X162488848Y-101031132D01*
X162488847Y-101031131D01*
X162488845Y-101031130D01*
X162418747Y-100995413D01*
X162264383Y-100916760D01*
X162024785Y-100838910D01*
X161775962Y-100799500D01*
X161524038Y-100799500D01*
X161399626Y-100819205D01*
X161275214Y-100838910D01*
X161035616Y-100916760D01*
X160811151Y-101031132D01*
X160607350Y-101179201D01*
X160607345Y-101179205D01*
X160429205Y-101357345D01*
X160429201Y-101357350D01*
X160281132Y-101561151D01*
X160166760Y-101785616D01*
X160088910Y-102025214D01*
X160049500Y-102274038D01*
X132850500Y-102274038D01*
X132811090Y-102025215D01*
X132733241Y-101785621D01*
X132733239Y-101785618D01*
X132733239Y-101785616D01*
X132691747Y-101704184D01*
X132618870Y-101561155D01*
X132599952Y-101535117D01*
X132470798Y-101357350D01*
X132470794Y-101357345D01*
X132292654Y-101179205D01*
X132292649Y-101179201D01*
X132088848Y-101031132D01*
X132088847Y-101031131D01*
X132088845Y-101031130D01*
X132018747Y-100995413D01*
X131864383Y-100916760D01*
X131624785Y-100838910D01*
X131375962Y-100799500D01*
X131124038Y-100799500D01*
X130999626Y-100819205D01*
X130875214Y-100838910D01*
X130635616Y-100916760D01*
X130411151Y-101031132D01*
X130207350Y-101179201D01*
X130207345Y-101179205D01*
X130029205Y-101357345D01*
X130029201Y-101357350D01*
X129881132Y-101561151D01*
X129766760Y-101785616D01*
X129688910Y-102025214D01*
X129649500Y-102274038D01*
X112110103Y-102274038D01*
X112101350Y-88921153D01*
X137199500Y-88921153D01*
X137199500Y-89078846D01*
X137230261Y-89233489D01*
X137230264Y-89233501D01*
X137290602Y-89379172D01*
X137290609Y-89379185D01*
X137378210Y-89510288D01*
X137378213Y-89510292D01*
X137489707Y-89621786D01*
X137489711Y-89621789D01*
X137620814Y-89709390D01*
X137620827Y-89709397D01*
X137766498Y-89769735D01*
X137766503Y-89769737D01*
X137921153Y-89800499D01*
X137921156Y-89800500D01*
X137921158Y-89800500D01*
X138078844Y-89800500D01*
X138078845Y-89800499D01*
X138233497Y-89769737D01*
X138379179Y-89709394D01*
X138408601Y-89689735D01*
X138510875Y-89621398D01*
X138577553Y-89600520D01*
X138579766Y-89600500D01*
X139420234Y-89600500D01*
X139487273Y-89620185D01*
X139489125Y-89621398D01*
X139620814Y-89709390D01*
X139620827Y-89709397D01*
X139766498Y-89769735D01*
X139766503Y-89769737D01*
X139921153Y-89800499D01*
X139921156Y-89800500D01*
X139921158Y-89800500D01*
X140078844Y-89800500D01*
X140078845Y-89800499D01*
X140233497Y-89769737D01*
X140379179Y-89709394D01*
X140510289Y-89621789D01*
X140621789Y-89510289D01*
X140709394Y-89379179D01*
X140769737Y-89233497D01*
X140800500Y-89078842D01*
X140800500Y-88921158D01*
X140800500Y-88921155D01*
X140800499Y-88921153D01*
X150199500Y-88921153D01*
X150199500Y-89078846D01*
X150230261Y-89233489D01*
X150230264Y-89233501D01*
X150290602Y-89379172D01*
X150290609Y-89379185D01*
X150378210Y-89510288D01*
X150378213Y-89510292D01*
X150489707Y-89621786D01*
X150489711Y-89621789D01*
X150620814Y-89709390D01*
X150620827Y-89709397D01*
X150766498Y-89769735D01*
X150766503Y-89769737D01*
X150921153Y-89800499D01*
X150921156Y-89800500D01*
X150921158Y-89800500D01*
X151078844Y-89800500D01*
X151078845Y-89800499D01*
X151233497Y-89769737D01*
X151379179Y-89709394D01*
X151408601Y-89689735D01*
X151510875Y-89621398D01*
X151577553Y-89600520D01*
X151579766Y-89600500D01*
X158339963Y-89600500D01*
X158407002Y-89620185D01*
X158408853Y-89621398D01*
X158420818Y-89629393D01*
X158420822Y-89629395D01*
X158566498Y-89689735D01*
X158566503Y-89689737D01*
X158721153Y-89720499D01*
X158721156Y-89720500D01*
X158721158Y-89720500D01*
X158878844Y-89720500D01*
X158878845Y-89720499D01*
X159033497Y-89689737D01*
X159179179Y-89629394D01*
X159310289Y-89541789D01*
X159421789Y-89430289D01*
X159509394Y-89299179D01*
X159569737Y-89153497D01*
X159600500Y-88998842D01*
X159600500Y-88841158D01*
X159600500Y-88841155D01*
X159600499Y-88841153D01*
X159569738Y-88686510D01*
X159569737Y-88686503D01*
X159569735Y-88686498D01*
X159509397Y-88540827D01*
X159509390Y-88540814D01*
X159421789Y-88409711D01*
X159421786Y-88409707D01*
X159310292Y-88298213D01*
X159310288Y-88298210D01*
X159179185Y-88210609D01*
X159179172Y-88210602D01*
X159033501Y-88150264D01*
X159033489Y-88150261D01*
X158878845Y-88119500D01*
X158878842Y-88119500D01*
X158721158Y-88119500D01*
X158721155Y-88119500D01*
X158566510Y-88150261D01*
X158566498Y-88150264D01*
X158420827Y-88210602D01*
X158420814Y-88210609D01*
X158289712Y-88298209D01*
X158257227Y-88330695D01*
X158224739Y-88363182D01*
X158163419Y-88396666D01*
X158137060Y-88399500D01*
X151579766Y-88399500D01*
X151512727Y-88379815D01*
X151510875Y-88378602D01*
X151379185Y-88290609D01*
X151379172Y-88290602D01*
X151233501Y-88230264D01*
X151233489Y-88230261D01*
X151078845Y-88199500D01*
X151078842Y-88199500D01*
X150921158Y-88199500D01*
X150921155Y-88199500D01*
X150766510Y-88230261D01*
X150766498Y-88230264D01*
X150620827Y-88290602D01*
X150620814Y-88290609D01*
X150489711Y-88378210D01*
X150489707Y-88378213D01*
X150378213Y-88489707D01*
X150378210Y-88489711D01*
X150290609Y-88620814D01*
X150290602Y-88620827D01*
X150230264Y-88766498D01*
X150230261Y-88766510D01*
X150199500Y-88921153D01*
X140800499Y-88921153D01*
X140769738Y-88766510D01*
X140769737Y-88766503D01*
X140736598Y-88686498D01*
X140709397Y-88620827D01*
X140709390Y-88620814D01*
X140621789Y-88489711D01*
X140621786Y-88489707D01*
X140510292Y-88378213D01*
X140510288Y-88378210D01*
X140379185Y-88290609D01*
X140379172Y-88290602D01*
X140233501Y-88230264D01*
X140233489Y-88230261D01*
X140078845Y-88199500D01*
X140078842Y-88199500D01*
X139921158Y-88199500D01*
X139921155Y-88199500D01*
X139766510Y-88230261D01*
X139766498Y-88230264D01*
X139620827Y-88290602D01*
X139620814Y-88290609D01*
X139489125Y-88378602D01*
X139422447Y-88399480D01*
X139420234Y-88399500D01*
X138579766Y-88399500D01*
X138512727Y-88379815D01*
X138510875Y-88378602D01*
X138379185Y-88290609D01*
X138379172Y-88290602D01*
X138233501Y-88230264D01*
X138233489Y-88230261D01*
X138078845Y-88199500D01*
X138078842Y-88199500D01*
X137921158Y-88199500D01*
X137921155Y-88199500D01*
X137766510Y-88230261D01*
X137766498Y-88230264D01*
X137620827Y-88290602D01*
X137620814Y-88290609D01*
X137489711Y-88378210D01*
X137489707Y-88378213D01*
X137378213Y-88489707D01*
X137378210Y-88489711D01*
X137290609Y-88620814D01*
X137290602Y-88620827D01*
X137230264Y-88766498D01*
X137230261Y-88766510D01*
X137199500Y-88921153D01*
X112101350Y-88921153D01*
X112096335Y-81271153D01*
X124749500Y-81271153D01*
X124749500Y-81428846D01*
X124780261Y-81583489D01*
X124780264Y-81583501D01*
X124840602Y-81729172D01*
X124840609Y-81729185D01*
X124928210Y-81860288D01*
X124928213Y-81860292D01*
X125039707Y-81971786D01*
X125039711Y-81971789D01*
X125170814Y-82059390D01*
X125170827Y-82059397D01*
X125311549Y-82117685D01*
X125316503Y-82119737D01*
X125471153Y-82150499D01*
X125471156Y-82150500D01*
X125471158Y-82150500D01*
X125628843Y-82150500D01*
X125649296Y-82146431D01*
X125724334Y-82131505D01*
X125793924Y-82137732D01*
X125836206Y-82165441D01*
X126203181Y-82532416D01*
X126236666Y-82593739D01*
X126239500Y-82620097D01*
X126239500Y-83210234D01*
X126219815Y-83277273D01*
X126218602Y-83279125D01*
X126130609Y-83410814D01*
X126130602Y-83410827D01*
X126070264Y-83556498D01*
X126070261Y-83556510D01*
X126039500Y-83711153D01*
X126039500Y-83868846D01*
X126070261Y-84023489D01*
X126070264Y-84023501D01*
X126130602Y-84169172D01*
X126130609Y-84169185D01*
X126218210Y-84300288D01*
X126218213Y-84300292D01*
X126329707Y-84411786D01*
X126329711Y-84411789D01*
X126460814Y-84499390D01*
X126460827Y-84499397D01*
X126606498Y-84559735D01*
X126606503Y-84559737D01*
X126761153Y-84590499D01*
X126761156Y-84590500D01*
X126761158Y-84590500D01*
X126918844Y-84590500D01*
X126918845Y-84590499D01*
X127073497Y-84559737D01*
X127219179Y-84499394D01*
X127350289Y-84411789D01*
X127461789Y-84300289D01*
X127549394Y-84169179D01*
X127609737Y-84023497D01*
X127640500Y-83868842D01*
X127640500Y-83711158D01*
X127640500Y-83711155D01*
X127640499Y-83711153D01*
X127609737Y-83556503D01*
X127586419Y-83500208D01*
X127549397Y-83410827D01*
X127549390Y-83410814D01*
X127461398Y-83279125D01*
X127440520Y-83212447D01*
X127440500Y-83210234D01*
X127440500Y-82240945D01*
X127440500Y-82240943D01*
X127399577Y-82088216D01*
X127399577Y-82088215D01*
X127399577Y-82088214D01*
X127370639Y-82038095D01*
X127370637Y-82038092D01*
X127332358Y-81971789D01*
X127320520Y-81951284D01*
X127208716Y-81839480D01*
X127208715Y-81839479D01*
X127204385Y-81835149D01*
X127204374Y-81835139D01*
X126357590Y-80988355D01*
X126357588Y-80988352D01*
X126238717Y-80869481D01*
X126238712Y-80869477D01*
X126164937Y-80826883D01*
X126139256Y-80807177D01*
X126060292Y-80728213D01*
X126060288Y-80728210D01*
X125929185Y-80640609D01*
X125929172Y-80640602D01*
X125783501Y-80580264D01*
X125783489Y-80580261D01*
X125628845Y-80549500D01*
X125628842Y-80549500D01*
X125471158Y-80549500D01*
X125471155Y-80549500D01*
X125316510Y-80580261D01*
X125316498Y-80580264D01*
X125170827Y-80640602D01*
X125170814Y-80640609D01*
X125039711Y-80728210D01*
X125039707Y-80728213D01*
X124928213Y-80839707D01*
X124928210Y-80839711D01*
X124840609Y-80970814D01*
X124840602Y-80970827D01*
X124780264Y-81116498D01*
X124780261Y-81116510D01*
X124749500Y-81271153D01*
X112096335Y-81271153D01*
X112089184Y-70361153D01*
X125729500Y-70361153D01*
X125729500Y-70518846D01*
X125760261Y-70673489D01*
X125760264Y-70673501D01*
X125820602Y-70819172D01*
X125820609Y-70819185D01*
X125908210Y-70950288D01*
X125908213Y-70950292D01*
X126019707Y-71061786D01*
X126019711Y-71061789D01*
X126150814Y-71149390D01*
X126150827Y-71149397D01*
X126218961Y-71177618D01*
X126296503Y-71209737D01*
X126327018Y-71215806D01*
X126388929Y-71248191D01*
X126390508Y-71249743D01*
X128734690Y-73593925D01*
X128768175Y-73655248D01*
X128768626Y-73657414D01*
X128799526Y-73812756D01*
X128799529Y-73812766D01*
X128859867Y-73958437D01*
X128859874Y-73958450D01*
X128947475Y-74089553D01*
X128947478Y-74089557D01*
X129058972Y-74201051D01*
X129058976Y-74201054D01*
X129190079Y-74288655D01*
X129190092Y-74288662D01*
X129335763Y-74349000D01*
X129335768Y-74349002D01*
X129490418Y-74379764D01*
X129490421Y-74379765D01*
X129490423Y-74379765D01*
X129648109Y-74379765D01*
X129648110Y-74379764D01*
X129802762Y-74349002D01*
X129948444Y-74288659D01*
X130079554Y-74201054D01*
X130191054Y-74089554D01*
X130278659Y-73958444D01*
X130339002Y-73812762D01*
X130369765Y-73658107D01*
X130369765Y-73500423D01*
X130369765Y-73500420D01*
X130369764Y-73500418D01*
X130357581Y-73439172D01*
X130339002Y-73345768D01*
X130328806Y-73321153D01*
X130278662Y-73200092D01*
X130278655Y-73200079D01*
X130191054Y-73068976D01*
X130191051Y-73068972D01*
X130079557Y-72957478D01*
X130079553Y-72957475D01*
X129948450Y-72869874D01*
X129948437Y-72869867D01*
X129802766Y-72809529D01*
X129802756Y-72809526D01*
X129647416Y-72778627D01*
X129585506Y-72746242D01*
X129583927Y-72744691D01*
X127880389Y-71041153D01*
X129489500Y-71041153D01*
X129489500Y-71198846D01*
X129520261Y-71353489D01*
X129520264Y-71353501D01*
X129580602Y-71499172D01*
X129580609Y-71499185D01*
X129668210Y-71630288D01*
X129668213Y-71630292D01*
X129779707Y-71741786D01*
X129779711Y-71741789D01*
X129910814Y-71829390D01*
X129910827Y-71829397D01*
X130056498Y-71889735D01*
X130056503Y-71889737D01*
X130211153Y-71920499D01*
X130211156Y-71920500D01*
X130211158Y-71920500D01*
X130239903Y-71920500D01*
X130306942Y-71940185D01*
X130327584Y-71956819D01*
X130525425Y-72154660D01*
X130558910Y-72215983D01*
X130559361Y-72218149D01*
X130590261Y-72373491D01*
X130590264Y-72373501D01*
X130650602Y-72519172D01*
X130650609Y-72519185D01*
X130738210Y-72650288D01*
X130738213Y-72650292D01*
X130849707Y-72761786D01*
X130849711Y-72761789D01*
X130980814Y-72849390D01*
X130980827Y-72849397D01*
X131122370Y-72908025D01*
X131126503Y-72909737D01*
X131281153Y-72940499D01*
X131281156Y-72940500D01*
X131281158Y-72940500D01*
X131438844Y-72940500D01*
X131438845Y-72940499D01*
X131593497Y-72909737D01*
X131739179Y-72849394D01*
X131870289Y-72761789D01*
X131981789Y-72650289D01*
X132069394Y-72519179D01*
X132129737Y-72373497D01*
X132160500Y-72218842D01*
X132160500Y-72061158D01*
X132160500Y-72061155D01*
X132160499Y-72061153D01*
X132129737Y-71906503D01*
X132097796Y-71829390D01*
X132069397Y-71760827D01*
X132069390Y-71760814D01*
X131981789Y-71629711D01*
X131981786Y-71629707D01*
X131870292Y-71518213D01*
X131870288Y-71518210D01*
X131739185Y-71430609D01*
X131739172Y-71430602D01*
X131593501Y-71370264D01*
X131593491Y-71370261D01*
X131438149Y-71339361D01*
X131376238Y-71306976D01*
X131374660Y-71305425D01*
X131112157Y-71042922D01*
X131078672Y-70981599D01*
X131078250Y-70979575D01*
X131059737Y-70886503D01*
X131031848Y-70819172D01*
X130999397Y-70740827D01*
X130999390Y-70740814D01*
X130911789Y-70609711D01*
X130911786Y-70609707D01*
X130800292Y-70498213D01*
X130800288Y-70498210D01*
X130669185Y-70410609D01*
X130669172Y-70410602D01*
X130523501Y-70350264D01*
X130523489Y-70350261D01*
X130368845Y-70319500D01*
X130368842Y-70319500D01*
X130211158Y-70319500D01*
X130211155Y-70319500D01*
X130056510Y-70350261D01*
X130056498Y-70350264D01*
X129910827Y-70410602D01*
X129910814Y-70410609D01*
X129779711Y-70498210D01*
X129779707Y-70498213D01*
X129668213Y-70609707D01*
X129668210Y-70609711D01*
X129580609Y-70740814D01*
X129580602Y-70740827D01*
X129520264Y-70886498D01*
X129520261Y-70886510D01*
X129489500Y-71041153D01*
X127880389Y-71041153D01*
X127366819Y-70527583D01*
X127333334Y-70466260D01*
X127330500Y-70439902D01*
X127330500Y-70361155D01*
X127330499Y-70361153D01*
X127322214Y-70319500D01*
X127299737Y-70206503D01*
X127242665Y-70068717D01*
X127239397Y-70060827D01*
X127239390Y-70060814D01*
X127151789Y-69929711D01*
X127151786Y-69929707D01*
X127040292Y-69818213D01*
X127040288Y-69818210D01*
X126909185Y-69730609D01*
X126909172Y-69730602D01*
X126763501Y-69670264D01*
X126763489Y-69670261D01*
X126608845Y-69639500D01*
X126608842Y-69639500D01*
X126451158Y-69639500D01*
X126451155Y-69639500D01*
X126296510Y-69670261D01*
X126296498Y-69670264D01*
X126150827Y-69730602D01*
X126150814Y-69730609D01*
X126019711Y-69818210D01*
X126019707Y-69818213D01*
X125908213Y-69929707D01*
X125908210Y-69929711D01*
X125820609Y-70060814D01*
X125820602Y-70060827D01*
X125760264Y-70206498D01*
X125760261Y-70206510D01*
X125729500Y-70361153D01*
X112089184Y-70361153D01*
X112085517Y-64767682D01*
X112085648Y-64761953D01*
X112097138Y-64513389D01*
X117699500Y-64513389D01*
X117699500Y-64686610D01*
X117724062Y-64841694D01*
X117726598Y-64857701D01*
X117780127Y-65022445D01*
X117858768Y-65176788D01*
X117960586Y-65316928D01*
X118083072Y-65439414D01*
X118100257Y-65451899D01*
X118166023Y-65499683D01*
X118208689Y-65555013D01*
X118214667Y-65624626D01*
X118182061Y-65686421D01*
X118166023Y-65700317D01*
X118083078Y-65760581D01*
X118083069Y-65760588D01*
X117960588Y-65883069D01*
X117960588Y-65883070D01*
X117960586Y-65883072D01*
X117932915Y-65921158D01*
X117858768Y-66023211D01*
X117780128Y-66177552D01*
X117780127Y-66177554D01*
X117780127Y-66177555D01*
X117771974Y-66202648D01*
X117726597Y-66342302D01*
X117699500Y-66513389D01*
X117699500Y-66686610D01*
X117720525Y-66819361D01*
X117726598Y-66857701D01*
X117780127Y-67022445D01*
X117858768Y-67176788D01*
X117960586Y-67316928D01*
X118083072Y-67439414D01*
X118223212Y-67541232D01*
X118377555Y-67619873D01*
X118542299Y-67673402D01*
X118713389Y-67700500D01*
X118713390Y-67700500D01*
X118886610Y-67700500D01*
X118886611Y-67700500D01*
X119057701Y-67673402D01*
X119222445Y-67619873D01*
X119376788Y-67541232D01*
X119516928Y-67439414D01*
X119639414Y-67316928D01*
X119741232Y-67176788D01*
X119819873Y-67022445D01*
X119873402Y-66857701D01*
X119900500Y-66686611D01*
X119900500Y-66513389D01*
X119873402Y-66342299D01*
X119819873Y-66177555D01*
X119741232Y-66023212D01*
X119639414Y-65883072D01*
X119516928Y-65760586D01*
X119433975Y-65700317D01*
X119391311Y-65644988D01*
X119385332Y-65575374D01*
X119417938Y-65513579D01*
X119433976Y-65499682D01*
X119516928Y-65439414D01*
X119639414Y-65316928D01*
X119741232Y-65176788D01*
X119819873Y-65022445D01*
X119873402Y-64857701D01*
X119900500Y-64686611D01*
X119900500Y-64513389D01*
X119873402Y-64342299D01*
X119819873Y-64177555D01*
X119770492Y-64080639D01*
X119741233Y-64023213D01*
X119718260Y-63991594D01*
X119639414Y-63883072D01*
X119516928Y-63760586D01*
X119511789Y-63756852D01*
X119429479Y-63697049D01*
X119386813Y-63641719D01*
X119378747Y-63587007D01*
X119382736Y-63536288D01*
X118800001Y-62953553D01*
X118800000Y-62953553D01*
X118217261Y-63536289D01*
X118221253Y-63587003D01*
X118206889Y-63655381D01*
X118170521Y-63697049D01*
X118083078Y-63760581D01*
X118083069Y-63760588D01*
X117960588Y-63883069D01*
X117960588Y-63883070D01*
X117960586Y-63883072D01*
X117959566Y-63884476D01*
X117858768Y-64023211D01*
X117780128Y-64177552D01*
X117726597Y-64342302D01*
X117699500Y-64513389D01*
X112097138Y-64513389D01*
X112103717Y-64371075D01*
X112104774Y-64359681D01*
X112158437Y-63974974D01*
X112160540Y-63963728D01*
X112249469Y-63585618D01*
X112252594Y-63574633D01*
X112376042Y-63206310D01*
X112380164Y-63195671D01*
X112414197Y-63118592D01*
X113223500Y-63118592D01*
X113223500Y-63281407D01*
X113255259Y-63441073D01*
X113255262Y-63441082D01*
X113317562Y-63591490D01*
X113317563Y-63591492D01*
X113408015Y-63726862D01*
X113408018Y-63726866D01*
X113523133Y-63841981D01*
X113523137Y-63841984D01*
X113658505Y-63932435D01*
X113658506Y-63932435D01*
X113658507Y-63932436D01*
X113658509Y-63932437D01*
X113747535Y-63969312D01*
X113808919Y-63994738D01*
X113808921Y-63994738D01*
X113808926Y-63994740D01*
X113968592Y-64026499D01*
X113968595Y-64026500D01*
X113968597Y-64026500D01*
X114131405Y-64026500D01*
X114131406Y-64026499D01*
X114184629Y-64015912D01*
X114291073Y-63994740D01*
X114291076Y-63994738D01*
X114291081Y-63994738D01*
X114441495Y-63932435D01*
X114576863Y-63841984D01*
X114691984Y-63726863D01*
X114782435Y-63591495D01*
X114844738Y-63441081D01*
X114876500Y-63281403D01*
X114876500Y-63118597D01*
X114876500Y-63118594D01*
X114876499Y-63118592D01*
X114844740Y-62958926D01*
X114844737Y-62958917D01*
X114841048Y-62950012D01*
X114797882Y-62845797D01*
X114782437Y-62808509D01*
X114782436Y-62808507D01*
X114691984Y-62673137D01*
X114691981Y-62673133D01*
X114576866Y-62558018D01*
X114576862Y-62558015D01*
X114510133Y-62513428D01*
X117700000Y-62513428D01*
X117700000Y-62686571D01*
X117727085Y-62857584D01*
X117780592Y-63022259D01*
X117859196Y-63176525D01*
X117863709Y-63182736D01*
X117863709Y-63182737D01*
X118446446Y-62600001D01*
X118446446Y-62599999D01*
X118400367Y-62553920D01*
X118449988Y-62553920D01*
X118449988Y-62646080D01*
X118473841Y-62735099D01*
X118519921Y-62814912D01*
X118585088Y-62880079D01*
X118664901Y-62926159D01*
X118753920Y-62950012D01*
X118846080Y-62950012D01*
X118935099Y-62926159D01*
X119014912Y-62880079D01*
X119080079Y-62814912D01*
X119126159Y-62735099D01*
X119150012Y-62646080D01*
X119150012Y-62599999D01*
X119153553Y-62599999D01*
X119153553Y-62600000D01*
X119736289Y-63182736D01*
X119740803Y-63176525D01*
X119819408Y-63022257D01*
X119872914Y-62857584D01*
X119900000Y-62686571D01*
X119900000Y-62513428D01*
X119872914Y-62342415D01*
X119819408Y-62177742D01*
X119740801Y-62023471D01*
X119736290Y-62017262D01*
X119736289Y-62017261D01*
X119153553Y-62599999D01*
X119150012Y-62599999D01*
X119150012Y-62553920D01*
X119126159Y-62464901D01*
X119080079Y-62385088D01*
X119014912Y-62319921D01*
X118935099Y-62273841D01*
X118846080Y-62249988D01*
X118753920Y-62249988D01*
X118664901Y-62273841D01*
X118585088Y-62319921D01*
X118519921Y-62385088D01*
X118473841Y-62464901D01*
X118449988Y-62553920D01*
X118400367Y-62553920D01*
X117863709Y-62017261D01*
X117863708Y-62017261D01*
X117859203Y-62023463D01*
X117859193Y-62023480D01*
X117780592Y-62177740D01*
X117727085Y-62342415D01*
X117700000Y-62513428D01*
X114510133Y-62513428D01*
X114441492Y-62467563D01*
X114441490Y-62467562D01*
X114291082Y-62405262D01*
X114291073Y-62405259D01*
X114131406Y-62373500D01*
X114131403Y-62373500D01*
X113968597Y-62373500D01*
X113968594Y-62373500D01*
X113808926Y-62405259D01*
X113808917Y-62405262D01*
X113658509Y-62467562D01*
X113658507Y-62467563D01*
X113523137Y-62558015D01*
X113523133Y-62558018D01*
X113408018Y-62673133D01*
X113408015Y-62673137D01*
X113317563Y-62808507D01*
X113317562Y-62808509D01*
X113255262Y-62958917D01*
X113255259Y-62958926D01*
X113223500Y-63118592D01*
X112414197Y-63118592D01*
X112537068Y-62840314D01*
X112542160Y-62830087D01*
X112731176Y-62490737D01*
X112737202Y-62481005D01*
X112746411Y-62467562D01*
X112956728Y-62160535D01*
X112963610Y-62151423D01*
X113211768Y-61852578D01*
X113219462Y-61844138D01*
X113399892Y-61663708D01*
X118217261Y-61663708D01*
X118217261Y-61663709D01*
X118800000Y-62246446D01*
X118800001Y-62246446D01*
X119382737Y-61663709D01*
X119376525Y-61659196D01*
X119222259Y-61580592D01*
X119057584Y-61527085D01*
X118886571Y-61500000D01*
X118713429Y-61500000D01*
X118542415Y-61527085D01*
X118377740Y-61580592D01*
X118223480Y-61659193D01*
X118223463Y-61659203D01*
X118217261Y-61663708D01*
X113399892Y-61663708D01*
X113494138Y-61569462D01*
X113502578Y-61561768D01*
X113801423Y-61313610D01*
X113810535Y-61306728D01*
X114131010Y-61087198D01*
X114140737Y-61081176D01*
X114480087Y-60892160D01*
X114490296Y-60887076D01*
X114845671Y-60730164D01*
X114856310Y-60726042D01*
X115224633Y-60602594D01*
X115235618Y-60599469D01*
X115613734Y-60510538D01*
X115624974Y-60508437D01*
X116009690Y-60454773D01*
X116021077Y-60453717D01*
X116411958Y-60435647D01*
X116417587Y-60435516D01*
X116480713Y-60435517D01*
X116480889Y-60435469D01*
X116487241Y-60435464D01*
X132634866Y-60423979D01*
X132701917Y-60443616D01*
X132747710Y-60496387D01*
X132757702Y-60565539D01*
X132734220Y-60622288D01*
X132724205Y-60635665D01*
X132724202Y-60635671D01*
X132673908Y-60770517D01*
X132667501Y-60830116D01*
X132667501Y-60830123D01*
X132667500Y-60830135D01*
X132667500Y-62449870D01*
X132667501Y-62449876D01*
X132673908Y-62509483D01*
X132724202Y-62644328D01*
X132724206Y-62644335D01*
X132810452Y-62759544D01*
X132810455Y-62759547D01*
X132925664Y-62845793D01*
X132925671Y-62845797D01*
X133060517Y-62896091D01*
X133060516Y-62896091D01*
X133067444Y-62896835D01*
X133120127Y-62902500D01*
X133159652Y-62902499D01*
X133226689Y-62922182D01*
X133272445Y-62974985D01*
X133282390Y-63044143D01*
X133253367Y-63107700D01*
X133232538Y-63126816D01*
X133231283Y-63127727D01*
X133231282Y-63127730D01*
X133902554Y-63799000D01*
X133879840Y-63799000D01*
X133782939Y-63824964D01*
X133696060Y-63875124D01*
X133625124Y-63946060D01*
X133574964Y-64032939D01*
X133549000Y-64129840D01*
X133549000Y-64152552D01*
X132877730Y-63481282D01*
X132877729Y-63481283D01*
X132850643Y-63518564D01*
X132760457Y-63695562D01*
X132699075Y-63884476D01*
X132699075Y-63884479D01*
X132668000Y-64080678D01*
X132668000Y-64279321D01*
X132699075Y-64475520D01*
X132699075Y-64475523D01*
X132760457Y-64664437D01*
X132850641Y-64841432D01*
X132877730Y-64878715D01*
X132877731Y-64878716D01*
X133549000Y-64207447D01*
X133549000Y-64230160D01*
X133574964Y-64327061D01*
X133625124Y-64413940D01*
X133696060Y-64484876D01*
X133782939Y-64535036D01*
X133879840Y-64561000D01*
X133902553Y-64561000D01*
X133231283Y-65232268D01*
X133231283Y-65232269D01*
X133268567Y-65259358D01*
X133425331Y-65339234D01*
X133476127Y-65387209D01*
X133492922Y-65455030D01*
X133470384Y-65521165D01*
X133425331Y-65560204D01*
X133268305Y-65640213D01*
X133107533Y-65757021D01*
X132967021Y-65897533D01*
X132850213Y-66058305D01*
X132759994Y-66235367D01*
X132759993Y-66235370D01*
X132698587Y-66424362D01*
X132676848Y-66561619D01*
X132667500Y-66620639D01*
X132667500Y-66819361D01*
X132678809Y-66890763D01*
X132698587Y-67015637D01*
X132759993Y-67204629D01*
X132759994Y-67204632D01*
X132817213Y-67316928D01*
X132850213Y-67381694D01*
X132967019Y-67542464D01*
X133107536Y-67682981D01*
X133268306Y-67799787D01*
X133386832Y-67860179D01*
X133424780Y-67879515D01*
X133475576Y-67927490D01*
X133492371Y-67995311D01*
X133469833Y-68061446D01*
X133424780Y-68100485D01*
X133268305Y-68180213D01*
X133107533Y-68297021D01*
X132967021Y-68437533D01*
X132850213Y-68598305D01*
X132759994Y-68775367D01*
X132759993Y-68775370D01*
X132698587Y-68964362D01*
X132667500Y-69160639D01*
X132667500Y-69359360D01*
X132698587Y-69555637D01*
X132759993Y-69744629D01*
X132759994Y-69744632D01*
X132850213Y-69921694D01*
X132967019Y-70082464D01*
X133107536Y-70222981D01*
X133268306Y-70339787D01*
X133310243Y-70361155D01*
X133424780Y-70419515D01*
X133475576Y-70467490D01*
X133492371Y-70535311D01*
X133469833Y-70601446D01*
X133424780Y-70640485D01*
X133268305Y-70720213D01*
X133107533Y-70837021D01*
X132967021Y-70977533D01*
X132850213Y-71138305D01*
X132759994Y-71315367D01*
X132759993Y-71315370D01*
X132698587Y-71504362D01*
X132678642Y-71630289D01*
X132667500Y-71700639D01*
X132667500Y-71899361D01*
X132683043Y-71997498D01*
X132698587Y-72095637D01*
X132759993Y-72284629D01*
X132759994Y-72284632D01*
X132805270Y-72373489D01*
X132850213Y-72461694D01*
X132967019Y-72622464D01*
X133107536Y-72762981D01*
X133268306Y-72879787D01*
X133323726Y-72908025D01*
X133424780Y-72959515D01*
X133475576Y-73007490D01*
X133492371Y-73075311D01*
X133469833Y-73141446D01*
X133424780Y-73180485D01*
X133268305Y-73260213D01*
X133107533Y-73377021D01*
X132967021Y-73517533D01*
X132850213Y-73678305D01*
X132759994Y-73855367D01*
X132759993Y-73855370D01*
X132698587Y-74044362D01*
X132667500Y-74240639D01*
X132667500Y-74439360D01*
X132698587Y-74635637D01*
X132759993Y-74824629D01*
X132759994Y-74824632D01*
X132850213Y-75001694D01*
X132967019Y-75162464D01*
X133107536Y-75302981D01*
X133268306Y-75419787D01*
X133329453Y-75450943D01*
X133424780Y-75499515D01*
X133475576Y-75547490D01*
X133492371Y-75615311D01*
X133469833Y-75681446D01*
X133424780Y-75720485D01*
X133268305Y-75800213D01*
X133107533Y-75917021D01*
X132967021Y-76057533D01*
X132850213Y-76218305D01*
X132759994Y-76395367D01*
X132759993Y-76395370D01*
X132698587Y-76584362D01*
X132667500Y-76780639D01*
X132667500Y-76979360D01*
X132698587Y-77175637D01*
X132759993Y-77364629D01*
X132759994Y-77364632D01*
X132850213Y-77541694D01*
X132967019Y-77702464D01*
X133107536Y-77842981D01*
X133268306Y-77959787D01*
X133386832Y-78020179D01*
X133424780Y-78039515D01*
X133475576Y-78087490D01*
X133492371Y-78155311D01*
X133469833Y-78221446D01*
X133424780Y-78260485D01*
X133268305Y-78340213D01*
X133107533Y-78457021D01*
X132967021Y-78597533D01*
X132850213Y-78758305D01*
X132759994Y-78935367D01*
X132759993Y-78935370D01*
X132698587Y-79124362D01*
X132667500Y-79320639D01*
X132667500Y-79519360D01*
X132698587Y-79715637D01*
X132759993Y-79904629D01*
X132759994Y-79904632D01*
X132812570Y-80007816D01*
X132850213Y-80081694D01*
X132967019Y-80242464D01*
X133107536Y-80382981D01*
X133268306Y-80499787D01*
X133365873Y-80549500D01*
X133424780Y-80579515D01*
X133475576Y-80627490D01*
X133492371Y-80695311D01*
X133469833Y-80761446D01*
X133424780Y-80800485D01*
X133268305Y-80880213D01*
X133107533Y-80997021D01*
X132967021Y-81137533D01*
X132850213Y-81298305D01*
X132759994Y-81475367D01*
X132759993Y-81475370D01*
X132698587Y-81664362D01*
X132667500Y-81860639D01*
X132667500Y-82059360D01*
X132698587Y-82255637D01*
X132759993Y-82444629D01*
X132759994Y-82444632D01*
X132804723Y-82532416D01*
X132850213Y-82621694D01*
X132967019Y-82782464D01*
X133107536Y-82922981D01*
X133268306Y-83039787D01*
X133355149Y-83084035D01*
X133445367Y-83130005D01*
X133445370Y-83130006D01*
X133539866Y-83160709D01*
X133634364Y-83191413D01*
X133830639Y-83222500D01*
X133830640Y-83222500D01*
X134029360Y-83222500D01*
X134029361Y-83222500D01*
X134225636Y-83191413D01*
X134414632Y-83130005D01*
X134591694Y-83039787D01*
X134752464Y-82922981D01*
X134892981Y-82782464D01*
X135009787Y-82621694D01*
X135100005Y-82444632D01*
X135161413Y-82255636D01*
X135192500Y-82059361D01*
X135192500Y-81860639D01*
X135161413Y-81664364D01*
X135130709Y-81569866D01*
X135100006Y-81475370D01*
X135100005Y-81475367D01*
X135021752Y-81321789D01*
X135009787Y-81298306D01*
X134892981Y-81137536D01*
X134752464Y-80997019D01*
X134591694Y-80880213D01*
X134435218Y-80800484D01*
X134384423Y-80752510D01*
X134367628Y-80684689D01*
X134390165Y-80618554D01*
X134435218Y-80579515D01*
X134591694Y-80499787D01*
X134752464Y-80382981D01*
X134892981Y-80242464D01*
X135009787Y-80081694D01*
X135100005Y-79904632D01*
X135161413Y-79715636D01*
X135192500Y-79519361D01*
X135192500Y-79320639D01*
X135161413Y-79124364D01*
X135130709Y-79029866D01*
X135100006Y-78935370D01*
X135100005Y-78935367D01*
X135054035Y-78845149D01*
X135009787Y-78758306D01*
X134892981Y-78597536D01*
X134752464Y-78457019D01*
X134591694Y-78340213D01*
X134435218Y-78260484D01*
X134384423Y-78212510D01*
X134367628Y-78144689D01*
X134390165Y-78078554D01*
X134435218Y-78039515D01*
X134591694Y-77959787D01*
X134752464Y-77842981D01*
X134892981Y-77702464D01*
X135009787Y-77541694D01*
X135100005Y-77364632D01*
X135161413Y-77175636D01*
X135192500Y-76979361D01*
X135192500Y-76780639D01*
X135161413Y-76584364D01*
X135100005Y-76395368D01*
X135100005Y-76395367D01*
X135009786Y-76218305D01*
X134902637Y-76070827D01*
X134892981Y-76057536D01*
X134752464Y-75917019D01*
X134591694Y-75800213D01*
X134435218Y-75720484D01*
X134384423Y-75672510D01*
X134367628Y-75604689D01*
X134390165Y-75538554D01*
X134435218Y-75499515D01*
X134591694Y-75419787D01*
X134752464Y-75302981D01*
X134892981Y-75162464D01*
X135009787Y-75001694D01*
X135100005Y-74824632D01*
X135161413Y-74635636D01*
X135192500Y-74439361D01*
X135192500Y-74240639D01*
X135161413Y-74044364D01*
X135117850Y-73910289D01*
X135100006Y-73855370D01*
X135100005Y-73855367D01*
X135054035Y-73765149D01*
X135009787Y-73678306D01*
X134892981Y-73517536D01*
X134752464Y-73377019D01*
X134591694Y-73260213D01*
X134435218Y-73180484D01*
X134426697Y-73172436D01*
X134415775Y-73168182D01*
X134401759Y-73148883D01*
X134384423Y-73132510D01*
X134381605Y-73121133D01*
X134374717Y-73111648D01*
X134373360Y-73087836D01*
X134367628Y-73064689D01*
X134371408Y-73053594D01*
X134370742Y-73041892D01*
X134382471Y-73021129D01*
X134390165Y-72998554D01*
X134400217Y-72989718D01*
X134405057Y-72981153D01*
X136749500Y-72981153D01*
X136749500Y-73138846D01*
X136780261Y-73293489D01*
X136780264Y-73293501D01*
X136840602Y-73439172D01*
X136840609Y-73439185D01*
X136928210Y-73570288D01*
X136928213Y-73570292D01*
X137039707Y-73681786D01*
X137039711Y-73681789D01*
X137170814Y-73769390D01*
X137170827Y-73769397D01*
X137275521Y-73812762D01*
X137316503Y-73829737D01*
X137445353Y-73855367D01*
X137471153Y-73860499D01*
X137471156Y-73860500D01*
X137471158Y-73860500D01*
X137559903Y-73860500D01*
X137626942Y-73880185D01*
X137647584Y-73896819D01*
X139493181Y-75742416D01*
X139507884Y-75769343D01*
X139524477Y-75795162D01*
X139525368Y-75801362D01*
X139526666Y-75803739D01*
X139529500Y-75830097D01*
X139529500Y-75870234D01*
X139509815Y-75937273D01*
X139508602Y-75939125D01*
X139420609Y-76070814D01*
X139420602Y-76070827D01*
X139360264Y-76216498D01*
X139360261Y-76216510D01*
X139329500Y-76371153D01*
X139329500Y-76528846D01*
X139360261Y-76683489D01*
X139360264Y-76683501D01*
X139420602Y-76829172D01*
X139420609Y-76829185D01*
X139508210Y-76960288D01*
X139508213Y-76960292D01*
X139619707Y-77071786D01*
X139619711Y-77071789D01*
X139750814Y-77159390D01*
X139750827Y-77159397D01*
X139896498Y-77219735D01*
X139896503Y-77219737D01*
X140051153Y-77250499D01*
X140051156Y-77250500D01*
X140051158Y-77250500D01*
X140208844Y-77250500D01*
X140208845Y-77250499D01*
X140363497Y-77219737D01*
X140509179Y-77159394D01*
X140640289Y-77071789D01*
X140751789Y-76960289D01*
X140839394Y-76829179D01*
X140899737Y-76683497D01*
X140930500Y-76528842D01*
X140930500Y-76371158D01*
X140930500Y-76371155D01*
X140930499Y-76371153D01*
X140899737Y-76216503D01*
X140899735Y-76216498D01*
X140839397Y-76070827D01*
X140839390Y-76070814D01*
X140751398Y-75939125D01*
X140730520Y-75872447D01*
X140730500Y-75870234D01*
X140730500Y-75450945D01*
X140730500Y-75450943D01*
X140689577Y-75298216D01*
X140689573Y-75298209D01*
X140610524Y-75161290D01*
X140610521Y-75161286D01*
X140610520Y-75161284D01*
X140498716Y-75049480D01*
X140498715Y-75049479D01*
X140494385Y-75045149D01*
X140494374Y-75045139D01*
X138357260Y-72908025D01*
X138323775Y-72846702D01*
X138323335Y-72844593D01*
X138319737Y-72826503D01*
X138285850Y-72744691D01*
X138259397Y-72680827D01*
X138259390Y-72680814D01*
X138171789Y-72549711D01*
X138171786Y-72549707D01*
X138060292Y-72438213D01*
X138060288Y-72438210D01*
X137929185Y-72350609D01*
X137929172Y-72350602D01*
X137783501Y-72290264D01*
X137783489Y-72290261D01*
X137628845Y-72259500D01*
X137628842Y-72259500D01*
X137471158Y-72259500D01*
X137471155Y-72259500D01*
X137316510Y-72290261D01*
X137316498Y-72290264D01*
X137170827Y-72350602D01*
X137170814Y-72350609D01*
X137039711Y-72438210D01*
X137039707Y-72438213D01*
X136928213Y-72549707D01*
X136928210Y-72549711D01*
X136840609Y-72680814D01*
X136840602Y-72680827D01*
X136780264Y-72826498D01*
X136780261Y-72826510D01*
X136749500Y-72981153D01*
X134405057Y-72981153D01*
X134405110Y-72981059D01*
X134431796Y-72961964D01*
X134433668Y-72960319D01*
X134434415Y-72959924D01*
X134591694Y-72879787D01*
X134752464Y-72762981D01*
X134892981Y-72622464D01*
X135009787Y-72461694D01*
X135100005Y-72284632D01*
X135161413Y-72095636D01*
X135192500Y-71899361D01*
X135192500Y-71700639D01*
X135161413Y-71504364D01*
X135100005Y-71315368D01*
X135100005Y-71315367D01*
X135046183Y-71209737D01*
X135009787Y-71138306D01*
X134892981Y-70977536D01*
X134752464Y-70837019D01*
X134591694Y-70720213D01*
X134435218Y-70640484D01*
X134384423Y-70592510D01*
X134367628Y-70524689D01*
X134390165Y-70458554D01*
X134435218Y-70419515D01*
X134591694Y-70339787D01*
X134752464Y-70222981D01*
X134892981Y-70082464D01*
X135009787Y-69921694D01*
X135100005Y-69744632D01*
X135161413Y-69555636D01*
X135192500Y-69359361D01*
X135192500Y-69160639D01*
X135161413Y-68964364D01*
X135100005Y-68775368D01*
X135100005Y-68775367D01*
X135009786Y-68598305D01*
X134892981Y-68437536D01*
X134752464Y-68297019D01*
X134591694Y-68180213D01*
X134435218Y-68100484D01*
X134384423Y-68052510D01*
X134367628Y-67984689D01*
X134390165Y-67918554D01*
X134435218Y-67879515D01*
X134591694Y-67799787D01*
X134752464Y-67682981D01*
X134892981Y-67542464D01*
X135009787Y-67381694D01*
X135100005Y-67204632D01*
X135100501Y-67203107D01*
X135109052Y-67176788D01*
X135161413Y-67015636D01*
X135192500Y-66819361D01*
X135192500Y-66620639D01*
X135161413Y-66424364D01*
X135119303Y-66294762D01*
X135100006Y-66235370D01*
X135100005Y-66235367D01*
X135054035Y-66145149D01*
X135009787Y-66058306D01*
X134892981Y-65897536D01*
X134752464Y-65757019D01*
X134591694Y-65640213D01*
X134434667Y-65560203D01*
X134383872Y-65512229D01*
X134367077Y-65444408D01*
X134389614Y-65378273D01*
X134434669Y-65339234D01*
X134591422Y-65259364D01*
X134628716Y-65232268D01*
X133957448Y-64561000D01*
X133980160Y-64561000D01*
X134077061Y-64535036D01*
X134163940Y-64484876D01*
X134234876Y-64413940D01*
X134285036Y-64327061D01*
X134311000Y-64230160D01*
X134311000Y-64207447D01*
X134982268Y-64878715D01*
X135009362Y-64841425D01*
X135099542Y-64664437D01*
X135160924Y-64475523D01*
X135160924Y-64475520D01*
X135192000Y-64279321D01*
X135192000Y-64080678D01*
X135160924Y-63884479D01*
X135160924Y-63884476D01*
X135099542Y-63695562D01*
X135009358Y-63518567D01*
X134982268Y-63481283D01*
X134311000Y-64152551D01*
X134311000Y-64129840D01*
X134285036Y-64032939D01*
X134234876Y-63946060D01*
X134163940Y-63875124D01*
X134077061Y-63824964D01*
X133980160Y-63799000D01*
X133957447Y-63799000D01*
X134628716Y-63127731D01*
X134627458Y-63126817D01*
X134584792Y-63071486D01*
X134578814Y-63001873D01*
X134611420Y-62940078D01*
X134672259Y-62905721D01*
X134700343Y-62902499D01*
X134739872Y-62902499D01*
X134799483Y-62896091D01*
X134934331Y-62845796D01*
X135049546Y-62759546D01*
X135135796Y-62644331D01*
X135186091Y-62509483D01*
X135192500Y-62449873D01*
X135192499Y-60830128D01*
X135186091Y-60770517D01*
X135171043Y-60730172D01*
X135135797Y-60635671D01*
X135135795Y-60635668D01*
X135124403Y-60620450D01*
X135099985Y-60554986D01*
X135114836Y-60486713D01*
X135164241Y-60437307D01*
X135223578Y-60422138D01*
X148329456Y-60412818D01*
X148396509Y-60432455D01*
X148442302Y-60485226D01*
X148452294Y-60554378D01*
X148423315Y-60617954D01*
X148402430Y-60637135D01*
X148347542Y-60677014D01*
X148347533Y-60677021D01*
X148207021Y-60817533D01*
X148090213Y-60978305D01*
X147999994Y-61155367D01*
X147999993Y-61155370D01*
X147938587Y-61344362D01*
X147907500Y-61540639D01*
X147907500Y-61739360D01*
X147938587Y-61935637D01*
X147999993Y-62124629D01*
X147999994Y-62124632D01*
X148063867Y-62249988D01*
X148090213Y-62301694D01*
X148207019Y-62462464D01*
X148347536Y-62602981D01*
X148508306Y-62719787D01*
X148586333Y-62759544D01*
X148664780Y-62799515D01*
X148715576Y-62847490D01*
X148732371Y-62915311D01*
X148709833Y-62981446D01*
X148664780Y-63020485D01*
X148508305Y-63100213D01*
X148347533Y-63217021D01*
X148207021Y-63357533D01*
X148090213Y-63518305D01*
X147999994Y-63695367D01*
X147999993Y-63695370D01*
X147938587Y-63884362D01*
X147916595Y-64023213D01*
X147907500Y-64080639D01*
X147907500Y-64279361D01*
X147921121Y-64365362D01*
X147938587Y-64475637D01*
X147999993Y-64664629D01*
X147999994Y-64664632D01*
X148067503Y-64797124D01*
X148090213Y-64841694D01*
X148207019Y-65002464D01*
X148347536Y-65142981D01*
X148508306Y-65259787D01*
X148589385Y-65301099D01*
X148664780Y-65339515D01*
X148715576Y-65387490D01*
X148732371Y-65455311D01*
X148709833Y-65521446D01*
X148664780Y-65560485D01*
X148508305Y-65640213D01*
X148347533Y-65757021D01*
X148207021Y-65897533D01*
X148090213Y-66058305D01*
X147999994Y-66235367D01*
X147999993Y-66235370D01*
X147938587Y-66424362D01*
X147916848Y-66561619D01*
X147907500Y-66620639D01*
X147907500Y-66819361D01*
X147918809Y-66890763D01*
X147938587Y-67015637D01*
X147999993Y-67204629D01*
X147999994Y-67204632D01*
X148057213Y-67316928D01*
X148090213Y-67381694D01*
X148207019Y-67542464D01*
X148347536Y-67682981D01*
X148508306Y-67799787D01*
X148626832Y-67860179D01*
X148664780Y-67879515D01*
X148715576Y-67927490D01*
X148732371Y-67995311D01*
X148709833Y-68061446D01*
X148664780Y-68100485D01*
X148508305Y-68180213D01*
X148347533Y-68297021D01*
X148207021Y-68437533D01*
X148090213Y-68598305D01*
X147999994Y-68775367D01*
X147999993Y-68775370D01*
X147938587Y-68964362D01*
X147907500Y-69160639D01*
X147907500Y-69359360D01*
X147938587Y-69555637D01*
X147999993Y-69744629D01*
X147999994Y-69744632D01*
X148090213Y-69921694D01*
X148207019Y-70082464D01*
X148347536Y-70222981D01*
X148508306Y-70339787D01*
X148550243Y-70361155D01*
X148664780Y-70419515D01*
X148715576Y-70467490D01*
X148732371Y-70535311D01*
X148709833Y-70601446D01*
X148664780Y-70640485D01*
X148508305Y-70720213D01*
X148347533Y-70837021D01*
X148207021Y-70977533D01*
X148090213Y-71138305D01*
X147999994Y-71315367D01*
X147999993Y-71315370D01*
X147938587Y-71504362D01*
X147918642Y-71630289D01*
X147907500Y-71700639D01*
X147907500Y-71899361D01*
X147923043Y-71997498D01*
X147938587Y-72095637D01*
X147999993Y-72284629D01*
X147999994Y-72284632D01*
X148045270Y-72373489D01*
X148090213Y-72461694D01*
X148207019Y-72622464D01*
X148347536Y-72762981D01*
X148508306Y-72879787D01*
X148563726Y-72908025D01*
X148664780Y-72959515D01*
X148715576Y-73007490D01*
X148732371Y-73075311D01*
X148709833Y-73141446D01*
X148664780Y-73180485D01*
X148508305Y-73260213D01*
X148347533Y-73377021D01*
X148207021Y-73517533D01*
X148090213Y-73678305D01*
X147999994Y-73855367D01*
X147999993Y-73855370D01*
X147938587Y-74044362D01*
X147907500Y-74240639D01*
X147907500Y-74439360D01*
X147938587Y-74635637D01*
X147999993Y-74824629D01*
X147999994Y-74824632D01*
X148090213Y-75001694D01*
X148207019Y-75162464D01*
X148347536Y-75302981D01*
X148508306Y-75419787D01*
X148569453Y-75450943D01*
X148664780Y-75499515D01*
X148715576Y-75547490D01*
X148732371Y-75615311D01*
X148709833Y-75681446D01*
X148664780Y-75720485D01*
X148508305Y-75800213D01*
X148347533Y-75917021D01*
X148207021Y-76057533D01*
X148090213Y-76218305D01*
X147999994Y-76395367D01*
X147999993Y-76395370D01*
X147938587Y-76584362D01*
X147907500Y-76780639D01*
X147907500Y-76979360D01*
X147938587Y-77175637D01*
X147999993Y-77364629D01*
X147999994Y-77364632D01*
X148090213Y-77541694D01*
X148207019Y-77702464D01*
X148347536Y-77842981D01*
X148508306Y-77959787D01*
X148626832Y-78020179D01*
X148664780Y-78039515D01*
X148715576Y-78087490D01*
X148732371Y-78155311D01*
X148709833Y-78221446D01*
X148664780Y-78260485D01*
X148508305Y-78340213D01*
X148347533Y-78457021D01*
X148207021Y-78597533D01*
X148090213Y-78758305D01*
X147999994Y-78935367D01*
X147999993Y-78935370D01*
X147938587Y-79124362D01*
X147907500Y-79320639D01*
X147907500Y-79519360D01*
X147938587Y-79715637D01*
X147999993Y-79904629D01*
X147999994Y-79904632D01*
X148052570Y-80007816D01*
X148090213Y-80081694D01*
X148207019Y-80242464D01*
X148347536Y-80382981D01*
X148508306Y-80499787D01*
X148605873Y-80549500D01*
X148664780Y-80579515D01*
X148715576Y-80627490D01*
X148732371Y-80695311D01*
X148709833Y-80761446D01*
X148664780Y-80800485D01*
X148508305Y-80880213D01*
X148347533Y-80997021D01*
X148207021Y-81137533D01*
X148090213Y-81298305D01*
X147999994Y-81475367D01*
X147999993Y-81475370D01*
X147938587Y-81664362D01*
X147907500Y-81860639D01*
X147907500Y-82059360D01*
X147938587Y-82255637D01*
X147999993Y-82444629D01*
X147999994Y-82444632D01*
X148044723Y-82532416D01*
X148090213Y-82621694D01*
X148207019Y-82782464D01*
X148347536Y-82922981D01*
X148508306Y-83039787D01*
X148595149Y-83084035D01*
X148685367Y-83130005D01*
X148685370Y-83130006D01*
X148779866Y-83160709D01*
X148874364Y-83191413D01*
X149070639Y-83222500D01*
X149070640Y-83222500D01*
X149269360Y-83222500D01*
X149269361Y-83222500D01*
X149465636Y-83191413D01*
X149654632Y-83130005D01*
X149831694Y-83039787D01*
X149992464Y-82922981D01*
X150132981Y-82782464D01*
X150249787Y-82621694D01*
X150340005Y-82444632D01*
X150401413Y-82255636D01*
X150432500Y-82059361D01*
X150432500Y-81860639D01*
X150401413Y-81664364D01*
X150370709Y-81569866D01*
X150340006Y-81475370D01*
X150340005Y-81475367D01*
X150261752Y-81321789D01*
X150249787Y-81298306D01*
X150132981Y-81137536D01*
X149992464Y-80997019D01*
X149831694Y-80880213D01*
X149675218Y-80800484D01*
X149624423Y-80752510D01*
X149607628Y-80684689D01*
X149630165Y-80618554D01*
X149675218Y-80579515D01*
X149831694Y-80499787D01*
X149992464Y-80382981D01*
X150132981Y-80242464D01*
X150249787Y-80081694D01*
X150340005Y-79904632D01*
X150401413Y-79715636D01*
X150432500Y-79519361D01*
X150432500Y-79320639D01*
X150401413Y-79124364D01*
X150370709Y-79029866D01*
X150340006Y-78935370D01*
X150340005Y-78935367D01*
X150294035Y-78845149D01*
X150249787Y-78758306D01*
X150132981Y-78597536D01*
X149992464Y-78457019D01*
X149831694Y-78340213D01*
X149675218Y-78260484D01*
X149624423Y-78212510D01*
X149607628Y-78144689D01*
X149630165Y-78078554D01*
X149675218Y-78039515D01*
X149831694Y-77959787D01*
X149992464Y-77842981D01*
X150132981Y-77702464D01*
X150249787Y-77541694D01*
X150340005Y-77364632D01*
X150401413Y-77175636D01*
X150432500Y-76979361D01*
X150432500Y-76780639D01*
X150401413Y-76584364D01*
X150340005Y-76395368D01*
X150340005Y-76395367D01*
X150249786Y-76218305D01*
X150142637Y-76070827D01*
X150132981Y-76057536D01*
X149992464Y-75917019D01*
X149831694Y-75800213D01*
X149675218Y-75720484D01*
X149624423Y-75672510D01*
X149607628Y-75604689D01*
X149630165Y-75538554D01*
X149675218Y-75499515D01*
X149831694Y-75419787D01*
X149992464Y-75302981D01*
X150132981Y-75162464D01*
X150249787Y-75001694D01*
X150340005Y-74824632D01*
X150401413Y-74635636D01*
X150432500Y-74439361D01*
X150432500Y-74240639D01*
X150401413Y-74044364D01*
X150357850Y-73910289D01*
X150340006Y-73855370D01*
X150340005Y-73855367D01*
X150294035Y-73765149D01*
X150249787Y-73678306D01*
X150132981Y-73517536D01*
X149992464Y-73377019D01*
X149831694Y-73260213D01*
X149675218Y-73180484D01*
X149624423Y-73132510D01*
X149607628Y-73064689D01*
X149630165Y-72998554D01*
X149675218Y-72959515D01*
X149831694Y-72879787D01*
X149992464Y-72762981D01*
X150132981Y-72622464D01*
X150249787Y-72461694D01*
X150340005Y-72284632D01*
X150401413Y-72095636D01*
X150432500Y-71899361D01*
X150432500Y-71700639D01*
X150401413Y-71504364D01*
X150340005Y-71315368D01*
X150340005Y-71315367D01*
X150286183Y-71209737D01*
X150249787Y-71138306D01*
X150132981Y-70977536D01*
X149992464Y-70837019D01*
X149831694Y-70720213D01*
X149675218Y-70640484D01*
X149624423Y-70592510D01*
X149607628Y-70524689D01*
X149630165Y-70458554D01*
X149675218Y-70419515D01*
X149831694Y-70339787D01*
X149992464Y-70222981D01*
X150132981Y-70082464D01*
X150249787Y-69921694D01*
X150340005Y-69744632D01*
X150401413Y-69555636D01*
X150432500Y-69359361D01*
X150432500Y-69160639D01*
X150401413Y-68964364D01*
X150340005Y-68775368D01*
X150340005Y-68775367D01*
X150249786Y-68598305D01*
X150132981Y-68437536D01*
X149992464Y-68297019D01*
X149831694Y-68180213D01*
X149675218Y-68100484D01*
X149624423Y-68052510D01*
X149607628Y-67984689D01*
X149630165Y-67918554D01*
X149675218Y-67879515D01*
X149831694Y-67799787D01*
X149992464Y-67682981D01*
X150132981Y-67542464D01*
X150249787Y-67381694D01*
X150340005Y-67204632D01*
X150340501Y-67203107D01*
X150349052Y-67176788D01*
X150401413Y-67015636D01*
X150432500Y-66819361D01*
X150432500Y-66620639D01*
X150401413Y-66424364D01*
X150359303Y-66294762D01*
X150340006Y-66235370D01*
X150340005Y-66235367D01*
X150308762Y-66174052D01*
X150249787Y-66058306D01*
X150224289Y-66023211D01*
X150198674Y-65987954D01*
X150198672Y-65987952D01*
X150192724Y-65979765D01*
X150150140Y-65921153D01*
X152699500Y-65921153D01*
X152699500Y-66078846D01*
X152730261Y-66233489D01*
X152730264Y-66233501D01*
X152790602Y-66379172D01*
X152790609Y-66379185D01*
X152878602Y-66510874D01*
X152899480Y-66577551D01*
X152899500Y-66579765D01*
X152899500Y-80120234D01*
X152879815Y-80187273D01*
X152878602Y-80189125D01*
X152790609Y-80320814D01*
X152790602Y-80320827D01*
X152730264Y-80466498D01*
X152730261Y-80466510D01*
X152699500Y-80621153D01*
X152699500Y-80778846D01*
X152730261Y-80933489D01*
X152730264Y-80933501D01*
X152790602Y-81079172D01*
X152790609Y-81079185D01*
X152878210Y-81210288D01*
X152878213Y-81210292D01*
X152989707Y-81321786D01*
X152989711Y-81321789D01*
X153120814Y-81409390D01*
X153120827Y-81409397D01*
X153266498Y-81469735D01*
X153266503Y-81469737D01*
X153421153Y-81500499D01*
X153421156Y-81500500D01*
X153421158Y-81500500D01*
X153578844Y-81500500D01*
X153578845Y-81500499D01*
X153733497Y-81469737D01*
X153879179Y-81409394D01*
X154010289Y-81321789D01*
X154121789Y-81210289D01*
X154209394Y-81079179D01*
X154269737Y-80933497D01*
X154300500Y-80778842D01*
X154300500Y-80621158D01*
X154300500Y-80621155D01*
X154300499Y-80621153D01*
X154294303Y-80590005D01*
X154269737Y-80466503D01*
X154266842Y-80459514D01*
X154209397Y-80320827D01*
X154209390Y-80320814D01*
X154121398Y-80189125D01*
X154100520Y-80122447D01*
X154100500Y-80120234D01*
X154100500Y-79193713D01*
X160149500Y-79193713D01*
X160149500Y-79406287D01*
X160182754Y-79616243D01*
X160215049Y-79715637D01*
X160248444Y-79818414D01*
X160344951Y-80007820D01*
X160469890Y-80179786D01*
X160620213Y-80330109D01*
X160792182Y-80455050D01*
X160800946Y-80459516D01*
X160851742Y-80507491D01*
X160868536Y-80575312D01*
X160845998Y-80641447D01*
X160800946Y-80680484D01*
X160792182Y-80684949D01*
X160620213Y-80809890D01*
X160469890Y-80960213D01*
X160344951Y-81132179D01*
X160248444Y-81321585D01*
X160182753Y-81523760D01*
X160173293Y-81583489D01*
X160149500Y-81733713D01*
X160149500Y-81946287D01*
X160150292Y-81951285D01*
X160176971Y-82119735D01*
X160182754Y-82156243D01*
X160215049Y-82255637D01*
X160248444Y-82358414D01*
X160344951Y-82547820D01*
X160469890Y-82719786D01*
X160620213Y-82870109D01*
X160792182Y-82995050D01*
X160800946Y-82999516D01*
X160851742Y-83047491D01*
X160868536Y-83115312D01*
X160845998Y-83181447D01*
X160800946Y-83220484D01*
X160792182Y-83224949D01*
X160620213Y-83349890D01*
X160469890Y-83500213D01*
X160344951Y-83672179D01*
X160248444Y-83861585D01*
X160182753Y-84063760D01*
X160149500Y-84273713D01*
X160149500Y-84486287D01*
X160159534Y-84549644D01*
X160182753Y-84696239D01*
X160248444Y-84898414D01*
X160344951Y-85087820D01*
X160469890Y-85259786D01*
X160620213Y-85410109D01*
X160792182Y-85535050D01*
X160800946Y-85539516D01*
X160851742Y-85587491D01*
X160868536Y-85655312D01*
X160845998Y-85721447D01*
X160800946Y-85760484D01*
X160792182Y-85764949D01*
X160620213Y-85889890D01*
X160469890Y-86040213D01*
X160344951Y-86212179D01*
X160248444Y-86401585D01*
X160182753Y-86603760D01*
X160149500Y-86813713D01*
X160149500Y-87026286D01*
X160182753Y-87236239D01*
X160248444Y-87438414D01*
X160344951Y-87627820D01*
X160469890Y-87799786D01*
X160620213Y-87950109D01*
X160792182Y-88075050D01*
X160800946Y-88079516D01*
X160851742Y-88127491D01*
X160868536Y-88195312D01*
X160845998Y-88261447D01*
X160800946Y-88300484D01*
X160792182Y-88304949D01*
X160620213Y-88429890D01*
X160469890Y-88580213D01*
X160344951Y-88752179D01*
X160248444Y-88941585D01*
X160182753Y-89143760D01*
X160149500Y-89353713D01*
X160149500Y-89566286D01*
X160181723Y-89769738D01*
X160182754Y-89776243D01*
X160190635Y-89800499D01*
X160248444Y-89978414D01*
X160344951Y-90167820D01*
X160469890Y-90339786D01*
X160583818Y-90453714D01*
X160617303Y-90515037D01*
X160612319Y-90584729D01*
X160570447Y-90640662D01*
X160539471Y-90657577D01*
X160407912Y-90706646D01*
X160407906Y-90706649D01*
X160292812Y-90792809D01*
X160292809Y-90792812D01*
X160206649Y-90907906D01*
X160206645Y-90907913D01*
X160156403Y-91042620D01*
X160156401Y-91042627D01*
X160150000Y-91102155D01*
X160150000Y-91750000D01*
X161066988Y-91750000D01*
X161034075Y-91807007D01*
X161000000Y-91934174D01*
X161000000Y-92065826D01*
X161034075Y-92192993D01*
X161066988Y-92250000D01*
X160150000Y-92250000D01*
X160150000Y-92897844D01*
X160156401Y-92957372D01*
X160156403Y-92957379D01*
X160206645Y-93092086D01*
X160206649Y-93092093D01*
X160292809Y-93207187D01*
X160292812Y-93207190D01*
X160407906Y-93293350D01*
X160407913Y-93293354D01*
X160542620Y-93343596D01*
X160542627Y-93343598D01*
X160602155Y-93349999D01*
X160602172Y-93350000D01*
X161250000Y-93350000D01*
X161250000Y-92433012D01*
X161307007Y-92465925D01*
X161434174Y-92500000D01*
X161565826Y-92500000D01*
X161692993Y-92465925D01*
X161750000Y-92433012D01*
X161750000Y-93350000D01*
X162397828Y-93350000D01*
X162397844Y-93349999D01*
X162457372Y-93343598D01*
X162457379Y-93343596D01*
X162592086Y-93293354D01*
X162592093Y-93293350D01*
X162707187Y-93207190D01*
X162707190Y-93207187D01*
X162793350Y-93092093D01*
X162793354Y-93092086D01*
X162843596Y-92957379D01*
X162843598Y-92957372D01*
X162849999Y-92897844D01*
X162850000Y-92897827D01*
X162850000Y-92250000D01*
X161933012Y-92250000D01*
X161965925Y-92192993D01*
X162000000Y-92065826D01*
X162000000Y-91934174D01*
X161965925Y-91807007D01*
X161933012Y-91750000D01*
X162850000Y-91750000D01*
X162850000Y-91102172D01*
X162849999Y-91102155D01*
X162843598Y-91042627D01*
X162843596Y-91042620D01*
X162793354Y-90907913D01*
X162793350Y-90907906D01*
X162707190Y-90792812D01*
X162707187Y-90792809D01*
X162592093Y-90706649D01*
X162592088Y-90706646D01*
X162460528Y-90657577D01*
X162404595Y-90615705D01*
X162380178Y-90550241D01*
X162395030Y-90481968D01*
X162416175Y-90453720D01*
X162530104Y-90339792D01*
X162655051Y-90167816D01*
X162751557Y-89978412D01*
X162817246Y-89776243D01*
X162850500Y-89566287D01*
X162850500Y-89353713D01*
X162817246Y-89143757D01*
X162751557Y-88941588D01*
X162655051Y-88752184D01*
X162655049Y-88752181D01*
X162655048Y-88752179D01*
X162530109Y-88580213D01*
X162379786Y-88429890D01*
X162207820Y-88304951D01*
X162207115Y-88304591D01*
X162199054Y-88300485D01*
X162148259Y-88252512D01*
X162131463Y-88184692D01*
X162153999Y-88118556D01*
X162199054Y-88079515D01*
X162207816Y-88075051D01*
X162229789Y-88059086D01*
X162379786Y-87950109D01*
X162379788Y-87950106D01*
X162379792Y-87950104D01*
X162530104Y-87799792D01*
X162530106Y-87799788D01*
X162530109Y-87799786D01*
X162655048Y-87627820D01*
X162655047Y-87627820D01*
X162655051Y-87627816D01*
X162751557Y-87438412D01*
X162817246Y-87236243D01*
X162850500Y-87026287D01*
X162850500Y-86813713D01*
X162817246Y-86603757D01*
X162751557Y-86401588D01*
X162655051Y-86212184D01*
X162655049Y-86212181D01*
X162655048Y-86212179D01*
X162530109Y-86040213D01*
X162379786Y-85889890D01*
X162207820Y-85764951D01*
X162207115Y-85764591D01*
X162199054Y-85760485D01*
X162148259Y-85712512D01*
X162131463Y-85644692D01*
X162153999Y-85578556D01*
X162199054Y-85539515D01*
X162207816Y-85535051D01*
X162229789Y-85519086D01*
X162379786Y-85410109D01*
X162379788Y-85410106D01*
X162379792Y-85410104D01*
X162530104Y-85259792D01*
X162530106Y-85259788D01*
X162530109Y-85259786D01*
X162655048Y-85087820D01*
X162655047Y-85087820D01*
X162655051Y-85087816D01*
X162751557Y-84898412D01*
X162817246Y-84696243D01*
X162850500Y-84486287D01*
X162850500Y-84273713D01*
X162817246Y-84063757D01*
X162751557Y-83861588D01*
X162655051Y-83672184D01*
X162655049Y-83672181D01*
X162655048Y-83672179D01*
X162530109Y-83500213D01*
X162379786Y-83349890D01*
X162207820Y-83224951D01*
X162207115Y-83224591D01*
X162199054Y-83220485D01*
X162148259Y-83172512D01*
X162131463Y-83104692D01*
X162153999Y-83038556D01*
X162199054Y-82999515D01*
X162207816Y-82995051D01*
X162307017Y-82922978D01*
X162379786Y-82870109D01*
X162379788Y-82870106D01*
X162379792Y-82870104D01*
X162530104Y-82719792D01*
X162530106Y-82719788D01*
X162530109Y-82719786D01*
X162655048Y-82547820D01*
X162655047Y-82547820D01*
X162655051Y-82547816D01*
X162751557Y-82358412D01*
X162817246Y-82156243D01*
X162850500Y-81946287D01*
X162850500Y-81733713D01*
X162817246Y-81523757D01*
X162751557Y-81321588D01*
X162655051Y-81132184D01*
X162655049Y-81132181D01*
X162655048Y-81132179D01*
X162530109Y-80960213D01*
X162379786Y-80809890D01*
X162207820Y-80684951D01*
X162207115Y-80684591D01*
X162199054Y-80680485D01*
X162148259Y-80632512D01*
X162131463Y-80564692D01*
X162153999Y-80498556D01*
X162199054Y-80459515D01*
X162207816Y-80455051D01*
X162307017Y-80382978D01*
X162379786Y-80330109D01*
X162379788Y-80330106D01*
X162379792Y-80330104D01*
X162530104Y-80179792D01*
X162530106Y-80179788D01*
X162530109Y-80179786D01*
X162655048Y-80007820D01*
X162655047Y-80007820D01*
X162655051Y-80007816D01*
X162751557Y-79818412D01*
X162817246Y-79616243D01*
X162850500Y-79406287D01*
X162850500Y-79193713D01*
X162817246Y-78983757D01*
X162751557Y-78781588D01*
X162655051Y-78592184D01*
X162655049Y-78592181D01*
X162655048Y-78592179D01*
X162530109Y-78420213D01*
X162379786Y-78269890D01*
X162207820Y-78144951D01*
X162018414Y-78048444D01*
X162018413Y-78048443D01*
X162018412Y-78048443D01*
X161816243Y-77982754D01*
X161816241Y-77982753D01*
X161816240Y-77982753D01*
X161654957Y-77957208D01*
X161606287Y-77949500D01*
X161393713Y-77949500D01*
X161345042Y-77957208D01*
X161183760Y-77982753D01*
X160981585Y-78048444D01*
X160792179Y-78144951D01*
X160620213Y-78269890D01*
X160469890Y-78420213D01*
X160344951Y-78592179D01*
X160248444Y-78781585D01*
X160182753Y-78983760D01*
X160160484Y-79124362D01*
X160149500Y-79193713D01*
X154100500Y-79193713D01*
X154100500Y-66579765D01*
X154105828Y-66561619D01*
X154106166Y-66542711D01*
X154119665Y-66514495D01*
X154120185Y-66512726D01*
X154121398Y-66510874D01*
X154172398Y-66434548D01*
X154226011Y-66389743D01*
X154295336Y-66381036D01*
X154358363Y-66411191D01*
X154395082Y-66470634D01*
X154399500Y-66503439D01*
X154399500Y-69613330D01*
X154399499Y-69613348D01*
X154399499Y-69779054D01*
X154399498Y-69779054D01*
X154399499Y-69779057D01*
X154440423Y-69931785D01*
X154442115Y-69934715D01*
X154442117Y-69934725D01*
X154442120Y-69934724D01*
X154519477Y-70068712D01*
X154519481Y-70068717D01*
X154638349Y-70187585D01*
X154638355Y-70187590D01*
X157990256Y-73539491D01*
X158023741Y-73600814D01*
X158024192Y-73602980D01*
X158030261Y-73633491D01*
X158030263Y-73633499D01*
X158090602Y-73779172D01*
X158090609Y-73779185D01*
X158178210Y-73910288D01*
X158178213Y-73910292D01*
X158289707Y-74021786D01*
X158289711Y-74021789D01*
X158420814Y-74109390D01*
X158420827Y-74109397D01*
X158566498Y-74169735D01*
X158566503Y-74169737D01*
X158721153Y-74200499D01*
X158721156Y-74200500D01*
X158721158Y-74200500D01*
X158878844Y-74200500D01*
X158878845Y-74200499D01*
X159033497Y-74169737D01*
X159179179Y-74109394D01*
X159310289Y-74021789D01*
X159421789Y-73910289D01*
X159509394Y-73779179D01*
X159569737Y-73633497D01*
X159600500Y-73478842D01*
X159600500Y-73321158D01*
X159600500Y-73321155D01*
X159600499Y-73321153D01*
X159576417Y-73200086D01*
X159569737Y-73166503D01*
X159550944Y-73121133D01*
X159509397Y-73020827D01*
X159509390Y-73020814D01*
X159421789Y-72889711D01*
X159421786Y-72889707D01*
X159310292Y-72778213D01*
X159310288Y-72778210D01*
X159179185Y-72690609D01*
X159179172Y-72690602D01*
X159033501Y-72630264D01*
X159033489Y-72630261D01*
X158878845Y-72599500D01*
X158878842Y-72599500D01*
X158800097Y-72599500D01*
X158733058Y-72579815D01*
X158712416Y-72563181D01*
X155636819Y-69487584D01*
X155603334Y-69426261D01*
X155600500Y-69399903D01*
X155600500Y-68007702D01*
X155620185Y-67940663D01*
X155672989Y-67894908D01*
X155742147Y-67884964D01*
X155748667Y-67886080D01*
X155805435Y-67897372D01*
X155821157Y-67900500D01*
X155821158Y-67900500D01*
X155978844Y-67900500D01*
X155978845Y-67900499D01*
X156133497Y-67869737D01*
X156279179Y-67809394D01*
X156293558Y-67799786D01*
X156410875Y-67721398D01*
X156477553Y-67700520D01*
X156479766Y-67700500D01*
X160717059Y-67700500D01*
X160784098Y-67720185D01*
X160804740Y-67736819D01*
X160813972Y-67746051D01*
X160813976Y-67746054D01*
X160945079Y-67833655D01*
X160945092Y-67833662D01*
X161081118Y-67890005D01*
X161090768Y-67894002D01*
X161245418Y-67924764D01*
X161245421Y-67924765D01*
X161245423Y-67924765D01*
X161403109Y-67924765D01*
X161403110Y-67924764D01*
X161557762Y-67894002D01*
X161670431Y-67847332D01*
X161703437Y-67833662D01*
X161703437Y-67833661D01*
X161703444Y-67833659D01*
X161834554Y-67746054D01*
X161946054Y-67634554D01*
X162033659Y-67503444D01*
X162094002Y-67357762D01*
X162124765Y-67203107D01*
X162124765Y-67045423D01*
X162124765Y-67045420D01*
X162124764Y-67045418D01*
X162094003Y-66890775D01*
X162094002Y-66890768D01*
X162080304Y-66857697D01*
X162033662Y-66745092D01*
X162033655Y-66745079D01*
X161946054Y-66613976D01*
X161946051Y-66613972D01*
X161834557Y-66502478D01*
X161834553Y-66502475D01*
X161703450Y-66414874D01*
X161703437Y-66414867D01*
X161557766Y-66354529D01*
X161557754Y-66354526D01*
X161403110Y-66323765D01*
X161403107Y-66323765D01*
X161245423Y-66323765D01*
X161245420Y-66323765D01*
X161090775Y-66354526D01*
X161090763Y-66354529D01*
X160945092Y-66414867D01*
X160945080Y-66414874D01*
X160849706Y-66478602D01*
X160783029Y-66499480D01*
X160780815Y-66499500D01*
X156479766Y-66499500D01*
X156412727Y-66479815D01*
X156410875Y-66478602D01*
X156279185Y-66390609D01*
X156279172Y-66390602D01*
X156133501Y-66330264D01*
X156133489Y-66330261D01*
X155978845Y-66299500D01*
X155978842Y-66299500D01*
X155821158Y-66299500D01*
X155821155Y-66299500D01*
X155748691Y-66313914D01*
X155727707Y-66312036D01*
X155706853Y-66315035D01*
X155693605Y-66308984D01*
X155679100Y-66307687D01*
X155662461Y-66294762D01*
X155643297Y-66286010D01*
X155635423Y-66273758D01*
X155623922Y-66264824D01*
X155616912Y-66244955D01*
X155605523Y-66227232D01*
X155601988Y-66202648D01*
X155600678Y-66198934D01*
X155600500Y-66192297D01*
X155600500Y-65979765D01*
X155620185Y-65912726D01*
X155621398Y-65910874D01*
X155709390Y-65779185D01*
X155709390Y-65779184D01*
X155709394Y-65779179D01*
X155717098Y-65760581D01*
X155769735Y-65633501D01*
X155769737Y-65633497D01*
X155800500Y-65478842D01*
X155800500Y-65321158D01*
X155800500Y-65321155D01*
X155800499Y-65321153D01*
X155782819Y-65232269D01*
X155769737Y-65166503D01*
X155710067Y-65022445D01*
X155709397Y-65020827D01*
X155709390Y-65020814D01*
X155621789Y-64889711D01*
X155621786Y-64889707D01*
X155510292Y-64778213D01*
X155510288Y-64778210D01*
X155379185Y-64690609D01*
X155379172Y-64690602D01*
X155233501Y-64630264D01*
X155233489Y-64630261D01*
X155078845Y-64599500D01*
X155078842Y-64599500D01*
X154921158Y-64599500D01*
X154921155Y-64599500D01*
X154766510Y-64630261D01*
X154766498Y-64630264D01*
X154620827Y-64690602D01*
X154620814Y-64690609D01*
X154489711Y-64778210D01*
X154489707Y-64778213D01*
X154378213Y-64889707D01*
X154378210Y-64889711D01*
X154290609Y-65020814D01*
X154290602Y-65020827D01*
X154230264Y-65166498D01*
X154230261Y-65166508D01*
X154203489Y-65301099D01*
X154171104Y-65363010D01*
X154110388Y-65397584D01*
X154040618Y-65393843D01*
X154012981Y-65380009D01*
X153879185Y-65290609D01*
X153879172Y-65290602D01*
X153733501Y-65230264D01*
X153733489Y-65230261D01*
X153578845Y-65199500D01*
X153578842Y-65199500D01*
X153421158Y-65199500D01*
X153421155Y-65199500D01*
X153266510Y-65230261D01*
X153266498Y-65230264D01*
X153120827Y-65290602D01*
X153120814Y-65290609D01*
X152989711Y-65378210D01*
X152989707Y-65378213D01*
X152878213Y-65489707D01*
X152878210Y-65489711D01*
X152790609Y-65620814D01*
X152790602Y-65620827D01*
X152730264Y-65766498D01*
X152730261Y-65766510D01*
X152699500Y-65921153D01*
X150150140Y-65921153D01*
X150132981Y-65897536D01*
X149992464Y-65757019D01*
X149831694Y-65640213D01*
X149675218Y-65560484D01*
X149624423Y-65512510D01*
X149607628Y-65444689D01*
X149630165Y-65378554D01*
X149675218Y-65339515D01*
X149831694Y-65259787D01*
X149992464Y-65142981D01*
X150132981Y-65002464D01*
X150249787Y-64841694D01*
X150340005Y-64664632D01*
X150401413Y-64475636D01*
X150432500Y-64279361D01*
X150432500Y-64080639D01*
X150401413Y-63884364D01*
X150361196Y-63760588D01*
X150340006Y-63695370D01*
X150340005Y-63695367D01*
X150284091Y-63585632D01*
X150249787Y-63518306D01*
X150132981Y-63357536D01*
X149992464Y-63217019D01*
X149986686Y-63212821D01*
X149986686Y-63212820D01*
X149856991Y-63118592D01*
X167373500Y-63118592D01*
X167373500Y-63281407D01*
X167405259Y-63441073D01*
X167405262Y-63441082D01*
X167467562Y-63591490D01*
X167467563Y-63591492D01*
X167558015Y-63726862D01*
X167558018Y-63726866D01*
X167673133Y-63841981D01*
X167673137Y-63841984D01*
X167808505Y-63932435D01*
X167808506Y-63932435D01*
X167808507Y-63932436D01*
X167808509Y-63932437D01*
X167897535Y-63969312D01*
X167958919Y-63994738D01*
X167958921Y-63994738D01*
X167958926Y-63994740D01*
X168118592Y-64026499D01*
X168118595Y-64026500D01*
X168118597Y-64026500D01*
X168281405Y-64026500D01*
X168281406Y-64026499D01*
X168334629Y-64015912D01*
X168441073Y-63994740D01*
X168441076Y-63994738D01*
X168441081Y-63994738D01*
X168591495Y-63932435D01*
X168726863Y-63841984D01*
X168841984Y-63726863D01*
X168932435Y-63591495D01*
X168994738Y-63441081D01*
X169026500Y-63281403D01*
X169026500Y-63118597D01*
X169026500Y-63118594D01*
X169026499Y-63118592D01*
X168994740Y-62958926D01*
X168994737Y-62958917D01*
X168991048Y-62950012D01*
X168947882Y-62845797D01*
X168932437Y-62808509D01*
X168932436Y-62808507D01*
X168841984Y-62673137D01*
X168841981Y-62673133D01*
X168726866Y-62558018D01*
X168726862Y-62558015D01*
X168591492Y-62467563D01*
X168591490Y-62467562D01*
X168441082Y-62405262D01*
X168441073Y-62405259D01*
X168281406Y-62373500D01*
X168281403Y-62373500D01*
X168118597Y-62373500D01*
X168118594Y-62373500D01*
X167958926Y-62405259D01*
X167958917Y-62405262D01*
X167808509Y-62467562D01*
X167808507Y-62467563D01*
X167673137Y-62558015D01*
X167673133Y-62558018D01*
X167558018Y-62673133D01*
X167558015Y-62673137D01*
X167467563Y-62808507D01*
X167467562Y-62808509D01*
X167405262Y-62958917D01*
X167405259Y-62958926D01*
X167373500Y-63118592D01*
X149856991Y-63118592D01*
X149831697Y-63100215D01*
X149831696Y-63100214D01*
X149831694Y-63100213D01*
X149675218Y-63020484D01*
X149624423Y-62972510D01*
X149607628Y-62904689D01*
X149630165Y-62838554D01*
X149675218Y-62799515D01*
X149831694Y-62719787D01*
X149992464Y-62602981D01*
X150132981Y-62462464D01*
X150249787Y-62301694D01*
X150340005Y-62124632D01*
X150401413Y-61935636D01*
X150432500Y-61739361D01*
X150432500Y-61540639D01*
X150401413Y-61344364D01*
X150340005Y-61155368D01*
X150340005Y-61155367D01*
X150249786Y-60978305D01*
X150187207Y-60892172D01*
X150132981Y-60817536D01*
X149992464Y-60677019D01*
X149935925Y-60635941D01*
X149893260Y-60580613D01*
X149887281Y-60510999D01*
X149919886Y-60449204D01*
X149980725Y-60414847D01*
X150008721Y-60411624D01*
X165647090Y-60400502D01*
X165652898Y-60400633D01*
G37*
%TD.AperFunction*%
%TD*%
M02*
