M48
; DRILL file {KiCad 9.0.7} date 2026-08-11T12:32:06+0100
; FORMAT={-:-/ absolute / inch / decimal}
; #@! TF.CreationDate,2026-08-11T12:32:06+01:00
; #@! TF.GenerationSoftware,Kicad,Pcbnew,9.0.7
; #@! TF.FileFunction,Plated,1,2,PTH
FMAT,2
INCH
; #@! TA.AperFunction,Plated,PTH,ViaDrill
T1C0.0118
; #@! TA.AperFunction,Plated,PTH,ComponentDrill
T2C0.0276
; #@! TA.AperFunction,Plated,PTH,ComponentDrill
T3C0.0300
; #@! TA.AperFunction,Plated,PTH,ComponentDrill
T4C0.0394
; #@! TA.AperFunction,Plated,PTH,ComponentDrill
T5C0.0591
%
G90
G05
T1
X4.9429Y-3.2028
X4.9449Y-3.5138
X4.9724Y-2.4921
X4.9764Y-2.6457
X4.9815Y-2.7732
X4.9937Y-3.2988
X5.1012Y-2.8968
X5.1295Y-2.8
X5.1378Y-3.4606
X5.1425Y-2.5283
X5.1717Y-2.8402
X5.4154Y-2.8764
X5.4331Y-3.5039
X5.5118Y-3.5039
X5.5169Y-3.0098
X5.9449Y-3.5039
X6.0433Y-2.5984
X6.0433Y-3.1772
X6.1024Y-2.5748
X6.1378Y-2.6417
X6.252Y-2.8898
X6.252Y-3.5008
X6.3513Y-2.6427
X6.5315Y-2.4488
T2
X4.6772Y-2.4646
X4.6772Y-2.5433
X4.6772Y-2.622
T3
X5.2728Y-2.4268
X5.2728Y-2.5268
X5.2728Y-2.6268
X5.2728Y-2.7268
X5.2728Y-2.8268
X5.2728Y-2.9268
X5.2728Y-3.0268
X5.2728Y-3.1268
X5.2728Y-3.2268
X5.8728Y-2.4268
X5.8728Y-2.5268
X5.8728Y-2.6268
X5.8728Y-2.7268
X5.8728Y-2.8268
X5.8728Y-2.9268
X5.8728Y-3.0268
X5.8728Y-3.1268
X5.8728Y-3.2268
T4
X6.3583Y-3.122
X6.3583Y-3.222
X6.3583Y-3.322
X6.3583Y-3.422
X6.3583Y-3.522
X6.3583Y-3.622
T5
X4.9173Y-4.1315
X5.1673Y-4.0315
X6.1142Y-4.1315
X6.3642Y-4.0315
M30
