%TF.GenerationSoftware,KiCad,Pcbnew,9.0.7*%
%TF.CreationDate,2026-08-21T03:15:55+01:00*%
%TF.ProjectId,lith,6c697468-2e6b-4696-9361-645f70636258,rev?*%
%TF.SameCoordinates,Original*%
%TF.FileFunction,Soldermask,Bot*%
%TF.FilePolarity,Negative*%
%FSLAX46Y46*%
G04 Gerber Fmt 4.6, Leading zero omitted, Abs format (unit mm)*
G04 Created by KiCad (PCBNEW 9.0.7) date 2026-08-21 03:15:55*
%MOMM*%
%LPD*%
G01*
G04 APERTURE LIST*
G04 Aperture macros list*
%AMRoundRect*
0 Rectangle with rounded corners*
0 $1 Rounding radius*
0 $2 $3 $4 $5 $6 $7 $8 $9 X,Y pos of 4 corners*
0 Add a 4 corners polygon primitive as box body*
4,1,4,$2,$3,$4,$5,$6,$7,$8,$9,$2,$3,0*
0 Add four circle primitives for the rounded corners*
1,1,$1+$1,$2,$3*
1,1,$1+$1,$4,$5*
1,1,$1+$1,$6,$7*
1,1,$1+$1,$8,$9*
0 Add four rect primitives between the rounded corners*
20,1,$1+$1,$2,$3,$4,$5,0*
20,1,$1+$1,$4,$5,$6,$7,0*
20,1,$1+$1,$6,$7,$8,$9,0*
20,1,$1+$1,$8,$9,$2,$3,0*%
G04 Aperture macros list end*
%ADD10R,1.524000X1.524000*%
%ADD11C,1.524000*%
%ADD12RoundRect,0.250000X-0.550000X-0.550000X0.550000X-0.550000X0.550000X0.550000X-0.550000X0.550000X0*%
%ADD13C,1.200000*%
%ADD14R,1.700000X1.700000*%
%ADD15C,1.700000*%
%ADD16C,1.750000*%
%ADD17C,3.050000*%
%ADD18C,4.000000*%
%ADD19RoundRect,0.250000X-1.025000X-1.000000X1.025000X-1.000000X1.025000X1.000000X-1.025000X1.000000X0*%
G04 APERTURE END LIST*
D10*
%TO.C,U1*%
X133930000Y-61640000D03*
D11*
X133930000Y-64180000D03*
X133930000Y-66720000D03*
X133930000Y-69260000D03*
X133930000Y-71800000D03*
X133930000Y-74340000D03*
X133930000Y-76880000D03*
X133930000Y-79420000D03*
X133930000Y-81960000D03*
X149170000Y-81960000D03*
X149170000Y-79420000D03*
X149170000Y-76880000D03*
X149170000Y-74340000D03*
X149170000Y-71800000D03*
X149170000Y-69260000D03*
X149170000Y-66720000D03*
X149170000Y-64180000D03*
X149170000Y-61640000D03*
%TD*%
D12*
%TO.C,REF\u002A\u002A*%
X131250000Y-64250000D03*
%TD*%
D13*
%TO.C,ENCODER*%
X118800000Y-62600000D03*
X118800000Y-64600000D03*
X118800000Y-66600000D03*
%TD*%
D14*
%TO.C,SPARE I/O*%
X161500000Y-92000000D03*
D15*
X161500000Y-89460000D03*
X161500000Y-86920000D03*
X161500000Y-84380000D03*
X161500000Y-81840000D03*
X161500000Y-79300000D03*
%TD*%
D12*
%TO.C,REF\u002A\u002A*%
X131250000Y-61650000D03*
%TD*%
%TO.C,REF\u002A\u002A*%
X131250000Y-66650000D03*
%TD*%
D16*
%TO.C,SW1*%
X123640000Y-107480000D03*
D17*
X124910000Y-104940000D03*
D18*
X128720000Y-107480000D03*
D17*
X131260000Y-102400000D03*
D16*
X133800000Y-107480000D03*
D19*
X121635000Y-104940000D03*
X134562000Y-102400000D03*
%TD*%
D16*
%TO.C,SW2*%
X154030000Y-107480000D03*
D17*
X155300000Y-104940000D03*
D18*
X159110000Y-107480000D03*
D17*
X161650000Y-102400000D03*
D16*
X164190000Y-107480000D03*
D19*
X152025000Y-104940000D03*
X164952000Y-102400000D03*
%TD*%
M02*
