%TF.GenerationSoftware,KiCad,Pcbnew,9.0.7*%
%TF.CreationDate,2026-08-21T03:15:55+01:00*%
%TF.ProjectId,lith,6c697468-2e6b-4696-9361-645f70636258,rev?*%
%TF.SameCoordinates,Original*%
%TF.FileFunction,Soldermask,Top*%
%TF.FilePolarity,Negative*%
%FSLAX46Y46*%
G04 Gerber Fmt 4.6, Leading zero omitted, Abs format (unit mm)*
G04 Created by KiCad (PCBNEW 9.0.7) date 2026-08-21 03:15:55*
%MOMM*%
%LPD*%
G01*
G04 APERTURE LIST*
G04 Aperture macros list*
%AMRoundRect*
0 Rectangle with rounded corners*
0 $1 Rounding radius*
0 $2 $3 $4 $5 $6 $7 $8 $9 X,Y pos of 4 corners*
0 Add a 4 corners polygon primitive as box body*
4,1,4,$2,$3,$4,$5,$6,$7,$8,$9,$2,$3,0*
0 Add four circle primitives for the rounded corners*
1,1,$1+$1,$2,$3*
1,1,$1+$1,$4,$5*
1,1,$1+$1,$6,$7*
1,1,$1+$1,$8,$9*
0 Add four rect primitives between the rounded corners*
20,1,$1+$1,$2,$3,$4,$5,0*
20,1,$1+$1,$4,$5,$6,$7,0*
20,1,$1+$1,$6,$7,$8,$9,0*
20,1,$1+$1,$8,$9,$2,$3,0*%
G04 Aperture macros list end*
%ADD10RoundRect,0.250000X-0.550000X-0.550000X0.550000X-0.550000X0.550000X0.550000X-0.550000X0.550000X0*%
%ADD11R,1.700000X1.700000*%
%ADD12R,1.524000X1.524000*%
%ADD13C,1.524000*%
%ADD14C,1.200000*%
%ADD15RoundRect,0.200000X-0.275000X0.200000X-0.275000X-0.200000X0.275000X-0.200000X0.275000X0.200000X0*%
%ADD16RoundRect,0.150000X-0.150000X0.587500X-0.150000X-0.587500X0.150000X-0.587500X0.150000X0.587500X0*%
%ADD17C,1.700000*%
%ADD18R,1.200000X0.500000*%
%ADD19R,1.500000X0.800000*%
%ADD20RoundRect,0.225000X-0.225000X-0.250000X0.225000X-0.250000X0.225000X0.250000X-0.225000X0.250000X0*%
%ADD21RoundRect,0.250000X-0.650000X1.000000X-0.650000X-1.000000X0.650000X-1.000000X0.650000X1.000000X0*%
%ADD22RoundRect,0.225000X-0.250000X0.225000X-0.250000X-0.225000X0.250000X-0.225000X0.250000X0.225000X0*%
G04 APERTURE END LIST*
D10*
%TO.C,REF\u002A\u002A*%
X128650000Y-66650000D03*
%TD*%
%TO.C,REF\u002A\u002A*%
X158050000Y-86950000D03*
%TD*%
%TO.C,REF\u002A\u002A*%
X128650000Y-64250000D03*
%TD*%
%TO.C,REF\u002A\u002A*%
X158050000Y-84350000D03*
%TD*%
D11*
%TO.C,HAPTIC MOTOR*%
X117320000Y-75300000D03*
X117320000Y-77840000D03*
%TD*%
D12*
%TO.C,U1*%
X133930000Y-61640000D03*
D13*
X133930000Y-64180000D03*
X133930000Y-66720000D03*
X133930000Y-69260000D03*
X133930000Y-71800000D03*
X133930000Y-74340000D03*
X133930000Y-76880000D03*
X133930000Y-79420000D03*
X133930000Y-81960000D03*
X149170000Y-81960000D03*
X149170000Y-79420000D03*
X149170000Y-76880000D03*
X149170000Y-74340000D03*
X149170000Y-71800000D03*
X149170000Y-69260000D03*
X149170000Y-66720000D03*
X149170000Y-64180000D03*
X149170000Y-61640000D03*
%TD*%
D10*
%TO.C,REF\u002A\u002A*%
X151950000Y-61550000D03*
%TD*%
%TO.C,REF\u002A\u002A*%
X151950000Y-77150000D03*
%TD*%
%TO.C,REF\u002A\u002A*%
X151950000Y-82350000D03*
%TD*%
%TO.C,REF\u002A\u002A*%
X131250000Y-64250000D03*
%TD*%
%TO.C,REF\u002A\u002A*%
X151950000Y-66750000D03*
%TD*%
%TO.C,REF\u002A\u002A*%
X131250000Y-82250000D03*
%TD*%
D14*
%TO.C,ENCODER*%
X118800000Y-62600000D03*
X118800000Y-64600000D03*
X118800000Y-66600000D03*
%TD*%
D15*
%TO.C,R2*%
X128350000Y-83950000D03*
X128350000Y-85600000D03*
%TD*%
D10*
%TO.C,REF\u002A\u002A*%
X151950000Y-74550000D03*
%TD*%
%TO.C,REF\u002A\u002A*%
X158050000Y-92000000D03*
%TD*%
%TO.C,REF\u002A\u002A*%
X151950000Y-64150000D03*
%TD*%
D16*
%TO.C,Q1*%
X126750000Y-85362500D03*
X124850000Y-85362500D03*
X125800000Y-87237500D03*
%TD*%
D15*
%TO.C,R1*%
X128400000Y-80200000D03*
X128400000Y-81850000D03*
%TD*%
D10*
%TO.C,REF\u002A\u002A*%
X131250000Y-74450000D03*
%TD*%
%TO.C,REF\u002A\u002A*%
X151950000Y-71950000D03*
%TD*%
D11*
%TO.C,SPARE I/O*%
X161500000Y-92000000D03*
D17*
X161500000Y-89460000D03*
X161500000Y-86920000D03*
X161500000Y-84380000D03*
X161500000Y-81840000D03*
X161500000Y-79300000D03*
%TD*%
D18*
%TO.C,DISPLAY*%
X162830000Y-62230000D03*
X162830000Y-63230000D03*
X162830000Y-64230000D03*
X162830000Y-65230000D03*
X162830000Y-66230000D03*
X162830000Y-67230000D03*
X162830000Y-68230000D03*
X162830000Y-69230000D03*
D19*
X159890000Y-70430000D03*
X159890000Y-61030000D03*
%TD*%
D10*
%TO.C,REF\u002A\u002A*%
X131250000Y-77050000D03*
%TD*%
%TO.C,REF\u002A\u002A*%
X128650000Y-61650000D03*
%TD*%
%TO.C,REF\u002A\u002A*%
X151950000Y-69350000D03*
%TD*%
D20*
%TO.C,C2*%
X121725000Y-64300000D03*
X123275000Y-64300000D03*
%TD*%
%TO.C,C1*%
X121725000Y-66220000D03*
X123275000Y-66220000D03*
%TD*%
D10*
%TO.C,REF\u002A\u002A*%
X131250000Y-69250000D03*
%TD*%
%TO.C,REF\u002A\u002A*%
X131250000Y-61650000D03*
%TD*%
%TO.C,REF\u002A\u002A*%
X131250000Y-66650000D03*
%TD*%
%TO.C,REF\u002A\u002A*%
X131250000Y-79650000D03*
%TD*%
%TO.C,REF\u002A\u002A*%
X158050000Y-81850000D03*
%TD*%
%TO.C,REF\u002A\u002A*%
X158050000Y-79300000D03*
%TD*%
D21*
%TO.C,D1*%
X125560000Y-74665000D03*
X125560000Y-78665000D03*
%TD*%
D10*
%TO.C,REF\u002A\u002A*%
X131250000Y-71850000D03*
%TD*%
%TO.C,REF\u002A\u002A*%
X151950000Y-79750000D03*
%TD*%
%TO.C,REF\u002A\u002A*%
X158050000Y-89450000D03*
%TD*%
D22*
%TO.C,C3*%
X122070000Y-75700000D03*
X122070000Y-77250000D03*
%TD*%
M02*
