M48
; DRILL file {KiCad 9.0.7} date 2026-08-21T03:15:55+0100
; FORMAT={-:-/ absolute / inch / decimal}
; #@! TF.CreationDate,2026-08-21T03:15:55+01:00
; #@! TF.GenerationSoftware,Kicad,Pcbnew,9.0.7
; #@! TF.FileFunction,Plated,1,2,PTH
FMAT,2
INCH
; #@! TA.AperFunction,Plated,PTH,ViaDrill
T1C0.0118
; #@! TA.AperFunction,Plated,PTH,ComponentDrill
T2C0.0236
; #@! TA.AperFunction,Plated,PTH,ComponentDrill
T3C0.0276
; #@! TA.AperFunction,Plated,PTH,ComponentDrill
T4C0.0300
; #@! TA.AperFunction,Plated,PTH,ComponentDrill
T5C0.0394
%
G90
G05
T1
X4.8947Y-2.7549
X4.8957Y-2.6535
X4.8996Y-2.4921
X4.9035Y-3.2815
X4.9055Y-4.0217
X4.9626Y-2.8
X5.0098Y-2.8583
X5.0369Y-2.841
X5.0531Y-3.437
X5.4154Y-2.8764
X5.4331Y-3.5039
X5.51Y-2.9644
X5.5118Y-3.5039
X5.7835Y-2.4764
X5.9449Y-3.5039
X5.9685Y-3.75
X6.0669Y-2.6024
X6.0984Y-3.4213
X6.1024Y-2.5748
X6.126Y-2.4882
X6.1339Y-3.122
X6.1378Y-2.6417
X6.252Y-2.8898
X6.3513Y-2.6427
X6.5315Y-2.4488
T2
X5.1673Y-2.4272
X5.1673Y-2.5295
X5.1673Y-2.624
T3
X4.6772Y-2.4646
X4.6772Y-2.5433
X4.6772Y-2.622
T4
X5.2728Y-2.4268
X5.2728Y-2.5268
X5.2728Y-2.6268
X5.2728Y-2.7268
X5.2728Y-2.8268
X5.2728Y-2.9268
X5.2728Y-3.0268
X5.2728Y-3.1268
X5.2728Y-3.2268
X5.8728Y-2.4268
X5.8728Y-2.5268
X5.8728Y-2.6268
X5.8728Y-2.7268
X5.8728Y-2.8268
X5.8728Y-2.9268
X5.8728Y-3.0268
X5.8728Y-3.1268
X5.8728Y-3.2268
T5
X6.3583Y-3.122
X6.3583Y-3.222
X6.3583Y-3.322
X6.3583Y-3.422
X6.3583Y-3.522
X6.3583Y-3.622
M30
