#VRML V2.0 utf8
# 3D model generated by easyeda2kicad.py (https://github.com/uPesy/easyeda2kicad.py)

Shape{
    appearance Appearance {
        material  Material 	{
            diffuseColor 0.9215686274509803 0.8980392156862745 0.8196078431372549
            specularColor 0.8117647058823529 0.792156862745098 0.7215686274509804
            ambientIntensity 0.8961
            transparency 0.0
            shininess 0.5
        }
    }
    geometry IndexedFaceSet {
        ccw TRUE
        solid FALSE
        coord DEF co Coordinate {
            point [
                1.9715 -0.3076 0.315, 1.9727 -0.3171 0.315, 1.9716 -0.321 0.315, 1.9012 -0.3155 0.315, 1.9012 -0.291 0.315, 1.9018 -0.3092 0.315, 1.9057 -0.2987 0.315, 1.9807 -0.3078 0.315, 1.9782 -0.2987 0.315, 2.0374 -0.291 0.315, 1.9677 -0.2987 0.315, 1.9144 -0.2987 0.315, 1.9017 -0.4043 0.315, 1.9012 -0.3222 0.315, 1.9017 -0.364 0.315, 1.9023 -0.3266 0.315, 1.9078 -0.3415 0.315, 1.9105 -0.3084 0.315, 1.9093 -0.3189 0.315, 1.9116 -0.3471 0.315, 1.9155 -0.3506 0.315, 1.9103 -0.364 0.315, 1.9633 -0.3387 0.315, 1.9601 -0.3415 0.315, 1.9114 -0.3277 0.315, 1.9559 -0.3436 0.315, 1.9498 -0.3453 0.315, 1.9402 -0.3467 0.315, 1.9307 -0.3448 0.315, 1.9135 -0.3332 0.315, 1.9205 -0.3532 0.315, 1.9279 -0.3554 0.315, 1.9103 -0.3937 0.315, 1.9395 -0.3572 0.315, 1.9804 -0.3937 0.315, 1.944 -0.3563 0.315, 1.9621 -0.3508 0.315, 1.9687 -0.3468 0.315, 1.9727 -0.3428 0.315, 1.9667 -0.3339 0.315, 1.9224 -0.342 0.315, 1.9181 -0.3394 0.315, 1.9157 -0.337 0.315, 1.9759 -0.3375 0.315, 1.9787 -0.3297 0.315, 1.9814 -0.3172 0.315, 1.8012 -0.7283 0.315, 1.9012 -0.8071 0.315, -1.8012 -0.7283 0.315, -2.0374 -0.8071 0.315, -1.8012 -0.291 0.315, 1.9007 -0.3203 0.315, 1.8012 -0.291 0.315, 1.9804 -0.4043 0.315, 2.0374 -0.8071 0.315, 1.8012 0.2559 0.315, 1.9012 0.2559 0.315, -2.0374 -0.291 0.315, -2.0374 0.2559 0.315, -1.8012 0.2559 0.315, 1.9017 -0.0855 0.315, 1.9017 -0.097 0.315, 1.9017 -0.1566 0.315, 1.9196 -0.1697 0.315, 1.9132 -0.174 0.315, 1.9793 -0.1979 0.315, 1.9743 -0.1811 0.315, 1.9804 -0.1268 0.315, 1.9718 -0.2727 0.315, 1.9458 -0.2727 0.315, 1.9718 -0.243 0.315, 1.9458 -0.2449 0.315, 1.9372 -0.2449 0.315, 1.9372 -0.2727 0.315, 1.9103 -0.2727 0.315, 1.9017 -0.2257 0.315, 1.9103 -0.2411 0.315, 1.9017 -0.2411 0.315, 1.9093 -0.1781 0.315, 1.9064 -0.1836 0.315, 1.9039 -0.1916 0.315, 1.9804 -0.243 0.315, 1.9804 -0.2257 0.315, 1.9017 -0.2043 0.315, 1.9237 -0.105 0.315, 1.9237 -0.1375 0.315, 1.9017 -0.145 0.315, 1.9706 -0.1748 0.315, 1.9667 -0.1709 0.315, 1.9616 -0.1678 0.315, 1.9017 -0.2833 0.315, 1.9804 -0.2833 0.315, 2.0374 0.2559 0.315, 1.9804 -0.2035 0.315, 1.9804 -0.1162 0.315, 1.9541 -0.165 0.315, 1.942 -0.1623 0.315, 1.9373 -0.1635 0.315, 1.4173 0.1128 0.5906, 1.7028 0.1969 0.5906, 1.1811 0.1969 0.5906, 1.3386 -0.3339 0.5906, 1.1811 -0.2126 0.5906, 1.3386 -0.5278 0.5906, 1.1811 -0.5788 0.5906, 1.4173 -0.5278 0.5906, 1.7028 -0.5788 0.5906, 1.4173 -0.3339 0.5906, 1.7028 -0.4724 0.5906, 1.8209 -0.2126 0.5906, 1.8209 -0.4724 0.5906, -1.7028 -0.5788 0.5906, -1.7028 -0.6299 0.5906, -1.6191 -0.6299 0.5906, -1.6191 -0.5788 0.5906, -1.7028 -0.4724 0.5906, -1.6191 -0.2126 0.5906, -1.8209 -0.4724 0.5906, -1.8209 -0.2126 0.5906, -1.8209 -0.1575 0.5906, -1.7028 -0.1575 0.5906, -1.7028 0.1969 0.5906, -1.6191 0.1969 0.5906, 1.7028 -0.1575 0.5906, 1.8209 -0.1575 0.5906, 1.4173 -0.0914 0.5906, 1.3386 -0.0914 0.5906, 1.3386 0.1128 0.5906, 0.9449 -0.0914 0.5906, 0.7874 -0.2126 0.5906, 1.0236 -0.0914 0.5906, 1.0236 0.1128 0.5906, 0.9449 0.1128 0.5906, 0.7874 0.1969 0.5906, 0.5512 -0.0914 0.5906, 0.3937 -0.2126 0.5906, 0.6299 -0.0914 0.5906, 0.6299 0.1128 0.5906, 0.5512 0.1128 0.5906, 0.3937 0.1969 0.5906, 0.1575 -0.0914 0.5906, 0.0 -0.2126 0.5906, 0.2362 -0.0914 0.5906, 0.2362 0.1128 0.5906, 0.1575 0.1128 0.5906, 0.0 0.1969 0.5906, -0.2362 -0.0914 0.5906, -0.3937 -0.2126 0.5906, -0.1575 -0.0914 0.5906, -0.1575 0.1128 0.5906, -0.2362 0.1128 0.5906, -0.3937 0.1969 0.5906, -0.6299 -0.0914 0.5906, -0.7874 -0.2126 0.5906, -0.5512 -0.0914 0.5906, -0.5512 0.1128 0.5906, -0.6299 0.1128 0.5906, -0.7874 0.1969 0.5906, -1.0236 -0.0914 0.5906, -1.1811 -0.2126 0.5906, -0.9449 -0.0914 0.5906, -0.9449 0.1128 0.5906, -1.0236 0.1128 0.5906, -1.1811 0.1969 0.5906, -1.4173 -0.0914 0.5906, -1.3386 -0.0914 0.5906, -1.3386 0.1128 0.5906, -1.4173 0.1128 0.5906, 0.9449 -0.5278 0.5906, 0.7874 -0.5788 0.5906, 1.0236 -0.5278 0.5906, 1.0236 -0.3339 0.5906, 0.9449 -0.3339 0.5906, 0.5512 -0.5278 0.5906, 0.3937 -0.5788 0.5906, 0.6299 -0.5278 0.5906, 0.6299 -0.3339 0.5906, 0.5512 -0.3339 0.5906, 0.1575 -0.5278 0.5906, 0.0 -0.5788 0.5906, 0.2362 -0.5278 0.5906, 0.2362 -0.3339 0.5906, 0.1575 -0.3339 0.5906, -0.2362 -0.5278 0.5906, -0.3937 -0.5788 0.5906, -0.1575 -0.5278 0.5906, -0.1575 -0.3339 0.5906, -0.2362 -0.3339 0.5906, -0.6299 -0.5278 0.5906, -0.7874 -0.5788 0.5906, -0.5512 -0.5278 0.5906, -0.5512 -0.3339 0.5906, -0.6299 -0.3339 0.5906, -1.0236 -0.5278 0.5906, -1.1811 -0.5788 0.5906, -0.9449 -0.5278 0.5906, -0.9449 -0.3339 0.5906, -1.0236 -0.3339 0.5906, -1.3386 -0.5278 0.5906, -1.4173 -0.5278 0.5906, -1.3386 -0.3339 0.5906, -1.4173 -0.3339 0.5906, -1.1811 -0.6299 0.5906, -0.7874 -0.6299 0.5906, -0.3937 -0.6299 0.5906, 0.0 -0.6299 0.5906, 0.3937 -0.6299 0.5906, 0.7874 -0.6299 0.5906, 1.1811 -0.6299 0.5906, 1.7028 -0.6299 0.5906, -1.4272 0.2953 0.2756, -1.4173 0.156 0.2756, -1.4173 -0.2811 0.2756, -1.3386 0.156 0.2756, -1.3287 0.2953 0.2756, -1.3386 -0.2811 0.2756, -1.3287 -0.7283 0.2756, -1.4272 -0.7283 0.2756, -1.0335 0.2953 0.2756, -1.0236 0.156 0.2756, -1.0236 -0.2811 0.2756, -0.9449 0.156 0.2756, -0.935 0.2953 0.2756, -0.9449 -0.2811 0.2756, -0.935 -0.7283 0.2756, -1.0335 -0.7283 0.2756, -0.6398 0.2953 0.2756, -0.6299 0.156 0.2756, -0.6299 -0.2811 0.2756, -0.5512 0.156 0.2756, -0.5413 0.2953 0.2756, -0.5512 -0.2811 0.2756, -0.5413 -0.7283 0.2756, -0.6398 -0.7283 0.2756, -0.2461 0.2953 0.2756, -0.2362 0.156 0.2756, -0.2362 -0.2811 0.2756, -0.1575 0.156 0.2756, -0.1476 0.2953 0.2756, -0.1575 -0.2811 0.2756, -0.1476 -0.7283 0.2756, -0.2461 -0.7283 0.2756, 0.1476 0.2953 0.2756, 0.1575 0.156 0.2756, 0.1575 -0.2811 0.2756, 0.2362 0.156 0.2756, 0.2461 0.2953 0.2756, 0.2362 -0.2811 0.2756, 0.2461 -0.7283 0.2756, 0.1476 -0.7283 0.2756, 0.5413 0.2953 0.2756, 0.5512 0.156 0.2756, 0.5512 -0.2811 0.2756, 0.6299 0.156 0.2756, 0.6398 0.2953 0.2756, 0.6299 -0.2811 0.2756, 0.6398 -0.7283 0.2756, 0.5413 -0.7283 0.2756, 0.935 0.2953 0.2756, 0.9449 0.156 0.2756, 0.9449 -0.2811 0.2756, 1.0236 0.156 0.2756, 1.0335 0.2953 0.2756, 1.0236 -0.2811 0.2756, 1.0335 -0.7283 0.2756, 0.935 -0.7283 0.2756, 1.3287 0.2953 0.2756, 1.3386 0.156 0.2756, 1.3386 -0.2811 0.2756, 1.4173 0.156 0.2756, 1.4272 0.2953 0.2756, 1.4173 -0.2811 0.2756, 1.4272 -0.7283 0.2756, 1.3287 -0.7283 0.2756, -0.6988 -0.7283 0.0787, -0.876 -0.7283 0.0787, -0.6988 0.2953 0.0787, -0.876 0.2953 0.0787, -0.3051 -0.7283 0.0787, -0.4823 -0.7283 0.0787, -0.3051 0.2953 0.0787, -0.4823 0.2953 0.0787, 0.0886 -0.7283 0.0787, -0.0886 -0.7283 0.0787, 0.0886 0.2953 0.0787, -0.0886 0.2953 0.0787, 0.4823 -0.7283 0.0787, 0.3051 -0.7283 0.0787, 0.4823 0.2953 0.0787, 0.3051 0.2953 0.0787, 0.876 -0.7283 0.0787, 0.6988 -0.7283 0.0787, 0.876 0.2953 0.0787, 0.6988 0.2953 0.0787, 1.2697 -0.7283 0.0787, 1.0925 -0.7283 0.0787, 1.2697 0.2953 0.0787, 1.0925 0.2953 0.0787, 1.4862 0.2953 0.0787, 1.7421 0.2953 0.0787, 1.4862 -0.7283 0.0787, 1.7421 -0.7283 0.0787, -1.0925 -0.7283 0.0787, -1.2697 -0.7283 0.0787, -1.0925 0.2953 0.0787, -1.2697 0.2953 0.0787, -1.7421 0.2953 0.0787, -1.4862 0.2953 0.0787, -1.7421 -0.7283 0.0787, -1.4862 -0.7283 0.0787, 2.0374 0.2559 1.7717, 2.0374 -0.8071 1.7717, -1.8012 0.374 0.315, -1.8012 0.374 1.7717, 1.8012 0.374 0.315, 1.8012 0.374 1.7717, 1.7421 -0.1575 1.7717, 1.8209 -0.1575 1.7717, 1.8012 0.2559 1.7717, 1.8209 -0.4724 1.7717, 1.7421 0.2362 1.7717, -1.7421 0.2362 1.7717, -1.8012 0.2559 1.7717, 1.7421 -0.4724 1.7717, 1.7421 -0.6693 1.7717, -2.0374 -0.8071 1.7717, -1.7421 -0.6693 1.7717, -1.7421 -0.4724 1.7717, -1.8209 -0.4724 1.7717, -2.0374 0.2559 1.7717, -1.8209 -0.1575 1.7717, -1.7421 -0.1575 1.7717, 1.7028 -0.4724 1.7323, 1.7028 -0.6299 1.7323, -1.7028 -0.6299 1.7323, -1.7028 -0.4724 1.7323, -1.7028 -0.1575 1.7323, -1.7028 0.1969 1.7323, 1.7028 0.1969 1.7323, 1.7028 -0.1575 1.7323, -1.8012 0.2953 0.315, -1.8012 0.2953 0.1378, -1.8012 -0.7283 0.1378, 1.8012 0.2953 0.1378, 1.8012 0.2953 0.315, 1.8012 -0.7283 0.1378, -1.4272 -0.7283 0.1378, -1.3287 -0.7283 0.1378, -0.935 -0.7283 0.1378, -0.6398 -0.7283 0.1378, -1.0335 -0.7283 0.1378, -0.5413 -0.7283 0.1378, -0.2461 -0.7283 0.1378, 0.1476 -0.7283 0.1378, -0.1476 -0.7283 0.1378, 0.2461 -0.7283 0.1378, 0.935 -0.7283 0.1378, 0.5413 -0.7283 0.1378, 0.6398 -0.7283 0.1378, 1.0335 -0.7283 0.1378, 1.3287 -0.7283 0.1378, 1.4272 -0.7283 0.1378, 1.4272 0.2953 0.1378, 0.935 0.2953 0.1378, 1.0335 0.2953 0.1378, 1.3287 0.2953 0.1378, 0.6398 0.2953 0.1378, 0.5413 0.2953 0.1378, -0.1476 0.2953 0.1378, 0.1476 0.2953 0.1378, 0.2461 0.2953 0.1378, -0.2461 0.2953 0.1378, -0.5413 0.2953 0.1378, -0.935 0.2953 0.1378, -0.6398 0.2953 0.1378, -1.0335 0.2953 0.1378, -1.3287 0.2953 0.1378, -1.4272 0.2953 0.1378
            ]
        }
        coordIndex [
            0,1,2,-1,3,4,5,-1,5,4,6,-1,7,8,9,-1,9,8,10,-1,9,10,4,-1,4,10,11,-1,4,11,6,-1,12,13,14,-1,14,13,15,-1,14,15,16,-1,10,0,11,-1,11,0,2,-1,11,2,17,-1,17,2,18,-1,16,19,14,-1,14,19,20,-1,14,20,21,-1,22,23,24,-1,24,23,25,-1,24,25,26,-1,26,27,24,-1,24,27,28,-1,24,28,29,-1,20,30,21,-1,21,30,31,-1,21,31,32,-1,32,31,33,-1,32,33,34,-1,34,33,35,-1,35,36,34,-1,34,36,37,-1,34,37,38,-1,18,2,24,-1,24,2,39,-1,24,39,22,-1,40,41,28,-1,28,41,42,-1,28,42,29,-1,43,44,9,-1,9,44,45,-1,9,45,7,-1,46,47,48,-1,48,47,49,-1,48,49,50,-1,3,51,52,-1,52,51,13,-1,38,43,34,-1,34,43,9,-1,34,9,53,-1,53,9,54,-1,53,54,12,-1,12,54,47,-1,12,47,13,-1,13,47,46,-1,13,46,52,-1,3,52,4,-1,4,52,55,-1,4,55,56,-1,49,57,50,-1,50,57,58,-1,50,58,59,-1,56,60,61,-1,62,63,64,-1,65,66,67,-1,68,69,70,-1,70,69,71,-1,72,73,74,-1,75,76,77,-1,64,78,62,-1,62,78,79,-1,62,79,80,-1,81,70,82,-1,82,70,71,-1,82,71,75,-1,75,71,72,-1,75,72,76,-1,76,72,74,-1,83,75,56,-1,56,75,77,-1,56,77,4,-1,84,85,61,-1,61,85,86,-1,61,86,56,-1,56,86,62,-1,56,62,83,-1,83,62,80,-1,66,87,67,-1,67,87,88,-1,67,88,89,-1,77,90,4,-1,4,90,91,-1,4,91,9,-1,9,91,81,-1,9,81,92,-1,92,81,82,-1,92,82,93,-1,60,56,94,-1,94,56,92,-1,94,92,67,-1,67,92,93,-1,67,93,65,-1,89,95,67,-1,67,95,96,-1,67,96,62,-1,62,96,97,-1,62,97,63,-1,98,99,100,-1,101,102,103,-1,103,102,104,-1,103,104,105,-1,105,104,106,-1,105,106,107,-1,107,106,108,-1,107,108,109,-1,109,108,110,-1,111,112,113,-1,111,114,115,-1,115,114,116,-1,115,116,117,-1,117,116,118,-1,119,118,120,-1,120,118,116,-1,120,116,121,-1,121,116,122,-1,101,107,102,-1,102,107,109,-1,102,109,123,-1,123,109,124,-1,99,98,123,-1,123,98,125,-1,123,125,102,-1,102,125,126,-1,102,126,100,-1,100,126,127,-1,100,127,98,-1,128,129,130,-1,130,129,102,-1,130,102,131,-1,131,102,100,-1,131,100,132,-1,132,100,133,-1,132,133,128,-1,128,133,129,-1,134,135,136,-1,136,135,129,-1,136,129,137,-1,137,129,133,-1,137,133,138,-1,138,133,139,-1,138,139,134,-1,134,139,135,-1,140,141,142,-1,142,141,135,-1,142,135,143,-1,143,135,139,-1,143,139,144,-1,144,139,145,-1,144,145,140,-1,140,145,141,-1,146,147,148,-1,148,147,141,-1,148,141,149,-1,149,141,145,-1,149,145,150,-1,150,145,151,-1,150,151,146,-1,146,151,147,-1,152,153,154,-1,154,153,147,-1,154,147,155,-1,155,147,151,-1,155,151,156,-1,156,151,157,-1,156,157,152,-1,152,157,153,-1,158,159,160,-1,160,159,153,-1,160,153,161,-1,161,153,157,-1,161,157,162,-1,162,157,163,-1,162,163,158,-1,158,163,159,-1,164,116,165,-1,165,116,159,-1,165,159,166,-1,166,159,163,-1,166,163,167,-1,167,163,122,-1,167,122,164,-1,164,122,116,-1,168,169,170,-1,170,169,104,-1,170,104,171,-1,171,104,102,-1,171,102,172,-1,172,102,129,-1,172,129,168,-1,168,129,169,-1,173,174,175,-1,175,174,169,-1,175,169,176,-1,176,169,129,-1,176,129,177,-1,177,129,135,-1,177,135,173,-1,173,135,174,-1,178,179,180,-1,180,179,174,-1,180,174,181,-1,181,174,135,-1,181,135,182,-1,182,135,141,-1,182,141,178,-1,178,141,179,-1,183,184,185,-1,185,184,179,-1,185,179,186,-1,186,179,141,-1,186,141,187,-1,187,141,147,-1,187,147,183,-1,183,147,184,-1,188,189,190,-1,190,189,184,-1,190,184,191,-1,191,184,147,-1,191,147,192,-1,192,147,153,-1,192,153,188,-1,188,153,189,-1,193,194,195,-1,195,194,189,-1,195,189,196,-1,196,189,153,-1,196,153,197,-1,197,153,159,-1,197,159,193,-1,193,159,194,-1,194,198,199,-1,198,194,200,-1,200,194,159,-1,200,159,201,-1,201,159,116,-1,201,116,199,-1,199,116,114,-1,199,114,194,-1,111,113,114,-1,114,113,202,-1,114,202,194,-1,194,202,203,-1,194,203,189,-1,189,203,204,-1,189,204,184,-1,184,204,205,-1,184,205,179,-1,179,205,206,-1,179,206,174,-1,174,206,207,-1,174,207,169,-1,169,207,208,-1,169,208,104,-1,104,208,209,-1,104,209,106,-1,210,211,212,-1,211,210,213,-1,213,210,214,-1,213,214,215,-1,215,214,216,-1,215,216,212,-1,212,216,217,-1,212,217,210,-1,218,219,220,-1,219,218,221,-1,221,218,222,-1,221,222,223,-1,223,222,224,-1,223,224,220,-1,220,224,225,-1,220,225,218,-1,226,227,228,-1,227,226,229,-1,229,226,230,-1,229,230,231,-1,231,230,232,-1,231,232,228,-1,228,232,233,-1,228,233,226,-1,234,235,236,-1,235,234,237,-1,237,234,238,-1,237,238,239,-1,239,238,240,-1,239,240,236,-1,236,240,241,-1,236,241,234,-1,242,243,244,-1,243,242,245,-1,245,242,246,-1,245,246,247,-1,247,246,248,-1,247,248,244,-1,244,248,249,-1,244,249,242,-1,250,251,252,-1,251,250,253,-1,253,250,254,-1,253,254,255,-1,255,254,256,-1,255,256,252,-1,252,256,257,-1,252,257,250,-1,258,259,260,-1,259,258,261,-1,261,258,262,-1,261,262,263,-1,263,262,264,-1,263,264,260,-1,260,264,265,-1,260,265,258,-1,266,267,268,-1,267,266,269,-1,269,266,270,-1,269,270,271,-1,271,270,272,-1,271,272,268,-1,268,272,273,-1,268,273,266,-1,274,275,276,-1,276,275,277,-1,278,279,280,-1,280,279,281,-1,282,283,284,-1,284,283,285,-1,286,287,288,-1,288,287,289,-1,290,291,292,-1,292,291,293,-1,294,295,296,-1,296,295,297,-1,298,299,300,-1,300,299,301,-1,302,303,304,-1,304,303,305,-1,306,307,308,-1,308,307,309,-1,92,310,9,-1,9,310,311,-1,9,311,54,-1,312,313,314,-1,314,313,315,-1,316,317,318,-1,319,311,317,-1,317,311,310,-1,317,310,318,-1,316,318,320,-1,320,318,315,-1,320,315,321,-1,321,315,313,-1,321,313,322,-1,319,323,311,-1,311,323,324,-1,311,324,325,-1,325,324,326,-1,326,327,325,-1,325,327,328,-1,325,328,329,-1,329,328,330,-1,329,330,322,-1,322,330,331,-1,322,331,321,-1,49,325,57,-1,57,325,329,-1,57,329,58,-1,54,311,47,-1,47,311,325,-1,47,325,49,-1,323,319,332,-1,332,319,110,-1,332,110,108,-1,209,333,106,-1,106,333,332,-1,106,332,108,-1,333,209,208,-1,208,207,333,-1,333,207,206,-1,333,206,334,-1,206,205,334,-1,334,205,204,-1,334,204,203,-1,203,202,334,-1,334,202,113,-1,334,113,112,-1,115,335,111,-1,111,335,334,-1,111,334,112,-1,335,115,327,-1,327,115,117,-1,327,117,328,-1,119,330,118,-1,118,330,328,-1,118,328,117,-1,331,330,336,-1,336,330,119,-1,336,119,120,-1,336,120,337,-1,337,120,121,-1,121,122,337,-1,337,122,163,-1,337,163,157,-1,157,151,337,-1,337,151,145,-1,337,145,338,-1,338,145,139,-1,139,133,338,-1,338,133,100,-1,338,100,99,-1,338,99,339,-1,339,99,123,-1,339,123,316,-1,316,123,124,-1,316,124,317,-1,110,319,109,-1,109,319,317,-1,109,317,124,-1,313,312,322,-1,322,312,340,-1,322,340,59,-1,59,340,341,-1,59,341,50,-1,50,341,342,-1,50,342,48,-1,58,329,59,-1,59,329,322,-1,55,318,56,-1,56,318,310,-1,56,310,92,-1,55,343,344,-1,314,315,344,-1,344,315,318,-1,344,318,55,-1,343,55,345,-1,345,55,52,-1,345,52,46,-1,320,338,316,-1,316,338,339,-1,321,337,320,-1,320,337,338,-1,337,321,336,-1,336,321,331,-1,333,324,332,-1,332,324,323,-1,334,326,333,-1,333,326,324,-1,335,327,334,-1,334,327,326,-1,309,346,217,-1,342,308,48,-1,48,308,309,-1,225,216,347,-1,224,348,275,-1,274,349,233,-1,303,302,347,-1,347,302,350,-1,347,350,225,-1,351,279,232,-1,232,279,278,-1,232,278,352,-1,241,240,46,-1,282,353,249,-1,240,354,283,-1,309,217,48,-1,48,217,216,-1,48,216,46,-1,46,216,225,-1,46,225,224,-1,257,256,46,-1,275,274,224,-1,224,274,233,-1,224,233,46,-1,46,233,232,-1,46,232,241,-1,241,232,352,-1,355,287,286,-1,290,356,265,-1,283,282,240,-1,240,282,249,-1,240,249,46,-1,46,249,248,-1,46,248,257,-1,257,248,355,-1,257,355,357,-1,357,355,286,-1,256,358,291,-1,273,272,46,-1,359,295,294,-1,291,290,256,-1,256,290,265,-1,256,265,46,-1,46,265,264,-1,46,264,273,-1,273,264,359,-1,273,359,360,-1,360,359,294,-1,301,345,300,-1,300,345,46,-1,300,46,361,-1,361,46,272,-1,344,340,314,-1,314,340,312,-1,298,362,270,-1,343,299,344,-1,344,299,298,-1,258,363,292,-1,297,364,296,-1,296,364,262,-1,296,262,365,-1,365,262,266,-1,293,366,254,-1,367,288,250,-1,250,288,289,-1,246,242,340,-1,298,270,344,-1,344,270,266,-1,344,266,340,-1,340,266,262,-1,340,262,258,-1,285,368,284,-1,284,368,238,-1,284,238,369,-1,230,226,340,-1,292,293,258,-1,258,293,254,-1,258,254,340,-1,340,254,250,-1,340,250,246,-1,246,250,289,-1,246,289,370,-1,371,280,281,-1,281,372,371,-1,371,372,230,-1,371,230,234,-1,234,230,340,-1,234,340,238,-1,238,340,242,-1,238,242,369,-1,277,373,276,-1,276,373,222,-1,276,222,374,-1,214,210,340,-1,375,304,305,-1,305,376,375,-1,375,376,214,-1,375,214,218,-1,218,214,340,-1,218,340,222,-1,222,340,226,-1,222,226,374,-1,306,341,307,-1,307,341,340,-1,307,340,377,-1,377,340,210,-1,347,216,376,-1,376,216,214,-1,377,210,346,-1,346,210,217,-1,303,347,305,-1,305,347,376,-1,307,377,309,-1,309,377,346,-1,345,301,343,-1,343,301,299,-1,308,342,306,-1,306,342,341,-1,361,272,362,-1,362,272,270,-1,365,266,360,-1,360,266,273,-1,359,264,364,-1,364,264,262,-1,363,258,356,-1,356,258,265,-1,358,256,366,-1,366,256,254,-1,367,250,357,-1,357,250,257,-1,355,248,370,-1,370,248,246,-1,369,242,353,-1,353,242,249,-1,354,240,368,-1,368,240,238,-1,371,234,352,-1,352,234,241,-1,351,232,372,-1,372,232,230,-1,374,226,349,-1,349,226,233,-1,348,224,373,-1,373,224,222,-1,375,218,350,-1,350,218,225,-1,275,348,277,-1,277,348,373,-1,304,375,302,-1,302,375,350,-1,279,351,281,-1,281,351,372,-1,276,374,274,-1,274,374,349,-1,283,354,285,-1,285,354,368,-1,280,371,278,-1,278,371,352,-1,287,355,289,-1,289,355,370,-1,284,369,282,-1,282,369,353,-1,291,358,293,-1,293,358,366,-1,288,367,286,-1,286,367,357,-1,295,359,297,-1,297,359,364,-1,292,363,290,-1,290,363,356,-1,300,361,298,-1,298,361,362,-1,296,365,294,-1,294,365,360,-1,
        ]
    }
}
Shape{
    appearance Appearance {
        material  Material 	{
            diffuseColor 0.7764705882352941 0.7568627450980392 0.7372549019607844
            specularColor 0.38823529411764707 0.3764705882352941 0.3686274509803922
            ambientIntensity 0.7605
            transparency 0.0
            shininess 0.5
        }
    }
    geometry IndexedFaceSet {
        ccw TRUE
        solid FALSE
        coord DEF co Coordinate {
            point [
                1.4173 0.6102 0.0, 1.4173 0.2559 0.0, 1.3386 0.6102 0.0, 1.3386 0.2559 0.0, 1.3386 0.619 0.001, 1.4173 0.619 0.001, 1.3386 0.6273 0.0039, 1.4173 0.6273 0.0039, 1.3386 0.6348 0.0086, 1.4173 0.6348 0.0086, 1.3386 0.641 0.0148, 1.4173 0.641 0.0148, 1.3386 0.6457 0.0223, 1.4173 0.6457 0.0223, 1.3386 0.6486 0.0306, 1.4173 0.6486 0.0306, 1.3386 0.6496 0.0394, 1.4173 0.6496 0.0394, 1.4173 0.6496 0.0707, 1.3386 0.6496 0.0707, 1.3386 0.6484 0.0803, 1.4173 0.6484 0.0803, 1.3386 0.645 0.0893, 1.4173 0.645 0.0893, 1.3386 0.6394 0.0971, 1.4173 0.6394 0.0971, 1.3386 0.6321 0.1034, 1.4173 0.6321 0.1034, 1.3386 0.6235 0.1078, 1.4173 0.6235 0.1078, 1.3386 0.156 0.2756, 1.3386 -0.2811 0.2756, 1.4173 -0.2811 0.2756, 1.4173 0.156 0.2756, 1.4173 -0.3511 1.3002, 1.3386 -0.3511 1.3002, 1.3386 -0.3527 1.3102, 1.4173 -0.3527 1.3102, 1.3386 -0.3567 1.3194, 1.4173 -0.3567 1.3194, 1.3386 -0.363 1.3274, 1.4173 -0.363 1.3274, 1.3386 -0.3711 1.3335, 1.4173 -0.3711 1.3335, 1.3386 -0.3804 1.3373, 1.4173 -0.3804 1.3373, 1.3386 -0.3905 1.3386, 1.4173 -0.3905 1.3386, 1.4173 -0.4793 1.3386, 1.3386 -0.4793 1.3386, 1.3386 -0.4894 1.3373, 1.4173 -0.4894 1.3373, 1.3386 -0.4988 1.3334, 1.4173 -0.4988 1.3334, 1.3386 -0.5069 1.3272, 1.4173 -0.5069 1.3272, 1.3386 -0.5132 1.3192, 1.4173 -0.5132 1.3192, 1.3386 -0.5172 1.3098, 1.4173 -0.5172 1.3098, 1.3386 -0.5186 1.2997, 1.4173 -0.5186 1.2997, 1.3386 -0.3339 0.5906, 1.3386 -0.5278 0.5906, 1.4173 -0.5278 0.5906, 1.4173 -0.3339 0.5906, 1.4173 -0.0904 0.6308, 1.4173 -0.0914 0.5906, 1.4173 0.1107 0.632, 1.4173 0.1128 0.5906, 1.4173 -0.0848 0.6501, 1.4173 -0.0889 0.6409, 1.4173 0.0714 0.6693, 1.4173 0.0985 0.6585, 1.4173 0.0812 0.668, 1.4173 0.0905 0.6644, 1.4173 0.1089 0.6417, 1.4173 0.1048 0.6508, 1.4173 -0.0511 0.6693, 1.4173 -0.0611 0.668, 1.4173 -0.0705 0.6642, 1.4173 -0.0786 0.6581, 1.3386 0.1128 0.5906, 1.3386 -0.0914 0.5906, 1.3386 0.1107 0.632, 1.3386 -0.0904 0.6308, 1.3386 0.1048 0.6508, 1.3386 0.0714 0.6693, 1.3386 0.0985 0.6585, 1.3386 0.0812 0.668, 1.3386 0.0905 0.6644, 1.3386 -0.0511 0.6693, 1.3386 0.1089 0.6417, 1.3386 -0.0786 0.6581, 1.3386 -0.0848 0.6501, 1.3386 -0.0889 0.6409, 1.3386 -0.0705 0.6642, 1.3386 -0.0611 0.668, 1.0236 0.6102 0.0, 1.0236 0.2559 0.0, 0.9449 0.6102 0.0, 0.9449 0.2559 0.0, 0.9449 0.619 0.001, 1.0236 0.619 0.001, 0.9449 0.6273 0.0039, 1.0236 0.6273 0.0039, 0.9449 0.6348 0.0086, 1.0236 0.6348 0.0086, 0.9449 0.641 0.0148, 1.0236 0.641 0.0148, 0.9449 0.6457 0.0223, 1.0236 0.6457 0.0223, 0.9449 0.6486 0.0306, 1.0236 0.6486 0.0306, 0.9449 0.6496 0.0394, 1.0236 0.6496 0.0394, 1.0236 0.6496 0.0707, 0.9449 0.6496 0.0707, 0.9449 0.6484 0.0803, 1.0236 0.6484 0.0803, 0.9449 0.645 0.0893, 1.0236 0.645 0.0893, 0.9449 0.6394 0.0971, 1.0236 0.6394 0.0971, 0.9449 0.6321 0.1034, 1.0236 0.6321 0.1034, 0.9449 0.6235 0.1078, 1.0236 0.6235 0.1078, 0.9449 0.156 0.2756, 0.9449 -0.2811 0.2756, 1.0236 -0.2811 0.2756, 1.0236 0.156 0.2756, 1.0236 -0.3511 1.3002, 0.9449 -0.3511 1.3002, 0.9449 -0.3527 1.3102, 1.0236 -0.3527 1.3102, 0.9449 -0.3567 1.3194, 1.0236 -0.3567 1.3194, 0.9449 -0.363 1.3274, 1.0236 -0.363 1.3274, 0.9449 -0.3711 1.3335, 1.0236 -0.3711 1.3335, 0.9449 -0.3804 1.3373, 1.0236 -0.3804 1.3373, 0.9449 -0.3905 1.3386, 1.0236 -0.3905 1.3386, 1.0236 -0.4793 1.3386, 0.9449 -0.4793 1.3386, 0.9449 -0.4894 1.3373, 1.0236 -0.4894 1.3373, 0.9449 -0.4988 1.3334, 1.0236 -0.4988 1.3334, 0.9449 -0.5069 1.3272, 1.0236 -0.5069 1.3272, 0.9449 -0.5132 1.3192, 1.0236 -0.5132 1.3192, 0.9449 -0.5172 1.3098, 1.0236 -0.5172 1.3098, 0.9449 -0.5186 1.2997, 1.0236 -0.5186 1.2997, 0.9449 -0.3339 0.5906, 0.9449 -0.5278 0.5906, 1.0236 -0.5278 0.5906, 1.0236 -0.3339 0.5906, 1.0236 -0.0904 0.6308, 1.0236 -0.0914 0.5906, 1.0236 0.1107 0.632, 1.0236 0.1128 0.5906, 1.0236 -0.0848 0.6501, 1.0236 -0.0889 0.6409, 1.0236 0.0714 0.6693, 1.0236 0.0985 0.6585, 1.0236 0.0812 0.668, 1.0236 0.0905 0.6644, 1.0236 0.1089 0.6417, 1.0236 0.1048 0.6508, 1.0236 -0.0511 0.6693, 1.0236 -0.0611 0.668, 1.0236 -0.0705 0.6642, 1.0236 -0.0786 0.6581, 0.9449 0.1128 0.5906, 0.9449 -0.0914 0.5906, 0.9449 0.1107 0.632, 0.9449 -0.0904 0.6308, 0.9449 0.1048 0.6508, 0.9449 0.0714 0.6693, 0.9449 0.0985 0.6585, 0.9449 0.0812 0.668, 0.9449 0.0905 0.6644, 0.9449 -0.0511 0.6693, 0.9449 0.1089 0.6417, 0.9449 -0.0786 0.6581, 0.9449 -0.0848 0.6501, 0.9449 -0.0889 0.6409, 0.9449 -0.0705 0.6642, 0.9449 -0.0611 0.668, 0.6299 0.6102 0.0, 0.6299 0.2559 0.0, 0.5512 0.6102 0.0, 0.5512 0.2559 0.0, 0.5512 0.619 0.001, 0.6299 0.619 0.001, 0.5512 0.6273 0.0039, 0.6299 0.6273 0.0039, 0.5512 0.6348 0.0086, 0.6299 0.6348 0.0086, 0.5512 0.641 0.0148, 0.6299 0.641 0.0148, 0.5512 0.6457 0.0223, 0.6299 0.6457 0.0223, 0.5512 0.6486 0.0306, 0.6299 0.6486 0.0306, 0.5512 0.6496 0.0394, 0.6299 0.6496 0.0394, 0.6299 0.6496 0.0707, 0.5512 0.6496 0.0707, 0.5512 0.6484 0.0803, 0.6299 0.6484 0.0803, 0.5512 0.645 0.0893, 0.6299 0.645 0.0893, 0.5512 0.6394 0.0971, 0.6299 0.6394 0.0971, 0.5512 0.6321 0.1034, 0.6299 0.6321 0.1034, 0.5512 0.6235 0.1078, 0.6299 0.6235 0.1078, 0.5512 0.156 0.2756, 0.5512 -0.2811 0.2756, 0.6299 -0.2811 0.2756, 0.6299 0.156 0.2756, 0.6299 -0.3511 1.3002, 0.5512 -0.3511 1.3002, 0.5512 -0.3527 1.3102, 0.6299 -0.3527 1.3102, 0.5512 -0.3567 1.3194, 0.6299 -0.3567 1.3194, 0.5512 -0.363 1.3274, 0.6299 -0.363 1.3274, 0.5512 -0.3711 1.3335, 0.6299 -0.3711 1.3335, 0.5512 -0.3804 1.3373, 0.6299 -0.3804 1.3373, 0.5512 -0.3905 1.3386, 0.6299 -0.3905 1.3386, 0.6299 -0.4793 1.3386, 0.5512 -0.4793 1.3386, 0.5512 -0.4894 1.3373, 0.6299 -0.4894 1.3373, 0.5512 -0.4988 1.3334, 0.6299 -0.4988 1.3334, 0.5512 -0.5069 1.3272, 0.6299 -0.5069 1.3272, 0.5512 -0.5132 1.3192, 0.6299 -0.5132 1.3192, 0.5512 -0.5172 1.3098, 0.6299 -0.5172 1.3098, 0.5512 -0.5186 1.2997, 0.6299 -0.5186 1.2997, 0.5512 -0.3339 0.5906, 0.5512 -0.5278 0.5906, 0.6299 -0.5278 0.5906, 0.6299 -0.3339 0.5906, 0.6299 -0.0904 0.6308, 0.6299 -0.0914 0.5906, 0.6299 0.1107 0.632, 0.6299 0.1128 0.5906, 0.6299 -0.0848 0.6501, 0.6299 -0.0889 0.6409, 0.6299 0.0714 0.6693, 0.6299 0.0985 0.6585, 0.6299 0.0812 0.668, 0.6299 0.0905 0.6644, 0.6299 0.1089 0.6417, 0.6299 0.1048 0.6508, 0.6299 -0.0511 0.6693, 0.6299 -0.0611 0.668, 0.6299 -0.0705 0.6642, 0.6299 -0.0786 0.6581, 0.5512 0.1128 0.5906, 0.5512 -0.0914 0.5906, 0.5512 0.1107 0.632, 0.5512 -0.0904 0.6308, 0.5512 0.1048 0.6508, 0.5512 0.0714 0.6693, 0.5512 0.0985 0.6585, 0.5512 0.0812 0.668, 0.5512 0.0905 0.6644, 0.5512 -0.0511 0.6693, 0.5512 0.1089 0.6417, 0.5512 -0.0786 0.6581, 0.5512 -0.0848 0.6501, 0.5512 -0.0889 0.6409, 0.5512 -0.0705 0.6642, 0.5512 -0.0611 0.668, 0.2362 0.6102 0.0, 0.2362 0.2559 0.0, 0.1575 0.6102 0.0, 0.1575 0.2559 0.0, 0.1575 0.619 0.001, 0.2362 0.619 0.001, 0.1575 0.6273 0.0039, 0.2362 0.6273 0.0039, 0.1575 0.6348 0.0086, 0.2362 0.6348 0.0086, 0.1575 0.641 0.0148, 0.2362 0.641 0.0148, 0.1575 0.6457 0.0223, 0.2362 0.6457 0.0223, 0.1575 0.6486 0.0306, 0.2362 0.6486 0.0306, 0.1575 0.6496 0.0394, 0.2362 0.6496 0.0394, 0.2362 0.6496 0.0707, 0.1575 0.6496 0.0707, 0.1575 0.6484 0.0803, 0.2362 0.6484 0.0803, 0.1575 0.645 0.0893, 0.2362 0.645 0.0893, 0.1575 0.6394 0.0971, 0.2362 0.6394 0.0971, 0.1575 0.6321 0.1034, 0.2362 0.6321 0.1034, 0.1575 0.6235 0.1078, 0.2362 0.6235 0.1078, 0.1575 0.156 0.2756, 0.1575 -0.2811 0.2756, 0.2362 -0.2811 0.2756, 0.2362 0.156 0.2756, 0.2362 -0.3511 1.3002, 0.1575 -0.3511 1.3002, 0.1575 -0.3527 1.3102, 0.2362 -0.3527 1.3102, 0.1575 -0.3567 1.3194, 0.2362 -0.3567 1.3194, 0.1575 -0.363 1.3274, 0.2362 -0.363 1.3274, 0.1575 -0.3711 1.3335, 0.2362 -0.3711 1.3335, 0.1575 -0.3804 1.3373, 0.2362 -0.3804 1.3373, 0.1575 -0.3905 1.3386, 0.2362 -0.3905 1.3386, 0.2362 -0.4793 1.3386, 0.1575 -0.4793 1.3386, 0.1575 -0.4894 1.3373, 0.2362 -0.4894 1.3373, 0.1575 -0.4988 1.3334, 0.2362 -0.4988 1.3334, 0.1575 -0.5069 1.3272, 0.2362 -0.5069 1.3272, 0.1575 -0.5132 1.3192, 0.2362 -0.5132 1.3192, 0.1575 -0.5172 1.3098, 0.2362 -0.5172 1.3098, 0.1575 -0.5186 1.2997, 0.2362 -0.5186 1.2997, 0.1575 -0.3339 0.5906, 0.1575 -0.5278 0.5906, 0.2362 -0.5278 0.5906, 0.2362 -0.3339 0.5906, 0.2362 -0.0904 0.6308, 0.2362 -0.0914 0.5906, 0.2362 0.1107 0.632, 0.2362 0.1128 0.5906, 0.2362 -0.0848 0.6501, 0.2362 -0.0889 0.6409, 0.2362 0.0714 0.6693, 0.2362 0.0985 0.6585, 0.2362 0.0812 0.668, 0.2362 0.0905 0.6644, 0.2362 0.1089 0.6417, 0.2362 0.1048 0.6508, 0.2362 -0.0511 0.6693, 0.2362 -0.0611 0.668, 0.2362 -0.0705 0.6642, 0.2362 -0.0786 0.6581, 0.1575 0.1128 0.5906, 0.1575 -0.0914 0.5906, 0.1575 0.1107 0.632, 0.1575 -0.0904 0.6308, 0.1575 0.1048 0.6508, 0.1575 0.0714 0.6693, 0.1575 0.0985 0.6585, 0.1575 0.0812 0.668, 0.1575 0.0905 0.6644, 0.1575 -0.0511 0.6693, 0.1575 0.1089 0.6417, 0.1575 -0.0786 0.6581, 0.1575 -0.0848 0.6501, 0.1575 -0.0889 0.6409, 0.1575 -0.0705 0.6642, 0.1575 -0.0611 0.668, -0.1575 0.6102 0.0, -0.1575 0.2559 0.0, -0.2362 0.6102 0.0, -0.2362 0.2559 0.0, -0.2362 0.619 0.001, -0.1575 0.619 0.001, -0.2362 0.6273 0.0039, -0.1575 0.6273 0.0039, -0.2362 0.6348 0.0086, -0.1575 0.6348 0.0086, -0.2362 0.641 0.0148, -0.1575 0.641 0.0148, -0.2362 0.6457 0.0223, -0.1575 0.6457 0.0223, -0.2362 0.6486 0.0306, -0.1575 0.6486 0.0306, -0.2362 0.6496 0.0394, -0.1575 0.6496 0.0394, -0.1575 0.6496 0.0707, -0.2362 0.6496 0.0707, -0.2362 0.6484 0.0803, -0.1575 0.6484 0.0803, -0.2362 0.645 0.0893, -0.1575 0.645 0.0893, -0.2362 0.6394 0.0971, -0.1575 0.6394 0.0971, -0.2362 0.6321 0.1034, -0.1575 0.6321 0.1034, -0.2362 0.6235 0.1078, -0.1575 0.6235 0.1078, -0.2362 0.156 0.2756, -0.2362 -0.2811 0.2756, -0.1575 -0.2811 0.2756, -0.1575 0.156 0.2756, -0.1575 -0.3511 1.3002, -0.2362 -0.3511 1.3002, -0.2362 -0.3527 1.3102, -0.1575 -0.3527 1.3102, -0.2362 -0.3567 1.3194, -0.1575 -0.3567 1.3194, -0.2362 -0.363 1.3274, -0.1575 -0.363 1.3274, -0.2362 -0.3711 1.3335, -0.1575 -0.3711 1.3335, -0.2362 -0.3804 1.3373, -0.1575 -0.3804 1.3373, -0.2362 -0.3905 1.3386, -0.1575 -0.3905 1.3386, -0.1575 -0.4793 1.3386, -0.2362 -0.4793 1.3386, -0.2362 -0.4894 1.3373, -0.1575 -0.4894 1.3373, -0.2362 -0.4988 1.3334, -0.1575 -0.4988 1.3334, -0.2362 -0.5069 1.3272, -0.1575 -0.5069 1.3272, -0.2362 -0.5132 1.3192, -0.1575 -0.5132 1.3192, -0.2362 -0.5172 1.3098, -0.1575 -0.5172 1.3098, -0.2362 -0.5186 1.2997, -0.1575 -0.5186 1.2997, -0.2362 -0.3339 0.5906, -0.2362 -0.5278 0.5906, -0.1575 -0.5278 0.5906, -0.1575 -0.3339 0.5906, -0.1575 -0.0904 0.6308, -0.1575 -0.0914 0.5906, -0.1575 0.1107 0.632, -0.1575 0.1128 0.5906, -0.1575 -0.0848 0.6501, -0.1575 -0.0889 0.6409, -0.1575 0.0714 0.6693, -0.1575 0.0985 0.6585, -0.1575 0.0812 0.668, -0.1575 0.0905 0.6644, -0.1575 0.1089 0.6417, -0.1575 0.1048 0.6508, -0.1575 -0.0511 0.6693, -0.1575 -0.0611 0.668, -0.1575 -0.0705 0.6642, -0.1575 -0.0786 0.6581, -0.2362 0.1128 0.5906, -0.2362 -0.0914 0.5906, -0.2362 0.1107 0.632, -0.2362 -0.0904 0.6308, -0.2362 0.1048 0.6508, -0.2362 0.0714 0.6693, -0.2362 0.0985 0.6585, -0.2362 0.0812 0.668, -0.2362 0.0905 0.6644, -0.2362 -0.0511 0.6693, -0.2362 0.1089 0.6417, -0.2362 -0.0786 0.6581, -0.2362 -0.0848 0.6501, -0.2362 -0.0889 0.6409, -0.2362 -0.0705 0.6642, -0.2362 -0.0611 0.668, -0.5512 0.6102 0.0, -0.5512 0.2559 0.0, -0.6299 0.6102 0.0, -0.6299 0.2559 0.0, -0.6299 0.619 0.001, -0.5512 0.619 0.001, -0.6299 0.6273 0.0039, -0.5512 0.6273 0.0039, -0.6299 0.6348 0.0086, -0.5512 0.6348 0.0086, -0.6299 0.641 0.0148, -0.5512 0.641 0.0148, -0.6299 0.6457 0.0223, -0.5512 0.6457 0.0223, -0.6299 0.6486 0.0306, -0.5512 0.6486 0.0306, -0.6299 0.6496 0.0394, -0.5512 0.6496 0.0394, -0.5512 0.6496 0.0707, -0.6299 0.6496 0.0707, -0.6299 0.6484 0.0803, -0.5512 0.6484 0.0803, -0.6299 0.645 0.0893, -0.5512 0.645 0.0893, -0.6299 0.6394 0.0971, -0.5512 0.6394 0.0971, -0.6299 0.6321 0.1034, -0.5512 0.6321 0.1034, -0.6299 0.6235 0.1078, -0.5512 0.6235 0.1078, -0.6299 0.156 0.2756, -0.6299 -0.2811 0.2756, -0.5512 -0.2811 0.2756, -0.5512 0.156 0.2756, -0.5512 -0.3511 1.3002, -0.6299 -0.3511 1.3002, -0.6299 -0.3527 1.3102, -0.5512 -0.3527 1.3102, -0.6299 -0.3567 1.3194, -0.5512 -0.3567 1.3194, -0.6299 -0.363 1.3274, -0.5512 -0.363 1.3274, -0.6299 -0.3711 1.3335, -0.5512 -0.3711 1.3335, -0.6299 -0.3804 1.3373, -0.5512 -0.3804 1.3373, -0.6299 -0.3905 1.3386, -0.5512 -0.3905 1.3386, -0.5512 -0.4793 1.3386, -0.6299 -0.4793 1.3386, -0.6299 -0.4894 1.3373, -0.5512 -0.4894 1.3373, -0.6299 -0.4988 1.3334, -0.5512 -0.4988 1.3334, -0.6299 -0.5069 1.3272, -0.5512 -0.5069 1.3272, -0.6299 -0.5132 1.3192, -0.5512 -0.5132 1.3192, -0.6299 -0.5172 1.3098, -0.5512 -0.5172 1.3098, -0.6299 -0.5186 1.2997, -0.5512 -0.5186 1.2997, -0.6299 -0.3339 0.5906, -0.6299 -0.5278 0.5906, -0.5512 -0.5278 0.5906, -0.5512 -0.3339 0.5906, -0.5512 -0.0904 0.6308, -0.5512 -0.0914 0.5906, -0.5512 0.1107 0.632, -0.5512 0.1128 0.5906, -0.5512 -0.0848 0.6501, -0.5512 -0.0889 0.6409, -0.5512 0.0714 0.6693, -0.5512 0.0985 0.6585, -0.5512 0.0812 0.668, -0.5512 0.0905 0.6644, -0.5512 0.1089 0.6417, -0.5512 0.1048 0.6508, -0.5512 -0.0511 0.6693, -0.5512 -0.0611 0.668, -0.5512 -0.0705 0.6642, -0.5512 -0.0786 0.6581, -0.6299 0.1128 0.5906, -0.6299 -0.0914 0.5906, -0.6299 0.1107 0.632, -0.6299 -0.0904 0.6308, -0.6299 0.1048 0.6508, -0.6299 0.0714 0.6693, -0.6299 0.0985 0.6585, -0.6299 0.0812 0.668, -0.6299 0.0905 0.6644, -0.6299 -0.0511 0.6693, -0.6299 0.1089 0.6417, -0.6299 -0.0786 0.6581, -0.6299 -0.0848 0.6501, -0.6299 -0.0889 0.6409, -0.6299 -0.0705 0.6642, -0.6299 -0.0611 0.668, -0.9449 0.6102 0.0, -0.9449 0.2559 0.0, -1.0236 0.6102 0.0, -1.0236 0.2559 0.0, -1.0236 0.619 0.001, -0.9449 0.619 0.001, -1.0236 0.6273 0.0039, -0.9449 0.6273 0.0039, -1.0236 0.6348 0.0086, -0.9449 0.6348 0.0086, -1.0236 0.641 0.0148, -0.9449 0.641 0.0148, -1.0236 0.6457 0.0223, -0.9449 0.6457 0.0223, -1.0236 0.6486 0.0306, -0.9449 0.6486 0.0306, -1.0236 0.6496 0.0394, -0.9449 0.6496 0.0394, -0.9449 0.6496 0.0707, -1.0236 0.6496 0.0707, -1.0236 0.6484 0.0803, -0.9449 0.6484 0.0803, -1.0236 0.645 0.0893, -0.9449 0.645 0.0893, -1.0236 0.6394 0.0971, -0.9449 0.6394 0.0971, -1.0236 0.6321 0.1034, -0.9449 0.6321 0.1034, -1.0236 0.6235 0.1078, -0.9449 0.6235 0.1078, -1.0236 0.156 0.2756, -1.0236 -0.2811 0.2756, -0.9449 -0.2811 0.2756, -0.9449 0.156 0.2756, -0.9449 -0.3511 1.3002, -1.0236 -0.3511 1.3002, -1.0236 -0.3527 1.3102, -0.9449 -0.3527 1.3102, -1.0236 -0.3567 1.3194, -0.9449 -0.3567 1.3194, -1.0236 -0.363 1.3274, -0.9449 -0.363 1.3274, -1.0236 -0.3711 1.3335, -0.9449 -0.3711 1.3335, -1.0236 -0.3804 1.3373, -0.9449 -0.3804 1.3373, -1.0236 -0.3905 1.3386, -0.9449 -0.3905 1.3386, -0.9449 -0.4793 1.3386, -1.0236 -0.4793 1.3386, -1.0236 -0.4894 1.3373, -0.9449 -0.4894 1.3373, -1.0236 -0.4988 1.3334, -0.9449 -0.4988 1.3334, -1.0236 -0.5069 1.3272, -0.9449 -0.5069 1.3272, -1.0236 -0.5132 1.3192, -0.9449 -0.5132 1.3192, -1.0236 -0.5172 1.3098, -0.9449 -0.5172 1.3098, -1.0236 -0.5186 1.2997, -0.9449 -0.5186 1.2997, -1.0236 -0.3339 0.5906, -1.0236 -0.5278 0.5906, -0.9449 -0.5278 0.5906, -0.9449 -0.3339 0.5906, -0.9449 -0.0904 0.6308, -0.9449 -0.0914 0.5906, -0.9449 0.1107 0.632, -0.9449 0.1128 0.5906, -0.9449 -0.0848 0.6501, -0.9449 -0.0889 0.6409, -0.9449 0.0714 0.6693, -0.9449 0.0985 0.6585, -0.9449 0.0812 0.668, -0.9449 0.0905 0.6644, -0.9449 0.1089 0.6417, -0.9449 0.1048 0.6508, -0.9449 -0.0511 0.6693, -0.9449 -0.0611 0.668, -0.9449 -0.0705 0.6642, -0.9449 -0.0786 0.6581, -1.0236 0.1128 0.5906, -1.0236 -0.0914 0.5906, -1.0236 0.1107 0.632, -1.0236 -0.0904 0.6308, -1.0236 0.1048 0.6508, -1.0236 0.0714 0.6693, -1.0236 0.0985 0.6585, -1.0236 0.0812 0.668, -1.0236 0.0905 0.6644, -1.0236 -0.0511 0.6693, -1.0236 0.1089 0.6417, -1.0236 -0.0786 0.6581, -1.0236 -0.0848 0.6501, -1.0236 -0.0889 0.6409, -1.0236 -0.0705 0.6642, -1.0236 -0.0611 0.668, -1.3386 0.6102 0.0, -1.3386 0.2559 0.0, -1.4173 0.6102 0.0, -1.4173 0.2559 0.0, -1.4173 0.619 0.001, -1.3386 0.619 0.001, -1.4173 0.6273 0.0039, -1.3386 0.6273 0.0039, -1.4173 0.6348 0.0086, -1.3386 0.6348 0.0086, -1.4173 0.641 0.0148, -1.3386 0.641 0.0148, -1.4173 0.6457 0.0223, -1.3386 0.6457 0.0223, -1.4173 0.6486 0.0306, -1.3386 0.6486 0.0306, -1.4173 0.6496 0.0394, -1.3386 0.6496 0.0394, -1.3386 0.6496 0.0707, -1.4173 0.6496 0.0707, -1.4173 0.6484 0.0803, -1.3386 0.6484 0.0803, -1.4173 0.645 0.0893, -1.3386 0.645 0.0893, -1.4173 0.6394 0.0971, -1.3386 0.6394 0.0971, -1.4173 0.6321 0.1034, -1.3386 0.6321 0.1034, -1.4173 0.6235 0.1078, -1.3386 0.6235 0.1078, -1.4173 0.156 0.2756, -1.4173 -0.2811 0.2756, -1.3386 -0.2811 0.2756, -1.3386 0.156 0.2756, -1.3386 -0.3511 1.3002, -1.4173 -0.3511 1.3002, -1.4173 -0.3527 1.3102, -1.3386 -0.3527 1.3102, -1.4173 -0.3567 1.3194, -1.3386 -0.3567 1.3194, -1.4173 -0.363 1.3274, -1.3386 -0.363 1.3274, -1.4173 -0.3711 1.3335, -1.3386 -0.3711 1.3335, -1.4173 -0.3804 1.3373, -1.3386 -0.3804 1.3373, -1.4173 -0.3905 1.3386, -1.3386 -0.3905 1.3386, -1.3386 -0.4793 1.3386, -1.4173 -0.4793 1.3386, -1.4173 -0.4894 1.3373, -1.3386 -0.4894 1.3373, -1.4173 -0.4988 1.3334, -1.3386 -0.4988 1.3334, -1.4173 -0.5069 1.3272, -1.3386 -0.5069 1.3272, -1.4173 -0.5132 1.3192, -1.3386 -0.5132 1.3192, -1.4173 -0.5172 1.3098, -1.3386 -0.5172 1.3098, -1.4173 -0.5186 1.2997, -1.3386 -0.5186 1.2997, -1.4173 -0.3339 0.5906, -1.4173 -0.5278 0.5906, -1.3386 -0.5278 0.5906, -1.3386 -0.3339 0.5906, -1.3386 -0.0904 0.6308, -1.3386 -0.0914 0.5906, -1.3386 0.1107 0.632, -1.3386 0.1128 0.5906, -1.3386 -0.0848 0.6501, -1.3386 -0.0889 0.6409, -1.3386 0.0714 0.6693, -1.3386 0.0985 0.6585, -1.3386 0.0812 0.668, -1.3386 0.0905 0.6644, -1.3386 0.1089 0.6417, -1.3386 0.1048 0.6508, -1.3386 -0.0511 0.6693, -1.3386 -0.0611 0.668, -1.3386 -0.0705 0.6642, -1.3386 -0.0786 0.6581, -1.4173 0.1128 0.5906, -1.4173 -0.0914 0.5906, -1.4173 0.1107 0.632, -1.4173 -0.0904 0.6308, -1.4173 0.1048 0.6508, -1.4173 0.0714 0.6693, -1.4173 0.0985 0.6585, -1.4173 0.0812 0.668, -1.4173 0.0905 0.6644, -1.4173 -0.0511 0.6693, -1.4173 0.1089 0.6417, -1.4173 -0.0786 0.6581, -1.4173 -0.0848 0.6501, -1.4173 -0.0889 0.6409, -1.4173 -0.0705 0.6642, -1.4173 -0.0611 0.668, 1.9237 -0.1375 0.315, 1.9237 -0.1375 0.3189, 1.9017 -0.145 0.315, 1.9017 -0.145 0.3189, 1.9237 -0.105 0.315, 1.9237 -0.105 0.3189, 1.9017 -0.097 0.315, 1.9017 -0.097 0.3189, 1.9017 -0.0855 0.315, 1.9017 -0.0855 0.3189, 1.9804 -0.1162 0.315, 1.9804 -0.1162 0.3189, 1.9804 -0.1268 0.315, 1.9804 -0.1268 0.3189, 1.9017 -0.1566 0.315, 1.9017 -0.1566 0.3189, 1.9324 -0.1349 0.3189, 1.9653 -0.1231 0.3189, 1.9681 -0.1211 0.3189, 1.9708 -0.1218 0.3189, 1.968 -0.1223 0.3189, 1.9324 -0.1085 0.3189, 1.9653 -0.1204 0.3189, 1.9324 -0.1349 0.315, 1.9653 -0.1231 0.315, 1.9324 -0.1085 0.315, 1.9653 -0.1204 0.315, 1.9681 -0.1211 0.315, 1.9708 -0.1218 0.315, 1.968 -0.1223 0.315, 1.9017 -0.2257 0.315, 1.9017 -0.2257 0.3189, 1.9804 -0.2257 0.315, 1.9804 -0.2257 0.3189, 1.9017 -0.2043 0.315, 1.9017 -0.2043 0.3189, 1.942 -0.1623 0.315, 1.942 -0.1623 0.3189, 1.9373 -0.1635 0.3189, 1.9373 -0.1635 0.315, 1.9196 -0.1697 0.3189, 1.9196 -0.1697 0.315, 1.9132 -0.174 0.3189, 1.9132 -0.174 0.315, 1.9093 -0.1781 0.3189, 1.9093 -0.1781 0.315, 1.9064 -0.1836 0.3189, 1.9064 -0.1836 0.315, 1.9039 -0.1916 0.3189, 1.9039 -0.1916 0.315, 1.9804 -0.2035 0.315, 1.9804 -0.2035 0.3189, 1.9793 -0.1979 0.3189, 1.9793 -0.1979 0.315, 1.9743 -0.1811 0.3189, 1.9743 -0.1811 0.315, 1.9706 -0.1748 0.3189, 1.9706 -0.1748 0.315, 1.9667 -0.1709 0.3189, 1.9667 -0.1709 0.315, 1.9616 -0.1678 0.3189, 1.9616 -0.1678 0.315, 1.9541 -0.165 0.3189, 1.9541 -0.165 0.315, 1.9524 -0.1755 0.3189, 1.9603 -0.1787 0.3189, 1.9643 -0.1816 0.3189, 1.9667 -0.1845 0.3189, 1.9687 -0.1885 0.3189, 1.913 -0.1929 0.3189, 1.9162 -0.1848 0.3189, 1.9192 -0.1807 0.3189, 1.9222 -0.1781 0.3189, 1.9263 -0.1761 0.3189, 1.9323 -0.1743 0.3189, 1.9418 -0.1729 0.3189, 1.9704 -0.1943 0.3189, 1.9718 -0.2035 0.3189, 1.9718 -0.2151 0.3189, 1.9103 -0.2151 0.3189, 1.9103 -0.204 0.3189, 1.9418 -0.1729 0.315, 1.9524 -0.1755 0.315, 1.9603 -0.1787 0.315, 1.9643 -0.1816 0.315, 1.9667 -0.1845 0.315, 1.9687 -0.1885 0.315, 1.9704 -0.1943 0.315, 1.9718 -0.2035 0.315, 1.9718 -0.2151 0.315, 1.9103 -0.2151 0.315, 1.9103 -0.204 0.315, 1.913 -0.1929 0.315, 1.9162 -0.1848 0.315, 1.9192 -0.1807 0.315, 1.9222 -0.1781 0.315, 1.9263 -0.1761 0.315, 1.9323 -0.1743 0.315, 1.9458 -0.2449 0.315, 1.9458 -0.2449 0.3189, 1.9372 -0.2449 0.315, 1.9372 -0.2449 0.3189, 1.9458 -0.2727 0.315, 1.9458 -0.2727 0.3189, 1.9718 -0.2727 0.315, 1.9718 -0.2727 0.3189, 1.9718 -0.243 0.315, 1.9718 -0.243 0.3189, 1.9804 -0.243 0.315, 1.9804 -0.243 0.3189, 1.9804 -0.2833 0.315, 1.9804 -0.2833 0.3189, 1.9017 -0.2833 0.315, 1.9017 -0.2833 0.3189, 1.9017 -0.2411 0.315, 1.9017 -0.2411 0.3189, 1.9103 -0.2411 0.315, 1.9103 -0.2411 0.3189, 1.9103 -0.2727 0.315, 1.9103 -0.2727 0.3189, 1.9372 -0.2727 0.315, 1.9372 -0.2727 0.3189, 1.9677 -0.2987 0.315, 1.9677 -0.2987 0.3189, 1.9715 -0.3076 0.3189, 1.9715 -0.3076 0.315, 1.9727 -0.3171 0.3189, 1.9727 -0.3171 0.315, 1.9782 -0.2987 0.315, 1.9782 -0.2987 0.3189, 1.9814 -0.3172 0.315, 1.9814 -0.3172 0.3189, 1.9807 -0.3078 0.3189, 1.9807 -0.3078 0.315, 1.9395 -0.3572 0.315, 1.9395 -0.3572 0.3189, 1.944 -0.3563 0.3189, 1.944 -0.3563 0.315, 1.9621 -0.3508 0.3189, 1.9621 -0.3508 0.315, 1.9687 -0.3468 0.3189, 1.9687 -0.3468 0.315, 1.9727 -0.3428 0.3189, 1.9727 -0.3428 0.315, 1.9759 -0.3375 0.3189, 1.9759 -0.3375 0.315, 1.9787 -0.3297 0.3189, 1.9787 -0.3297 0.315, 1.9007 -0.3203 0.315, 1.9007 -0.3203 0.3189, 1.9012 -0.3222 0.315, 1.9023 -0.3266 0.3189, 1.9023 -0.3266 0.315, 1.9078 -0.3415 0.3189, 1.9078 -0.3415 0.315, 1.9116 -0.3471 0.3189, 1.9116 -0.3471 0.315, 1.9155 -0.3506 0.3189, 1.9155 -0.3506 0.315, 1.9205 -0.3532 0.3189, 1.9205 -0.3532 0.315, 1.9279 -0.3554 0.3189, 1.9279 -0.3554 0.315, 1.9018 -0.3092 0.315, 1.9057 -0.2987 0.315, 1.9018 -0.3092 0.3189, 1.9057 -0.2987 0.3189, 1.9012 -0.3155 0.315, 1.9144 -0.2987 0.315, 1.9144 -0.2987 0.3189, 1.9093 -0.3189 0.315, 1.9093 -0.3189 0.3189, 1.9105 -0.3084 0.3189, 1.9105 -0.3084 0.315, 1.9402 -0.3467 0.315, 1.9402 -0.3467 0.3189, 1.9307 -0.3448 0.3189, 1.9307 -0.3448 0.315, 1.9224 -0.342 0.3189, 1.9224 -0.342 0.315, 1.9181 -0.3394 0.3189, 1.9181 -0.3394 0.315, 1.9157 -0.337 0.3189, 1.9157 -0.337 0.315, 1.9135 -0.3332 0.3189, 1.9135 -0.3332 0.315, 1.9114 -0.3277 0.3189, 1.9114 -0.3277 0.315, 1.9716 -0.321 0.3189, 1.9716 -0.321 0.315, 1.9667 -0.3339 0.3189, 1.9667 -0.3339 0.315, 1.9633 -0.3387 0.3189, 1.9633 -0.3387 0.315, 1.9601 -0.3415 0.3189, 1.9601 -0.3415 0.315, 1.9559 -0.3436 0.3189, 1.9559 -0.3436 0.315, 1.9498 -0.3453 0.3189, 1.9498 -0.3453 0.315, 1.9017 -0.4043 0.315, 1.9017 -0.4043 0.3189, 1.9804 -0.4043 0.315, 1.9804 -0.4043 0.3189, 1.9017 -0.364 0.315, 1.9017 -0.364 0.3189, 1.9103 -0.364 0.315, 1.9103 -0.364 0.3189, 1.9103 -0.3937 0.315, 1.9103 -0.3937 0.3189, 1.9804 -0.3937 0.315, 1.9804 -0.3937 0.3189
            ]
        }
        coordIndex [
            0,1,2,-1,2,1,3,-1,0,2,4,-1,0,4,5,-1,5,4,6,-1,5,6,7,-1,7,6,8,-1,7,8,9,-1,9,8,10,-1,9,10,11,-1,11,10,12,-1,11,12,13,-1,13,12,14,-1,13,14,15,-1,15,14,16,-1,15,16,17,-1,18,17,19,-1,19,17,16,-1,18,19,20,-1,18,20,21,-1,21,20,22,-1,21,22,23,-1,23,22,24,-1,23,24,25,-1,25,24,26,-1,25,26,27,-1,27,26,28,-1,27,28,29,-1,28,2,30,-1,30,2,3,-1,30,3,31,-1,28,26,2,-1,2,26,24,-1,2,24,22,-1,16,14,2,-1,2,14,12,-1,2,12,10,-1,10,8,2,-1,2,8,6,-1,2,6,4,-1,22,20,2,-1,2,20,19,-1,2,19,16,-1,32,1,33,-1,33,1,0,-1,5,7,17,-1,23,25,0,-1,7,9,17,-1,17,9,11,-1,17,11,15,-1,15,11,13,-1,23,0,21,-1,25,27,0,-1,0,27,29,-1,0,29,33,-1,5,17,0,-1,0,17,18,-1,0,18,21,-1,29,28,33,-1,33,28,30,-1,3,1,31,-1,31,1,32,-1,34,35,36,-1,34,36,37,-1,37,36,38,-1,37,38,39,-1,39,38,40,-1,39,40,41,-1,41,40,42,-1,41,42,43,-1,43,42,44,-1,43,44,45,-1,45,44,46,-1,45,46,47,-1,48,47,49,-1,49,47,46,-1,48,49,50,-1,48,50,51,-1,51,50,52,-1,51,52,53,-1,53,52,54,-1,53,54,55,-1,55,54,56,-1,55,56,57,-1,57,56,58,-1,57,58,59,-1,59,58,60,-1,59,60,61,-1,62,63,35,-1,35,63,60,-1,40,38,36,-1,58,50,60,-1,60,50,49,-1,60,49,35,-1,49,46,35,-1,35,46,44,-1,35,44,36,-1,36,44,42,-1,36,42,40,-1,58,56,50,-1,50,56,54,-1,50,54,52,-1,64,65,61,-1,61,65,34,-1,37,39,41,-1,41,43,37,-1,37,43,45,-1,37,45,34,-1,34,45,47,-1,34,47,61,-1,57,51,55,-1,55,51,53,-1,47,48,61,-1,61,48,51,-1,61,51,59,-1,59,51,57,-1,61,60,64,-1,64,60,63,-1,35,34,62,-1,62,34,65,-1,66,67,68,-1,68,67,69,-1,70,71,66,-1,72,73,74,-1,74,73,75,-1,68,76,72,-1,72,76,77,-1,72,77,73,-1,68,72,66,-1,66,72,78,-1,66,78,79,-1,79,80,66,-1,66,80,81,-1,66,81,70,-1,82,83,84,-1,84,83,85,-1,86,87,88,-1,88,87,89,-1,88,89,90,-1,85,91,84,-1,84,91,87,-1,84,87,92,-1,92,87,86,-1,93,85,94,-1,94,85,95,-1,93,96,85,-1,85,96,97,-1,85,97,91,-1,84,68,82,-1,82,68,69,-1,68,84,92,-1,68,92,76,-1,76,92,86,-1,76,86,77,-1,77,86,88,-1,77,88,73,-1,73,88,90,-1,73,90,75,-1,75,90,89,-1,75,89,74,-1,74,89,87,-1,74,87,72,-1,78,72,91,-1,91,72,87,-1,78,91,97,-1,78,97,79,-1,79,97,96,-1,79,96,80,-1,80,96,93,-1,80,93,81,-1,81,93,94,-1,81,94,70,-1,70,94,95,-1,70,95,71,-1,71,95,85,-1,71,85,66,-1,66,85,67,-1,67,85,83,-1,98,99,100,-1,100,99,101,-1,98,100,102,-1,98,102,103,-1,103,102,104,-1,103,104,105,-1,105,104,106,-1,105,106,107,-1,107,106,108,-1,107,108,109,-1,109,108,110,-1,109,110,111,-1,111,110,112,-1,111,112,113,-1,113,112,114,-1,113,114,115,-1,116,115,117,-1,117,115,114,-1,116,117,118,-1,116,118,119,-1,119,118,120,-1,119,120,121,-1,121,120,122,-1,121,122,123,-1,123,122,124,-1,123,124,125,-1,125,124,126,-1,125,126,127,-1,126,100,128,-1,128,100,101,-1,128,101,129,-1,126,124,100,-1,100,124,122,-1,100,122,120,-1,114,112,100,-1,100,112,110,-1,100,110,108,-1,108,106,100,-1,100,106,104,-1,100,104,102,-1,120,118,100,-1,100,118,117,-1,100,117,114,-1,130,99,131,-1,131,99,98,-1,103,105,115,-1,121,123,98,-1,105,107,115,-1,115,107,109,-1,115,109,113,-1,113,109,111,-1,121,98,119,-1,123,125,98,-1,98,125,127,-1,98,127,131,-1,103,115,98,-1,98,115,116,-1,98,116,119,-1,127,126,131,-1,131,126,128,-1,101,99,129,-1,129,99,130,-1,132,133,134,-1,132,134,135,-1,135,134,136,-1,135,136,137,-1,137,136,138,-1,137,138,139,-1,139,138,140,-1,139,140,141,-1,141,140,142,-1,141,142,143,-1,143,142,144,-1,143,144,145,-1,146,145,147,-1,147,145,144,-1,146,147,148,-1,146,148,149,-1,149,148,150,-1,149,150,151,-1,151,150,152,-1,151,152,153,-1,153,152,154,-1,153,154,155,-1,155,154,156,-1,155,156,157,-1,157,156,158,-1,157,158,159,-1,160,161,133,-1,133,161,158,-1,138,136,134,-1,156,148,158,-1,158,148,147,-1,158,147,133,-1,147,144,133,-1,133,144,142,-1,133,142,134,-1,134,142,140,-1,134,140,138,-1,156,154,148,-1,148,154,152,-1,148,152,150,-1,162,163,159,-1,159,163,132,-1,135,137,139,-1,139,141,135,-1,135,141,143,-1,135,143,132,-1,132,143,145,-1,132,145,159,-1,155,149,153,-1,153,149,151,-1,145,146,159,-1,159,146,149,-1,159,149,157,-1,157,149,155,-1,159,158,162,-1,162,158,161,-1,133,132,160,-1,160,132,163,-1,164,165,166,-1,166,165,167,-1,168,169,164,-1,170,171,172,-1,172,171,173,-1,166,174,170,-1,170,174,175,-1,170,175,171,-1,166,170,164,-1,164,170,176,-1,164,176,177,-1,177,178,164,-1,164,178,179,-1,164,179,168,-1,180,181,182,-1,182,181,183,-1,184,185,186,-1,186,185,187,-1,186,187,188,-1,183,189,182,-1,182,189,185,-1,182,185,190,-1,190,185,184,-1,191,183,192,-1,192,183,193,-1,191,194,183,-1,183,194,195,-1,183,195,189,-1,182,166,180,-1,180,166,167,-1,166,182,190,-1,166,190,174,-1,174,190,184,-1,174,184,175,-1,175,184,186,-1,175,186,171,-1,171,186,188,-1,171,188,173,-1,173,188,187,-1,173,187,172,-1,172,187,185,-1,172,185,170,-1,176,170,189,-1,189,170,185,-1,176,189,195,-1,176,195,177,-1,177,195,194,-1,177,194,178,-1,178,194,191,-1,178,191,179,-1,179,191,192,-1,179,192,168,-1,168,192,193,-1,168,193,169,-1,169,193,183,-1,169,183,164,-1,164,183,165,-1,165,183,181,-1,196,197,198,-1,198,197,199,-1,196,198,200,-1,196,200,201,-1,201,200,202,-1,201,202,203,-1,203,202,204,-1,203,204,205,-1,205,204,206,-1,205,206,207,-1,207,206,208,-1,207,208,209,-1,209,208,210,-1,209,210,211,-1,211,210,212,-1,211,212,213,-1,214,213,215,-1,215,213,212,-1,214,215,216,-1,214,216,217,-1,217,216,218,-1,217,218,219,-1,219,218,220,-1,219,220,221,-1,221,220,222,-1,221,222,223,-1,223,222,224,-1,223,224,225,-1,224,198,226,-1,226,198,199,-1,226,199,227,-1,224,222,198,-1,198,222,220,-1,198,220,218,-1,212,210,198,-1,198,210,208,-1,198,208,206,-1,206,204,198,-1,198,204,202,-1,198,202,200,-1,218,216,198,-1,198,216,215,-1,198,215,212,-1,228,197,229,-1,229,197,196,-1,201,203,213,-1,219,221,196,-1,203,205,213,-1,213,205,207,-1,213,207,211,-1,211,207,209,-1,219,196,217,-1,221,223,196,-1,196,223,225,-1,196,225,229,-1,201,213,196,-1,196,213,214,-1,196,214,217,-1,225,224,229,-1,229,224,226,-1,199,197,227,-1,227,197,228,-1,230,231,232,-1,230,232,233,-1,233,232,234,-1,233,234,235,-1,235,234,236,-1,235,236,237,-1,237,236,238,-1,237,238,239,-1,239,238,240,-1,239,240,241,-1,241,240,242,-1,241,242,243,-1,244,243,245,-1,245,243,242,-1,244,245,246,-1,244,246,247,-1,247,246,248,-1,247,248,249,-1,249,248,250,-1,249,250,251,-1,251,250,252,-1,251,252,253,-1,253,252,254,-1,253,254,255,-1,255,254,256,-1,255,256,257,-1,258,259,231,-1,231,259,256,-1,236,234,232,-1,254,246,256,-1,256,246,245,-1,256,245,231,-1,245,242,231,-1,231,242,240,-1,231,240,232,-1,232,240,238,-1,232,238,236,-1,254,252,246,-1,246,252,250,-1,246,250,248,-1,260,261,257,-1,257,261,230,-1,233,235,237,-1,237,239,233,-1,233,239,241,-1,233,241,230,-1,230,241,243,-1,230,243,257,-1,253,247,251,-1,251,247,249,-1,243,244,257,-1,257,244,247,-1,257,247,255,-1,255,247,253,-1,257,256,260,-1,260,256,259,-1,231,230,258,-1,258,230,261,-1,262,263,264,-1,264,263,265,-1,266,267,262,-1,268,269,270,-1,270,269,271,-1,264,272,268,-1,268,272,273,-1,268,273,269,-1,264,268,262,-1,262,268,274,-1,262,274,275,-1,275,276,262,-1,262,276,277,-1,262,277,266,-1,278,279,280,-1,280,279,281,-1,282,283,284,-1,284,283,285,-1,284,285,286,-1,281,287,280,-1,280,287,283,-1,280,283,288,-1,288,283,282,-1,289,281,290,-1,290,281,291,-1,289,292,281,-1,281,292,293,-1,281,293,287,-1,280,264,278,-1,278,264,265,-1,264,280,288,-1,264,288,272,-1,272,288,282,-1,272,282,273,-1,273,282,284,-1,273,284,269,-1,269,284,286,-1,269,286,271,-1,271,286,285,-1,271,285,270,-1,270,285,283,-1,270,283,268,-1,274,268,287,-1,287,268,283,-1,274,287,293,-1,274,293,275,-1,275,293,292,-1,275,292,276,-1,276,292,289,-1,276,289,277,-1,277,289,290,-1,277,290,266,-1,266,290,291,-1,266,291,267,-1,267,291,281,-1,267,281,262,-1,262,281,263,-1,263,281,279,-1,294,295,296,-1,296,295,297,-1,294,296,298,-1,294,298,299,-1,299,298,300,-1,299,300,301,-1,301,300,302,-1,301,302,303,-1,303,302,304,-1,303,304,305,-1,305,304,306,-1,305,306,307,-1,307,306,308,-1,307,308,309,-1,309,308,310,-1,309,310,311,-1,312,311,313,-1,313,311,310,-1,312,313,314,-1,312,314,315,-1,315,314,316,-1,315,316,317,-1,317,316,318,-1,317,318,319,-1,319,318,320,-1,319,320,321,-1,321,320,322,-1,321,322,323,-1,322,296,324,-1,324,296,297,-1,324,297,325,-1,322,320,296,-1,296,320,318,-1,296,318,316,-1,310,308,296,-1,296,308,306,-1,296,306,304,-1,304,302,296,-1,296,302,300,-1,296,300,298,-1,316,314,296,-1,296,314,313,-1,296,313,310,-1,326,295,327,-1,327,295,294,-1,299,301,311,-1,317,319,294,-1,301,303,311,-1,311,303,305,-1,311,305,309,-1,309,305,307,-1,317,294,315,-1,319,321,294,-1,294,321,323,-1,294,323,327,-1,299,311,294,-1,294,311,312,-1,294,312,315,-1,323,322,327,-1,327,322,324,-1,297,295,325,-1,325,295,326,-1,328,329,330,-1,328,330,331,-1,331,330,332,-1,331,332,333,-1,333,332,334,-1,333,334,335,-1,335,334,336,-1,335,336,337,-1,337,336,338,-1,337,338,339,-1,339,338,340,-1,339,340,341,-1,342,341,343,-1,343,341,340,-1,342,343,344,-1,342,344,345,-1,345,344,346,-1,345,346,347,-1,347,346,348,-1,347,348,349,-1,349,348,350,-1,349,350,351,-1,351,350,352,-1,351,352,353,-1,353,352,354,-1,353,354,355,-1,356,357,329,-1,329,357,354,-1,334,332,330,-1,352,344,354,-1,354,344,343,-1,354,343,329,-1,343,340,329,-1,329,340,338,-1,329,338,330,-1,330,338,336,-1,330,336,334,-1,352,350,344,-1,344,350,348,-1,344,348,346,-1,358,359,355,-1,355,359,328,-1,331,333,335,-1,335,337,331,-1,331,337,339,-1,331,339,328,-1,328,339,341,-1,328,341,355,-1,351,345,349,-1,349,345,347,-1,341,342,355,-1,355,342,345,-1,355,345,353,-1,353,345,351,-1,355,354,358,-1,358,354,357,-1,329,328,356,-1,356,328,359,-1,360,361,362,-1,362,361,363,-1,364,365,360,-1,366,367,368,-1,368,367,369,-1,362,370,366,-1,366,370,371,-1,366,371,367,-1,362,366,360,-1,360,366,372,-1,360,372,373,-1,373,374,360,-1,360,374,375,-1,360,375,364,-1,376,377,378,-1,378,377,379,-1,380,381,382,-1,382,381,383,-1,382,383,384,-1,379,385,378,-1,378,385,381,-1,378,381,386,-1,386,381,380,-1,387,379,388,-1,388,379,389,-1,387,390,379,-1,379,390,391,-1,379,391,385,-1,378,362,376,-1,376,362,363,-1,362,378,386,-1,362,386,370,-1,370,386,380,-1,370,380,371,-1,371,380,382,-1,371,382,367,-1,367,382,384,-1,367,384,369,-1,369,384,383,-1,369,383,368,-1,368,383,381,-1,368,381,366,-1,372,366,385,-1,385,366,381,-1,372,385,391,-1,372,391,373,-1,373,391,390,-1,373,390,374,-1,374,390,387,-1,374,387,375,-1,375,387,388,-1,375,388,364,-1,364,388,389,-1,364,389,365,-1,365,389,379,-1,365,379,360,-1,360,379,361,-1,361,379,377,-1,392,393,394,-1,394,393,395,-1,392,394,396,-1,392,396,397,-1,397,396,398,-1,397,398,399,-1,399,398,400,-1,399,400,401,-1,401,400,402,-1,401,402,403,-1,403,402,404,-1,403,404,405,-1,405,404,406,-1,405,406,407,-1,407,406,408,-1,407,408,409,-1,410,409,411,-1,411,409,408,-1,410,411,412,-1,410,412,413,-1,413,412,414,-1,413,414,415,-1,415,414,416,-1,415,416,417,-1,417,416,418,-1,417,418,419,-1,419,418,420,-1,419,420,421,-1,420,394,422,-1,422,394,395,-1,422,395,423,-1,420,418,394,-1,394,418,416,-1,394,416,414,-1,408,406,394,-1,394,406,404,-1,394,404,402,-1,402,400,394,-1,394,400,398,-1,394,398,396,-1,414,412,394,-1,394,412,411,-1,394,411,408,-1,424,393,425,-1,425,393,392,-1,397,399,409,-1,415,417,392,-1,399,401,409,-1,409,401,403,-1,409,403,407,-1,407,403,405,-1,415,392,413,-1,417,419,392,-1,392,419,421,-1,392,421,425,-1,397,409,392,-1,392,409,410,-1,392,410,413,-1,421,420,425,-1,425,420,422,-1,395,393,423,-1,423,393,424,-1,426,427,428,-1,426,428,429,-1,429,428,430,-1,429,430,431,-1,431,430,432,-1,431,432,433,-1,433,432,434,-1,433,434,435,-1,435,434,436,-1,435,436,437,-1,437,436,438,-1,437,438,439,-1,440,439,441,-1,441,439,438,-1,440,441,442,-1,440,442,443,-1,443,442,444,-1,443,444,445,-1,445,444,446,-1,445,446,447,-1,447,446,448,-1,447,448,449,-1,449,448,450,-1,449,450,451,-1,451,450,452,-1,451,452,453,-1,454,455,427,-1,427,455,452,-1,432,430,428,-1,450,442,452,-1,452,442,441,-1,452,441,427,-1,441,438,427,-1,427,438,436,-1,427,436,428,-1,428,436,434,-1,428,434,432,-1,450,448,442,-1,442,448,446,-1,442,446,444,-1,456,457,453,-1,453,457,426,-1,429,431,433,-1,433,435,429,-1,429,435,437,-1,429,437,426,-1,426,437,439,-1,426,439,453,-1,449,443,447,-1,447,443,445,-1,439,440,453,-1,453,440,443,-1,453,443,451,-1,451,443,449,-1,453,452,456,-1,456,452,455,-1,427,426,454,-1,454,426,457,-1,458,459,460,-1,460,459,461,-1,462,463,458,-1,464,465,466,-1,466,465,467,-1,460,468,464,-1,464,468,469,-1,464,469,465,-1,460,464,458,-1,458,464,470,-1,458,470,471,-1,471,472,458,-1,458,472,473,-1,458,473,462,-1,474,475,476,-1,476,475,477,-1,478,479,480,-1,480,479,481,-1,480,481,482,-1,477,483,476,-1,476,483,479,-1,476,479,484,-1,484,479,478,-1,485,477,486,-1,486,477,487,-1,485,488,477,-1,477,488,489,-1,477,489,483,-1,476,460,474,-1,474,460,461,-1,460,476,484,-1,460,484,468,-1,468,484,478,-1,468,478,469,-1,469,478,480,-1,469,480,465,-1,465,480,482,-1,465,482,467,-1,467,482,481,-1,467,481,466,-1,466,481,479,-1,466,479,464,-1,470,464,483,-1,483,464,479,-1,470,483,489,-1,470,489,471,-1,471,489,488,-1,471,488,472,-1,472,488,485,-1,472,485,473,-1,473,485,486,-1,473,486,462,-1,462,486,487,-1,462,487,463,-1,463,487,477,-1,463,477,458,-1,458,477,459,-1,459,477,475,-1,490,491,492,-1,492,491,493,-1,490,492,494,-1,490,494,495,-1,495,494,496,-1,495,496,497,-1,497,496,498,-1,497,498,499,-1,499,498,500,-1,499,500,501,-1,501,500,502,-1,501,502,503,-1,503,502,504,-1,503,504,505,-1,505,504,506,-1,505,506,507,-1,508,507,509,-1,509,507,506,-1,508,509,510,-1,508,510,511,-1,511,510,512,-1,511,512,513,-1,513,512,514,-1,513,514,515,-1,515,514,516,-1,515,516,517,-1,517,516,518,-1,517,518,519,-1,518,492,520,-1,520,492,493,-1,520,493,521,-1,518,516,492,-1,492,516,514,-1,492,514,512,-1,506,504,492,-1,492,504,502,-1,492,502,500,-1,500,498,492,-1,492,498,496,-1,492,496,494,-1,512,510,492,-1,492,510,509,-1,492,509,506,-1,522,491,523,-1,523,491,490,-1,495,497,507,-1,513,515,490,-1,497,499,507,-1,507,499,501,-1,507,501,505,-1,505,501,503,-1,513,490,511,-1,515,517,490,-1,490,517,519,-1,490,519,523,-1,495,507,490,-1,490,507,508,-1,490,508,511,-1,519,518,523,-1,523,518,520,-1,493,491,521,-1,521,491,522,-1,524,525,526,-1,524,526,527,-1,527,526,528,-1,527,528,529,-1,529,528,530,-1,529,530,531,-1,531,530,532,-1,531,532,533,-1,533,532,534,-1,533,534,535,-1,535,534,536,-1,535,536,537,-1,538,537,539,-1,539,537,536,-1,538,539,540,-1,538,540,541,-1,541,540,542,-1,541,542,543,-1,543,542,544,-1,543,544,545,-1,545,544,546,-1,545,546,547,-1,547,546,548,-1,547,548,549,-1,549,548,550,-1,549,550,551,-1,552,553,525,-1,525,553,550,-1,530,528,526,-1,548,540,550,-1,550,540,539,-1,550,539,525,-1,539,536,525,-1,525,536,534,-1,525,534,526,-1,526,534,532,-1,526,532,530,-1,548,546,540,-1,540,546,544,-1,540,544,542,-1,554,555,551,-1,551,555,524,-1,527,529,531,-1,531,533,527,-1,527,533,535,-1,527,535,524,-1,524,535,537,-1,524,537,551,-1,547,541,545,-1,545,541,543,-1,537,538,551,-1,551,538,541,-1,551,541,549,-1,549,541,547,-1,551,550,554,-1,554,550,553,-1,525,524,552,-1,552,524,555,-1,556,557,558,-1,558,557,559,-1,560,561,556,-1,562,563,564,-1,564,563,565,-1,558,566,562,-1,562,566,567,-1,562,567,563,-1,558,562,556,-1,556,562,568,-1,556,568,569,-1,569,570,556,-1,556,570,571,-1,556,571,560,-1,572,573,574,-1,574,573,575,-1,576,577,578,-1,578,577,579,-1,578,579,580,-1,575,581,574,-1,574,581,577,-1,574,577,582,-1,582,577,576,-1,583,575,584,-1,584,575,585,-1,583,586,575,-1,575,586,587,-1,575,587,581,-1,574,558,572,-1,572,558,559,-1,558,574,582,-1,558,582,566,-1,566,582,576,-1,566,576,567,-1,567,576,578,-1,567,578,563,-1,563,578,580,-1,563,580,565,-1,565,580,579,-1,565,579,564,-1,564,579,577,-1,564,577,562,-1,568,562,581,-1,581,562,577,-1,568,581,587,-1,568,587,569,-1,569,587,586,-1,569,586,570,-1,570,586,583,-1,570,583,571,-1,571,583,584,-1,571,584,560,-1,560,584,585,-1,560,585,561,-1,561,585,575,-1,561,575,556,-1,556,575,557,-1,557,575,573,-1,588,589,590,-1,590,589,591,-1,588,590,592,-1,588,592,593,-1,593,592,594,-1,593,594,595,-1,595,594,596,-1,595,596,597,-1,597,596,598,-1,597,598,599,-1,599,598,600,-1,599,600,601,-1,601,600,602,-1,601,602,603,-1,603,602,604,-1,603,604,605,-1,606,605,607,-1,607,605,604,-1,606,607,608,-1,606,608,609,-1,609,608,610,-1,609,610,611,-1,611,610,612,-1,611,612,613,-1,613,612,614,-1,613,614,615,-1,615,614,616,-1,615,616,617,-1,616,590,618,-1,618,590,591,-1,618,591,619,-1,616,614,590,-1,590,614,612,-1,590,612,610,-1,604,602,590,-1,590,602,600,-1,590,600,598,-1,598,596,590,-1,590,596,594,-1,590,594,592,-1,610,608,590,-1,590,608,607,-1,590,607,604,-1,620,589,621,-1,621,589,588,-1,593,595,605,-1,611,613,588,-1,595,597,605,-1,605,597,599,-1,605,599,603,-1,603,599,601,-1,611,588,609,-1,613,615,588,-1,588,615,617,-1,588,617,621,-1,593,605,588,-1,588,605,606,-1,588,606,609,-1,617,616,621,-1,621,616,618,-1,591,589,619,-1,619,589,620,-1,622,623,624,-1,622,624,625,-1,625,624,626,-1,625,626,627,-1,627,626,628,-1,627,628,629,-1,629,628,630,-1,629,630,631,-1,631,630,632,-1,631,632,633,-1,633,632,634,-1,633,634,635,-1,636,635,637,-1,637,635,634,-1,636,637,638,-1,636,638,639,-1,639,638,640,-1,639,640,641,-1,641,640,642,-1,641,642,643,-1,643,642,644,-1,643,644,645,-1,645,644,646,-1,645,646,647,-1,647,646,648,-1,647,648,649,-1,650,651,623,-1,623,651,648,-1,628,626,624,-1,646,638,648,-1,648,638,637,-1,648,637,623,-1,637,634,623,-1,623,634,632,-1,623,632,624,-1,624,632,630,-1,624,630,628,-1,646,644,638,-1,638,644,642,-1,638,642,640,-1,652,653,649,-1,649,653,622,-1,625,627,629,-1,629,631,625,-1,625,631,633,-1,625,633,622,-1,622,633,635,-1,622,635,649,-1,645,639,643,-1,643,639,641,-1,635,636,649,-1,649,636,639,-1,649,639,647,-1,647,639,645,-1,649,648,652,-1,652,648,651,-1,623,622,650,-1,650,622,653,-1,654,655,656,-1,656,655,657,-1,658,659,654,-1,660,661,662,-1,662,661,663,-1,656,664,660,-1,660,664,665,-1,660,665,661,-1,656,660,654,-1,654,660,666,-1,654,666,667,-1,667,668,654,-1,654,668,669,-1,654,669,658,-1,670,671,672,-1,672,671,673,-1,674,675,676,-1,676,675,677,-1,676,677,678,-1,673,679,672,-1,672,679,675,-1,672,675,680,-1,680,675,674,-1,681,673,682,-1,682,673,683,-1,681,684,673,-1,673,684,685,-1,673,685,679,-1,672,656,670,-1,670,656,657,-1,656,672,680,-1,656,680,664,-1,664,680,674,-1,664,674,665,-1,665,674,676,-1,665,676,661,-1,661,676,678,-1,661,678,663,-1,663,678,677,-1,663,677,662,-1,662,677,675,-1,662,675,660,-1,666,660,679,-1,679,660,675,-1,666,679,685,-1,666,685,667,-1,667,685,684,-1,667,684,668,-1,668,684,681,-1,668,681,669,-1,669,681,682,-1,669,682,658,-1,658,682,683,-1,658,683,659,-1,659,683,673,-1,659,673,654,-1,654,673,655,-1,655,673,671,-1,686,687,688,-1,688,687,689,-1,686,688,690,-1,686,690,691,-1,691,690,692,-1,691,692,693,-1,693,692,694,-1,693,694,695,-1,695,694,696,-1,695,696,697,-1,697,696,698,-1,697,698,699,-1,699,698,700,-1,699,700,701,-1,701,700,702,-1,701,702,703,-1,704,703,705,-1,705,703,702,-1,704,705,706,-1,704,706,707,-1,707,706,708,-1,707,708,709,-1,709,708,710,-1,709,710,711,-1,711,710,712,-1,711,712,713,-1,713,712,714,-1,713,714,715,-1,714,688,716,-1,716,688,689,-1,716,689,717,-1,714,712,688,-1,688,712,710,-1,688,710,708,-1,702,700,688,-1,688,700,698,-1,688,698,696,-1,696,694,688,-1,688,694,692,-1,688,692,690,-1,708,706,688,-1,688,706,705,-1,688,705,702,-1,718,687,719,-1,719,687,686,-1,691,693,703,-1,709,711,686,-1,693,695,703,-1,703,695,697,-1,703,697,701,-1,701,697,699,-1,709,686,707,-1,711,713,686,-1,686,713,715,-1,686,715,719,-1,691,703,686,-1,686,703,704,-1,686,704,707,-1,715,714,719,-1,719,714,716,-1,689,687,717,-1,717,687,718,-1,720,721,722,-1,720,722,723,-1,723,722,724,-1,723,724,725,-1,725,724,726,-1,725,726,727,-1,727,726,728,-1,727,728,729,-1,729,728,730,-1,729,730,731,-1,731,730,732,-1,731,732,733,-1,734,733,735,-1,735,733,732,-1,734,735,736,-1,734,736,737,-1,737,736,738,-1,737,738,739,-1,739,738,740,-1,739,740,741,-1,741,740,742,-1,741,742,743,-1,743,742,744,-1,743,744,745,-1,745,744,746,-1,745,746,747,-1,748,749,721,-1,721,749,746,-1,726,724,722,-1,744,736,746,-1,746,736,735,-1,746,735,721,-1,735,732,721,-1,721,732,730,-1,721,730,722,-1,722,730,728,-1,722,728,726,-1,744,742,736,-1,736,742,740,-1,736,740,738,-1,750,751,747,-1,747,751,720,-1,723,725,727,-1,727,729,723,-1,723,729,731,-1,723,731,720,-1,720,731,733,-1,720,733,747,-1,743,737,741,-1,741,737,739,-1,733,734,747,-1,747,734,737,-1,747,737,745,-1,745,737,743,-1,747,746,750,-1,750,746,749,-1,721,720,748,-1,748,720,751,-1,752,753,754,-1,754,753,755,-1,756,757,752,-1,758,759,760,-1,760,759,761,-1,754,762,758,-1,758,762,763,-1,758,763,759,-1,754,758,752,-1,752,758,764,-1,752,764,765,-1,765,766,752,-1,752,766,767,-1,752,767,756,-1,768,769,770,-1,770,769,771,-1,772,773,774,-1,774,773,775,-1,774,775,776,-1,771,777,770,-1,770,777,773,-1,770,773,778,-1,778,773,772,-1,779,771,780,-1,780,771,781,-1,779,782,771,-1,771,782,783,-1,771,783,777,-1,770,754,768,-1,768,754,755,-1,754,770,778,-1,754,778,762,-1,762,778,772,-1,762,772,763,-1,763,772,774,-1,763,774,759,-1,759,774,776,-1,759,776,761,-1,761,776,775,-1,761,775,760,-1,760,775,773,-1,760,773,758,-1,764,758,777,-1,777,758,773,-1,764,777,783,-1,764,783,765,-1,765,783,782,-1,765,782,766,-1,766,782,779,-1,766,779,767,-1,767,779,780,-1,767,780,756,-1,756,780,781,-1,756,781,757,-1,757,781,771,-1,757,771,752,-1,752,771,753,-1,753,771,769,-1,784,785,786,-1,786,785,787,-1,788,789,784,-1,784,789,785,-1,790,791,788,-1,788,791,789,-1,792,793,790,-1,790,793,791,-1,794,795,792,-1,792,795,793,-1,796,797,794,-1,794,797,795,-1,798,799,796,-1,796,799,797,-1,798,786,799,-1,799,786,787,-1,800,801,797,-1,799,787,785,-1,802,795,803,-1,803,795,797,-1,803,797,804,-1,804,797,801,-1,797,799,800,-1,800,799,785,-1,800,785,805,-1,805,785,789,-1,802,806,795,-1,795,806,805,-1,795,805,793,-1,793,805,789,-1,793,789,791,-1,800,807,801,-1,801,807,808,-1,805,809,800,-1,800,809,807,-1,806,810,805,-1,805,810,809,-1,810,806,802,-1,810,802,811,-1,811,802,803,-1,811,803,812,-1,812,803,804,-1,812,804,813,-1,813,804,801,-1,813,801,808,-1,814,815,816,-1,816,815,817,-1,818,819,814,-1,814,819,815,-1,820,821,822,-1,820,822,823,-1,823,822,824,-1,823,824,825,-1,825,824,826,-1,825,826,827,-1,827,826,828,-1,827,828,829,-1,829,828,830,-1,829,830,831,-1,831,830,832,-1,831,832,833,-1,833,832,819,-1,833,819,818,-1,834,835,836,-1,834,836,837,-1,837,836,838,-1,837,838,839,-1,839,838,840,-1,839,840,841,-1,841,840,842,-1,841,842,843,-1,843,842,844,-1,843,844,845,-1,845,844,846,-1,845,846,847,-1,847,846,821,-1,847,821,820,-1,834,816,835,-1,835,816,817,-1,848,844,849,-1,849,844,842,-1,849,842,850,-1,850,842,840,-1,850,840,851,-1,851,840,838,-1,851,838,852,-1,853,830,854,-1,854,830,828,-1,854,828,855,-1,855,828,826,-1,855,826,856,-1,856,826,824,-1,856,824,857,-1,857,824,858,-1,858,824,822,-1,858,822,859,-1,859,822,821,-1,859,821,848,-1,848,821,846,-1,848,846,844,-1,852,838,860,-1,860,838,836,-1,860,836,861,-1,861,836,835,-1,861,835,862,-1,862,835,817,-1,862,817,863,-1,863,817,815,-1,863,815,864,-1,864,815,819,-1,864,819,853,-1,853,819,832,-1,853,832,830,-1,865,859,848,-1,865,848,866,-1,866,848,849,-1,866,849,867,-1,867,849,850,-1,867,850,868,-1,868,850,851,-1,868,851,869,-1,869,851,852,-1,869,852,870,-1,870,852,860,-1,870,860,871,-1,871,860,861,-1,871,861,872,-1,862,873,861,-1,861,873,872,-1,863,874,862,-1,862,874,873,-1,864,875,863,-1,863,875,874,-1,875,864,853,-1,875,853,876,-1,876,853,854,-1,876,854,877,-1,877,854,855,-1,877,855,878,-1,878,855,856,-1,878,856,879,-1,879,856,857,-1,879,857,880,-1,880,857,858,-1,880,858,881,-1,881,858,859,-1,881,859,865,-1,882,883,884,-1,884,883,885,-1,886,887,882,-1,882,887,883,-1,888,889,886,-1,886,889,887,-1,890,891,888,-1,888,891,889,-1,892,893,890,-1,890,893,891,-1,894,895,892,-1,892,895,893,-1,896,897,894,-1,894,897,895,-1,898,899,896,-1,896,899,897,-1,900,901,898,-1,898,901,899,-1,902,903,900,-1,900,903,901,-1,904,905,902,-1,902,905,903,-1,904,884,905,-1,905,884,885,-1,897,899,901,-1,901,903,897,-1,897,903,905,-1,897,905,895,-1,891,893,889,-1,889,893,895,-1,889,895,887,-1,887,895,905,-1,887,905,883,-1,883,905,885,-1,906,907,908,-1,906,908,909,-1,909,908,910,-1,909,910,911,-1,912,913,906,-1,906,913,907,-1,914,915,916,-1,914,916,917,-1,917,916,913,-1,917,913,912,-1,918,919,920,-1,918,920,921,-1,921,920,922,-1,921,922,923,-1,923,922,924,-1,923,924,925,-1,925,924,926,-1,925,926,927,-1,927,926,928,-1,927,928,929,-1,929,928,930,-1,929,930,931,-1,931,930,915,-1,931,915,914,-1,932,933,934,-1,934,933,935,-1,934,935,936,-1,936,935,937,-1,936,937,938,-1,938,937,939,-1,938,939,940,-1,940,939,941,-1,940,941,942,-1,942,941,943,-1,942,943,944,-1,944,943,945,-1,944,945,946,-1,946,945,919,-1,946,919,918,-1,947,948,949,-1,949,948,950,-1,947,949,951,-1,951,949,933,-1,951,933,932,-1,952,953,948,-1,948,953,950,-1,954,955,956,-1,954,956,957,-1,957,956,953,-1,957,953,952,-1,958,959,960,-1,958,960,961,-1,961,960,962,-1,961,962,963,-1,963,962,964,-1,963,964,965,-1,965,964,966,-1,965,966,967,-1,967,966,968,-1,967,968,969,-1,969,968,970,-1,969,970,971,-1,971,970,955,-1,971,955,954,-1,911,910,972,-1,911,972,973,-1,973,972,974,-1,973,974,975,-1,975,974,976,-1,975,976,977,-1,977,976,978,-1,977,978,979,-1,979,978,980,-1,979,980,981,-1,981,980,982,-1,981,982,983,-1,983,982,959,-1,983,959,958,-1,907,913,908,-1,908,913,916,-1,908,916,910,-1,910,916,915,-1,910,915,972,-1,972,915,930,-1,972,930,974,-1,960,943,962,-1,962,943,941,-1,962,941,964,-1,964,941,939,-1,964,939,966,-1,966,939,937,-1,930,928,974,-1,974,928,926,-1,974,926,976,-1,976,926,924,-1,976,924,978,-1,978,924,922,-1,978,922,980,-1,950,953,949,-1,949,953,956,-1,949,956,933,-1,933,956,955,-1,933,955,935,-1,935,955,970,-1,935,970,937,-1,937,970,968,-1,937,968,966,-1,980,922,982,-1,982,922,920,-1,982,920,959,-1,959,920,919,-1,959,919,960,-1,960,919,945,-1,960,945,943,-1,984,985,986,-1,986,985,987,-1,988,989,984,-1,984,989,985,-1,990,991,988,-1,988,991,989,-1,992,993,990,-1,990,993,991,-1,994,995,992,-1,992,995,993,-1,994,986,995,-1,995,986,987,-1,995,987,993,-1,993,987,985,-1,993,985,991,-1,991,985,989,-1,
        ]
    }
}
Shape{
    appearance Appearance {
        material  Material 	{
            diffuseColor 0.9215686274509803 0.8980392156862745 0.8196078431372549
            specularColor 0.8117647058823529 0.792156862745098 0.7215686274509804
            ambientIntensity 0.8961
            transparency 0.0
            shininess 0.5
        }
    }
    geometry IndexedFaceSet {
        ccw TRUE
        solid FALSE
        coord DEF co Coordinate {
            point [
                1.9324 -0.1349 0.315, 1.9324 -0.1085 0.315, 1.9653 -0.1231 0.315, 1.9653 -0.1204 0.315, 1.968 -0.1223 0.315, 1.9681 -0.1211 0.315, 1.9708 -0.1218 0.315, 1.9718 -0.2035 0.315, 1.9718 -0.2151 0.315, 1.9323 -0.1743 0.315, 1.9263 -0.1761 0.315, 1.9687 -0.1885 0.315, 1.9704 -0.1943 0.315, 1.9524 -0.1755 0.315, 1.9418 -0.1729 0.315, 1.9103 -0.2151 0.315, 1.9103 -0.204 0.315, 1.913 -0.1929 0.315, 1.9162 -0.1848 0.315, 1.9192 -0.1807 0.315, 1.9222 -0.1781 0.315, 1.9667 -0.1845 0.315, 1.9603 -0.1787 0.315, 1.9643 -0.1816 0.315
            ]
        }
        coordIndex [
            0,1,2,-1,2,1,3,-1,2,3,4,-1,4,3,5,-1,4,5,6,-1,7,8,9,-1,9,8,10,-1,11,12,13,-1,7,9,12,-1,12,9,14,-1,12,14,13,-1,15,16,8,-1,8,16,17,-1,8,17,18,-1,18,19,8,-1,8,19,20,-1,8,20,10,-1,11,13,21,-1,21,13,22,-1,21,22,23,-1,
        ]
    }
}
Shape{
    appearance Appearance {
        material  Material 	{
            diffuseColor 0.7764705882352941 0.7568627450980392 0.7372549019607844
            specularColor 0.38823529411764707 0.3764705882352941 0.3686274509803922
            ambientIntensity 0.7605
            transparency 0.0
            shininess 0.5
        }
    }
    geometry IndexedFaceSet {
        ccw TRUE
        solid FALSE
        coord DEF co Coordinate {
            point [
                1.8602 0.4528 1.1976, 1.8602 0.4134 1.1215, 1.7815 0.4528 1.1976, 1.7815 0.4134 1.1215, 1.8602 0.4528 1.6929, 1.7815 0.4528 1.6929, 1.7815 0.4518 1.7017, 1.8602 0.4518 1.7017, 1.7815 0.4489 1.71, 1.8602 0.4489 1.71, 1.7815 0.4442 1.7175, 1.8602 0.4442 1.7175, 1.7815 0.4379 1.7237, 1.8602 0.4379 1.7237, 1.7815 0.4305 1.7284, 1.8602 0.4305 1.7284, 1.7815 0.4221 1.7313, 1.8602 0.4221 1.7313, 1.7815 0.4134 1.7323, 1.8602 0.4134 1.7323, 1.8602 0.315 1.7323, 1.7815 0.315 1.7323, 1.7815 0.3062 1.7313, 1.8602 0.3062 1.7313, 1.7815 0.2979 1.7284, 1.8602 0.2979 1.7284, 1.7815 0.2904 1.7237, 1.8602 0.2904 1.7237, 1.7815 0.2842 1.7175, 1.8602 0.2842 1.7175, 1.7815 0.2795 1.71, 1.8602 0.2795 1.71, 1.7815 0.2766 1.7017, 1.8602 0.2766 1.7017, 1.7815 0.2756 1.6929, 1.8602 0.2756 1.6929, 1.8602 0.2756 1.2851, 1.7815 0.2756 1.2851, 1.8602 0.2165 1.1709, 1.7815 0.2165 1.1709, 1.8602 0.2165 0.3071, 1.7815 0.2165 0.3071, 1.8602 -0.7677 0.3071, 1.7815 -0.7677 0.3071, 1.7815 -0.7765 0.3061, 1.8602 -0.7765 0.3061, 1.7815 -0.7848 0.3032, 1.8602 -0.7848 0.3032, 1.7815 -0.7923 0.2985, 1.8602 -0.7923 0.2985, 1.7815 -0.7985 0.2923, 1.8602 -0.7985 0.2923, 1.7815 -0.8032 0.2848, 1.8602 -0.8032 0.2848, 1.7815 -0.8061 0.2765, 1.8602 -0.8061 0.2765, 1.7815 -0.8071 0.2677, 1.8602 -0.8071 0.2677, 1.8602 -0.8071 0.0394, 1.7815 -0.8071 0.0394, 1.7815 -0.8061 0.0306, 1.8602 -0.8061 0.0306, 1.7815 -0.8032 0.0223, 1.8602 -0.8032 0.0223, 1.7815 -0.7985 0.0148, 1.8602 -0.7985 0.0148, 1.7815 -0.7923 0.0086, 1.8602 -0.7923 0.0086, 1.7815 -0.7848 0.0039, 1.8602 -0.7848 0.0039, 1.7815 -0.7765 0.001, 1.8602 -0.7765 0.001, 1.7815 -0.7677 0.0, 1.8602 -0.7677 0.0, 1.8602 -0.4239 0.0, 1.7815 -0.4239 0.0, 1.7815 -0.4171 0.0006, 1.8602 -0.4171 0.0006, 1.7815 -0.4105 0.0024, 1.8602 -0.4105 0.0024, 1.7815 -0.4042 0.0053, 1.8602 -0.4042 0.0053, 1.8602 -0.277 0.0787, 1.7815 -0.277 0.0787, 1.8602 0.374 0.0787, 1.7815 0.374 0.0787, 1.7815 0.3828 0.0797, 1.8602 0.3828 0.0797, 1.7815 0.3911 0.0826, 1.8602 0.3911 0.0826, 1.7815 0.3986 0.0873, 1.8602 0.3986 0.0873, 1.7815 0.4048 0.0936, 1.8602 0.4048 0.0936, 1.7815 0.4095 0.101, 1.8602 0.4095 0.101, 1.7815 0.4124 0.1093, 1.8602 0.4124 0.1093, 1.7815 0.4134 0.1181, 1.8602 0.4134 0.1181
            ]
        }
        coordIndex [
            0,1,2,-1,2,1,3,-1,4,0,5,-1,5,0,2,-1,4,5,6,-1,4,6,7,-1,7,6,8,-1,7,8,9,-1,9,8,10,-1,9,10,11,-1,11,10,12,-1,11,12,13,-1,13,12,14,-1,13,14,15,-1,15,14,16,-1,15,16,17,-1,17,16,18,-1,17,18,19,-1,20,19,21,-1,21,19,18,-1,20,21,22,-1,20,22,23,-1,23,22,24,-1,23,24,25,-1,25,24,26,-1,25,26,27,-1,27,26,28,-1,27,28,29,-1,29,28,30,-1,29,30,31,-1,31,30,32,-1,31,32,33,-1,33,32,34,-1,33,34,35,-1,36,35,37,-1,37,35,34,-1,38,36,39,-1,39,36,37,-1,40,38,41,-1,41,38,39,-1,42,40,43,-1,43,40,41,-1,42,43,44,-1,42,44,45,-1,45,44,46,-1,45,46,47,-1,47,46,48,-1,47,48,49,-1,49,48,50,-1,49,50,51,-1,51,50,52,-1,51,52,53,-1,53,52,54,-1,53,54,55,-1,55,54,56,-1,55,56,57,-1,58,57,59,-1,59,57,56,-1,58,59,60,-1,58,60,61,-1,61,60,62,-1,61,62,63,-1,63,62,64,-1,63,64,65,-1,65,64,66,-1,65,66,67,-1,67,66,68,-1,67,68,69,-1,69,68,70,-1,69,70,71,-1,71,70,72,-1,71,72,73,-1,74,73,75,-1,75,73,72,-1,74,75,76,-1,74,76,77,-1,77,76,78,-1,77,78,79,-1,79,78,80,-1,79,80,81,-1,82,81,83,-1,83,81,80,-1,84,82,85,-1,85,82,83,-1,84,85,86,-1,84,86,87,-1,87,86,88,-1,87,88,89,-1,89,88,90,-1,89,90,91,-1,91,90,92,-1,91,92,93,-1,93,92,94,-1,93,94,95,-1,95,94,96,-1,95,96,97,-1,97,96,98,-1,97,98,99,-1,
        ]
    }
}
Shape{
    appearance Appearance {
        material  Material 	{
            diffuseColor 0.9215686274509803 0.8980392156862745 0.8196078431372549
            specularColor 0.8117647058823529 0.792156862745098 0.7215686274509804
            ambientIntensity 0.8961
            transparency 0.0
            shininess 0.5
        }
    }
    geometry IndexedFaceSet {
        ccw TRUE
        solid FALSE
        coord DEF co Coordinate {
            point [
                1.8602 0.4134 1.1215, 1.8602 0.4134 0.1181, 1.7815 0.4134 1.1215, 1.7815 0.4134 0.1181
            ]
        }
        coordIndex [
            0,1,2,-1,2,1,3,-1,
        ]
    }
}
Shape{
    appearance Appearance {
        material  Material 	{
            diffuseColor 0.7764705882352941 0.7568627450980392 0.7372549019607844
            specularColor 0.38823529411764707 0.3764705882352941 0.3686274509803922
            ambientIntensity 0.7605
            transparency 0.0
            shininess 0.5
        }
    }
    geometry IndexedFaceSet {
        ccw TRUE
        solid FALSE
        coord DEF co Coordinate {
            point [
                1.8602 0.4221 1.7313, 1.8602 0.4134 1.7323, 1.8602 0.4528 1.6929, 1.8602 0.4095 0.101, 1.8602 0.4124 0.1093, 1.8602 0.2165 0.3071, 1.8602 0.4134 0.1181, 1.8602 0.2165 1.1709, 1.8602 0.4134 1.1215, 1.8602 0.2756 1.2851, 1.8602 0.4528 1.1976, 1.8602 0.2756 1.6929, 1.8602 0.3828 0.0797, 1.8602 0.3911 0.0826, 1.8602 -0.7765 0.001, 1.8602 -0.7677 0.0, 1.8602 -0.8032 0.0223, 1.8602 -0.4105 0.0024, 1.8602 -0.7677 0.3071, 1.8602 -0.4171 0.0006, 1.8602 -0.4239 0.0, 1.8602 -0.4042 0.0053, 1.8602 -0.277 0.0787, 1.8602 0.374 0.0787, 1.8602 0.3986 0.0873, 1.8602 0.4048 0.0936, 1.8602 0.315 1.7323, 1.8602 0.3062 1.7313, 1.8602 -0.7765 0.3061, 1.8602 -0.7848 0.3032, 1.8602 -0.7923 0.2985, 1.8602 -0.8061 0.2765, 1.8602 -0.8071 0.2677, 1.8602 -0.8071 0.0394, 1.8602 -0.8061 0.0306, 1.8602 0.4489 1.71, 1.8602 0.4442 1.7175, 1.8602 0.4518 1.7017, 1.8602 0.4379 1.7237, 1.8602 0.4305 1.7284, 1.8602 0.2842 1.7175, 1.8602 0.2766 1.7017, 1.8602 0.2795 1.71, 1.8602 -0.7985 0.2923, 1.8602 -0.8032 0.2848, 1.8602 0.2979 1.7284, 1.8602 0.2904 1.7237, 1.8602 -0.7985 0.0148, 1.8602 -0.7923 0.0086, 1.8602 -0.7848 0.0039, 1.7815 0.2165 0.3071, 1.7815 0.4124 0.1093, 1.7815 0.4095 0.101, 1.7815 -0.7677 0.3071, 1.7815 -0.4042 0.0053, 1.7815 -0.4105 0.0024, 1.7815 -0.8061 0.2765, 1.7815 -0.8032 0.2848, 1.7815 -0.4239 0.0, 1.7815 0.2756 1.6929, 1.7815 0.4528 1.6929, 1.7815 0.2756 1.2851, 1.7815 0.4528 1.1976, 1.7815 0.2165 1.1709, 1.7815 0.4134 1.1215, 1.7815 0.4134 0.1181, 1.7815 0.4048 0.0936, 1.7815 0.3986 0.0873, 1.7815 0.3911 0.0826, 1.7815 0.3828 0.0797, 1.7815 0.374 0.0787, 1.7815 -0.277 0.0787, 1.7815 -0.4171 0.0006, 1.7815 -0.7765 0.3061, 1.7815 -0.7848 0.3032, 1.7815 0.2766 1.7017, 1.7815 0.2795 1.71, 1.7815 0.2842 1.7175, 1.7815 0.2979 1.7284, 1.7815 0.3062 1.7313, 1.7815 0.315 1.7323, 1.7815 0.4134 1.7323, 1.7815 0.4221 1.7313, 1.7815 -0.8032 0.0223, 1.7815 -0.7677 0.0, 1.7815 -0.7765 0.001, 1.7815 -0.8061 0.0306, 1.7815 -0.8071 0.0394, 1.7815 -0.8071 0.2677, 1.7815 0.2904 1.7237, 1.7815 -0.7985 0.2923, 1.7815 -0.7923 0.2985, 1.7815 0.4305 1.7284, 1.7815 0.4379 1.7237, 1.7815 0.4518 1.7017, 1.7815 0.4442 1.7175, 1.7815 0.4489 1.71, 1.7815 -0.7848 0.0039, 1.7815 -0.7923 0.0086, 1.7815 -0.7985 0.0148, -1.8602 0.4134 1.1215, -1.8602 0.4528 1.1976, -1.7815 0.4134 1.1215, -1.7815 0.4528 1.1976, -1.8602 0.4528 1.6929, -1.7815 0.4528 1.6929, -1.8602 0.4134 1.7323, -1.7815 0.4134 1.7323, -1.7815 0.4221 1.7313, -1.8602 0.4221 1.7313, -1.7815 0.4305 1.7284, -1.8602 0.4305 1.7284, -1.7815 0.4379 1.7237, -1.8602 0.4379 1.7237, -1.7815 0.4442 1.7175, -1.8602 0.4442 1.7175, -1.7815 0.4489 1.71, -1.8602 0.4489 1.71, -1.7815 0.4518 1.7017, -1.8602 0.4518 1.7017, -1.8602 0.315 1.7323, -1.7815 0.315 1.7323, -1.8602 0.2756 1.6929, -1.7815 0.2756 1.6929, -1.7815 0.2766 1.7017, -1.8602 0.2766 1.7017, -1.7815 0.2795 1.71, -1.8602 0.2795 1.71, -1.7815 0.2842 1.7175, -1.8602 0.2842 1.7175, -1.7815 0.2904 1.7237, -1.8602 0.2904 1.7237, -1.7815 0.2979 1.7284, -1.8602 0.2979 1.7284, -1.7815 0.3062 1.7313, -1.8602 0.3062 1.7313, -1.8602 0.2756 1.2851, -1.7815 0.2756 1.2851, -1.8602 0.2165 1.1709, -1.7815 0.2165 1.1709, -1.8602 0.2165 0.3071, -1.7815 0.2165 0.3071, -1.8602 -0.7677 0.3071, -1.7815 -0.7677 0.3071, -1.8602 -0.8071 0.2677, -1.7815 -0.8071 0.2677, -1.7815 -0.8061 0.2765, -1.8602 -0.8061 0.2765, -1.7815 -0.8032 0.2848, -1.8602 -0.8032 0.2848, -1.7815 -0.7985 0.2923, -1.8602 -0.7985 0.2923, -1.7815 -0.7923 0.2985, -1.8602 -0.7923 0.2985, -1.7815 -0.7848 0.3032, -1.8602 -0.7848 0.3032, -1.7815 -0.7765 0.3061, -1.8602 -0.7765 0.3061, -1.8602 -0.8071 0.0394, -1.7815 -0.8071 0.0394
            ]
        }
        coordIndex [
            0,1,2,-1,3,4,5,-1,5,4,6,-1,5,6,7,-1,7,6,8,-1,7,8,9,-1,9,8,10,-1,9,10,11,-1,11,10,2,-1,12,13,5,-1,14,15,16,-1,17,18,19,-1,19,18,20,-1,17,21,18,-1,18,21,22,-1,18,22,5,-1,5,22,23,-1,5,23,12,-1,13,24,5,-1,5,24,25,-1,5,25,3,-1,2,1,11,-1,11,1,26,-1,11,26,27,-1,18,28,20,-1,20,28,29,-1,20,29,30,-1,31,32,20,-1,20,32,33,-1,20,33,15,-1,15,33,34,-1,15,34,16,-1,35,36,37,-1,37,36,38,-1,37,38,2,-1,2,38,39,-1,2,39,0,-1,11,40,41,-1,41,40,42,-1,30,43,20,-1,20,43,44,-1,20,44,31,-1,27,45,11,-1,11,45,46,-1,11,46,40,-1,47,48,16,-1,16,48,49,-1,16,49,14,-1,50,51,52,-1,53,54,55,-1,56,57,58,-1,59,60,61,-1,61,60,62,-1,61,62,63,-1,63,62,64,-1,63,64,50,-1,50,64,65,-1,50,65,51,-1,52,66,50,-1,50,66,67,-1,50,67,68,-1,68,69,50,-1,50,69,70,-1,50,70,53,-1,53,70,71,-1,53,71,54,-1,55,72,53,-1,53,72,58,-1,53,58,73,-1,73,58,74,-1,75,76,77,-1,78,79,59,-1,59,79,80,-1,59,80,60,-1,60,80,81,-1,60,81,82,-1,83,84,85,-1,83,86,84,-1,84,86,87,-1,84,87,58,-1,58,87,88,-1,58,88,56,-1,75,77,59,-1,59,77,89,-1,59,89,78,-1,57,90,58,-1,58,90,91,-1,58,91,74,-1,82,92,60,-1,60,92,93,-1,60,93,94,-1,94,93,95,-1,94,95,96,-1,85,97,83,-1,83,97,98,-1,83,98,99,-1,100,101,102,-1,102,101,103,-1,101,104,103,-1,103,104,105,-1,106,107,108,-1,106,108,109,-1,109,108,110,-1,109,110,111,-1,111,110,112,-1,111,112,113,-1,113,112,114,-1,113,114,115,-1,115,114,116,-1,115,116,117,-1,117,116,118,-1,117,118,119,-1,119,118,105,-1,119,105,104,-1,106,120,107,-1,107,120,121,-1,122,123,124,-1,122,124,125,-1,125,124,126,-1,125,126,127,-1,127,126,128,-1,127,128,129,-1,129,128,130,-1,129,130,131,-1,131,130,132,-1,131,132,133,-1,133,132,134,-1,133,134,135,-1,135,134,121,-1,135,121,120,-1,122,136,123,-1,123,136,137,-1,136,138,137,-1,137,138,139,-1,138,140,139,-1,139,140,141,-1,140,142,141,-1,141,142,143,-1,144,145,146,-1,144,146,147,-1,147,146,148,-1,147,148,149,-1,149,148,150,-1,149,150,151,-1,151,150,152,-1,151,152,153,-1,153,152,154,-1,153,154,155,-1,155,154,156,-1,155,156,157,-1,157,156,143,-1,157,143,142,-1,144,158,145,-1,145,158,159,-1,
        ]
    }
}
Shape{
    appearance Appearance {
        material  Material 	{
            diffuseColor 0.9215686274509803 0.8980392156862745 0.8196078431372549
            specularColor 0.8117647058823529 0.792156862745098 0.7215686274509804
            ambientIntensity 0.8961
            transparency 0.0
            shininess 0.5
        }
    }
    geometry IndexedFaceSet {
        ccw TRUE
        solid FALSE
        coord DEF co Coordinate {
            point [
                -1.8602 -0.7677 0.0, -1.7815 -0.7677 0.0, -1.7815 -0.7765 0.001, -1.8602 -0.7765 0.001, -1.7815 -0.7848 0.0039, -1.8602 -0.7848 0.0039, -1.7815 -0.7923 0.0086, -1.8602 -0.7923 0.0086, -1.7815 -0.7985 0.0148, -1.8602 -0.7985 0.0148, -1.7815 -0.8032 0.0223, -1.8602 -0.8032 0.0223, -1.7815 -0.8061 0.0306, -1.8602 -0.8061 0.0306, -1.7815 -0.8071 0.0394, -1.8602 -0.8071 0.0394
            ]
        }
        coordIndex [
            0,1,2,-1,0,2,3,-1,3,2,4,-1,3,4,5,-1,5,4,6,-1,5,6,7,-1,7,6,8,-1,7,8,9,-1,9,8,10,-1,9,10,11,-1,11,10,12,-1,11,12,13,-1,13,12,14,-1,13,14,15,-1,
        ]
    }
}
Shape{
    appearance Appearance {
        material  Material 	{
            diffuseColor 0.7764705882352941 0.7568627450980392 0.7372549019607844
            specularColor 0.38823529411764707 0.3764705882352941 0.3686274509803922
            ambientIntensity 0.7605
            transparency 0.0
            shininess 0.5
        }
    }
    geometry IndexedFaceSet {
        ccw TRUE
        solid FALSE
        coord DEF co Coordinate {
            point [
                -1.8602 -0.7677 0.0, -1.8602 -0.4239 0.0, -1.7815 -0.7677 0.0, -1.7815 -0.4239 0.0, -1.8602 -0.4042 0.0053, -1.7815 -0.4042 0.0053, -1.7815 -0.4105 0.0024, -1.8602 -0.4105 0.0024, -1.7815 -0.4171 0.0006, -1.8602 -0.4171 0.0006, -1.8602 -0.277 0.0787, -1.7815 -0.277 0.0787, -1.8602 0.374 0.0787, -1.7815 0.374 0.0787, -1.8602 0.4134 0.1181, -1.7815 0.4134 0.1181, -1.7815 0.4124 0.1093, -1.8602 0.4124 0.1093, -1.7815 0.4095 0.101, -1.8602 0.4095 0.101, -1.7815 0.4048 0.0936, -1.8602 0.4048 0.0936, -1.7815 0.3986 0.0873, -1.8602 0.3986 0.0873, -1.7815 0.3911 0.0826, -1.8602 0.3911 0.0826, -1.7815 0.3828 0.0797, -1.8602 0.3828 0.0797, -1.8602 0.4134 1.1215, -1.7815 0.4134 1.1215, -1.8602 -0.7677 0.3071, -1.8602 0.2165 0.3071, -1.8602 0.3062 1.7313, -1.8602 0.315 1.7323, -1.8602 0.2756 1.6929, -1.8602 -0.8061 0.2765, -1.8602 -0.8032 0.2848, -1.8602 0.4528 1.6929, -1.8602 0.2756 1.2851, -1.8602 0.4528 1.1976, -1.8602 0.2165 1.1709, -1.8602 -0.7765 0.3061, -1.8602 -0.7848 0.3032, -1.8602 0.4134 1.7323, -1.8602 0.4221 1.7313, -1.8602 -0.8032 0.0223, -1.8602 -0.7765 0.001, -1.8602 -0.8061 0.0306, -1.8602 -0.8071 0.0394, -1.8602 -0.8071 0.2677, -1.8602 0.2795 1.71, -1.8602 0.2842 1.7175, -1.8602 0.2766 1.7017, -1.8602 0.2904 1.7237, -1.8602 0.2979 1.7284, -1.8602 0.4442 1.7175, -1.8602 0.4518 1.7017, -1.8602 0.4489 1.71, -1.8602 -0.7985 0.2923, -1.8602 -0.7923 0.2985, -1.8602 0.4305 1.7284, -1.8602 0.4379 1.7237, -1.8602 -0.7848 0.0039, -1.8602 -0.7923 0.0086, -1.8602 -0.7985 0.0148, -1.7815 -0.7677 0.3071, -1.7815 0.2165 0.3071, -1.7815 0.2165 1.1709, -1.7815 0.2756 1.2851, -1.7815 0.4528 1.1976, -1.7815 0.2756 1.6929, -1.7815 0.4528 1.6929, -1.7815 -0.7765 0.001, -1.7815 -0.8032 0.0223, -1.7815 0.4518 1.7017, -1.7815 0.4489 1.71, -1.7815 0.4442 1.7175, -1.7815 0.4305 1.7284, -1.7815 0.4221 1.7313, -1.7815 0.4134 1.7323, -1.7815 0.315 1.7323, -1.7815 0.3062 1.7313, -1.7815 -0.7765 0.3061, -1.7815 -0.7848 0.3032, -1.7815 -0.7923 0.2985, -1.7815 -0.8061 0.2765, -1.7815 -0.8071 0.2677, -1.7815 -0.8071 0.0394, -1.7815 -0.8061 0.0306, -1.7815 0.4379 1.7237, -1.7815 -0.7985 0.2923, -1.7815 -0.8032 0.2848, -1.7815 0.2979 1.7284, -1.7815 0.2904 1.7237, -1.7815 0.2766 1.7017, -1.7815 0.2842 1.7175, -1.7815 0.2795 1.71, -1.7815 -0.7985 0.0148, -1.7815 -0.7923 0.0086, -1.7815 -0.7848 0.0039
            ]
        }
        coordIndex [
            0,1,2,-1,2,1,3,-1,4,5,6,-1,4,6,7,-1,7,6,8,-1,7,8,9,-1,9,8,3,-1,9,3,1,-1,4,10,5,-1,5,10,11,-1,10,12,11,-1,11,12,13,-1,14,15,16,-1,14,16,17,-1,17,16,18,-1,17,18,19,-1,19,18,20,-1,19,20,21,-1,21,20,22,-1,21,22,23,-1,23,22,24,-1,23,24,25,-1,25,24,26,-1,25,26,27,-1,27,26,13,-1,27,13,12,-1,14,28,15,-1,15,28,29,-1,30,31,12,-1,32,33,34,-1,17,19,31,-1,31,19,21,-1,31,21,23,-1,12,10,30,-1,30,10,4,-1,30,4,7,-1,35,36,1,-1,34,37,38,-1,38,37,39,-1,38,39,40,-1,40,39,28,-1,40,28,31,-1,31,28,14,-1,31,14,17,-1,7,9,30,-1,30,9,1,-1,30,1,41,-1,41,1,42,-1,34,33,37,-1,37,33,43,-1,37,43,44,-1,23,25,31,-1,31,25,27,-1,31,27,12,-1,45,0,46,-1,45,47,0,-1,0,47,48,-1,0,48,1,-1,1,48,49,-1,1,49,35,-1,50,51,52,-1,52,51,53,-1,52,53,34,-1,34,53,54,-1,34,54,32,-1,37,55,56,-1,56,55,57,-1,36,58,1,-1,1,58,59,-1,1,59,42,-1,44,60,37,-1,37,60,61,-1,37,61,55,-1,46,62,45,-1,45,62,63,-1,45,63,64,-1,5,11,65,-1,66,15,67,-1,67,15,29,-1,67,29,68,-1,68,29,69,-1,68,69,70,-1,70,69,71,-1,65,11,66,-1,66,11,13,-1,66,13,26,-1,20,18,66,-1,66,18,16,-1,66,16,15,-1,72,2,73,-1,3,8,65,-1,65,8,6,-1,65,6,5,-1,74,75,76,-1,77,78,71,-1,71,78,79,-1,71,79,70,-1,70,79,80,-1,70,80,81,-1,26,24,66,-1,66,24,22,-1,66,22,20,-1,65,82,3,-1,3,82,83,-1,3,83,84,-1,85,86,3,-1,3,86,87,-1,3,87,2,-1,2,87,88,-1,2,88,73,-1,74,76,71,-1,71,76,89,-1,71,89,77,-1,84,90,3,-1,3,90,91,-1,3,91,85,-1,81,92,70,-1,70,92,93,-1,70,93,94,-1,94,93,95,-1,94,95,96,-1,97,98,73,-1,73,98,99,-1,73,99,72,-1,
        ]
    }
}