#VRML V2.0 utf8
# 3D model generated by easyeda2kicad.py (https://github.com/uPesy/easyeda2kicad.py)

Shape{
    appearance Appearance {
        material  Material 	{
            diffuseColor 1.0 1.0 1.0
            specularColor 0.5019607843137255 0.5019607843137255 0.5019607843137255
            ambientIntensity 1.0
            transparency 0.0
            shininess 0.5
        }
    }
    geometry IndexedFaceSet {
        ccw TRUE
        solid FALSE
        coord DEF co Coordinate {
            point [
                -0.1869 1.2047 1.8515, -0.1869 1.2047 1.9849, -0.1323 1.2047 2.0229, -1.2322 1.2047 2.0229, -1.2322 1.2047 2.1977, -0.7658 1.2047 2.1977, -1.5748 1.2047 2.317, -1.5748 1.2047 2.4016, -1.2322 1.2047 2.4016, -0.3116 1.2047 2.1965, -0.3219 1.2047 2.1977, -0.2687 1.2047 2.1977, -1.063 1.2047 0.0787, -1.063 1.2047 0.0, -1.2322 1.2047 0.0, -0.4137 1.2047 1.8507, -0.4103 1.2047 1.8503, -0.4426 1.2047 1.8503, 0.1099 1.2047 2.2115, 0.0893 1.2047 2.1977, -0.1323 1.2047 2.1977, 0.0675 1.2047 2.1831, 0.0364 1.2047 2.1472, -0.0193 1.2047 2.0907, -0.0445 1.2047 2.0684, -0.0632 1.2047 2.041, 0.0163 1.2047 2.1081, 0.0086 1.2047 2.1054, 0.2874 1.2047 2.2097, 0.2436 1.2047 2.2266, 1.5748 1.2047 2.317, 0.1966 1.2047 2.2324, -0.1323 1.2047 2.317, 0.1575 1.2047 2.2283, 0.3067 1.2047 2.1977, 1.5748 1.2047 2.1977, 0.3104 1.2047 2.1954, 0.5061 1.2047 2.0806, 0.4831 1.2047 2.11, 0.4115 1.2047 2.1509, 0.374 1.2047 2.1556, 0.3327 1.2047 2.1763, 0.3631 1.2047 2.155, 0.3522 1.2047 2.1537, 0.4768 1.2047 2.116, 0.4467 1.2047 2.1372, 0.4241 1.2047 1.8565, 0.4584 1.2047 1.8733, 1.5748 1.2047 1.8503, 0.4879 1.2047 1.8984, 0.5094 1.2047 1.9291, 0.5231 1.2047 1.9644, 1.5748 1.2047 2.0229, 0.5277 1.2047 2.0019, 0.5275 1.2047 2.0107, 0.5253 1.2047 2.0229, 0.5212 1.2047 2.0464, 0.412 1.2047 1.8529, 0.4108 1.2047 1.8503, 0.4025 1.2047 1.8326, 0.3884 1.2047 1.8152, 1.5748 1.2047 1.7975, 1.5748 1.2047 0.0, 1.063 1.2047 0.0787, 1.063 1.2047 0.0, 0.5118 1.2047 0.0787, -0.1323 1.2047 1.7975, 0.2825 1.2047 1.7975, 0.5118 1.2047 0.0, 0.2756 1.2047 0.0, 0.2756 1.2047 0.0787, 0.2989 1.2047 1.7912, 0.3218 1.2047 1.7884, 0.3256 1.2047 1.7884, 0.348 1.2047 1.792, 0.3611 1.2047 1.7975, 0.3698 1.2047 1.8012, 0.2329 1.2047 1.8503, 0.2329 1.2047 1.8502, 0.2441 1.2047 1.829, 0.2588 1.2047 1.8124, 0.2778 1.2047 1.7993, 0.2507 1.2047 1.9468, 0.1235 1.2047 2.0132, 0.2672 1.2047 1.9619, 0.2873 1.2047 1.9727, -0.0775 1.2047 1.9775, -0.0723 1.2047 1.9465, -0.1323 1.2047 1.8503, -0.0596 1.2047 1.9168, 0.103 1.2047 1.8514, 0.1094 1.2047 1.8533, 0.1159 1.2047 1.8573, 0.1203 1.2047 1.8615, -0.0184 1.2047 1.991, -0.0139 1.2047 2.0093, -0.0066 1.2047 2.0229, 0.4656 1.2047 2.0229, -0.0699 1.2047 2.0229, -0.0741 1.2047 2.0118, -0.0776 1.2047 1.9838, 0.1169 1.2047 1.9028, 0.111 1.2047 1.9067, 0.0941 1.2047 1.963, 0.1044 1.2047 1.9091, -0.0425 1.2047 1.8937, -0.0388 1.2047 1.8898, -0.0137 1.2047 1.8699, 0.4601 1.2047 1.9661, 0.4487 1.2047 1.9466, 0.4005 1.2047 1.9369, 0.4316 1.2047 1.9292, 0.411 1.2047 1.9165, 0.3654 1.2047 1.9683, 0.3848 1.2047 1.9549, 0.4679 1.2047 2.0038, 0.4668 1.2047 1.9893, 0.0155 1.2047 1.8566, 0.0438 1.2047 1.851, 0.0998 1.2047 1.851, 0.1273 1.2047 1.8804, 0.1272 1.2047 1.8835, 0.2269 1.2047 1.8927, 0.1254 1.2047 1.8907, 0.1219 1.2047 1.8973, 0.3444 1.2047 1.9763, 0.3218 1.2047 1.9791, 0.3102 1.2047 1.9784, 0.1242 1.2047 1.8675, 0.1266 1.2047 1.874, 0.2274 1.2047 1.8736, 0.2269 1.2047 1.8833, 0.0979 1.2047 1.9098, 0.097 1.2047 1.9098, 0.0941 1.2047 1.9091, 0.0004 1.2047 1.9327, -0.01 1.2047 1.9475, -0.0165 1.2047 1.9645, -0.0188 1.2047 1.9829, 0.0922 1.2047 1.9089, 0.0495 1.2047 1.9089, 0.0326 1.2047 1.9121, 0.0159 1.2047 1.9198, 0.0018 1.2047 1.9313, 0.3228 1.2047 2.0844, 0.3298 1.2047 2.0882, 0.3511 1.2047 2.096, 0.3104 1.2047 2.111, 0.0628 1.2047 2.0569, 0.0552 1.2047 2.0569, -0.0052 1.2047 2.0257, 0.0059 1.2047 2.038, 0.0207 1.2047 2.0483, 0.0372 1.2047 2.0547, 0.11 1.2047 2.1442, 0.0654 1.2047 2.072, 0.0965 1.2047 2.1312, 0.0773 1.2047 2.1038, 0.1956 1.2047 2.1755, 0.2018 1.2047 2.1754, 0.2333 1.2047 2.1702, 0.1371 1.2047 2.1618, 0.1671 1.2047 2.1724, 0.4062 1.2047 2.0926, 0.4273 1.2047 2.0815, 0.3827 1.2047 2.0981, 0.4439 1.2047 2.0667, 0.457 1.2047 2.0478, 0.264 1.2047 2.157, 0.29 1.2047 2.137, 0.3731 1.2047 2.0986, 0.4651 1.2047 2.0267, -0.6283 1.2047 1.8667, -0.6283 1.2047 1.8515, -0.6409 1.2047 1.8503, -0.5987 1.2047 1.8503, -0.6252 1.2047 1.9696, -0.6409 1.2047 2.0229, -0.5987 1.2047 1.8667, -0.6214 1.2047 1.9116, -0.6214 1.2047 1.9269, -0.5987 1.2047 1.9269, -0.5987 1.2047 1.9116, -0.5737 1.2047 1.9116, -0.5737 1.2047 1.8667, -0.5987 1.2047 1.9696, -0.5737 1.2047 1.9696, -0.5737 1.2047 1.9269, -0.5987 1.2047 1.8515, -0.5565 1.2047 1.8515, -0.5005 1.2047 1.8503, -0.5385 1.2047 1.9468, -0.4906 1.2047 1.8751, -0.4926 1.2047 1.8673, -0.4931 1.2047 1.8673, -0.4738 1.2047 2.0229, -0.5565 1.2047 1.9849, -0.5987 1.2047 2.0229, -0.5987 1.2047 1.9849, -0.6252 1.2047 1.9849, -0.4938 1.2047 1.8706, -0.4951 1.2047 1.875, -0.4738 1.2047 1.9236, -0.5212 1.2047 1.9468, -0.357 1.2047 2.0229, -0.357 1.2047 1.8503, -0.3739 1.2047 1.8721, -0.3739 1.2047 1.8548, -0.3799 1.2047 1.8683, -0.3816 1.2047 1.8676, -0.3816 1.2047 1.903, -0.3788 1.2047 1.906, -0.3767 1.2047 1.9093, -0.3815 1.2047 1.9031, -0.3748 1.2047 1.9143, -0.374 1.2047 1.9211, -0.3746 1.2047 1.9269, -0.3766 1.2047 1.9323, -0.3816 1.2047 1.8521, -0.3816 1.2047 1.8503, -0.3856 1.2047 1.8507, -0.389 1.2047 1.8503, -0.3998 1.2047 1.8492, -0.3816 1.2047 1.7975, -0.4337 1.2047 1.9447, -0.4337 1.2047 1.9285, -0.4376 1.2047 1.8709, -0.4356 1.2047 1.8656, -0.4325 1.2047 1.8612, -0.3797 1.2047 1.9368, -0.3816 1.2047 1.9386, -0.3816 1.2047 2.0229, -0.3847 1.2047 1.9414, -0.3887 1.2047 1.9439, -0.4327 1.2047 1.8931, -0.4357 1.2047 1.8888, -0.4375 1.2047 1.8839, -0.4383 1.2047 1.8774, -0.3977 1.2047 1.9473, -0.4111 1.2047 1.949, -0.4426 1.2047 2.0229, -0.4229 1.2047 1.9479, -0.4275 1.2047 1.8568, -0.4228 1.2047 1.8539, -0.4095 1.2047 1.9354, -0.4046 1.2047 1.935, -0.3913 1.2047 1.9226, -0.4001 1.2047 1.9338, -0.3963 1.2047 1.9318, -0.3914 1.2047 1.9203, -0.3921 1.2047 1.9177, -0.3933 1.2047 1.9155, -0.3949 1.2047 1.9137, -0.4008 1.2047 1.91, -0.4212 1.2047 1.934, -0.4111 1.2047 1.9055, -0.4307 1.2047 1.9303, -0.4176 1.2047 1.9029, -0.4287 1.2047 1.8967, -0.3938 1.2047 1.9296, -0.3924 1.2047 1.9275, -0.3916 1.2047 1.9252, -0.3904 1.2047 1.8642, -0.3993 1.2047 1.8934, -0.3894 1.2047 1.8979, -0.4014 1.2047 1.8629, -0.4022 1.2047 1.8629, -0.4103 1.2047 1.8888, -0.4107 1.2047 1.8638, -0.4211 1.2047 1.8758, -0.421 1.2047 1.8778, -0.415 1.2047 1.8654, -0.4166 1.2047 1.8663, -0.4185 1.2047 1.868, -0.4199 1.2047 1.8702, -0.4208 1.2047 1.8726, -0.4202 1.2047 1.8804, -0.4189 1.2047 1.8827, -0.4168 1.2047 1.8848, -0.6898 1.2047 2.0997, -0.6409 1.2047 2.0997, -0.7035 1.2047 2.0632, -0.7225 1.2047 2.0632, -0.7658 1.2047 2.0229, -0.6717 1.2047 2.1966, -0.6024 1.2047 2.0632, -0.6214 1.2047 2.0632, -0.6343 1.2047 2.0997, -0.4426 1.2047 2.1977, -0.4581 1.2047 2.1966, -0.4738 1.2047 2.1977, -0.4581 1.2047 2.1813, -0.4543 1.2047 2.1386, -0.4543 1.2047 2.1233, -0.4066 1.2047 2.1233, -0.4066 1.2047 2.0784, -0.4426 1.2047 2.0784, -0.4426 1.2047 2.1813, -0.4426 1.2047 2.1386, -0.4066 1.2047 2.1813, -0.4066 1.2047 2.1386, -0.3894 1.2047 2.0632, -0.4426 1.2047 2.0632, -0.4611 1.2047 2.0632, -0.4611 1.2047 2.0784, -0.4426 1.2047 2.1233, -0.3816 1.2047 2.1977, -0.3894 1.2047 2.1966, -0.4426 1.2047 2.1966, -0.7658 1.2047 0.0787, -1.2322 1.2047 1.7975, -0.5987 1.2047 1.7975, -0.6409 1.2047 0.0787, -0.6409 1.2047 1.7975, -0.7658 1.2047 1.7975, -0.4738 1.2047 0.0, -0.5118 1.2047 0.0, -0.5118 1.2047 0.0787, -0.2687 1.2047 0.0787, -0.2756 1.2047 0.0787, -0.357 1.2047 1.7975, -0.357 1.2047 2.1977, -0.357 1.2047 2.1951, -0.3627 1.2047 2.1934, -0.3627 1.2047 2.1754, -0.3627 1.2047 2.0852, -0.3627 1.2047 2.0687, -0.3604 1.2047 2.0676, -0.3345 1.2047 2.0765, -0.3496 1.2047 2.0793, -0.357 1.2047 2.1778, -0.357 1.2047 2.0826, -0.3612 1.2047 2.1762, -0.2965 1.2047 2.0878, -0.3052 1.2047 2.0816, -0.3476 1.2047 2.1813, -0.2932 1.2047 2.1666, -0.2869 1.2047 2.1571, -0.2827 1.2047 2.1453, -0.3312 1.2047 2.1833, -0.3261 1.2047 2.1831, -0.2948 1.2047 2.1685, -0.3145 1.2047 2.1809, -0.304 1.2047 2.176, -0.2808 1.2047 2.1284, -0.281 1.2047 2.1235, -0.2831 1.2047 2.1101, -0.3147 1.2047 2.0779, -0.3282 1.2047 2.0763, -0.2874 1.2047 2.0993, -0.2939 1.2047 2.0903, -0.3314 1.2047 2.1989, -0.3452 1.2047 2.1977, -0.3488 1.2047 2.1974, -0.2723 1.2047 2.1666, -0.282 1.2047 2.1792, -0.2852 1.2047 2.1822, -0.2976 1.2047 2.191, -0.2607 1.2047 2.0229, -0.2687 1.2047 2.0229, -0.2687 1.2047 2.0969, -0.2607 1.2047 2.1977, -0.266 1.2047 2.1517, -0.2687 1.2047 2.1581, -0.2649 1.2047 2.1074, -0.2627 1.2047 2.1274, -0.263 1.2047 2.1343, -0.2906 1.2047 2.0702, -0.2799 1.2047 2.0791, -0.3257 1.2047 2.0609, -0.3177 1.2047 2.0613, -0.3032 1.2047 2.0643, -0.2778 1.2047 2.0815, -0.2701 1.2047 2.0931, -0.357 1.2047 2.0664, -0.3461 1.2047 2.0629, -0.2781 1.2047 1.8921, -0.2814 1.2047 1.8969, -0.284 1.2047 1.9238, -0.2944 1.2047 1.8505, -0.2881 1.2047 1.853, -0.2687 1.2047 1.8503, -0.3346 1.2047 1.8662, -0.3341 1.2047 1.8662, -0.3346 1.2047 1.8515, -0.3303 1.2047 1.8606, -0.3248 1.2047 1.8554, -0.2865 1.2047 1.9013, -0.2936 1.2047 1.905, -0.2956 1.2047 1.9311, -0.3063 1.2047 1.9081, -0.321 1.2047 1.9348, -0.3152 1.2047 1.9354, -0.3061 1.2047 1.9345, -0.2829 1.2047 1.8567, -0.2805 1.2047 1.8592, -0.2775 1.2047 1.8639, -0.3394 1.2047 1.9428, -0.3439 1.2047 1.9386, -0.3473 1.2047 1.9332, -0.2997 1.2047 1.9469, -0.3168 1.2047 1.949, -0.3267 1.2047 1.9481, -0.3338 1.2047 1.946, -0.2755 1.2047 1.8696, -0.2747 1.2047 1.877, -0.2747 1.2047 1.879, -0.2758 1.2047 1.8862, -0.3346 1.2047 1.912, -0.334 1.2047 1.9193, -0.3323 1.2047 1.9253, -0.3303 1.2047 1.9288, -0.284 1.2047 1.9401, -0.2873 1.2047 1.942, -0.3499 1.2047 1.9257, -0.3513 1.2047 1.9128, -0.3513 1.2047 1.8515, -0.3278 1.2047 1.9315, -0.3249 1.2047 1.9334, -0.3142 1.2047 1.8503, -0.3142 1.2047 1.8503, -0.2687 1.2047 1.7975, -0.2607 1.2047 1.7975, -0.2607 1.2047 0.0787, -0.1323 1.2047 0.0787, -0.3049 1.2047 1.8492, -0.3022 1.2047 1.8493, -0.2955 1.2047 1.8503, -0.4738 1.2047 1.8503, -0.4738 1.2047 1.8787, -0.447 1.2047 1.9468, -0.4657 1.2047 1.9468, -0.4844 1.2047 1.8517, -0.4838 1.2047 1.8503, -0.477 1.2047 1.8343, -0.4426 1.2047 1.7975, -0.4504 1.2047 1.8079, -0.4504 1.2047 1.8228, -0.4539 1.2047 1.8217, -0.4599 1.2047 1.8209, -0.461 1.2047 1.8209, -0.4648 1.2047 1.8216, -0.4684 1.2047 1.8232, -0.4704 1.2047 1.8246, -0.4735 1.2047 1.828, -0.4738 1.2047 1.8284, -0.4738 1.2047 1.8095, -0.468 1.2047 1.8073, -0.4738 1.2047 1.7975, -0.4612 1.2047 1.8066, -0.4554 1.2047 1.8069, -0.4952 1.2047 1.8371, -0.4877 1.2047 1.8224, -0.4816 1.2047 1.815, -0.4804 1.2047 1.8139, -0.4745 1.2047 1.8098, -1.5748 1.2047 0.0, -1.5748 1.2047 1.7975, -1.5748 1.2047 2.1977, -1.5748 1.2047 2.0229, -1.5748 1.2047 1.8503, -1.2322 1.2047 1.8503, -0.7886 1.2047 1.8515, -0.7695 1.2047 1.8515, -0.7658 1.2047 1.8503, -0.8706 1.2047 1.8515, -0.857 1.2047 1.888, -0.8014 1.2047 1.888, -0.8204 1.2047 1.9849, -0.8388 1.2047 1.9849, -0.8896 1.2047 1.8515, -0.6409 1.2047 2.1977, -0.6532 1.2047 2.1966, -0.6409 1.2047 2.1641, -0.7585 1.2047 1.8958, -0.7519 1.2047 1.882, -0.742 1.2047 1.8702, -0.7283 1.2047 1.8603, -0.7131 1.2047 1.8543, -0.6902 1.2047 1.8515, -0.6535 1.2047 1.8515, -0.6535 1.2047 1.9849, -0.6915 1.2047 1.9849, -0.7119 1.2047 1.9827, -0.728 1.2047 1.9768, -0.742 1.2047 1.9672, -0.7466 1.2047 1.9628, -0.7549 1.2047 1.9512, -0.7598 1.2047 1.9385, -0.7621 1.2047 1.9199, -0.7617 1.2047 1.9114, -0.4864 1.2047 2.0632, -0.5946 1.2047 2.1232, -0.5914 1.2047 2.1075, -0.5848 1.2047 2.0937, -0.5749 1.2047 2.0819, -0.5878 1.2047 2.1629, -0.5927 1.2047 2.1502, -0.5987 1.2047 2.1977, -0.595 1.2047 2.1316, -0.5612 1.2047 2.072, -0.546 1.2047 2.066, -0.5231 1.2047 2.0632, -0.4864 1.2047 2.1966, -0.5244 1.2047 2.1966, -0.5448 1.2047 2.1944, -0.5609 1.2047 2.1885, -0.5749 1.2047 2.1789, -0.5795 1.2047 2.1745, -0.4426 1.2047 0.0, -0.5987 1.2047 0.0787, -0.3816 1.2047 0.0, -0.357 1.2047 0.0, -0.2756 1.2047 0.0, -0.3208 1.2047 1.8529, -0.357 1.2047 2.317, -0.3816 1.2047 2.317, -0.4426 1.2047 2.317, -0.4738 1.2047 2.317, -0.5987 1.2047 2.317, -0.6409 1.2047 2.317, -0.7658 1.2047 2.317, -1.2322 1.2047 2.317, -0.2607 1.2047 1.8503, -0.2557 1.2047 1.9849, -0.2557 1.2047 1.9696, -0.2041 1.2047 1.9696, -0.2041 1.2047 1.9269, -0.2519 1.2047 1.9269, -0.2587 1.2047 1.8515, -0.2587 1.2047 1.8667, -0.2041 1.2047 1.9116, -0.2041 1.2047 1.8667, -0.2519 1.2047 1.9116, -0.2041 1.2047 2.1966, -0.2041 1.2047 2.0784, -0.2573 1.2047 2.0784, -0.1869 1.2047 2.0632, -0.1869 1.2047 2.1966, -0.2573 1.2047 2.0632, -0.2607 1.2047 2.317, -0.2687 1.2047 2.317, -0.331 1.2047 2.1989, -0.7658 1.2047 2.4016, -0.6409 1.2047 2.4016, -0.5987 1.2047 2.4016, -0.4738 1.2047 2.4016, -0.4426 1.2047 2.4016, -0.3816 1.2047 2.4016, -0.357 1.2047 2.4016, -0.2687 1.2047 2.4016, -0.2607 1.2047 2.4016, -0.1323 1.2047 2.4016, 1.5748 1.2047 2.4016, -1.4173 -0.1486 2.4016, -1.5748 -0.1486 2.4016, -1.4173 -0.5276 2.4016, -1.5748 -0.685 2.4016, -0.5512 -0.5276 2.4016, -0.5512 -0.685 2.4016, 1.4173 1.0472 2.4016, 1.4173 0.2075 2.4016, 1.5748 0.2075 2.4016, -1.4173 1.0472 2.4016, -1.5748 0.2075 2.4016, -1.4173 0.2075 2.4016, -1.5748 0.2075 1.7846, -1.5748 -0.1425 1.7386, -1.5748 -0.1247 1.6956, -1.5748 -0.685 0.0, -1.5748 -0.0964 1.6587, -1.5748 -0.0596 1.6304, -1.5748 -0.0166 1.6127, -1.5748 0.0295 1.6066, -1.5748 0.0756 1.6127, -1.5748 0.1185 1.6304, -1.5748 -0.1486 1.7846, -1.5748 0.1554 1.6587, -1.5748 0.1837 1.6956, -1.5748 0.2015 1.7386, -1.3386 0.4871 0.2953, -1.3386 0.9685 0.2953, -1.3386 0.2598 0.689, -1.3386 0.9685 2.3729, -1.3386 0.1554 1.6587, -1.3386 0.1185 1.6304, -1.3386 -0.0596 1.6304, -1.3386 -0.0964 1.6587, -1.3386 -0.4488 0.689, -1.3386 0.2075 2.3729, -1.3386 0.2075 1.7846, -1.3386 0.2015 1.7386, -1.3386 0.1837 1.6956, -1.3386 0.0756 1.6127, -1.3386 0.0295 1.6066, -1.3386 -0.0166 1.6127, -1.3386 -0.1247 1.6956, -1.3386 -0.1425 1.7386, -1.3386 -0.4488 2.3729, -1.3386 -0.1486 1.7846, -1.3386 -0.1486 2.3729, 1.3386 0.9685 2.3729, 1.3386 0.2075 2.3729, 0.8268 -0.4488 0.0787, 0.689 -0.0945 0.0787, 1.063 -0.4488 0.0787, 0.8858 -0.0945 0.0787, 0.8858 0.1024 0.0787, 0.8268 -0.685 0.0787, 0.5118 -0.685 0.0787, 0.689 0.1024 0.0787, 1.5748 -0.685 0.0, 1.2992 -0.685 0.0, 1.2992 -0.4488 0.0, 1.063 -0.4488 0.0, 1.3386 -0.4488 0.689, 1.2992 -0.4488 0.689, 1.2992 -0.4488 1.8898, 0.8268 -0.4488 0.689, 0.5512 -0.4488 0.689, 0.8268 -0.4488 1.8898, 0.5512 -0.4488 2.3729, 1.3386 -0.4488 2.3729, -0.5118 -0.685 0.0787, -0.5118 -0.685 0.0, -0.2756 -0.685 0.0, -0.2756 -0.685 0.0787, 0.2756 -0.685 0.0787, 0.5512 -0.685 0.689, -0.8268 -0.685 0.0787, -0.5512 -0.685 0.689, -0.8268 -0.685 1.8898, -1.2992 -0.685 1.8898, -1.2992 -0.685 0.0, 1.2992 -0.685 1.8898, 1.5748 -0.685 2.4016, 0.8268 -0.685 1.8898, 0.5512 -0.685 2.4016, 0.5118 -0.685 0.0, 0.2756 -0.685 0.0, -1.063 -0.4488 0.0, -1.063 -0.4488 0.0787, 0.0984 0.1024 0.689, 0.0984 -0.0945 0.689, 1.3386 0.2598 0.689, 0.8858 0.1024 0.689, 0.8858 -0.0945 0.689, -0.0984 0.1024 0.689, -0.689 0.1024 0.689, -0.689 -0.0945 0.689, -0.5512 -0.4488 0.689, 0.689 -0.0945 0.689, -0.0984 -0.0945 0.689, 0.689 0.1024 0.689, -1.2992 -0.4488 0.689, -0.8268 -0.4488 0.689, -0.8858 -0.0945 0.689, -0.8858 0.1024 0.689, -0.8268 -0.4488 0.0787, -0.689 0.1024 0.0787, -0.689 -0.0945 0.0787, -0.8858 -0.0945 0.0787, -0.8858 0.1024 0.0787, 0.0984 -0.0945 0.0787, 0.0984 0.1024 0.0787, -0.0984 -0.0945 0.0787, -0.0984 0.1024 0.0787, 1.5748 0.2075 1.7846, 1.5748 0.2015 1.7386, 1.5748 -0.0964 1.6587, 1.5748 -0.0596 1.6304, 1.5748 -0.0166 1.6127, 1.5748 0.1554 1.6587, 1.5748 0.1185 1.6304, 1.5748 0.0756 1.6127, 1.5748 0.0295 1.6066, 1.5748 -0.1247 1.6956, 1.5748 -0.1425 1.7386, 1.5748 -0.1486 1.7846, 1.5748 -0.1486 2.4016, 1.5748 0.1837 1.6956, 0.5512 -0.5276 2.4016, 1.4173 -0.5276 2.4016, 1.4173 -0.1486 2.4016, -1.2992 -0.4488 0.0, -1.2992 -0.4488 1.8898, -0.8268 -0.4488 1.8898, -0.5512 -0.4488 2.3729, 1.3386 0.9685 0.2953, 1.3386 0.2075 1.7846, 1.3386 0.4871 0.2953, 1.3386 0.0756 1.6127, 1.3386 0.1185 1.6304, 1.3386 -0.1425 1.7386, 1.3386 -0.1247 1.6956, 1.3386 -0.0964 1.6587, 1.3386 -0.0596 1.6304, 1.3386 -0.0166 1.6127, 1.3386 0.0295 1.6066, 1.3386 0.1554 1.6587, 1.3386 0.1837 1.6956, 1.3386 0.2015 1.7386, 1.3386 -0.1486 1.7846, 1.3386 -0.1486 2.3729
            ]
        }
        coordIndex [
            0,1,2,-1,3,4,5,-1,6,7,8,-1,9,10,11,-1,12,13,14,-1,15,16,17,-1,18,19,20,-1,20,19,21,-1,20,21,22,-1,23,24,20,-1,20,24,25,-1,20,25,2,-1,22,26,20,-1,20,26,27,-1,20,27,23,-1,28,29,30,-1,30,29,31,-1,30,31,32,-1,32,31,33,-1,32,33,18,-1,28,30,34,-1,34,30,35,-1,34,35,36,-1,35,37,38,-1,35,39,36,-1,36,39,40,-1,36,40,41,-1,41,40,42,-1,41,42,43,-1,38,44,35,-1,35,44,45,-1,35,45,39,-1,46,47,48,-1,48,47,49,-1,49,50,48,-1,48,50,51,-1,48,51,52,-1,52,51,53,-1,53,54,52,-1,52,54,55,-1,52,55,35,-1,35,55,56,-1,35,56,37,-1,57,46,58,-1,58,46,48,-1,58,48,59,-1,59,48,60,-1,61,62,63,-1,63,62,64,-1,65,66,67,-1,68,69,65,-1,65,69,70,-1,65,70,66,-1,67,71,65,-1,65,71,72,-1,65,72,63,-1,72,73,63,-1,63,73,74,-1,63,74,61,-1,61,74,75,-1,61,75,48,-1,48,75,76,-1,48,76,60,-1,77,78,66,-1,66,78,79,-1,79,80,66,-1,66,80,81,-1,66,81,67,-1,82,83,84,-1,84,83,85,-1,86,87,88,-1,88,87,89,-1,90,91,77,-1,77,91,92,-1,77,92,93,-1,94,95,83,-1,83,95,96,-1,83,96,97,-1,25,98,2,-1,2,98,99,-1,2,99,100,-1,101,102,103,-1,103,102,104,-1,89,105,88,-1,88,105,106,-1,88,106,107,-1,108,109,110,-1,110,109,111,-1,110,111,112,-1,113,97,114,-1,114,97,115,-1,114,115,110,-1,110,115,116,-1,110,116,108,-1,107,117,88,-1,88,117,118,-1,88,118,77,-1,77,118,119,-1,77,119,90,-1,120,121,122,-1,122,121,123,-1,122,123,103,-1,103,123,124,-1,103,124,101,-1,113,125,97,-1,97,125,126,-1,97,126,83,-1,83,126,127,-1,83,127,85,-1,93,128,77,-1,77,128,129,-1,77,129,130,-1,130,129,120,-1,130,120,131,-1,131,120,122,-1,104,132,103,-1,103,132,133,-1,103,133,134,-1,135,136,103,-1,103,136,137,-1,103,137,83,-1,83,137,138,-1,83,138,94,-1,134,139,103,-1,103,139,140,-1,103,140,141,-1,141,142,103,-1,103,142,143,-1,103,143,135,-1,96,144,97,-1,97,144,145,-1,97,145,146,-1,147,144,148,-1,148,144,96,-1,148,96,149,-1,149,96,150,-1,150,151,149,-1,149,151,152,-1,149,152,153,-1,154,155,156,-1,156,155,157,-1,155,158,148,-1,148,158,159,-1,148,159,160,-1,154,161,155,-1,155,161,162,-1,155,162,158,-1,163,164,165,-1,165,164,166,-1,165,166,167,-1,160,168,148,-1,148,168,169,-1,148,169,147,-1,146,170,97,-1,97,170,165,-1,97,165,171,-1,171,165,167,-1,172,173,174,-1,174,173,175,-1,176,174,177,-1,178,172,179,-1,179,172,174,-1,179,174,180,-1,180,174,176,-1,180,176,181,-1,179,182,178,-1,178,182,183,-1,178,183,184,-1,176,185,181,-1,181,185,186,-1,181,186,187,-1,173,188,175,-1,175,188,189,-1,175,189,190,-1,190,189,191,-1,192,193,194,-1,195,196,197,-1,197,196,198,-1,197,198,177,-1,177,198,199,-1,177,199,176,-1,194,200,192,-1,192,200,201,-1,192,201,202,-1,202,201,203,-1,202,203,195,-1,195,203,191,-1,195,191,196,-1,196,191,189,-1,204,205,206,-1,206,205,207,-1,208,209,210,-1,211,212,206,-1,208,210,206,-1,206,210,213,-1,206,213,211,-1,212,214,206,-1,206,214,215,-1,206,215,204,-1,204,215,216,-1,204,216,217,-1,218,219,220,-1,220,219,221,-1,222,221,223,-1,223,221,219,-1,223,219,205,-1,205,219,218,-1,205,218,207,-1,224,225,17,-1,226,227,17,-1,17,227,228,-1,229,230,231,-1,231,230,232,-1,231,232,233,-1,234,235,225,-1,225,235,236,-1,225,236,17,-1,17,236,237,-1,17,237,226,-1,233,238,231,-1,231,238,239,-1,231,239,240,-1,240,239,241,-1,240,241,224,-1,228,242,17,-1,17,242,243,-1,17,243,15,-1,244,245,246,-1,246,245,247,-1,246,247,248,-1,246,249,244,-1,244,249,250,-1,244,250,251,-1,251,252,244,-1,244,252,253,-1,244,253,254,-1,254,253,255,-1,254,255,256,-1,256,255,257,-1,256,257,225,-1,225,257,258,-1,225,258,234,-1,259,260,248,-1,248,260,261,-1,248,261,246,-1,262,263,209,-1,209,263,264,-1,209,264,210,-1,262,265,263,-1,263,265,266,-1,263,266,267,-1,267,266,268,-1,267,269,270,-1,268,271,267,-1,267,271,272,-1,267,272,273,-1,273,274,267,-1,267,274,275,-1,267,275,269,-1,270,276,267,-1,267,276,277,-1,267,277,278,-1,279,280,281,-1,281,280,177,-1,281,177,282,-1,282,177,283,-1,282,283,284,-1,285,197,286,-1,286,197,177,-1,286,177,287,-1,287,177,280,-1,288,289,290,-1,290,289,291,-1,292,293,195,-1,294,295,296,-1,291,297,298,-1,298,297,299,-1,298,299,300,-1,301,231,302,-1,302,231,240,-1,302,240,303,-1,303,240,195,-1,303,195,304,-1,304,195,293,-1,304,293,296,-1,296,293,305,-1,296,305,294,-1,306,307,288,-1,288,307,308,-1,288,308,289,-1,309,12,310,-1,311,312,313,-1,313,312,309,-1,313,309,314,-1,314,309,310,-1,315,316,317,-1,318,319,320,-1,321,322,306,-1,306,322,323,-1,306,323,324,-1,325,326,231,-1,326,327,231,-1,231,327,204,-1,231,204,229,-1,229,204,217,-1,328,329,330,-1,330,329,331,-1,330,331,332,-1,332,331,325,-1,332,325,324,-1,324,325,231,-1,324,231,306,-1,306,231,301,-1,306,301,307,-1,330,333,334,-1,335,336,330,-1,330,336,337,-1,330,337,338,-1,335,339,336,-1,336,339,340,-1,336,340,341,-1,341,340,342,-1,341,342,343,-1,338,344,330,-1,330,344,345,-1,330,345,346,-1,334,347,330,-1,330,347,348,-1,330,348,328,-1,346,349,330,-1,330,349,350,-1,330,350,333,-1,351,352,321,-1,321,352,353,-1,321,353,322,-1,11,354,355,-1,355,356,11,-1,11,356,357,-1,11,357,9,-1,358,359,360,-1,361,362,11,-1,11,362,363,-1,11,363,354,-1,360,364,358,-1,358,364,365,-1,358,365,361,-1,361,365,366,-1,361,366,362,-1,359,367,368,-1,369,370,359,-1,359,370,371,-1,359,371,367,-1,368,372,359,-1,359,372,373,-1,359,373,360,-1,327,374,204,-1,204,374,375,-1,204,375,369,-1,376,377,378,-1,379,380,381,-1,382,383,384,-1,384,383,385,-1,384,385,386,-1,377,387,378,-1,378,387,388,-1,378,388,389,-1,389,388,390,-1,391,392,390,-1,390,392,393,-1,390,393,389,-1,380,394,381,-1,381,394,395,-1,381,395,396,-1,397,398,204,-1,204,398,399,-1,369,359,204,-1,204,359,400,-1,204,400,401,-1,401,402,204,-1,204,402,403,-1,204,403,397,-1,396,404,381,-1,381,404,405,-1,381,405,406,-1,359,406,407,-1,408,409,390,-1,390,409,410,-1,390,410,411,-1,376,378,407,-1,407,378,412,-1,407,412,359,-1,359,412,413,-1,359,413,400,-1,399,414,204,-1,204,414,415,-1,204,415,205,-1,205,415,416,-1,205,416,384,-1,411,417,390,-1,390,417,418,-1,390,418,391,-1,419,420,320,-1,320,420,421,-1,320,421,318,-1,318,421,422,-1,318,422,423,-1,423,422,66,-1,423,66,424,-1,424,66,70,-1,420,425,421,-1,421,425,426,-1,421,426,427,-1,428,429,17,-1,17,429,430,-1,224,17,240,-1,240,17,430,-1,240,430,195,-1,195,430,431,-1,195,431,202,-1,432,429,433,-1,433,429,428,-1,433,428,434,-1,435,436,437,-1,438,439,17,-1,222,223,16,-1,16,223,435,-1,16,435,17,-1,17,435,437,-1,17,437,438,-1,439,440,17,-1,17,440,441,-1,17,441,442,-1,442,443,17,-1,17,443,444,-1,17,444,428,-1,428,444,445,-1,428,445,434,-1,446,447,448,-1,448,447,449,-1,448,449,435,-1,435,449,450,-1,435,450,436,-1,451,452,311,-1,451,311,190,-1,452,453,311,-1,311,453,454,-1,311,454,448,-1,448,454,455,-1,448,455,446,-1,12,14,310,-1,310,14,456,-1,310,456,457,-1,458,4,459,-1,459,4,3,-1,459,3,460,-1,460,3,461,-1,462,463,464,-1,465,466,467,-1,464,463,283,-1,283,463,468,-1,283,468,469,-1,467,462,465,-1,465,462,464,-1,465,464,470,-1,470,464,461,-1,470,461,469,-1,469,461,3,-1,469,3,283,-1,283,3,5,-1,283,5,284,-1,284,5,471,-1,284,471,472,-1,472,471,473,-1,474,475,464,-1,464,475,476,-1,464,476,477,-1,477,478,464,-1,464,478,479,-1,464,479,174,-1,174,479,480,-1,174,480,177,-1,480,481,177,-1,177,481,482,-1,177,482,283,-1,283,482,483,-1,283,483,484,-1,484,485,283,-1,283,485,486,-1,283,486,487,-1,487,488,283,-1,283,488,489,-1,283,489,464,-1,464,489,490,-1,464,490,474,-1,190,311,175,-1,175,311,313,-1,175,313,174,-1,174,313,314,-1,174,314,464,-1,464,314,310,-1,464,310,461,-1,461,310,457,-1,461,457,460,-1,298,292,291,-1,291,292,195,-1,291,195,290,-1,290,195,491,-1,492,493,197,-1,197,493,494,-1,197,494,495,-1,496,497,498,-1,498,497,499,-1,495,500,197,-1,197,500,501,-1,197,501,195,-1,195,501,502,-1,195,502,491,-1,491,503,290,-1,290,503,504,-1,290,504,498,-1,498,504,505,-1,498,505,506,-1,506,507,498,-1,498,507,508,-1,498,508,496,-1,473,471,285,-1,285,471,498,-1,285,498,197,-1,197,498,499,-1,197,499,492,-1,223,509,435,-1,435,509,315,-1,435,315,448,-1,448,315,317,-1,448,317,311,-1,311,317,510,-1,311,510,312,-1,511,320,512,-1,512,320,319,-1,512,319,513,-1,386,514,384,-1,384,514,419,-1,384,419,205,-1,205,419,320,-1,205,320,223,-1,223,320,511,-1,223,511,509,-1,351,321,515,-1,515,321,306,-1,515,306,516,-1,516,306,288,-1,516,288,517,-1,517,288,290,-1,517,290,518,-1,518,290,498,-1,518,498,519,-1,519,498,471,-1,519,471,520,-1,520,471,5,-1,520,5,521,-1,521,5,4,-1,521,4,522,-1,522,4,458,-1,522,458,6,-1,77,66,88,-1,88,66,422,-1,88,422,523,-1,523,422,421,-1,523,421,381,-1,381,421,427,-1,381,427,379,-1,2,1,358,-1,358,1,524,-1,358,524,525,-1,526,527,525,-1,525,527,528,-1,100,86,2,-1,2,86,88,-1,2,88,0,-1,0,88,523,-1,0,523,529,-1,529,523,530,-1,531,532,533,-1,533,532,530,-1,406,359,381,-1,381,359,358,-1,381,358,523,-1,523,358,525,-1,523,525,530,-1,530,525,528,-1,530,528,533,-1,534,535,536,-1,537,538,20,-1,20,538,534,-1,20,534,361,-1,361,534,536,-1,361,536,358,-1,358,536,539,-1,358,539,2,-1,2,539,537,-1,2,537,20,-1,18,20,32,-1,32,20,361,-1,32,361,540,-1,540,361,11,-1,540,11,541,-1,541,11,10,-1,541,10,515,-1,515,10,542,-1,515,542,351,-1,6,8,522,-1,522,8,543,-1,522,543,521,-1,521,543,544,-1,521,544,520,-1,520,544,545,-1,520,545,519,-1,519,545,546,-1,519,546,518,-1,518,546,547,-1,518,547,517,-1,517,547,548,-1,517,548,516,-1,516,548,549,-1,516,549,515,-1,515,549,550,-1,515,550,541,-1,541,550,551,-1,541,551,540,-1,540,551,552,-1,540,552,32,-1,32,552,553,-1,32,553,30,-1,554,555,556,-1,556,555,557,-1,556,557,558,-1,558,557,559,-1,560,561,562,-1,550,549,563,-1,562,553,560,-1,560,553,552,-1,560,552,563,-1,563,552,551,-1,563,551,550,-1,549,548,563,-1,563,548,547,-1,563,547,546,-1,546,545,563,-1,563,545,544,-1,563,544,543,-1,564,565,7,-1,7,565,563,-1,7,563,8,-1,8,563,543,-1,460,457,566,-1,567,568,569,-1,569,568,570,-1,569,570,571,-1,571,572,569,-1,569,572,573,-1,569,573,456,-1,456,573,574,-1,456,574,575,-1,567,569,576,-1,576,569,557,-1,576,557,555,-1,575,577,456,-1,456,577,578,-1,456,578,457,-1,457,578,579,-1,457,579,566,-1,7,6,564,-1,564,6,458,-1,564,458,566,-1,566,458,459,-1,566,459,460,-1,580,581,582,-1,582,581,583,-1,582,584,585,-1,586,587,588,-1,589,590,583,-1,583,590,591,-1,583,591,582,-1,582,591,592,-1,582,592,584,-1,585,593,582,-1,582,593,594,-1,582,594,588,-1,588,594,595,-1,588,595,586,-1,587,596,588,-1,588,596,597,-1,588,597,598,-1,598,597,599,-1,598,599,600,-1,554,556,600,-1,600,556,598,-1,589,583,565,-1,565,583,563,-1,560,601,561,-1,561,601,602,-1,603,604,605,-1,605,604,606,-1,605,606,607,-1,603,608,604,-1,604,608,609,-1,604,609,610,-1,610,609,65,-1,610,65,607,-1,607,65,63,-1,607,63,605,-1,611,612,613,-1,614,64,613,-1,613,64,62,-1,613,62,611,-1,615,616,617,-1,618,619,620,-1,620,619,621,-1,620,621,617,-1,617,621,622,-1,617,622,615,-1,623,624,625,-1,626,627,628,-1,625,626,623,-1,623,626,628,-1,623,628,629,-1,629,628,630,-1,629,630,631,-1,631,630,559,-1,631,559,632,-1,632,559,557,-1,632,557,633,-1,633,557,569,-1,612,611,634,-1,634,611,635,-1,634,635,636,-1,636,635,637,-1,636,637,608,-1,608,637,628,-1,608,628,609,-1,609,628,627,-1,609,627,638,-1,638,627,639,-1,63,64,605,-1,605,64,614,-1,13,12,640,-1,640,12,641,-1,619,642,643,-1,644,645,646,-1,647,648,649,-1,643,650,619,-1,619,650,630,-1,619,630,628,-1,615,644,616,-1,616,644,646,-1,616,646,618,-1,618,646,651,-1,647,649,652,-1,645,644,653,-1,653,644,642,-1,653,642,651,-1,651,642,619,-1,651,619,618,-1,582,588,654,-1,643,652,650,-1,650,652,649,-1,650,649,655,-1,655,649,656,-1,655,656,654,-1,654,656,657,-1,654,657,582,-1,582,657,648,-1,582,648,644,-1,644,648,647,-1,644,647,642,-1,623,629,658,-1,659,623,660,-1,660,623,658,-1,660,658,661,-1,661,658,641,-1,661,641,662,-1,662,641,12,-1,662,12,659,-1,659,12,309,-1,659,309,312,-1,312,510,659,-1,659,510,317,-1,659,317,623,-1,627,663,664,-1,663,627,665,-1,665,627,626,-1,665,626,666,-1,666,626,319,-1,666,319,318,-1,318,423,666,-1,666,423,424,-1,666,424,664,-1,664,424,70,-1,664,70,627,-1,69,68,639,-1,639,68,638,-1,625,624,513,-1,513,624,316,-1,667,668,61,-1,30,553,562,-1,669,611,670,-1,670,611,671,-1,672,673,62,-1,62,673,674,-1,62,674,611,-1,611,674,675,-1,611,675,671,-1,669,676,611,-1,611,676,677,-1,611,677,635,-1,635,677,678,-1,635,678,679,-1,61,668,62,-1,62,668,680,-1,62,680,672,-1,61,48,667,-1,667,48,52,-1,667,52,562,-1,562,52,35,-1,562,35,30,-1,681,637,682,-1,682,637,635,-1,682,635,683,-1,683,635,679,-1,684,633,569,-1,13,640,14,-1,14,640,684,-1,14,684,456,-1,456,684,569,-1,654,588,685,-1,685,588,598,-1,685,598,686,-1,686,598,687,-1,686,687,655,-1,655,687,650,-1,583,581,601,-1,601,581,688,-1,689,602,601,-1,688,690,601,-1,601,690,644,-1,644,691,692,-1,693,694,615,-1,615,694,695,-1,695,696,615,-1,615,696,697,-1,615,697,644,-1,644,697,698,-1,644,698,691,-1,692,699,644,-1,644,699,700,-1,644,700,601,-1,601,700,701,-1,601,701,689,-1,693,615,702,-1,702,615,622,-1,702,622,703,-1,621,619,681,-1,681,619,628,-1,681,628,637,-1,559,630,558,-1,558,630,650,-1,558,650,687,-1,623,317,624,-1,624,317,316,-1,65,609,68,-1,68,609,638,-1,627,70,639,-1,639,70,69,-1,319,626,513,-1,513,626,625,-1,690,688,580,-1,580,688,581,-1,644,690,582,-1,582,690,580,-1,
        ]
    }
}
Shape{
    appearance Appearance {
        material  Material 	{
            diffuseColor 0.7529411764705882 0.7529411764705882 0.7529411764705882
            specularColor 0.3764705882352941 0.3764705882352941 0.3764705882352941
            ambientIntensity 0.7529
            transparency 0.0
            shininess 0.5
        }
    }
    geometry IndexedFaceSet {
        ccw TRUE
        solid FALSE
        coord DEF co Coordinate {
            point [
                0.7606 -0.0228 -1.378, 0.7606 0.0307 -1.378, 0.8142 -0.0228 -1.378, 0.8142 0.0307 -1.378, 0.8858 0.1024 -1.1811, 0.8858 0.1024 0.0787, 0.8858 -0.0945 -1.1811, 0.8858 -0.0945 0.0787, 0.689 -0.0945 -1.1811, 0.689 -0.0945 0.0787, 0.689 0.1024 -1.1811, 0.689 0.1024 0.0787, 0.689 -0.0945 1.5748, 0.689 -0.0945 0.689, 0.8858 -0.0945 1.5748, 0.8858 -0.0945 0.689, 0.8858 0.1024 1.5748, 0.8858 0.1024 0.689, 0.689 0.1024 1.5748, 0.689 0.1024 0.689, 0.7606 0.0307 1.7717, 0.7606 -0.0228 1.7717, 0.8142 0.0307 1.7717, 0.8142 -0.0228 1.7717, -0.0268 -0.0228 -1.378, -0.0268 0.0307 -1.378, 0.0268 -0.0228 -1.378, 0.0268 0.0307 -1.378, 0.0984 0.1024 -1.1811, 0.0984 0.1024 0.0787, 0.0984 -0.0945 -1.1811, 0.0984 -0.0945 0.0787, -0.0984 -0.0945 -1.1811, -0.0984 -0.0945 0.0787, -0.0984 0.1024 -1.1811, -0.0984 0.1024 0.0787, -0.0984 -0.0945 1.5748, -0.0984 -0.0945 0.689, 0.0984 -0.0945 1.5748, 0.0984 -0.0945 0.689, 0.0984 0.1024 1.5748, 0.0984 0.1024 0.689, -0.0984 0.1024 1.5748, -0.0984 0.1024 0.689, -0.0268 0.0307 1.7717, -0.0268 -0.0228 1.7717, 0.0268 0.0307 1.7717, 0.0268 -0.0228 1.7717, -0.8142 -0.0228 -1.378, -0.8142 0.0307 -1.378, -0.7606 -0.0228 -1.378, -0.7606 0.0307 -1.378, -0.689 0.1024 -1.1811, -0.689 0.1024 0.0787, -0.689 -0.0945 -1.1811, -0.689 -0.0945 0.0787, -0.8858 -0.0945 -1.1811, -0.8858 -0.0945 0.0787, -0.8858 0.1024 -1.1811, -0.8858 0.1024 0.0787, -0.8858 -0.0945 1.5748, -0.8858 -0.0945 0.689, -0.689 -0.0945 1.5748, -0.689 -0.0945 0.689, -0.689 0.1024 1.5748, -0.689 0.1024 0.689, -0.8858 0.1024 1.5748, -0.8858 0.1024 0.689, -0.8142 0.0307 1.7717, -0.8142 -0.0228 1.7717, -0.7606 0.0307 1.7717, -0.7606 -0.0228 1.7717
            ]
        }
        coordIndex [
            0,1,2,-1,2,1,3,-1,4,5,6,-1,6,5,7,-1,8,9,10,-1,10,9,11,-1,10,11,4,-1,4,11,5,-1,6,7,8,-1,8,7,9,-1,12,13,14,-1,14,13,15,-1,16,17,18,-1,18,17,19,-1,14,15,16,-1,16,15,17,-1,18,19,12,-1,12,19,13,-1,20,21,22,-1,22,21,23,-1,4,3,10,-1,10,3,1,-1,6,2,4,-1,4,2,3,-1,0,8,1,-1,1,8,10,-1,8,0,6,-1,6,0,2,-1,14,23,12,-1,12,23,21,-1,16,22,14,-1,14,22,23,-1,20,18,21,-1,21,18,12,-1,18,20,16,-1,16,20,22,-1,24,25,26,-1,26,25,27,-1,28,29,30,-1,30,29,31,-1,32,33,34,-1,34,33,35,-1,34,35,28,-1,28,35,29,-1,30,31,32,-1,32,31,33,-1,36,37,38,-1,38,37,39,-1,40,41,42,-1,42,41,43,-1,38,39,40,-1,40,39,41,-1,42,43,36,-1,36,43,37,-1,44,45,46,-1,46,45,47,-1,48,49,50,-1,50,49,51,-1,52,53,54,-1,54,53,55,-1,56,57,58,-1,58,57,59,-1,58,59,52,-1,52,59,53,-1,54,55,56,-1,56,55,57,-1,60,61,62,-1,62,61,63,-1,64,65,66,-1,66,65,67,-1,62,63,64,-1,64,63,65,-1,66,67,60,-1,60,67,61,-1,68,69,70,-1,70,69,71,-1,28,27,34,-1,34,27,25,-1,30,26,28,-1,28,26,27,-1,24,32,25,-1,25,32,34,-1,32,24,30,-1,30,24,26,-1,38,47,36,-1,36,47,45,-1,40,46,38,-1,38,46,47,-1,44,42,45,-1,45,42,36,-1,42,44,40,-1,40,44,46,-1,52,51,58,-1,58,51,49,-1,54,50,52,-1,52,50,51,-1,48,56,49,-1,49,56,58,-1,56,48,54,-1,54,48,50,-1,62,71,60,-1,60,71,69,-1,64,70,62,-1,62,70,71,-1,68,66,69,-1,69,66,60,-1,66,68,64,-1,64,68,70,-1,
        ]
    }
}
Shape{
    appearance Appearance {
        material  Material 	{
            diffuseColor 1.0 1.0 1.0
            specularColor 0.5019607843137255 0.5019607843137255 0.5019607843137255
            ambientIntensity 1.0
            transparency 0.0
            shininess 0.5
        }
    }
    geometry IndexedFaceSet {
        ccw TRUE
        solid FALSE
        coord DEF co Coordinate {
            point [
                -1.2992 -0.4488 1.8898, -1.2992 -0.685 1.8898, -1.2992 -0.4488 0.689, -1.2992 -0.685 0.0, -1.2992 -0.4488 0.0, -0.8268 -0.685 1.8898, -0.8268 -0.4488 1.8898, -0.8268 -0.685 0.0787, -0.8268 -0.4488 0.689, -0.8268 -0.4488 0.0787, -1.063 -0.4488 0.0787, -1.063 -0.4488 0.0, 0.8268 -0.685 1.8898, 0.8268 -0.4488 1.8898, 1.2992 -0.685 1.8898, 1.2992 -0.4488 1.8898, 0.8268 -0.4488 0.689, 0.8268 -0.685 0.0787, 0.8268 -0.4488 0.0787, 1.2992 -0.685 0.0, 1.2992 -0.4488 0.689, 1.2992 -0.4488 0.0, 1.063 -0.4488 0.0, 1.063 -0.4488 0.0787, -1.3386 -0.4488 2.3729, -1.4173 -0.5276 2.4016, -0.5512 -0.4488 2.3729, -0.5512 -0.5276 2.4016, 1.3386 0.9685 2.3729, 1.4173 1.0472 2.4016, -1.3386 0.9685 2.3729, -1.4173 1.0472 2.4016, 1.3386 -0.4488 2.3729, 1.4173 -0.5276 2.4016, 1.3386 -0.1486 2.3729, 1.4173 -0.1486 2.4016, 0.5512 -0.5276 2.4016, 0.5512 -0.4488 2.3729, 1.3386 -0.1486 1.7846, 1.5748 -0.1486 1.7846, 1.3386 -0.1425 1.7386, 1.5748 -0.1425 1.7386, 1.3386 -0.1247 1.6956, 1.5748 -0.1247 1.6956, 1.3386 -0.0964 1.6587, 1.5748 -0.0964 1.6587, 1.3386 -0.0596 1.6304, 1.5748 -0.0596 1.6304, 1.3386 -0.0166 1.6127, 1.5748 -0.0166 1.6127, 1.3386 0.0295 1.6066, 1.5748 0.0295 1.6066, 1.3386 0.0756 1.6127, 1.5748 0.0756 1.6127, 1.3386 0.1185 1.6304, 1.5748 0.1185 1.6304, 1.3386 0.1554 1.6587, 1.5748 0.1554 1.6587, 1.3386 0.1837 1.6956, 1.5748 0.1837 1.6956, 1.3386 0.2015 1.7386, 1.5748 0.2015 1.7386, 1.3386 0.2075 1.7846, 1.5748 0.2075 1.7846, 1.3386 0.2075 2.3729, 1.4173 0.2075 2.4016, 1.5748 0.2075 2.4016, 1.5748 -0.1486 2.4016, -1.3386 0.2075 1.7846, -1.5748 0.2075 1.7846, -1.3386 0.2015 1.7386, -1.5748 0.2015 1.7386, -1.3386 0.1837 1.6956, -1.5748 0.1837 1.6956, -1.3386 0.1554 1.6587, -1.5748 0.1554 1.6587, -1.3386 0.1185 1.6304, -1.5748 0.1185 1.6304, -1.3386 0.0756 1.6127, -1.5748 0.0756 1.6127, -1.3386 0.0295 1.6066, -1.5748 0.0295 1.6066, -1.3386 -0.0166 1.6127, -1.5748 -0.0166 1.6127, -1.3386 -0.0596 1.6304, -1.5748 -0.0596 1.6304, -1.3386 -0.0964 1.6587, -1.5748 -0.0964 1.6587, -1.3386 -0.1247 1.6956, -1.5748 -0.1247 1.6956, -1.3386 -0.1425 1.7386, -1.5748 -0.1425 1.7386, -1.3386 -0.1486 1.7846, -1.5748 -0.1486 1.7846, -1.3386 -0.1486 2.3729, -1.4173 -0.1486 2.4016, -1.5748 -0.1486 2.4016, -1.5748 0.2075 2.4016, -1.4173 0.2075 2.4016, -1.3386 0.2075 2.3729
            ]
        }
        coordIndex [
            0,1,2,-1,2,1,3,-1,2,3,4,-1,5,1,6,-1,6,1,0,-1,5,6,7,-1,7,6,8,-1,7,8,9,-1,9,8,10,-1,10,8,2,-1,10,2,11,-1,11,2,4,-1,12,13,14,-1,14,13,15,-1,13,12,16,-1,16,12,17,-1,16,17,18,-1,14,15,19,-1,19,15,20,-1,19,20,21,-1,22,21,23,-1,23,21,20,-1,23,20,18,-1,18,20,16,-1,24,25,26,-1,26,25,27,-1,28,29,30,-1,30,29,31,-1,32,33,34,-1,34,33,35,-1,33,32,36,-1,36,32,37,-1,38,39,40,-1,40,39,41,-1,40,41,42,-1,42,41,43,-1,42,43,44,-1,44,43,45,-1,44,45,46,-1,46,45,47,-1,46,47,48,-1,48,47,49,-1,48,49,50,-1,50,49,51,-1,50,51,52,-1,52,51,53,-1,52,53,54,-1,54,53,55,-1,54,55,56,-1,56,55,57,-1,56,57,58,-1,58,57,59,-1,58,59,60,-1,60,59,61,-1,60,61,62,-1,62,61,63,-1,64,62,65,-1,65,62,63,-1,65,63,66,-1,67,39,35,-1,35,39,38,-1,35,38,34,-1,68,69,70,-1,70,69,71,-1,70,71,72,-1,72,71,73,-1,72,73,74,-1,74,73,75,-1,74,75,76,-1,76,75,77,-1,76,77,78,-1,78,77,79,-1,78,79,80,-1,80,79,81,-1,80,81,82,-1,82,81,83,-1,82,83,84,-1,84,83,85,-1,84,85,86,-1,86,85,87,-1,86,87,88,-1,88,87,89,-1,88,89,90,-1,90,89,91,-1,90,91,92,-1,92,91,93,-1,94,92,95,-1,95,92,93,-1,95,93,96,-1,97,69,98,-1,98,69,68,-1,98,68,99,-1,
        ]
    }
}
Shape{
    appearance Appearance {
        material  Material 	{
            diffuseColor 0.0 0.0 0.0
            specularColor 0.0 0.0 0.0
            ambientIntensity 0.0
            transparency 0.0
            shininess 0.5
        }
    }
    geometry IndexedFaceSet {
        ccw TRUE
        solid FALSE
        coord DEF co Coordinate {
            point [
                -0.2573 1.2087 2.0784, -0.2573 1.2087 2.0632, -0.2573 1.2047 2.0784, -0.2573 1.2047 2.0632, -0.2041 1.2087 2.0784, -0.2041 1.2047 2.0784, -0.2041 1.2087 2.1966, -0.2041 1.2047 2.1966, -0.1869 1.2087 2.1966, -0.1869 1.2047 2.1966, -0.1869 1.2087 2.0632, -0.1869 1.2047 2.0632, -0.3257 1.2087 2.0609, -0.3257 1.2047 2.0609, -0.3461 1.2047 2.0629, -0.357 1.2047 2.0664, -0.3604 1.2087 2.0676, -0.3461 1.2087 2.0629, -0.3604 1.2047 2.0676, -0.3627 1.2047 2.0687, -0.3627 1.2087 2.0687, -0.3627 1.2087 2.0852, -0.3627 1.2047 2.0852, -0.357 1.2047 2.0826, -0.3496 1.2087 2.0793, -0.3496 1.2047 2.0793, -0.3345 1.2047 2.0765, -0.3345 1.2087 2.0765, -0.3282 1.2047 2.0763, -0.3282 1.2087 2.0763, -0.3147 1.2047 2.0779, -0.3147 1.2087 2.0779, -0.3052 1.2047 2.0816, -0.3052 1.2087 2.0816, -0.2965 1.2047 2.0878, -0.2965 1.2087 2.0878, -0.2939 1.2047 2.0903, -0.2939 1.2087 2.0903, -0.2874 1.2047 2.0993, -0.2874 1.2087 2.0993, -0.2831 1.2047 2.1101, -0.2831 1.2087 2.1101, -0.281 1.2047 2.1235, -0.281 1.2087 2.1235, -0.2808 1.2047 2.1284, -0.2808 1.2087 2.1284, -0.2827 1.2047 2.1453, -0.2827 1.2087 2.1453, -0.2869 1.2047 2.1571, -0.2869 1.2087 2.1571, -0.2932 1.2047 2.1666, -0.2932 1.2087 2.1666, -0.2948 1.2047 2.1685, -0.2948 1.2087 2.1685, -0.304 1.2047 2.176, -0.304 1.2087 2.176, -0.3145 1.2047 2.1809, -0.3145 1.2087 2.1809, -0.3261 1.2047 2.1831, -0.3261 1.2087 2.1831, -0.3312 1.2047 2.1833, -0.3312 1.2087 2.1833, -0.3476 1.2047 2.1813, -0.357 1.2047 2.1778, -0.3612 1.2087 2.1762, -0.3476 1.2087 2.1813, -0.3612 1.2047 2.1762, -0.3627 1.2047 2.1754, -0.3627 1.2087 2.1754, -0.3627 1.2087 2.1934, -0.3627 1.2047 2.1934, -0.331 1.2047 2.1989, -0.331 1.2087 2.1989, -0.3314 1.2087 2.1989, -0.357 1.2047 2.1951, -0.3488 1.2087 2.1974, -0.3488 1.2047 2.1974, -0.3452 1.2047 2.1977, -0.3314 1.2047 2.1989, -0.3219 1.2047 2.1977, -0.3116 1.2087 2.1965, -0.3116 1.2047 2.1965, -0.2976 1.2047 2.191, -0.2976 1.2087 2.191, -0.2852 1.2047 2.1822, -0.2852 1.2087 2.1822, -0.282 1.2047 2.1792, -0.282 1.2087 2.1792, -0.2723 1.2047 2.1666, -0.2687 1.2047 2.1581, -0.266 1.2087 2.1517, -0.2723 1.2087 2.1666, -0.266 1.2047 2.1517, -0.263 1.2047 2.1343, -0.263 1.2087 2.1343, -0.2627 1.2047 2.1274, -0.2627 1.2087 2.1274, -0.2649 1.2047 2.1074, -0.2687 1.2047 2.0969, -0.2701 1.2087 2.0931, -0.2649 1.2087 2.1074, -0.2701 1.2047 2.0931, -0.2778 1.2047 2.0815, -0.2778 1.2087 2.0815, -0.2799 1.2047 2.0791, -0.2799 1.2087 2.0791, -0.2906 1.2047 2.0702, -0.2906 1.2087 2.0702, -0.3032 1.2047 2.0643, -0.3032 1.2087 2.0643, -0.3177 1.2047 2.0613, -0.3177 1.2087 2.0613, -0.4611 1.2087 2.0784, -0.4611 1.2087 2.0632, -0.4611 1.2047 2.0784, -0.4611 1.2047 2.0632, -0.4066 1.2047 2.0784, -0.4066 1.2087 2.0784, -0.4426 1.2047 2.0784, -0.4066 1.2087 2.1233, -0.4066 1.2047 2.1233, -0.4543 1.2087 2.1233, -0.4426 1.2047 2.1233, -0.4543 1.2047 2.1233, -0.4543 1.2087 2.1386, -0.4543 1.2047 2.1386, -0.4066 1.2047 2.1386, -0.4066 1.2087 2.1386, -0.4426 1.2047 2.1386, -0.4066 1.2087 2.1813, -0.4066 1.2047 2.1813, -0.4581 1.2047 2.1813, -0.4581 1.2087 2.1813, -0.4426 1.2047 2.1813, -0.4581 1.2087 2.1966, -0.4581 1.2047 2.1966, -0.3894 1.2047 2.1966, -0.3894 1.2087 2.1966, -0.4426 1.2047 2.1966, -0.3894 1.2087 2.0632, -0.3894 1.2047 2.0632, -0.4426 1.2047 2.0632, -0.5693 1.2087 2.1005, -0.5626 1.2087 2.0923, -0.5749 1.2087 2.0819, -0.5602 1.2087 2.0901, -0.5612 1.2087 2.072, -0.5513 1.2087 2.0843, -0.546 1.2087 2.066, -0.5399 1.2087 2.0802, -0.5231 1.2087 2.0632, -0.523 1.2087 2.0784, -0.4864 1.2087 2.0632, -0.5036 1.2087 2.0784, -0.4864 1.2087 2.1966, -0.5036 1.2087 2.1813, -0.5244 1.2087 2.1966, -0.5237 1.2087 2.1813, -0.5448 1.2087 2.1944, -0.5409 1.2087 2.1794, -0.5609 1.2087 2.1885, -0.5525 1.2087 2.1752, -0.5749 1.2087 2.1789, -0.5623 1.2087 2.1687, -0.5795 1.2087 2.1745, -0.5666 1.2087 2.1643, -0.5878 1.2087 2.1629, -0.5717 1.2087 2.1566, -0.5927 1.2087 2.1502, -0.5752 1.2087 2.1465, -0.595 1.2087 2.1316, -0.5769 1.2087 2.1311, -0.5946 1.2087 2.1232, -0.5765 1.2087 2.1227, -0.5914 1.2087 2.1075, -0.5739 1.2087 2.1104, -0.5848 1.2087 2.0937, -0.5231 1.2047 2.0632, -0.4864 1.2047 2.0632, -0.546 1.2047 2.066, -0.5612 1.2047 2.072, -0.5749 1.2047 2.0819, -0.5848 1.2047 2.0937, -0.5914 1.2047 2.1075, -0.5946 1.2047 2.1232, -0.595 1.2047 2.1316, -0.5927 1.2047 2.1502, -0.5878 1.2047 2.1629, -0.5795 1.2047 2.1745, -0.5749 1.2047 2.1789, -0.5609 1.2047 2.1885, -0.5448 1.2047 2.1944, -0.5244 1.2047 2.1966, -0.4864 1.2047 2.1966, -0.5237 1.2047 2.1813, -0.5036 1.2047 2.1813, -0.5036 1.2047 2.0784, -0.523 1.2047 2.0784, -0.5626 1.2047 2.0923, -0.5602 1.2047 2.0901, -0.5513 1.2047 2.0843, -0.5399 1.2047 2.0802, -0.5769 1.2047 2.1311, -0.5765 1.2047 2.1227, -0.5739 1.2047 2.1104, -0.5693 1.2047 2.1005, -0.5623 1.2047 2.1687, -0.5666 1.2047 2.1643, -0.5717 1.2047 2.1566, -0.5752 1.2047 2.1465, -0.5409 1.2047 2.1794, -0.5525 1.2047 2.1752
            ]
        }
        coordIndex [
            0,1,2,-1,2,1,3,-1,4,0,5,-1,5,0,2,-1,6,4,7,-1,7,4,5,-1,8,6,9,-1,9,6,7,-1,10,8,11,-1,11,8,9,-1,1,10,3,-1,3,10,11,-1,6,8,4,-1,4,8,10,-1,4,10,0,-1,0,10,1,-1,12,13,14,-1,15,16,14,-1,14,16,17,-1,14,17,12,-1,15,18,16,-1,16,18,19,-1,16,19,20,-1,21,20,22,-1,22,20,19,-1,21,22,23,-1,21,23,24,-1,23,25,24,-1,24,25,26,-1,24,26,27,-1,27,26,28,-1,27,28,29,-1,29,28,30,-1,29,30,31,-1,31,30,32,-1,31,32,33,-1,33,32,34,-1,33,34,35,-1,35,34,36,-1,35,36,37,-1,37,36,38,-1,37,38,39,-1,39,38,40,-1,39,40,41,-1,41,40,42,-1,41,42,43,-1,43,42,44,-1,43,44,45,-1,45,44,46,-1,45,46,47,-1,47,46,48,-1,47,48,49,-1,49,48,50,-1,49,50,51,-1,51,50,52,-1,51,52,53,-1,53,52,54,-1,53,54,55,-1,55,54,56,-1,55,56,57,-1,57,56,58,-1,57,58,59,-1,59,58,60,-1,59,60,61,-1,61,60,62,-1,63,64,62,-1,62,64,65,-1,62,65,61,-1,63,66,64,-1,64,66,67,-1,64,67,68,-1,69,68,70,-1,70,68,67,-1,71,72,73,-1,69,70,74,-1,69,74,75,-1,74,76,75,-1,75,76,77,-1,75,77,73,-1,73,77,78,-1,73,78,71,-1,72,71,79,-1,72,79,80,-1,79,81,80,-1,80,81,82,-1,80,82,83,-1,83,82,84,-1,83,84,85,-1,85,84,86,-1,85,86,87,-1,87,86,88,-1,89,90,88,-1,88,90,91,-1,88,91,87,-1,89,92,90,-1,90,92,93,-1,90,93,94,-1,94,93,95,-1,94,95,96,-1,96,95,97,-1,98,99,97,-1,97,99,100,-1,97,100,96,-1,98,101,99,-1,99,101,102,-1,99,102,103,-1,103,102,104,-1,103,104,105,-1,105,104,106,-1,105,106,107,-1,107,106,108,-1,107,108,109,-1,109,108,110,-1,109,110,111,-1,111,110,13,-1,111,13,12,-1,64,68,69,-1,47,49,91,-1,64,69,65,-1,65,69,75,-1,65,75,61,-1,61,75,73,-1,61,73,59,-1,59,73,72,-1,59,72,57,-1,57,72,80,-1,57,80,55,-1,20,21,16,-1,16,21,24,-1,16,24,17,-1,17,24,27,-1,17,27,12,-1,12,27,29,-1,12,29,111,-1,111,29,31,-1,111,31,109,-1,109,31,33,-1,109,33,107,-1,107,33,35,-1,107,35,105,-1,105,35,37,-1,105,37,103,-1,103,37,39,-1,103,39,99,-1,91,49,87,-1,80,83,55,-1,55,83,85,-1,55,85,53,-1,53,85,87,-1,53,87,51,-1,51,87,49,-1,96,45,94,-1,94,45,47,-1,94,47,90,-1,90,47,91,-1,99,39,100,-1,100,39,41,-1,100,41,96,-1,96,41,43,-1,96,43,45,-1,112,113,114,-1,114,113,115,-1,116,117,118,-1,118,117,112,-1,118,112,114,-1,119,117,120,-1,120,117,116,-1,119,120,121,-1,121,120,122,-1,121,122,123,-1,124,121,125,-1,125,121,123,-1,126,127,128,-1,128,127,124,-1,128,124,125,-1,129,127,130,-1,130,127,126,-1,131,132,133,-1,133,132,129,-1,133,129,130,-1,134,132,135,-1,135,132,131,-1,136,137,138,-1,138,137,134,-1,138,134,135,-1,139,137,140,-1,140,137,136,-1,115,113,141,-1,141,113,139,-1,141,139,140,-1,121,124,119,-1,119,124,127,-1,113,112,139,-1,139,112,117,-1,132,134,129,-1,129,134,137,-1,129,137,127,-1,127,137,139,-1,127,139,119,-1,119,139,117,-1,142,143,144,-1,144,143,145,-1,144,145,146,-1,146,145,147,-1,146,147,148,-1,148,147,149,-1,148,149,150,-1,150,149,151,-1,150,151,152,-1,152,151,153,-1,152,153,154,-1,154,153,155,-1,154,155,156,-1,156,155,157,-1,156,157,158,-1,158,157,159,-1,158,159,160,-1,160,159,161,-1,160,161,162,-1,162,161,163,-1,162,163,164,-1,164,163,165,-1,164,165,166,-1,166,165,167,-1,166,167,168,-1,168,167,169,-1,168,169,170,-1,170,169,171,-1,170,171,172,-1,172,171,173,-1,172,173,174,-1,174,173,175,-1,174,175,176,-1,176,175,142,-1,176,142,144,-1,150,152,177,-1,177,152,178,-1,150,177,179,-1,150,179,148,-1,148,179,180,-1,148,180,146,-1,146,180,181,-1,146,181,144,-1,144,181,182,-1,144,182,176,-1,176,182,183,-1,176,183,174,-1,174,183,184,-1,174,184,172,-1,172,184,185,-1,172,185,170,-1,170,185,186,-1,170,186,168,-1,168,186,187,-1,168,187,166,-1,166,187,188,-1,166,188,164,-1,164,188,189,-1,164,189,162,-1,162,189,190,-1,162,190,160,-1,160,190,191,-1,160,191,158,-1,158,191,192,-1,158,192,156,-1,154,156,193,-1,193,156,192,-1,152,154,178,-1,178,154,193,-1,157,155,194,-1,194,155,195,-1,155,153,195,-1,195,153,196,-1,153,151,196,-1,196,151,197,-1,143,198,199,-1,143,199,145,-1,145,199,200,-1,145,200,147,-1,147,200,201,-1,147,201,149,-1,149,201,197,-1,149,197,151,-1,171,202,203,-1,171,203,173,-1,173,203,204,-1,173,204,175,-1,175,204,205,-1,175,205,142,-1,142,205,198,-1,142,198,143,-1,163,206,207,-1,163,207,165,-1,165,207,208,-1,165,208,167,-1,167,208,209,-1,167,209,169,-1,169,209,202,-1,169,202,171,-1,157,194,210,-1,157,210,159,-1,159,210,211,-1,159,211,161,-1,161,211,206,-1,161,206,163,-1,
        ]
    }
}
Shape{
    appearance Appearance {
        material  Material 	{
            diffuseColor 1.0 1.0 1.0
            specularColor 0.5019607843137255 0.5019607843137255 0.5019607843137255
            ambientIntensity 1.0
            transparency 0.0
            shininess 0.5
        }
    }
    geometry IndexedFaceSet {
        ccw TRUE
        solid FALSE
        coord DEF co Coordinate {
            point [
                -0.5036 1.2047 2.1813, -0.5036 1.2047 2.0784, -0.5237 1.2047 2.1813, -0.523 1.2047 2.0784, -0.5399 1.2047 2.0802, -0.5513 1.2047 2.0843, -0.5602 1.2047 2.0901, -0.5626 1.2047 2.0923, -0.5693 1.2047 2.1005, -0.5739 1.2047 2.1104, -0.5765 1.2047 2.1227, -0.5769 1.2047 2.1311, -0.5752 1.2047 2.1465, -0.5717 1.2047 2.1566, -0.5666 1.2047 2.1643, -0.5623 1.2047 2.1687, -0.5409 1.2047 2.1794, -0.5525 1.2047 2.1752
            ]
        }
        coordIndex [
            0,1,2,-1,2,1,3,-1,2,3,4,-1,4,5,2,-1,2,5,6,-1,2,6,7,-1,7,8,2,-1,2,8,9,-1,2,9,10,-1,10,11,2,-1,2,11,12,-1,2,12,13,-1,13,14,2,-1,2,14,15,-1,2,15,16,-1,16,15,17,-1,
        ]
    }
}
Shape{
    appearance Appearance {
        material  Material 	{
            diffuseColor 0.0 0.0 0.0
            specularColor 0.0 0.0 0.0
            ambientIntensity 0.0
            transparency 0.0
            shininess 0.5
        }
    }
    geometry IndexedFaceSet {
        ccw TRUE
        solid FALSE
        coord DEF co Coordinate {
            point [
                -0.6397 1.2087 2.1147, -0.6597 1.2087 2.1702, -0.6532 1.2087 2.1966, -0.6024 1.2087 2.0632, -0.6214 1.2087 2.0632, -0.6343 1.2087 2.0997, -0.6608 1.2087 2.1742, -0.6619 1.2087 2.1796, -0.6717 1.2087 2.1966, -0.6623 1.2087 2.1796, -0.6634 1.2087 2.1739, -0.6644 1.2087 2.1702, -0.6845 1.2087 2.1147, -0.7225 1.2087 2.0632, -0.7035 1.2087 2.0632, -0.6898 1.2087 2.0997, -0.6717 1.2047 2.1966, -0.7225 1.2047 2.0632, -0.6532 1.2047 2.1966, -0.6024 1.2047 2.0632, -0.6409 1.2047 2.1641, -0.6214 1.2047 2.0632, -0.6343 1.2047 2.0997, -0.6898 1.2047 2.0997, -0.6409 1.2047 2.0997, -0.7035 1.2047 2.0632, -0.6397 1.2047 2.1147, -0.6845 1.2047 2.1147, -0.6644 1.2047 2.1702, -0.6623 1.2047 2.1796, -0.6634 1.2047 2.1739, -0.6619 1.2047 2.1796, -0.6597 1.2047 2.1702, -0.6608 1.2047 2.1742
            ]
        }
        coordIndex [
            0,1,2,-1,3,4,5,-1,1,6,2,-1,2,6,7,-1,2,7,8,-1,8,7,9,-1,8,9,10,-1,10,11,8,-1,8,11,12,-1,8,12,13,-1,14,13,15,-1,15,13,12,-1,15,12,5,-1,5,12,0,-1,5,0,3,-1,3,0,2,-1,8,13,16,-1,16,13,17,-1,2,8,18,-1,18,8,16,-1,19,3,20,-1,20,3,2,-1,20,2,18,-1,4,3,21,-1,21,3,19,-1,5,4,22,-1,22,4,21,-1,23,15,24,-1,24,15,5,-1,24,5,22,-1,14,15,25,-1,25,15,23,-1,13,14,17,-1,17,14,25,-1,0,12,26,-1,26,12,27,-1,12,11,27,-1,27,11,28,-1,9,29,30,-1,9,30,10,-1,10,30,28,-1,10,28,11,-1,9,7,29,-1,29,7,31,-1,1,32,33,-1,1,33,6,-1,6,33,31,-1,6,31,7,-1,1,0,32,-1,32,0,26,-1,
        ]
    }
}
Shape{
    appearance Appearance {
        material  Material 	{
            diffuseColor 1.0 1.0 1.0
            specularColor 0.5019607843137255 0.5019607843137255 0.5019607843137255
            ambientIntensity 1.0
            transparency 0.0
            shininess 0.5
        }
    }
    geometry IndexedFaceSet {
        ccw TRUE
        solid FALSE
        coord DEF co Coordinate {
            point [
                -0.6623 1.2047 2.1796, -0.6619 1.2047 2.1796, -0.6634 1.2047 2.1739, -0.6608 1.2047 2.1742, -0.6644 1.2047 2.1702, -0.6597 1.2047 2.1702, -0.6845 1.2047 2.1147, -0.6397 1.2047 2.1147
            ]
        }
        coordIndex [
            0,1,2,-1,2,1,3,-1,2,3,4,-1,4,3,5,-1,4,5,6,-1,6,5,7,-1,
        ]
    }
}
Shape{
    appearance Appearance {
        material  Material 	{
            diffuseColor 0.0 0.0 0.0
            specularColor 0.0 0.0 0.0
            ambientIntensity 0.0
            transparency 0.0
            shininess 0.5
        }
    }
    geometry IndexedFaceSet {
        ccw TRUE
        solid FALSE
        coord DEF co Coordinate {
            point [
                -0.2587 1.2087 1.8667, -0.2587 1.2087 1.8515, -0.2587 1.2047 1.8667, -0.2587 1.2047 1.8515, -0.2041 1.2087 1.8667, -0.2041 1.2047 1.8667, -0.2041 1.2087 1.9116, -0.2041 1.2047 1.9116, -0.2519 1.2087 1.9116, -0.2519 1.2047 1.9116, -0.2519 1.2087 1.9269, -0.2519 1.2047 1.9269, -0.2041 1.2087 1.9269, -0.2041 1.2047 1.9269, -0.2041 1.2087 1.9696, -0.2041 1.2047 1.9696, -0.2557 1.2087 1.9696, -0.2557 1.2047 1.9696, -0.2557 1.2087 1.9849, -0.2557 1.2047 1.9849, -0.1869 1.2087 1.9849, -0.1869 1.2047 1.9849, -0.1869 1.2087 1.8515, -0.1869 1.2047 1.8515, -0.3122 1.2087 1.8963, -0.3346 1.2087 1.8993, -0.3513 1.2087 1.9128, -0.3346 1.2087 1.8515, -0.3513 1.2087 1.8515, -0.3346 1.2087 1.8662, -0.3346 1.2087 1.912, -0.2983 1.2087 1.8921, -0.3023 1.2087 1.894, -0.3341 1.2087 1.8662, -0.3255 1.2087 1.8688, -0.3303 1.2087 1.8606, -0.3208 1.2087 1.8656, -0.3346 1.2087 1.8901, -0.3335 1.2087 1.8818, -0.3311 1.2087 1.8758, -0.3274 1.2087 1.8707, -0.2932 1.2087 1.8715, -0.2805 1.2087 1.8592, -0.2951 1.2087 1.8687, -0.2829 1.2087 1.8567, -0.2965 1.2087 1.8672, -0.2881 1.2087 1.853, -0.2998 1.2087 1.8649, -0.2944 1.2087 1.8505, -0.3036 1.2087 1.8636, -0.3022 1.2087 1.8493, -0.3092 1.2087 1.8629, -0.334 1.2087 1.9193, -0.3499 1.2087 1.9257, -0.3323 1.2087 1.9253, -0.3473 1.2087 1.9332, -0.3303 1.2087 1.9288, -0.3439 1.2087 1.9386, -0.3278 1.2087 1.9315, -0.3394 1.2087 1.9428, -0.3249 1.2087 1.9334, -0.3338 1.2087 1.946, -0.321 1.2087 1.9348, -0.3267 1.2087 1.9481, -0.3152 1.2087 1.9354, -0.3168 1.2087 1.949, -0.3061 1.2087 1.9345, -0.2997 1.2087 1.9469, -0.2956 1.2087 1.9311, -0.2873 1.2087 1.942, -0.284 1.2087 1.9238, -0.284 1.2087 1.9401, -0.3049 1.2087 1.8492, -0.3142 1.2087 1.8503, -0.3158 1.2087 1.8637, -0.3208 1.2087 1.8529, -0.3248 1.2087 1.8554, -0.2918 1.2087 1.881, -0.2747 1.2087 1.879, -0.2916 1.2087 1.8783, -0.2747 1.2087 1.877, -0.2921 1.2087 1.8745, -0.2755 1.2087 1.8696, -0.2775 1.2087 1.8639, -0.3063 1.2087 1.9081, -0.2936 1.2087 1.905, -0.2961 1.2087 1.8904, -0.2865 1.2087 1.9013, -0.2941 1.2087 1.8879, -0.2814 1.2087 1.8969, -0.2926 1.2087 1.8848, -0.2781 1.2087 1.8921, -0.2758 1.2087 1.8862, -0.3168 1.2047 1.949, -0.2997 1.2047 1.9469, -0.2873 1.2047 1.942, -0.284 1.2047 1.9401, -0.284 1.2047 1.9238, -0.2956 1.2047 1.9311, -0.3061 1.2047 1.9345, -0.3152 1.2047 1.9354, -0.321 1.2047 1.9348, -0.3249 1.2047 1.9334, -0.3278 1.2047 1.9315, -0.3303 1.2047 1.9288, -0.3323 1.2047 1.9253, -0.334 1.2047 1.9193, -0.3346 1.2047 1.912, -0.3063 1.2047 1.9081, -0.2936 1.2047 1.905, -0.2865 1.2047 1.9013, -0.2814 1.2047 1.8969, -0.2781 1.2047 1.8921, -0.2758 1.2047 1.8862, -0.2747 1.2047 1.879, -0.2747 1.2047 1.877, -0.2755 1.2047 1.8696, -0.2775 1.2047 1.8639, -0.2805 1.2047 1.8592, -0.2829 1.2047 1.8567, -0.3049 1.2047 1.8492, -0.2881 1.2047 1.853, -0.2944 1.2047 1.8505, -0.2955 1.2047 1.8503, -0.3022 1.2047 1.8493, -0.3142 1.2047 1.8503, -0.3142 1.2047 1.8503, -0.3208 1.2047 1.8529, -0.3248 1.2047 1.8554, -0.3303 1.2047 1.8606, -0.3341 1.2047 1.8662, -0.3346 1.2047 1.8662, -0.3346 1.2047 1.8515, -0.3513 1.2047 1.8515, -0.3513 1.2047 1.9128, -0.3499 1.2047 1.9257, -0.3473 1.2047 1.9332, -0.3439 1.2047 1.9386, -0.3394 1.2047 1.9428, -0.3338 1.2047 1.946, -0.3267 1.2047 1.9481, -0.2961 1.2047 1.8904, -0.2983 1.2047 1.8921, -0.3023 1.2047 1.894, -0.3122 1.2047 1.8963, -0.2916 1.2047 1.8783, -0.2918 1.2047 1.881, -0.2926 1.2047 1.8848, -0.2941 1.2047 1.8879, -0.2965 1.2047 1.8672, -0.2951 1.2047 1.8687, -0.2932 1.2047 1.8715, -0.2921 1.2047 1.8745, -0.3092 1.2047 1.8629, -0.3036 1.2047 1.8636, -0.2998 1.2047 1.8649, -0.3274 1.2047 1.8707, -0.3255 1.2047 1.8688, -0.3208 1.2047 1.8656, -0.3158 1.2047 1.8637, -0.3346 1.2047 1.8901, -0.3335 1.2047 1.8818, -0.3311 1.2047 1.8758, -0.3346 1.2047 1.8993
            ]
        }
        coordIndex [
            0,1,2,-1,2,1,3,-1,4,0,5,-1,5,0,2,-1,6,4,7,-1,7,4,5,-1,8,6,9,-1,9,6,7,-1,10,8,11,-1,11,8,9,-1,12,10,13,-1,13,10,11,-1,14,12,15,-1,15,12,13,-1,16,14,17,-1,17,14,15,-1,18,16,19,-1,19,16,17,-1,20,18,21,-1,21,18,19,-1,22,20,23,-1,23,20,21,-1,1,22,3,-1,3,22,23,-1,8,10,6,-1,6,10,12,-1,1,0,22,-1,22,0,4,-1,16,18,14,-1,14,18,20,-1,14,20,12,-1,12,20,22,-1,12,22,6,-1,6,22,4,-1,24,25,26,-1,27,28,29,-1,29,28,26,-1,30,31,32,-1,33,34,35,-1,35,34,36,-1,25,37,26,-1,26,37,38,-1,26,38,29,-1,29,38,39,-1,29,39,33,-1,33,39,40,-1,33,40,34,-1,41,42,43,-1,43,42,44,-1,43,44,45,-1,45,44,46,-1,45,46,47,-1,47,46,48,-1,47,48,49,-1,49,48,50,-1,49,50,51,-1,32,24,30,-1,30,24,26,-1,30,26,52,-1,52,26,53,-1,52,53,54,-1,54,53,55,-1,54,55,56,-1,56,55,57,-1,56,57,58,-1,58,57,59,-1,58,59,60,-1,60,59,61,-1,60,61,62,-1,62,61,63,-1,62,63,64,-1,64,63,65,-1,64,65,66,-1,66,65,67,-1,66,67,68,-1,68,67,69,-1,68,69,70,-1,70,69,71,-1,50,72,51,-1,51,72,73,-1,51,73,74,-1,74,73,75,-1,74,75,36,-1,36,75,76,-1,36,76,35,-1,77,78,79,-1,79,78,80,-1,79,80,81,-1,81,80,82,-1,81,82,41,-1,41,82,83,-1,41,83,42,-1,30,84,31,-1,31,84,85,-1,31,85,86,-1,86,85,87,-1,86,87,88,-1,88,87,89,-1,88,89,90,-1,90,89,91,-1,90,91,77,-1,77,91,92,-1,77,92,78,-1,65,93,94,-1,65,94,67,-1,67,94,95,-1,67,95,69,-1,69,95,96,-1,69,96,71,-1,70,71,97,-1,97,71,96,-1,70,97,98,-1,70,98,68,-1,68,98,99,-1,68,99,66,-1,66,99,100,-1,66,100,64,-1,64,100,101,-1,64,101,62,-1,62,101,102,-1,62,102,60,-1,60,102,103,-1,60,103,58,-1,58,103,104,-1,58,104,56,-1,56,104,105,-1,56,105,54,-1,54,105,106,-1,54,106,52,-1,52,106,107,-1,52,107,30,-1,84,30,108,-1,108,30,107,-1,84,108,109,-1,84,109,85,-1,85,109,110,-1,85,110,87,-1,87,110,111,-1,87,111,89,-1,89,111,112,-1,89,112,91,-1,91,112,113,-1,91,113,92,-1,92,113,114,-1,92,114,78,-1,78,114,115,-1,78,115,80,-1,80,115,116,-1,80,116,82,-1,82,116,117,-1,82,117,83,-1,83,117,118,-1,83,118,42,-1,42,118,119,-1,42,119,44,-1,120,72,50,-1,44,119,121,-1,44,121,46,-1,46,121,122,-1,46,122,48,-1,48,122,123,-1,48,123,50,-1,50,123,124,-1,50,124,120,-1,72,120,125,-1,72,125,73,-1,73,125,126,-1,73,126,75,-1,126,127,75,-1,75,127,128,-1,75,128,76,-1,76,128,129,-1,76,129,35,-1,35,129,130,-1,35,130,33,-1,29,33,131,-1,131,33,130,-1,27,29,132,-1,132,29,131,-1,28,27,133,-1,133,27,132,-1,26,28,134,-1,134,28,133,-1,26,134,135,-1,26,135,53,-1,53,135,136,-1,53,136,55,-1,55,136,137,-1,55,137,57,-1,57,137,138,-1,57,138,59,-1,59,138,139,-1,59,139,61,-1,61,139,140,-1,61,140,63,-1,63,140,93,-1,63,93,65,-1,86,141,142,-1,86,142,31,-1,31,142,143,-1,31,143,32,-1,32,143,144,-1,32,144,24,-1,79,145,146,-1,79,146,77,-1,77,146,147,-1,77,147,90,-1,90,147,148,-1,90,148,88,-1,88,148,141,-1,88,141,86,-1,45,149,150,-1,45,150,43,-1,43,150,151,-1,43,151,41,-1,41,151,152,-1,41,152,81,-1,81,152,145,-1,81,145,79,-1,51,153,154,-1,51,154,49,-1,49,154,155,-1,49,155,47,-1,47,155,149,-1,47,149,45,-1,40,156,157,-1,40,157,34,-1,34,157,158,-1,34,158,36,-1,36,158,159,-1,36,159,74,-1,74,159,153,-1,74,153,51,-1,37,160,161,-1,37,161,38,-1,38,161,162,-1,38,162,39,-1,39,162,156,-1,39,156,40,-1,37,25,160,-1,160,25,163,-1,25,24,163,-1,163,24,144,-1,
        ]
    }
}
Shape{
    appearance Appearance {
        material  Material 	{
            diffuseColor 1.0 1.0 1.0
            specularColor 0.5019607843137255 0.5019607843137255 0.5019607843137255
            ambientIntensity 1.0
            transparency 0.0
            shininess 0.5
        }
    }
    geometry IndexedFaceSet {
        ccw TRUE
        solid FALSE
        coord DEF co Coordinate {
            point [
                -0.3255 1.2047 1.8688, -0.3274 1.2047 1.8707, -0.3122 1.2047 1.8963, -0.3311 1.2047 1.8758, -0.3158 1.2047 1.8637, -0.3023 1.2047 1.894, -0.2983 1.2047 1.8921, -0.3208 1.2047 1.8656, -0.3335 1.2047 1.8818, -0.3346 1.2047 1.8901, -0.3346 1.2047 1.8993, -0.2926 1.2047 1.8848, -0.2918 1.2047 1.881, -0.2916 1.2047 1.8783, -0.2921 1.2047 1.8745, -0.2998 1.2047 1.8649, -0.3036 1.2047 1.8636, -0.2965 1.2047 1.8672, -0.3092 1.2047 1.8629, -0.2961 1.2047 1.8904, -0.2941 1.2047 1.8879, -0.2932 1.2047 1.8715, -0.2951 1.2047 1.8687
            ]
        }
        coordIndex [
            0,1,2,-1,2,1,3,-1,4,5,6,-1,5,4,2,-1,2,4,7,-1,2,7,0,-1,3,8,2,-1,2,8,9,-1,2,9,10,-1,11,12,4,-1,4,12,13,-1,4,13,14,-1,15,16,17,-1,17,16,18,-1,17,18,4,-1,6,19,4,-1,4,19,20,-1,4,20,11,-1,14,21,4,-1,4,21,22,-1,4,22,17,-1,
        ]
    }
}
Shape{
    appearance Appearance {
        material  Material 	{
            diffuseColor 0.0 0.0 0.0
            specularColor 0.0 0.0 0.0
            ambientIntensity 0.0
            transparency 0.0
            shininess 0.5
        }
    }
    geometry IndexedFaceSet {
        ccw TRUE
        solid FALSE
        coord DEF co Coordinate {
            point [
                -0.3739 1.2047 1.8721, -0.3739 1.2087 1.8721, -0.3799 1.2087 1.8683, -0.4014 1.2087 1.8629, -0.4014 1.2047 1.8629, -0.3904 1.2047 1.8642, -0.3904 1.2087 1.8642, -0.3816 1.2047 1.8676, -0.3799 1.2047 1.8683, -0.3739 1.2087 1.8548, -0.3739 1.2047 1.8548, -0.3856 1.2087 1.8507, -0.3816 1.2047 1.8521, -0.3998 1.2047 1.8492, -0.3998 1.2087 1.8492, -0.389 1.2047 1.8503, -0.3856 1.2047 1.8507, -0.4137 1.2087 1.8507, -0.4103 1.2047 1.8503, -0.4137 1.2047 1.8507, -0.4228 1.2047 1.8539, -0.4228 1.2087 1.8539, -0.4275 1.2047 1.8568, -0.4275 1.2087 1.8568, -0.4325 1.2047 1.8612, -0.4325 1.2087 1.8612, -0.4356 1.2047 1.8656, -0.4356 1.2087 1.8656, -0.4376 1.2047 1.8709, -0.4376 1.2087 1.8709, -0.4383 1.2047 1.8774, -0.4383 1.2087 1.8774, -0.4375 1.2047 1.8839, -0.4375 1.2087 1.8839, -0.4357 1.2047 1.8888, -0.4357 1.2087 1.8888, -0.4327 1.2047 1.8931, -0.4327 1.2087 1.8931, -0.4287 1.2047 1.8967, -0.4287 1.2087 1.8967, -0.4176 1.2047 1.9029, -0.4176 1.2087 1.9029, -0.4111 1.2047 1.9055, -0.4111 1.2087 1.9055, -0.4008 1.2047 1.91, -0.4008 1.2087 1.91, -0.3949 1.2047 1.9137, -0.3949 1.2087 1.9137, -0.3933 1.2047 1.9155, -0.3933 1.2087 1.9155, -0.3921 1.2047 1.9177, -0.3921 1.2087 1.9177, -0.3914 1.2047 1.9203, -0.3914 1.2087 1.9203, -0.3913 1.2047 1.9226, -0.3913 1.2087 1.9226, -0.3916 1.2047 1.9252, -0.3916 1.2087 1.9252, -0.3924 1.2047 1.9275, -0.3924 1.2087 1.9275, -0.3938 1.2047 1.9296, -0.3938 1.2087 1.9296, -0.3963 1.2047 1.9318, -0.3963 1.2087 1.9318, -0.4001 1.2047 1.9338, -0.4001 1.2087 1.9338, -0.4046 1.2047 1.935, -0.4046 1.2087 1.935, -0.4095 1.2047 1.9354, -0.4095 1.2087 1.9354, -0.4212 1.2047 1.934, -0.4212 1.2087 1.934, -0.4307 1.2047 1.9303, -0.4307 1.2087 1.9303, -0.4337 1.2047 1.9285, -0.4337 1.2087 1.9285, -0.4337 1.2087 1.9447, -0.4337 1.2047 1.9447, -0.4229 1.2047 1.9479, -0.4229 1.2087 1.9479, -0.4111 1.2047 1.949, -0.4111 1.2087 1.949, -0.3977 1.2047 1.9473, -0.3977 1.2087 1.9473, -0.3887 1.2047 1.9439, -0.3887 1.2087 1.9439, -0.3847 1.2047 1.9414, -0.3847 1.2087 1.9414, -0.3797 1.2087 1.9368, -0.3816 1.2047 1.9386, -0.3797 1.2047 1.9368, -0.3766 1.2047 1.9323, -0.3766 1.2087 1.9323, -0.3746 1.2047 1.9269, -0.3746 1.2087 1.9269, -0.374 1.2047 1.9211, -0.374 1.2087 1.9211, -0.3748 1.2047 1.9143, -0.3748 1.2087 1.9143, -0.3767 1.2047 1.9093, -0.3767 1.2087 1.9093, -0.3788 1.2047 1.906, -0.3788 1.2087 1.906, -0.3993 1.2047 1.8934, -0.3993 1.2087 1.8934, -0.3894 1.2087 1.8979, -0.3815 1.2047 1.9031, -0.3815 1.2087 1.9031, -0.3816 1.2047 1.903, -0.3894 1.2047 1.8979, -0.4103 1.2047 1.8888, -0.4103 1.2087 1.8888, -0.4168 1.2047 1.8848, -0.4168 1.2087 1.8848, -0.4189 1.2047 1.8827, -0.4189 1.2087 1.8827, -0.4202 1.2047 1.8804, -0.4202 1.2087 1.8804, -0.421 1.2047 1.8778, -0.421 1.2087 1.8778, -0.4211 1.2047 1.8758, -0.4211 1.2087 1.8758, -0.4208 1.2047 1.8726, -0.4208 1.2087 1.8726, -0.4199 1.2047 1.8702, -0.4199 1.2087 1.8702, -0.4185 1.2047 1.868, -0.4185 1.2087 1.868, -0.4166 1.2047 1.8663, -0.4166 1.2087 1.8663, -0.415 1.2047 1.8654, -0.415 1.2087 1.8654, -0.4107 1.2047 1.8638, -0.4107 1.2087 1.8638, -0.4022 1.2047 1.8629, -0.4022 1.2087 1.8629, -0.5212 1.2087 1.9468, -0.5385 1.2087 1.9468, -0.5212 1.2047 1.9468, -0.5385 1.2047 1.9468, -0.4951 1.2087 1.875, -0.4951 1.2047 1.875, -0.4938 1.2047 1.8706, -0.4938 1.2087 1.8706, -0.4931 1.2047 1.8673, -0.4931 1.2087 1.8673, -0.4926 1.2087 1.8673, -0.4926 1.2047 1.8673, -0.4906 1.2087 1.8751, -0.4906 1.2047 1.8751, -0.4657 1.2047 1.9468, -0.4657 1.2087 1.9468, -0.4738 1.2047 1.9236, -0.447 1.2087 1.9468, -0.447 1.2047 1.9468, -0.4844 1.2047 1.8517, -0.4844 1.2087 1.8517, -0.4738 1.2047 1.8787, -0.477 1.2047 1.8343, -0.477 1.2087 1.8343, -0.4838 1.2047 1.8503, -0.4738 1.2047 1.8284, -0.4735 1.2087 1.828, -0.4735 1.2047 1.828, -0.4704 1.2047 1.8246, -0.4704 1.2087 1.8246, -0.4684 1.2047 1.8232, -0.4684 1.2087 1.8232, -0.4648 1.2047 1.8216, -0.4648 1.2087 1.8216, -0.461 1.2047 1.8209, -0.461 1.2087 1.8209, -0.4599 1.2047 1.8209, -0.4599 1.2087 1.8209, -0.4539 1.2047 1.8217, -0.4539 1.2087 1.8217, -0.4504 1.2047 1.8228, -0.4504 1.2087 1.8228, -0.4504 1.2087 1.8079, -0.4504 1.2047 1.8079, -0.4554 1.2047 1.8069, -0.4554 1.2087 1.8069, -0.4612 1.2047 1.8066, -0.4612 1.2087 1.8066, -0.468 1.2047 1.8073, -0.468 1.2087 1.8073, -0.4738 1.2047 1.8095, -0.4745 1.2087 1.8098, -0.4745 1.2047 1.8098, -0.4804 1.2047 1.8139, -0.4804 1.2087 1.8139, -0.4816 1.2047 1.815, -0.4816 1.2087 1.815, -0.4877 1.2047 1.8224, -0.4877 1.2087 1.8224, -0.4952 1.2047 1.8371, -0.4952 1.2087 1.8371, -0.5005 1.2047 1.8503, -0.6283 1.2087 1.8667, -0.6283 1.2087 1.8515, -0.6283 1.2047 1.8667, -0.6283 1.2047 1.8515, -0.5737 1.2047 1.8667, -0.5737 1.2087 1.8667, -0.5987 1.2047 1.8667, -0.5737 1.2087 1.9116, -0.5737 1.2047 1.9116, -0.6214 1.2047 1.9116, -0.6214 1.2087 1.9116, -0.5987 1.2047 1.9116, -0.6214 1.2087 1.9269, -0.6214 1.2047 1.9269, -0.5737 1.2047 1.9269, -0.5737 1.2087 1.9269, -0.5987 1.2047 1.9269, -0.5737 1.2087 1.9696, -0.5737 1.2047 1.9696, -0.6252 1.2047 1.9696, -0.6252 1.2087 1.9696, -0.5987 1.2047 1.9696, -0.6252 1.2087 1.9849, -0.6252 1.2047 1.9849, -0.5565 1.2047 1.9849, -0.5565 1.2087 1.9849, -0.5987 1.2047 1.9849, -0.5565 1.2087 1.8515, -0.5565 1.2047 1.8515, -0.5987 1.2047 1.8515, -0.7364 1.2087 1.8888, -0.7298 1.2087 1.8806, -0.742 1.2087 1.8702, -0.7273 1.2087 1.8784, -0.7283 1.2087 1.8603, -0.7185 1.2087 1.8726, -0.7131 1.2087 1.8543, -0.707 1.2087 1.8685, -0.6902 1.2087 1.8515, -0.6901 1.2087 1.8667, -0.6535 1.2087 1.8515, -0.6707 1.2087 1.8667, -0.6535 1.2087 1.9849, -0.6707 1.2087 1.9696, -0.6915 1.2087 1.9849, -0.6909 1.2087 1.9696, -0.7119 1.2087 1.9827, -0.7081 1.2087 1.9677, -0.728 1.2087 1.9768, -0.7196 1.2087 1.9635, -0.742 1.2087 1.9672, -0.7294 1.2087 1.957, -0.7466 1.2087 1.9628, -0.7338 1.2087 1.9526, -0.7549 1.2087 1.9512, -0.7388 1.2087 1.9449, -0.7598 1.2087 1.9385, -0.7424 1.2087 1.9348, -0.7621 1.2087 1.9199, -0.744 1.2087 1.9194, -0.7617 1.2087 1.9114, -0.7436 1.2087 1.911, -0.7585 1.2087 1.8958, -0.741 1.2087 1.8987, -0.7519 1.2087 1.882, -0.6902 1.2047 1.8515, -0.6535 1.2047 1.8515, -0.7131 1.2047 1.8543, -0.7283 1.2047 1.8603, -0.742 1.2047 1.8702, -0.7519 1.2047 1.882, -0.7585 1.2047 1.8958, -0.7617 1.2047 1.9114, -0.7621 1.2047 1.9199, -0.7598 1.2047 1.9385, -0.7549 1.2047 1.9512, -0.7466 1.2047 1.9628, -0.742 1.2047 1.9672, -0.728 1.2047 1.9768, -0.7119 1.2047 1.9827, -0.6915 1.2047 1.9849, -0.6535 1.2047 1.9849, -0.6909 1.2047 1.9696, -0.6707 1.2047 1.9696, -0.6707 1.2047 1.8667, -0.6901 1.2047 1.8667, -0.7298 1.2047 1.8806, -0.7273 1.2047 1.8784, -0.7185 1.2047 1.8726, -0.707 1.2047 1.8685, -0.744 1.2047 1.9194, -0.7436 1.2047 1.911, -0.741 1.2047 1.8987, -0.7364 1.2047 1.8888, -0.7294 1.2047 1.957, -0.7338 1.2047 1.9526, -0.7388 1.2047 1.9449, -0.7424 1.2047 1.9348, -0.7081 1.2047 1.9677, -0.7196 1.2047 1.9635
            ]
        }
        coordIndex [
            0,1,2,-1,3,4,5,-1,3,5,6,-1,6,5,7,-1,6,7,2,-1,2,7,8,-1,2,8,0,-1,9,1,10,-1,10,1,0,-1,9,10,11,-1,11,10,12,-1,13,14,15,-1,15,14,11,-1,15,11,16,-1,16,11,12,-1,14,13,17,-1,17,13,18,-1,18,19,17,-1,17,19,20,-1,17,20,21,-1,21,20,22,-1,21,22,23,-1,23,22,24,-1,23,24,25,-1,25,24,26,-1,25,26,27,-1,27,26,28,-1,27,28,29,-1,29,28,30,-1,29,30,31,-1,31,30,32,-1,31,32,33,-1,33,32,34,-1,33,34,35,-1,35,34,36,-1,35,36,37,-1,37,36,38,-1,37,38,39,-1,39,38,40,-1,39,40,41,-1,41,40,42,-1,41,42,43,-1,43,42,44,-1,43,44,45,-1,45,44,46,-1,45,46,47,-1,47,46,48,-1,47,48,49,-1,49,48,50,-1,49,50,51,-1,51,50,52,-1,51,52,53,-1,53,52,54,-1,53,54,55,-1,55,54,56,-1,55,56,57,-1,57,56,58,-1,57,58,59,-1,59,58,60,-1,59,60,61,-1,61,60,62,-1,61,62,63,-1,63,62,64,-1,63,64,65,-1,65,64,66,-1,65,66,67,-1,67,66,68,-1,67,68,69,-1,69,68,70,-1,69,70,71,-1,71,70,72,-1,71,72,73,-1,73,72,74,-1,73,74,75,-1,76,75,77,-1,77,75,74,-1,76,77,78,-1,76,78,79,-1,79,78,80,-1,79,80,81,-1,81,80,82,-1,81,82,83,-1,83,82,84,-1,83,84,85,-1,85,84,86,-1,85,86,87,-1,87,86,88,-1,88,86,89,-1,89,90,88,-1,88,90,91,-1,88,91,92,-1,92,91,93,-1,92,93,94,-1,94,93,95,-1,94,95,96,-1,96,95,97,-1,96,97,98,-1,98,97,99,-1,98,99,100,-1,100,99,101,-1,100,101,102,-1,103,104,105,-1,102,101,106,-1,102,106,107,-1,107,106,108,-1,107,108,105,-1,105,108,109,-1,105,109,103,-1,104,103,110,-1,104,110,111,-1,111,110,112,-1,111,112,113,-1,113,112,114,-1,113,114,115,-1,115,114,116,-1,115,116,117,-1,117,116,118,-1,117,118,119,-1,119,118,120,-1,119,120,121,-1,121,120,122,-1,121,122,123,-1,123,122,124,-1,123,124,125,-1,125,124,126,-1,125,126,127,-1,127,126,128,-1,127,128,129,-1,129,128,130,-1,129,130,131,-1,131,130,132,-1,131,132,133,-1,133,132,134,-1,133,134,135,-1,135,134,4,-1,135,4,3,-1,59,61,87,-1,87,61,85,-1,85,61,63,-1,85,63,83,-1,125,25,27,-1,111,43,104,-1,104,43,45,-1,125,27,123,-1,123,27,29,-1,123,29,121,-1,121,29,31,-1,121,31,119,-1,119,31,33,-1,119,33,117,-1,117,33,35,-1,117,35,115,-1,115,35,37,-1,115,37,113,-1,113,37,39,-1,113,39,111,-1,111,39,41,-1,111,41,43,-1,25,125,23,-1,23,125,127,-1,23,127,21,-1,14,3,11,-1,11,3,6,-1,11,6,9,-1,9,6,2,-1,9,2,1,-1,63,65,83,-1,83,65,67,-1,83,67,81,-1,81,67,69,-1,81,69,79,-1,79,69,71,-1,79,71,76,-1,76,71,73,-1,76,73,75,-1,127,129,21,-1,21,129,131,-1,21,131,17,-1,17,131,133,-1,17,133,14,-1,14,133,135,-1,14,135,3,-1,87,88,59,-1,59,88,92,-1,59,92,57,-1,57,92,94,-1,57,94,55,-1,55,94,96,-1,55,96,53,-1,53,96,98,-1,53,98,51,-1,51,98,100,-1,51,100,49,-1,49,100,102,-1,49,102,47,-1,47,102,107,-1,47,107,45,-1,45,107,105,-1,45,105,104,-1,136,137,138,-1,138,137,139,-1,140,136,141,-1,141,136,138,-1,140,141,142,-1,140,142,143,-1,143,142,144,-1,143,144,145,-1,146,145,147,-1,147,145,144,-1,148,146,149,-1,149,146,147,-1,150,151,152,-1,152,151,148,-1,152,148,149,-1,153,151,154,-1,154,151,150,-1,155,156,157,-1,157,156,153,-1,157,153,154,-1,158,159,160,-1,160,159,156,-1,160,156,155,-1,158,161,159,-1,159,161,162,-1,161,163,162,-1,162,163,164,-1,162,164,165,-1,165,164,166,-1,165,166,167,-1,167,166,168,-1,167,168,169,-1,169,168,170,-1,169,170,171,-1,171,170,172,-1,171,172,173,-1,173,172,174,-1,173,174,175,-1,175,174,176,-1,175,176,177,-1,178,177,179,-1,179,177,176,-1,178,179,180,-1,178,180,181,-1,181,180,182,-1,181,182,183,-1,183,182,184,-1,183,184,185,-1,185,184,186,-1,185,186,187,-1,186,188,187,-1,187,188,189,-1,187,189,190,-1,190,189,191,-1,190,191,192,-1,192,191,193,-1,192,193,194,-1,194,193,195,-1,194,195,196,-1,139,137,197,-1,197,137,196,-1,197,196,195,-1,143,145,196,-1,137,136,196,-1,196,136,140,-1,196,140,143,-1,151,153,148,-1,148,153,156,-1,148,156,146,-1,165,167,187,-1,183,173,181,-1,181,173,175,-1,181,175,178,-1,178,175,177,-1,145,146,196,-1,196,146,156,-1,196,156,194,-1,187,167,185,-1,185,167,169,-1,185,169,183,-1,183,169,171,-1,183,171,173,-1,156,159,194,-1,194,159,162,-1,194,162,192,-1,192,162,165,-1,192,165,190,-1,190,165,187,-1,198,199,200,-1,200,199,201,-1,202,203,204,-1,204,203,198,-1,204,198,200,-1,205,203,206,-1,206,203,202,-1,207,208,209,-1,209,208,205,-1,209,205,206,-1,210,208,211,-1,211,208,207,-1,212,213,214,-1,214,213,210,-1,214,210,211,-1,215,213,216,-1,216,213,212,-1,217,218,219,-1,219,218,215,-1,219,215,216,-1,220,218,221,-1,221,218,217,-1,222,223,224,-1,224,223,220,-1,224,220,221,-1,225,223,226,-1,226,223,222,-1,201,199,227,-1,227,199,225,-1,227,225,226,-1,208,210,205,-1,205,210,213,-1,199,198,225,-1,225,198,203,-1,218,220,215,-1,215,220,223,-1,215,223,213,-1,213,223,225,-1,213,225,205,-1,205,225,203,-1,228,229,230,-1,230,229,231,-1,230,231,232,-1,232,231,233,-1,232,233,234,-1,234,233,235,-1,234,235,236,-1,236,235,237,-1,236,237,238,-1,238,237,239,-1,238,239,240,-1,240,239,241,-1,240,241,242,-1,242,241,243,-1,242,243,244,-1,244,243,245,-1,244,245,246,-1,246,245,247,-1,246,247,248,-1,248,247,249,-1,248,249,250,-1,250,249,251,-1,250,251,252,-1,252,251,253,-1,252,253,254,-1,254,253,255,-1,254,255,256,-1,256,255,257,-1,256,257,258,-1,258,257,259,-1,258,259,260,-1,260,259,261,-1,260,261,262,-1,262,261,228,-1,262,228,230,-1,236,238,263,-1,263,238,264,-1,236,263,265,-1,236,265,234,-1,234,265,266,-1,234,266,232,-1,232,266,267,-1,232,267,230,-1,230,267,268,-1,230,268,262,-1,262,268,269,-1,262,269,260,-1,260,269,270,-1,260,270,258,-1,258,270,271,-1,258,271,256,-1,256,271,272,-1,256,272,254,-1,254,272,273,-1,254,273,252,-1,252,273,274,-1,252,274,250,-1,250,274,275,-1,250,275,248,-1,248,275,276,-1,248,276,246,-1,246,276,277,-1,246,277,244,-1,244,277,278,-1,244,278,242,-1,240,242,279,-1,279,242,278,-1,238,240,264,-1,264,240,279,-1,243,241,280,-1,280,241,281,-1,241,239,281,-1,281,239,282,-1,239,237,282,-1,282,237,283,-1,229,284,285,-1,229,285,231,-1,231,285,286,-1,231,286,233,-1,233,286,287,-1,233,287,235,-1,235,287,283,-1,235,283,237,-1,257,288,289,-1,257,289,259,-1,259,289,290,-1,259,290,261,-1,261,290,291,-1,261,291,228,-1,228,291,284,-1,228,284,229,-1,249,292,293,-1,249,293,251,-1,251,293,294,-1,251,294,253,-1,253,294,295,-1,253,295,255,-1,255,295,288,-1,255,288,257,-1,243,280,296,-1,243,296,245,-1,245,296,297,-1,245,297,247,-1,247,297,292,-1,247,292,249,-1,
        ]
    }
}
Shape{
    appearance Appearance {
        material  Material 	{
            diffuseColor 1.0 1.0 1.0
            specularColor 0.5019607843137255 0.5019607843137255 0.5019607843137255
            ambientIntensity 1.0
            transparency 0.0
            shininess 0.5
        }
    }
    geometry IndexedFaceSet {
        ccw TRUE
        solid FALSE
        coord DEF co Coordinate {
            point [
                -0.6707 1.2047 1.9696, -0.6707 1.2047 1.8667, -0.6909 1.2047 1.9696, -0.6901 1.2047 1.8667, -0.707 1.2047 1.8685, -0.7185 1.2047 1.8726, -0.7273 1.2047 1.8784, -0.7298 1.2047 1.8806, -0.7364 1.2047 1.8888, -0.741 1.2047 1.8987, -0.7436 1.2047 1.911, -0.744 1.2047 1.9194, -0.7424 1.2047 1.9348, -0.7388 1.2047 1.9449, -0.7338 1.2047 1.9526, -0.7294 1.2047 1.957, -0.7081 1.2047 1.9677, -0.7196 1.2047 1.9635
            ]
        }
        coordIndex [
            0,1,2,-1,2,1,3,-1,2,3,4,-1,4,5,2,-1,2,5,6,-1,2,6,7,-1,7,8,2,-1,2,8,9,-1,2,9,10,-1,10,11,2,-1,2,11,12,-1,2,12,13,-1,13,14,2,-1,2,14,15,-1,2,15,16,-1,16,15,17,-1,
        ]
    }
}
Shape{
    appearance Appearance {
        material  Material 	{
            diffuseColor 0.0 0.0 0.0
            specularColor 0.0 0.0 0.0
            ambientIntensity 0.0
            transparency 0.0
            shininess 0.5
        }
    }
    geometry IndexedFaceSet {
        ccw TRUE
        solid FALSE
        coord DEF co Coordinate {
            point [
                -0.8068 1.2087 1.903, -0.8268 1.2087 1.9585, -0.8204 1.2087 1.9849, -0.7695 1.2087 1.8515, -0.7886 1.2087 1.8515, -0.8014 1.2087 1.888, -0.828 1.2087 1.9625, -0.829 1.2087 1.9679, -0.8388 1.2087 1.9849, -0.8294 1.2087 1.9679, -0.8305 1.2087 1.9622, -0.8315 1.2087 1.9585, -0.8516 1.2087 1.903, -0.8896 1.2087 1.8515, -0.8706 1.2087 1.8515, -0.857 1.2087 1.888, -0.8388 1.2047 1.9849, -0.8896 1.2047 1.8515, -0.8204 1.2047 1.9849, -0.7695 1.2047 1.8515, -0.7886 1.2047 1.8515, -0.8014 1.2047 1.888, -0.857 1.2047 1.888, -0.8706 1.2047 1.8515, -0.8068 1.2047 1.903, -0.8516 1.2047 1.903, -0.8315 1.2047 1.9585, -0.8294 1.2047 1.9679, -0.8305 1.2047 1.9622, -0.829 1.2047 1.9679, -0.8268 1.2047 1.9585, -0.828 1.2047 1.9625
            ]
        }
        coordIndex [
            0,1,2,-1,3,4,5,-1,1,6,2,-1,2,6,7,-1,2,7,8,-1,8,7,9,-1,8,9,10,-1,10,11,8,-1,8,11,12,-1,8,12,13,-1,14,13,15,-1,15,13,12,-1,15,12,5,-1,5,12,0,-1,5,0,3,-1,3,0,2,-1,8,13,16,-1,16,13,17,-1,2,8,18,-1,18,8,16,-1,3,2,19,-1,19,2,18,-1,4,3,20,-1,20,3,19,-1,5,4,21,-1,21,4,20,-1,15,5,22,-1,22,5,21,-1,14,15,23,-1,23,15,22,-1,13,14,17,-1,17,14,23,-1,0,12,24,-1,24,12,25,-1,12,11,25,-1,25,11,26,-1,9,27,28,-1,9,28,10,-1,10,28,26,-1,10,26,11,-1,9,7,27,-1,27,7,29,-1,1,30,31,-1,1,31,6,-1,6,31,29,-1,6,29,7,-1,1,0,30,-1,30,0,24,-1,
        ]
    }
}
Shape{
    appearance Appearance {
        material  Material 	{
            diffuseColor 1.0 1.0 1.0
            specularColor 0.5019607843137255 0.5019607843137255 0.5019607843137255
            ambientIntensity 1.0
            transparency 0.0
            shininess 0.5
        }
    }
    geometry IndexedFaceSet {
        ccw TRUE
        solid FALSE
        coord DEF co Coordinate {
            point [
                -0.8294 1.2047 1.9679, -0.829 1.2047 1.9679, -0.8305 1.2047 1.9622, -0.828 1.2047 1.9625, -0.8315 1.2047 1.9585, -0.8268 1.2047 1.9585, -0.8516 1.2047 1.903, -0.8068 1.2047 1.903
            ]
        }
        coordIndex [
            0,1,2,-1,2,1,3,-1,2,3,4,-1,4,3,5,-1,4,5,6,-1,6,5,7,-1,
        ]
    }
}
Shape{
    appearance Appearance {
        material  Material 	{
            diffuseColor 0.0 0.0 0.0
            specularColor 0.0 0.0 0.0
            ambientIntensity 0.0
            transparency 0.0
            shininess 0.5
        }
    }
    geometry IndexedFaceSet {
        ccw TRUE
        solid FALSE
        coord DEF co Coordinate {
            point [
                0.4025 1.2087 1.8326, 0.3884 1.2087 1.8152, 0.411 1.2087 1.9165, 0.0941 1.2087 1.963, 0.1235 1.2087 2.0132, 0.2507 1.2087 1.9468, 0.3164 1.2087 1.9188, 0.3074 1.2087 1.916, 0.4273 1.2087 2.0815, 0.4062 1.2087 2.0926, 0.4115 1.2087 2.1509, 0.374 1.2087 2.1556, 0.2996 1.2087 1.9111, 0.2932 1.2087 1.9045, 0.2269 1.2087 1.8927, 0.3522 1.2087 2.1537, 0.3228 1.2087 2.0844, 0.3104 1.2087 2.111, 0.4316 1.2087 1.9292, 0.4241 1.2087 1.8565, 0.412 1.2087 1.8529, 0.2888 1.2087 1.8969, 0.2862 1.2087 1.8883, 0.2269 1.2087 1.8833, 0.2859 1.2087 1.8791, 0.3318 1.2087 1.9182, 0.3444 1.2087 1.9763, 0.3401 1.2087 1.915, 0.3654 1.2087 1.9683, 0.3475 1.2087 1.9098, 0.3848 1.2087 1.9549, 0.3521 1.2087 1.9049, 0.4005 1.2087 1.9369, 0.3568 1.2087 1.8969, 0.3594 1.2087 1.8879, 0.2873 1.2087 1.9727, 0.3102 1.2087 1.9784, 0.3218 1.2087 1.9791, 0.3327 1.2087 2.1763, 0.29 1.2087 2.137, 0.3104 1.2087 2.1954, 0.264 1.2087 2.157, 0.2874 1.2087 2.2097, 0.3827 1.2087 2.0981, 0.3731 1.2087 2.0986, 0.3631 1.2087 2.155, 0.3511 1.2087 2.096, 0.3298 1.2087 2.0882, 0.3477 1.2087 1.855, 0.3402 1.2087 1.8497, 0.3698 1.2087 1.8012, 0.3314 1.2087 1.8463, 0.0628 1.2087 2.0569, 0.0552 1.2087 2.0569, 0.0163 1.2087 2.1081, 0.0372 1.2087 2.0547, 0.0086 1.2087 2.1054, 0.0207 1.2087 2.0483, -0.0193 1.2087 2.0907, 0.0059 1.2087 2.038, -0.0445 1.2087 2.0684, -0.0052 1.2087 2.0257, -0.0632 1.2087 2.041, -0.0139 1.2087 2.0093, -0.0741 1.2087 2.0118, -0.0184 1.2087 1.991, -0.0776 1.2087 1.9838, -0.0188 1.2087 1.9829, -0.0775 1.2087 1.9775, -0.0165 1.2087 1.9645, 0.103 1.2087 1.8514, 0.0998 1.2087 1.851, 0.0922 1.2087 1.9089, 0.2436 1.2087 2.2266, 0.2333 1.2087 2.1702, 0.1966 1.2087 2.2324, 0.0675 1.2087 2.1831, 0.0965 1.2087 2.1312, 0.0364 1.2087 2.1472, 0.0773 1.2087 2.1038, 0.0654 1.2087 2.072, 0.4651 1.2087 2.0267, 0.5275 1.2087 2.0107, 0.4679 1.2087 2.0038, 0.5277 1.2087 2.0019, 0.4668 1.2087 1.9893, 0.5231 1.2087 1.9644, 0.4601 1.2087 1.9661, 0.5094 1.2087 1.9291, 0.4487 1.2087 1.9466, 0.4879 1.2087 1.8984, 0.4584 1.2087 1.8733, 0.3228 1.2087 1.9193, 0.2672 1.2087 1.9619, 0.0495 1.2087 1.9089, 0.0438 1.2087 1.851, 0.0326 1.2087 1.9121, 0.0155 1.2087 1.8566, 0.0159 1.2087 1.9198, -0.0137 1.2087 1.8699, 0.0018 1.2087 1.9313, -0.0388 1.2087 1.8898, 0.0004 1.2087 1.9327, -0.0425 1.2087 1.8937, -0.01 1.2087 1.9475, -0.0596 1.2087 1.9168, -0.0723 1.2087 1.9465, 0.4467 1.2087 2.1372, 0.4768 1.2087 2.116, 0.4439 1.2087 2.0667, 0.4831 1.2087 2.11, 0.457 1.2087 2.0478, 0.5061 1.2087 2.0806, 0.5212 1.2087 2.0464, 0.3537 1.2087 1.8619, 0.3576 1.2087 1.8698, 0.3596 1.2087 1.8786, 0.2018 1.2087 2.1754, 0.1956 1.2087 2.1755, 0.1575 1.2087 2.2283, 0.1671 1.2087 2.1724, 0.1099 1.2087 2.2115, 0.1371 1.2087 2.1618, 0.11 1.2087 2.1442, 0.348 1.2087 1.792, 0.3256 1.2087 1.7884, 0.3228 1.2087 1.8453, 0.3218 1.2087 1.7884, 0.3137 1.2087 1.8464, 0.2989 1.2087 1.7912, 0.3054 1.2087 1.8496, 0.2778 1.2087 1.7993, 0.2982 1.2087 1.8547, 0.2588 1.2087 1.8124, 0.2921 1.2087 1.8616, 0.2441 1.2087 1.829, 0.2879 1.2087 1.8699, 0.2329 1.2087 1.8502, 0.2274 1.2087 1.8736, 0.1272 1.2087 1.8835, 0.1273 1.2087 1.8804, 0.097 1.2087 1.9098, 0.1266 1.2087 1.874, 0.1242 1.2087 1.8675, 0.1203 1.2087 1.8615, 0.1159 1.2087 1.8573, 0.0941 1.2087 1.9091, 0.1094 1.2087 1.8533, 0.0979 1.2087 1.9098, 0.1044 1.2087 1.9091, 0.111 1.2087 1.9067, 0.1169 1.2087 1.9028, 0.1219 1.2087 1.8973, 0.1254 1.2087 1.8907, -0.0776 1.2047 1.9838, -0.0741 1.2047 2.0118, -0.0699 1.2047 2.0229, -0.0632 1.2047 2.041, -0.0445 1.2047 2.0684, -0.0193 1.2047 2.0907, 0.0086 1.2047 2.1054, 0.0163 1.2047 2.1081, 0.0364 1.2047 2.1472, 0.0675 1.2047 2.1831, 0.0893 1.2047 2.1977, 0.1099 1.2047 2.2115, 0.1575 1.2047 2.2283, 0.1966 1.2047 2.2324, 0.2436 1.2047 2.2266, 0.2874 1.2047 2.2097, 0.3067 1.2047 2.1977, 0.3104 1.2047 2.1954, 0.3327 1.2047 2.1763, 0.3522 1.2047 2.1537, 0.3631 1.2047 2.155, 0.374 1.2047 2.1556, 0.4115 1.2047 2.1509, 0.4467 1.2047 2.1372, 0.4768 1.2047 2.116, 0.4831 1.2047 2.11, 0.5277 1.2047 2.0019, 0.5061 1.2047 2.0806, 0.5212 1.2047 2.0464, 0.5253 1.2047 2.0229, 0.5275 1.2047 2.0107, 0.5231 1.2047 1.9644, 0.5094 1.2047 1.9291, 0.4879 1.2047 1.8984, 0.4584 1.2047 1.8733, 0.4241 1.2047 1.8565, 0.412 1.2047 1.8529, 0.4108 1.2047 1.8503, 0.4025 1.2047 1.8326, 0.3884 1.2047 1.8152, 0.3698 1.2047 1.8012, 0.3611 1.2047 1.7975, 0.348 1.2047 1.792, 0.3256 1.2047 1.7884, 0.3218 1.2047 1.7884, 0.2269 1.2047 1.8833, 0.2989 1.2047 1.7912, 0.2825 1.2047 1.7975, 0.2778 1.2047 1.7993, 0.2588 1.2047 1.8124, 0.2441 1.2047 1.829, 0.2329 1.2047 1.8502, 0.2329 1.2047 1.8503, 0.2274 1.2047 1.8736, 0.2269 1.2047 1.8927, 0.0941 1.2047 1.963, 0.1235 1.2047 2.0132, 0.2507 1.2047 1.9468, 0.2672 1.2047 1.9619, 0.2873 1.2047 1.9727, 0.3102 1.2047 1.9784, 0.3218 1.2047 1.9791, 0.3444 1.2047 1.9763, 0.3654 1.2047 1.9683, 0.3848 1.2047 1.9549, 0.4005 1.2047 1.9369, 0.411 1.2047 1.9165, 0.4316 1.2047 1.9292, 0.4487 1.2047 1.9466, 0.4601 1.2047 1.9661, 0.4668 1.2047 1.9893, 0.4679 1.2047 2.0038, 0.4656 1.2047 2.0229, 0.4651 1.2047 2.0267, 0.457 1.2047 2.0478, 0.4439 1.2047 2.0667, 0.4273 1.2047 2.0815, 0.4062 1.2047 2.0926, 0.3827 1.2047 2.0981, 0.3731 1.2047 2.0986, 0.3511 1.2047 2.096, 0.3298 1.2047 2.0882, 0.3228 1.2047 2.0844, 0.3104 1.2047 2.111, 0.29 1.2047 2.137, 0.264 1.2047 2.157, 0.2333 1.2047 2.1702, 0.2018 1.2047 2.1754, 0.1956 1.2047 2.1755, 0.1671 1.2047 2.1724, 0.1371 1.2047 2.1618, 0.11 1.2047 2.1442, 0.0965 1.2047 2.1312, 0.0773 1.2047 2.1038, 0.0654 1.2047 2.072, 0.0628 1.2047 2.0569, 0.0552 1.2047 2.0569, 0.0372 1.2047 2.0547, 0.0207 1.2047 2.0483, 0.0059 1.2047 2.038, -0.0052 1.2047 2.0257, -0.0066 1.2047 2.0229, -0.0139 1.2047 2.0093, -0.0184 1.2047 1.991, -0.0188 1.2047 1.9829, -0.0165 1.2047 1.9645, -0.01 1.2047 1.9475, 0.0004 1.2047 1.9327, 0.0018 1.2047 1.9313, 0.0159 1.2047 1.9198, 0.0326 1.2047 1.9121, 0.0495 1.2047 1.9089, 0.0922 1.2047 1.9089, 0.0941 1.2047 1.9091, 0.097 1.2047 1.9098, 0.0979 1.2047 1.9098, 0.1044 1.2047 1.9091, 0.111 1.2047 1.9067, 0.1169 1.2047 1.9028, 0.1219 1.2047 1.8973, 0.1254 1.2047 1.8907, 0.1272 1.2047 1.8835, 0.1273 1.2047 1.8804, 0.1266 1.2047 1.874, 0.1242 1.2047 1.8675, 0.1203 1.2047 1.8615, 0.1159 1.2047 1.8573, 0.1094 1.2047 1.8533, 0.103 1.2047 1.8514, 0.0998 1.2047 1.851, 0.0438 1.2047 1.851, 0.0155 1.2047 1.8566, -0.0137 1.2047 1.8699, -0.0388 1.2047 1.8898, -0.0425 1.2047 1.8937, -0.0596 1.2047 1.9168, -0.0723 1.2047 1.9465, -0.0775 1.2047 1.9775, 0.3228 1.2047 1.9193, 0.3164 1.2047 1.9188, 0.3074 1.2047 1.916, 0.2996 1.2047 1.9111, 0.2932 1.2047 1.9045, 0.2888 1.2047 1.8969, 0.2862 1.2047 1.8883, 0.2859 1.2047 1.8791, 0.2879 1.2047 1.8699, 0.2921 1.2047 1.8616, 0.2982 1.2047 1.8547, 0.3054 1.2047 1.8496, 0.3137 1.2047 1.8464, 0.3228 1.2047 1.8453, 0.3314 1.2047 1.8463, 0.3402 1.2047 1.8497, 0.3477 1.2047 1.855, 0.3537 1.2047 1.8619, 0.3576 1.2047 1.8698, 0.3596 1.2047 1.8786, 0.3594 1.2047 1.8879, 0.3568 1.2047 1.8969, 0.3521 1.2047 1.9049, 0.3475 1.2047 1.9098, 0.3401 1.2047 1.915, 0.3318 1.2047 1.9182
            ]
        }
        coordIndex [
            0,1,2,-1,3,4,5,-1,6,7,3,-1,8,9,10,-1,10,9,11,-1,7,12,3,-1,3,12,13,-1,3,13,14,-1,15,16,17,-1,18,19,2,-1,2,19,20,-1,2,20,0,-1,13,21,14,-1,14,21,22,-1,14,22,23,-1,23,22,24,-1,25,26,27,-1,27,26,28,-1,27,28,29,-1,29,28,30,-1,29,30,31,-1,31,30,32,-1,31,32,33,-1,33,32,2,-1,33,2,34,-1,35,36,25,-1,25,36,37,-1,25,37,26,-1,15,17,38,-1,38,17,39,-1,38,39,40,-1,40,39,41,-1,40,41,42,-1,9,43,11,-1,11,43,44,-1,11,44,45,-1,45,44,46,-1,45,46,15,-1,15,46,47,-1,15,47,16,-1,48,1,49,-1,49,1,50,-1,49,50,51,-1,52,53,54,-1,54,53,55,-1,54,55,56,-1,56,55,57,-1,56,57,58,-1,58,57,59,-1,58,59,60,-1,60,59,61,-1,60,61,62,-1,62,61,63,-1,62,63,64,-1,64,63,65,-1,64,65,66,-1,66,65,67,-1,66,67,68,-1,68,67,69,-1,70,71,72,-1,42,41,73,-1,73,41,74,-1,73,74,75,-1,76,77,78,-1,78,77,79,-1,78,79,54,-1,54,79,80,-1,54,80,52,-1,81,82,83,-1,83,82,84,-1,83,84,85,-1,85,84,86,-1,85,86,87,-1,87,86,88,-1,87,88,89,-1,89,88,90,-1,89,90,18,-1,18,90,91,-1,18,91,19,-1,6,3,92,-1,92,3,5,-1,92,5,25,-1,25,5,93,-1,25,93,35,-1,72,71,94,-1,94,71,95,-1,94,95,96,-1,96,95,97,-1,96,97,98,-1,98,97,99,-1,98,99,100,-1,100,99,101,-1,100,101,102,-1,102,101,103,-1,102,103,104,-1,104,103,105,-1,104,105,69,-1,69,105,106,-1,69,106,68,-1,10,107,8,-1,8,107,108,-1,8,108,109,-1,109,108,110,-1,109,110,111,-1,111,110,112,-1,111,112,81,-1,81,112,113,-1,81,113,82,-1,48,114,1,-1,1,114,115,-1,1,115,2,-1,2,115,116,-1,2,116,34,-1,74,117,75,-1,75,117,118,-1,75,118,119,-1,119,118,120,-1,119,120,121,-1,121,120,122,-1,121,122,76,-1,76,122,123,-1,76,123,77,-1,50,124,51,-1,51,124,125,-1,51,125,126,-1,126,125,127,-1,126,127,128,-1,128,127,129,-1,128,129,130,-1,130,129,131,-1,130,131,132,-1,132,131,133,-1,132,133,134,-1,134,133,135,-1,134,135,136,-1,136,135,137,-1,136,137,24,-1,24,137,138,-1,24,138,23,-1,139,140,141,-1,141,140,142,-1,142,143,141,-1,141,143,144,-1,141,144,145,-1,72,146,70,-1,70,146,141,-1,70,141,147,-1,147,141,145,-1,141,148,139,-1,139,148,149,-1,139,149,150,-1,150,151,139,-1,139,151,152,-1,139,152,153,-1,66,154,155,-1,66,155,64,-1,64,155,156,-1,64,156,62,-1,156,157,62,-1,62,157,158,-1,62,158,60,-1,60,158,159,-1,60,159,58,-1,58,159,160,-1,58,160,56,-1,56,160,161,-1,56,161,54,-1,54,161,162,-1,54,162,78,-1,78,162,163,-1,78,163,76,-1,121,76,164,-1,164,76,163,-1,164,165,121,-1,121,165,166,-1,121,166,119,-1,119,166,167,-1,119,167,75,-1,75,167,168,-1,75,168,73,-1,73,168,169,-1,73,169,42,-1,42,169,40,-1,40,169,170,-1,40,170,171,-1,40,171,172,-1,40,172,38,-1,38,172,173,-1,38,173,15,-1,15,173,174,-1,15,174,45,-1,45,174,175,-1,45,175,11,-1,11,175,176,-1,11,176,10,-1,10,176,177,-1,10,177,107,-1,107,177,178,-1,107,178,108,-1,108,178,179,-1,108,179,110,-1,180,84,82,-1,110,179,181,-1,110,181,112,-1,112,181,182,-1,112,182,113,-1,113,182,183,-1,113,183,82,-1,82,183,184,-1,82,184,180,-1,84,180,185,-1,84,185,86,-1,86,185,186,-1,86,186,88,-1,88,186,187,-1,88,187,90,-1,90,187,188,-1,90,188,91,-1,91,188,189,-1,91,189,19,-1,19,189,190,-1,19,190,20,-1,20,190,191,-1,20,191,0,-1,191,192,0,-1,0,192,193,-1,0,193,1,-1,1,193,194,-1,1,194,50,-1,50,194,195,-1,50,195,124,-1,195,196,124,-1,124,196,197,-1,124,197,125,-1,125,197,198,-1,125,198,127,-1,199,23,138,-1,127,198,200,-1,201,131,200,-1,200,131,129,-1,200,129,127,-1,201,202,131,-1,131,202,203,-1,131,203,133,-1,133,203,204,-1,133,204,135,-1,135,204,205,-1,135,205,137,-1,137,205,206,-1,137,206,138,-1,138,206,207,-1,138,207,199,-1,14,23,208,-1,208,23,199,-1,3,14,209,-1,209,14,208,-1,4,3,210,-1,210,3,209,-1,5,4,211,-1,211,4,210,-1,5,211,212,-1,5,212,93,-1,93,212,213,-1,93,213,35,-1,35,213,214,-1,35,214,36,-1,36,214,215,-1,36,215,37,-1,37,215,216,-1,37,216,26,-1,26,216,217,-1,26,217,28,-1,28,217,218,-1,28,218,30,-1,30,218,219,-1,30,219,32,-1,32,219,220,-1,32,220,2,-1,2,220,221,-1,2,221,18,-1,18,221,222,-1,18,222,89,-1,89,222,223,-1,89,223,87,-1,87,223,224,-1,87,224,85,-1,85,224,225,-1,85,225,83,-1,83,225,81,-1,81,225,226,-1,226,227,81,-1,81,227,228,-1,81,228,111,-1,111,228,229,-1,111,229,109,-1,109,229,230,-1,109,230,8,-1,8,230,231,-1,8,231,9,-1,9,231,232,-1,9,232,43,-1,43,232,233,-1,43,233,44,-1,44,233,234,-1,44,234,46,-1,46,234,235,-1,46,235,47,-1,47,235,236,-1,47,236,16,-1,16,236,237,-1,16,237,17,-1,17,237,238,-1,17,238,39,-1,39,238,239,-1,39,239,41,-1,41,239,240,-1,41,240,74,-1,74,240,241,-1,74,241,117,-1,117,241,242,-1,117,242,118,-1,118,242,243,-1,118,243,120,-1,120,243,244,-1,120,244,122,-1,122,244,245,-1,122,245,123,-1,123,245,246,-1,123,246,77,-1,77,246,247,-1,77,247,79,-1,79,247,248,-1,79,248,80,-1,80,248,249,-1,80,249,52,-1,53,52,250,-1,250,52,249,-1,53,250,251,-1,53,251,55,-1,55,251,252,-1,55,252,57,-1,57,252,253,-1,57,253,59,-1,59,253,254,-1,59,254,61,-1,61,254,255,-1,61,255,63,-1,255,256,63,-1,63,256,257,-1,63,257,65,-1,65,257,258,-1,65,258,67,-1,67,258,259,-1,67,259,69,-1,69,259,260,-1,69,260,104,-1,104,260,261,-1,104,261,102,-1,102,261,262,-1,102,262,100,-1,100,262,263,-1,100,263,98,-1,98,263,264,-1,98,264,96,-1,96,264,265,-1,96,265,94,-1,72,94,266,-1,266,94,265,-1,72,266,267,-1,72,267,146,-1,146,267,268,-1,146,268,141,-1,141,268,269,-1,141,269,148,-1,148,269,270,-1,148,270,149,-1,149,270,271,-1,149,271,150,-1,150,271,272,-1,150,272,151,-1,151,272,273,-1,151,273,152,-1,152,273,274,-1,152,274,153,-1,153,274,275,-1,153,275,139,-1,139,275,276,-1,139,276,140,-1,140,276,277,-1,140,277,142,-1,142,277,278,-1,142,278,143,-1,143,278,279,-1,143,279,144,-1,144,279,280,-1,144,280,145,-1,145,280,281,-1,145,281,147,-1,147,281,282,-1,147,282,70,-1,70,282,283,-1,70,283,71,-1,95,71,284,-1,284,71,283,-1,95,284,285,-1,95,285,97,-1,97,285,286,-1,97,286,99,-1,99,286,287,-1,99,287,101,-1,101,287,288,-1,101,288,103,-1,103,288,289,-1,103,289,105,-1,105,289,290,-1,105,290,106,-1,106,290,291,-1,106,291,68,-1,68,291,154,-1,68,154,66,-1,92,292,293,-1,92,293,6,-1,6,293,294,-1,6,294,7,-1,7,294,295,-1,7,295,12,-1,12,295,296,-1,12,296,13,-1,13,296,297,-1,13,297,21,-1,21,297,298,-1,21,298,22,-1,22,298,299,-1,22,299,24,-1,24,299,300,-1,24,300,136,-1,136,300,301,-1,136,301,134,-1,134,301,302,-1,134,302,132,-1,132,302,303,-1,132,303,130,-1,130,303,304,-1,130,304,128,-1,128,304,305,-1,128,305,126,-1,126,305,306,-1,126,306,51,-1,51,306,307,-1,51,307,49,-1,49,307,308,-1,49,308,48,-1,48,308,309,-1,48,309,114,-1,114,309,310,-1,114,310,115,-1,115,310,311,-1,115,311,116,-1,116,311,312,-1,116,312,34,-1,34,312,313,-1,34,313,33,-1,33,313,314,-1,33,314,31,-1,31,314,315,-1,31,315,29,-1,29,315,316,-1,29,316,27,-1,27,316,317,-1,27,317,25,-1,25,317,292,-1,25,292,92,-1,
        ]
    }
}
Shape{
    appearance Appearance {
        material  Material 	{
            diffuseColor 1.0 1.0 1.0
            specularColor 0.5019607843137255 0.5019607843137255 0.5019607843137255
            ambientIntensity 1.0
            transparency 0.0
            shininess 0.5
        }
    }
    geometry IndexedFaceSet {
        ccw TRUE
        solid FALSE
        coord DEF co Coordinate {
            point [
                0.3228 1.2047 1.8453, 0.3475 1.2047 1.9098, 0.3521 1.2047 1.9049, 0.3228 1.2047 1.9193, 0.3164 1.2047 1.9188, 0.3137 1.2047 1.8464, 0.3318 1.2047 1.9182, 0.3401 1.2047 1.915, 0.2982 1.2047 1.8547, 0.2932 1.2047 1.9045, 0.2996 1.2047 1.9111, 0.3576 1.2047 1.8698, 0.3537 1.2047 1.8619, 0.3477 1.2047 1.855, 0.3054 1.2047 1.8496, 0.3074 1.2047 1.916, 0.3568 1.2047 1.8969, 0.3594 1.2047 1.8879, 0.3596 1.2047 1.8786, 0.3402 1.2047 1.8497, 0.3314 1.2047 1.8463, 0.2879 1.2047 1.8699, 0.2859 1.2047 1.8791, 0.2921 1.2047 1.8616, 0.2862 1.2047 1.8883, 0.2888 1.2047 1.8969
            ]
        }
        coordIndex [
            0,1,2,-1,3,0,4,-1,4,0,5,-1,3,6,0,-1,0,6,7,-1,0,7,1,-1,8,9,10,-1,11,12,2,-1,2,12,13,-1,5,14,4,-1,4,14,8,-1,4,8,15,-1,15,8,10,-1,16,17,2,-1,2,17,18,-1,2,18,11,-1,13,19,2,-1,2,19,20,-1,2,20,0,-1,21,22,23,-1,23,22,24,-1,23,24,8,-1,8,24,25,-1,8,25,9,-1,
        ]
    }
}